<svg id="Layer_1" xmlns="http://www.w3.org/2000/svg" viewBox="0 0 38 30"><style>.st0{fill:#fff}.st1{fill:none;stroke:#fff;stroke-width:2;stroke-miterlimit:10}</style><g id="hand"><g id="mobile_main-copy" transform="translate(-148 -460)"><path id="Fill-1" class="st0" d="M169.6 490h7.8c4.8 0 8.6-3.9 8.6-8.7v-7.8c0-1.8-1.5-3.3-3.3-3.3-.5 0-1 .1-1.4.3-.3-1.5-1.6-2.7-3.2-2.7-.5 0-1 .1-1.4.3-.4-1.4-1.7-2.5-3.2-2.5-.5 0-.9.1-1.3.3v-2.5c0-1.8-1.5-3.3-3.3-3.3-1.8 0-3.3 1.5-3.3 3.3v8.1c-.4-.2-.8-.3-1.3-.3-1.8 0-3.3 1.5-3.3 3.3v6.8c0 4.8 3.9 8.7 8.6 8.7zm0-2c-3.7 0-6.6-3-6.6-6.7v-6.8c0-.7.6-1.3 1.3-1.3.7 0 1.3.6 1.3 1.3v5.3h2v-16.5c0-.7.6-1.3 1.3-1.3.7 0 1.3.6 1.3 1.3v10.2h2v-4.6c0-.7.6-1.3 1.3-1.3s1.3.6 1.3 1.3v4.6h2v-2.4c0-.7.6-1.3 1.3-1.3.7 0 1.3.6 1.3 1.3v2.4h2c0-.7.6-1.3 1.3-1.3.7 0 1.3.6 1.3 1.3v7.8c0 3.7-3 6.7-6.6 6.7h-7.8z"/></g></g><path class="st1" d="M1 23l5 5 5-5M1 7l5-5 5 5M6 2v26" id="arrow"/></svg>