<?xml version="1.0" encoding="utf-8"?>
<!-- Generator: Adobe Illustrator 21.0.0, SVG Export Plug-In . SVG Version: 6.00 Build 0)  -->
<!DOCTYPE svg PUBLIC "-//W3C//DTD SVG 1.1//EN" "http://www.w3.org/Graphics/SVG/1.1/DTD/svg11.dtd">
<svg version="1.1" id="Layer_1" xmlns="http://www.w3.org/2000/svg" xmlns:xlink="http://www.w3.org/1999/xlink" x="0px" y="0px"
	 viewBox="0 0 1000 168" style="enable-background:new 0 0 1000 168;" xml:space="preserve">
<style type="text/css">
	.st0{fill:#FFFFFF;}
	.st1{fill:#AFFC41;}
</style>
<g id="XMLID_45_">
	<g id="XMLID_36_">
		<polygon id="XMLID_16_" class="st0" points="985.3,0.6 985.3,163.6 985.3,167 992.8,167 994,167 1000,167 1000,167 1000,0.6 		"/>
		<path id="XMLID_43_" class="st0" d="M908.1,42.5c-34.4,0-62.4,27.9-62.4,62.4c0,34.4,27.9,62.4,62.4,62.4c19.5,0,37-9,48.4-23.1
			v17.7c0.5,2.9,2.5,5.2,5.6,5.2c0.2,0,8.4,0,8.4,0v-62.2C970.4,70.4,942.5,42.5,908.1,42.5z M908.1,153.3
			c-26.7,0-48.4-21.7-48.4-48.4c0-26.7,21.7-48.4,48.4-48.4c26.7,0,48.4,21.7,48.4,48.4C956.4,131.6,934.8,153.3,908.1,153.3z"/>
		<path id="XMLID_40_" class="st0" d="M845.7,104.6c0-1.8-0.1-3.6-0.3-5.3v-0.1c0,0,0,0,0,0c-0.1-1.8-0.4-3.6-0.7-5.3
			c-0.7-4.4-1.6-8.8-3.4-12.8c-4.1-9.8-10.1-17.7-18-24.1c-0.8-0.7-1.6-1.3-2.5-1.9c-0.9-0.7-1.7-1.4-2.7-2c-0.5-0.3-1-0.6-1.5-0.9
			c-1.7-1.1-3.4-2-5.2-2.9c-0.9-0.5-1.8-0.9-2.7-1.3c-2.2-1-4.4-1.9-6.6-2.6c-0.4-0.1-0.9-0.2-1.3-0.4c-2.5-0.7-5.1-1.3-7.8-1.7
			c-0.2,0-0.4-0.1-0.5-0.1c-3-0.5-6.1-0.8-9.3-0.8c-6.1,0-12,0.9-17.6,2.6c-0.2,0-0.3,0.1-0.5,0.1c-1.7,0.5-3.3,1.1-4.9,1.7
			c-0.2,0.1-0.5,0.2-0.7,0.3c-22.7,9.3-38.7,31.6-38.7,57.7c0,7.7,1.4,15,4,21.7c0.3,0.8,0.6,1.7,0.9,2.5c0.1,0.2,0.2,0.4,0.3,0.6
			c0.7,1.6,1.4,3.1,2.2,4.6c4.8,9,11.8,16.6,20.2,22.3c10.2,7.2,21.7,10.7,34.8,10.8h23.4V167h0.1v-7.8c0-3.4-2.7-6.1-6.1-6.1h-17.1
			c-0.1,0-0.1,0-0.2,0c-24.2,0-44.2-17.8-47.8-41h109.9v0c0.1,0,0.2,0,0.3,0V104.6z M783.3,56.2c24.9,0,45.4,18.8,48,43h-96.1
			C737.9,75,758.4,56.2,783.3,56.2z"/>
		<path id="XMLID_37_" class="st0" d="M720.9,104.9V0.6h-8c-3.1,0-5.5,2.3-5.9,5.2v59.7c-11.4-14.1-28.9-23.1-48.4-23.1
			c-34.4,0-62.4,27.9-62.4,62.4c0,34.4,27.9,62.4,62.4,62.4S720.9,139.3,720.9,104.9z M706.9,104.9c0,26.7-21.7,48.4-48.4,48.4
			c-26.7,0-48.4-21.7-48.4-48.4c0-26.7,21.7-48.4,48.4-48.4C685.2,56.5,706.9,78.2,706.9,104.9z"/>
	</g>
	<g id="XMLID_27_">
		<path id="XMLID_33_" class="st0" d="M200.4,41.9c-34.4,0-62.4,27.9-62.4,62.4c0,34.4,27.9,62.4,62.4,62.4c19.5,0,37-9,48.4-23.1
			v17.7h0.2c0.5,2.9,2.9,5.2,6,5.2c0.3,0,0.5-0.1,0.7-0.1v0.2h7.1v-62.2C262.7,69.8,234.8,41.9,200.4,41.9z M200.4,152.6
			c-26.7,0-48.4-21.7-48.4-48.4c0-26.7,21.7-48.4,48.4-48.4s48.4,21.7,48.4,48.4C248.7,130.9,227.1,152.6,200.4,152.6z"/>
		<path id="XMLID_30_" class="st0" d="M471.4,104.1c0-1.8-0.1-3.6-0.3-5.3v-0.1c0,0,0,0,0,0c-0.1-1.8-0.4-3.6-0.7-5.3
			c-0.7-4.4-1.6-8.8-3.4-12.8c-4.1-9.8-10.1-17.7-18-24.1c-0.8-0.7-1.6-1.3-2.5-1.9c-0.9-0.7-1.7-1.4-2.7-2c-0.5-0.3-1-0.6-1.5-0.9
			c-1.7-1.1-3.4-2-5.2-2.9c-0.9-0.5-1.8-0.9-2.7-1.3c-2.2-1-4.4-1.9-6.6-2.6c-0.4-0.1-0.9-0.2-1.3-0.4c-2.5-0.7-5.1-1.3-7.8-1.7
			c-0.2,0-0.4-0.1-0.5-0.1c-3-0.5-6.1-0.8-9.3-0.8c-6.1,0-12,0.9-17.6,2.6c-0.2,0-0.3,0.1-0.5,0.1c-1.7,0.5-3.3,1.1-4.9,1.7
			c-0.2,0.1-0.5,0.2-0.7,0.3c-22.7,9.3-38.7,31.6-38.7,57.7c0,7.7,1.4,15,4,21.7c0.3,0.8,0.6,1.7,0.9,2.5c0.1,0.2,0.2,0.4,0.3,0.6
			c0.7,1.6,1.4,3.1,2.2,4.6c4.8,9,11.8,16.6,20.2,22.3c10.2,7.2,21.7,10.7,34.8,10.8h23.4v-0.1h0.1v-7.8c0-3.4-2.7-6.1-6.1-6.1
			h-17.1c-0.1,0-0.1,0-0.2,0c-24.2,0-44.2-17.8-47.8-41h109.9v0c0.1,0,0.2,0,0.3,0V104.1z M409,55.8c24.9,0,45.4,18.8,48,43H361
			C363.7,74.6,384.1,55.8,409,55.8z"/>
		<polygon id="XMLID_5_" class="st0" points="124,0.7 124,79.3 14,79.3 14,0.7 0,0.7 0,167.4 14,167.4 14,93.3 124,93.3 124,167.4 
			138,167.4 138,0.7 		"/>
		<path id="XMLID_4_" class="st0" d="M370.5,74.8L358.8,67l-54.2,81.1L250.4,67l-11.7,7.8l56.2,84.1c1.9,3.4,5.5,5.7,9.7,5.7
			c4.2,0,7.9-2.4,9.7-5.9L370.5,74.8z"/>
	</g>
	<g id="XMLID_19_">
		<g>
			<path class="st0" d="M533.8,42.5c-34.4,0-62.4,27.9-62.4,62.4c0,34.4,27.9,62.4,62.4,62.4c19.5,0,37-9,48.4-23.1v17.7
				c0.5,2.9,2.6,5.2,5.7,5.2c0.2,0,8.3,0,8.3,0v-62.2C596.2,70.4,568.2,42.5,533.8,42.5z M533.8,153.3c-26.7,0-48.4-21.7-48.4-48.4
				c0-26.7,21.7-48.4,48.4-48.4c26.7,0,48.4,21.7,48.4,48.4C582.2,131.6,560.5,153.3,533.8,153.3z"/>
		</g>
	</g>
	<circle id="XMLID_1_" class="st1" cx="533.8" cy="104.9" r="30"/>
</g>
</svg>
