<?xml version="1.0" encoding="utf-8"?>
<!-- Generator: Adobe Illustrator 21.0.0, SVG Export Plug-In . SVG Version: 6.00 Build 0)  -->
<!DOCTYPE svg PUBLIC "-//W3C//DTD SVG 1.1//EN" "http://www.w3.org/Graphics/SVG/1.1/DTD/svg11.dtd">
<svg version="1.1" id="Layer_1" xmlns="http://www.w3.org/2000/svg" xmlns:xlink="http://www.w3.org/1999/xlink" x="0px" y="0px"
	 viewBox="0 0 1000 422" style="enable-background:new 0 0 1000 422;" xml:space="preserve">
<style type="text/css">
	.st0{fill:#FFFFFF;}
</style>
<g>
	<path class="st0" d="M210.6,322.1c-21.9,16.6-43.5,33-65.2,49.4c-21.6,16.4-43.2,32.8-65.6,48.7c8.3-26.6,16.6-53.1,24.8-79.7
		c8.2-26.6,16.7-53.1,24.7-80c-43.5-33-86.4-65.6-129.4-98.1c17.8-1.1,35.3-1.1,52.9-1.1c17.9,0,35.9,0,53.8,0c17.7,0,35.5,0,53.7,0
		C177.1,107.8,193.6,54.6,210.6,0c16.9,54.4,33.5,107.5,50.1,161c24.5,0,48.8,0,73,0c1.5,4.5,2,53.3,0.8,67
		c-13.9,10.6-28.2,21.4-42.8,32.6c16.6,53.3,33.1,106.5,49.6,159.6c-0.2,0.2-0.5,0.3-0.7,0.5C297.5,387.9,254.2,355.1,210.6,322.1z
		 M248.4,245.9c20.1-15.3,39.7-30.2,59.3-45.1c-0.1-0.4-0.3-0.8-0.4-1.2c-24.4,0-48.8,0-73.3,0c-7.7-24.6-15.3-48.7-22.8-72.8
		c-0.4,0-0.8,0.1-1.2,0.1c-7.6,24.2-15.1,48.4-22.7,72.7c-6.5,0-12.6,0-18.6,0c-6.2,0-12.5,0-18.7,0c-6,0-12.1,0-18.1,0
		c-6.1,0-12.1-0.2-18.3,1.2c19.8,15,39.5,30.1,59.3,45.1c-7.7,24.7-15.2,48.9-22.7,73.1c0.3,0.2,0.6,0.4,0.9,0.6
		c19.8-15,39.6-29.9,59.6-45.1c20,15.1,39.8,30.1,59.6,45.1c0.3-0.2,0.6-0.4,0.9-0.6C263.6,294.8,256.1,270.6,248.4,245.9z"/>
	<path class="st0" d="M895.6,160.7c12.5,0,25.1,0,38.5,0c0.2,7.3,0.1,14.6,0.1,21.9c0,7.2,0,14.4,0,21.5c0,7.3,0,14.7,0,22.4
		c7.4,0,14.3,0,21.7,0c0.6-7.5,0.2-14.8,0.3-22c0.1-7.2,0-14.4,0-21.5c0-7.3,0-14.6,0-22.2c13.1,0,25.7,0,38.7,0c0,59,0,118,0,177.2
		c-12.8,0-25.4,0-38.6,0c0-28.2,0-56.2,0-84.5c-7.6,0-14.4,0-22,0c0,28.2,0,56.2,0,84.5c-13.3,0-25.9,0-38.5,0
		C894.8,333.8,894.5,167.2,895.6,160.7z"/>
	<path class="st0" d="M643.8,270.1c13.2,0,25.6,0,38.4,0c0.2,1.4,0.5,2.6,0.5,3.9c-0.3,10.2-0.1,20.4-1.1,30.5
		c-1.8,19.3-13.9,32.2-33,35.8c-10.9,2-21.8,2.3-32.6-0.2c-17.4-4-28-15-31.5-32.4c-1.3-6.8-1.9-13.8-2-20.8
		c-0.2-24.7-0.2-49.5,0-74.2c0-8.5,0.6-17,2.9-25.2c4.7-16.4,15.9-25.7,32.1-29.1c11.6-2.4,23.3-1.9,34.8,0.7
		c17.4,3.9,26.1,14.6,29.2,31.3c1.9,10.6,1,21.4,1.2,32.6c-12.9,0-25.5,0-38.5,0c-0.1-1.1-0.4-2.3-0.4-3.5c0-6,0.2-12.1,0.1-18.1
		c-0.1-3.2-0.4-6.4-1.4-9.5c-1.4-4.7-5.7-7.4-10.4-7.2c-4.5,0.1-8,2.8-9.4,7.6c-0.7,2.3-1.1,4.8-1.1,7.2c-0.1,33.4-0.1,66.9,0,100.3
		c0,2.8,0.6,5.6,1.4,8.3c1.3,4,4.4,6.1,8.5,6.4c4.3,0.3,8-1.2,10-5.1c1.2-2.3,1.9-5,2-7.5c0.3-7.7,0.2-15.5,0.3-23.2
		C643.8,275.8,643.8,273.2,643.8,270.1z"/>
	<path class="st0" d="M885.8,338c-13.2,0-25.5,0-38.4,0c-1.6-14.4-3.1-28.7-4.7-43.3c-7.7,0-14.8,0-22.5,0
		c-2.2,14.4-4.3,28.7-6.5,43.2c-10.8,0-21.3,0-32.5,0c9.6-59.2,19.2-117.9,28.9-177.4c17.8-0.1,35.5,0,53.9-0.1
		C871.2,219.5,878.4,278.4,885.8,338z M832,189.7c-3.1,25.9-5.3,51.8-7.5,77.7c6.3,1.4,11.1,1.2,15.3-0.6
		C837.2,241.2,835.8,215.4,832,189.7z"/>
	<path class="st0" d="M362.6,160.6c2-0.1,3.6-0.2,5.3-0.2c15.1,0,30.2-0.2,45.3,0.1c8.3,0.1,16.6,0.8,24.6,3
		c18.7,5.2,24,16.9,24.7,31.1c0.6,13,0.5,26.1,0.1,39.1c-0.5,14.4-8.2,24.4-21,30.4c-7.2,3.4-15,5-23.1,5c-4,0-7.9,0-11.9,0
		c-1.5,0-2.9,0.3-5,0.4c0,22.8,0,45.4,0,68.3c-13.2,0-25.8,0-38.4,0C362,333.3,361.4,185.8,362.6,160.6z M401.9,185.5
		c0,19.8,0,39.1,0,58.6c3.5,1.5,6.9,0.5,10.2,0.2c5.6-0.5,8.9-3.7,10.1-9c0.7-2.9,1.1-5.9,1.2-8.9c0.2-7.5,0.2-15.1,0-22.6
		c-0.1-3.2-0.5-6.4-1.3-9.5c-1.1-4.6-4.3-7.7-8.9-8.6C409.7,185,405.9,185.5,401.9,185.5z"/>
	<path class="st0" d="M775.7,312.1c0,8.9,0,17.1,0,25.7c-27.1,0-53.8,0-80.6,0c-1.1-3.8-1.5-168.3-0.4-177.1c26.9,0,53.7,0,80.9,0
		c0,8.5,0,16.8,0,25.7c-14.1,0-28,0-41.6,0c-1.3,4.6-1.6,31.8-0.6,39.8c4.3,1.5,8.8,0.5,13.2,0.7c4.5,0.2,9.1,0,13.6,0
		c4.5,0,9,0,13.8,0c0,8.8,0,17,0,26c-4.5,0-8.9,0.1-13.4,0.1c-4.5,0-9.1,0-13.6,0c-4.5,0-9,0-13.8,0c0,19.8,0,39,0,58.5
		c4.6,1.2,9.3,0.4,13.9,0.6c4.7,0.1,9.4,0,14.2,0C766,312.1,770.7,312.1,775.7,312.1z"/>
	<path class="st0" d="M491.9,337.8c1.9-7.2,3.8-14,5.6-20.9c1.5-5.5,2.8-11,4.5-16.4c1.1-3.6,1-7,0.1-10.6
		c-9.8-38.3-19.5-76.7-29.3-115.1c-1.2-4.7-2.4-9.4-3.7-14.4c13.1,0,25.7,0,39,0c2.8,12,4.6,24.2,7.1,36.3c2.5,11.8,4,23.9,7.9,35.6
		c4.2-11.8,6.3-23.9,9.1-35.9c2.8-11.9,5.4-23.8,8.2-35.9c12,0,23.6,0,35.8,0c-17,59.1-34,118-51,177.2
		C514.1,337.8,503.2,337.8,491.9,337.8z"/>
	<path class="st0" d="M404.1,413c-0.2,2.7-0.3,4.7-0.5,7.1c-5.3,0-10.5,0-16.1,0c-0.2-2.2-0.4-4.4-0.7-7.1c-2.1-0.1-4.1-0.2-6.1-0.3
		c-4.6-0.2-9.1-1.1-12.8-3.8c-7.2-5.3-8.9-12.9-7.4-21.2c1.4-8.4,7.2-14,15.3-15.4c3.5-0.6,7-0.9,10.9-1.4c0.3-1.5,0.6-3.1,0.9-5.2
		c5.1,0,10.3,0,15.8,0c0.3,1.6,0.6,3.4,0.9,5.2c3.5,0.5,6.8,0.8,10.1,1.3c9.6,1.7,15.6,8.6,15.7,18.5c0,3-0.1,6.1-0.9,8.9
		c-2.1,7.6-8.8,12.2-18,12.9C409,412.8,406.8,412.9,404.1,413z M386.9,384c-4.2-0.6-7.9-0.5-9.7,3.2c-1.7,3.4-1.6,7.3,0.6,10.7
		c1.8,2.7,4.5,3.1,9.2,1.6C386.9,394.6,386.9,389.6,386.9,384z M404.2,400c7,0.6,10-1.8,10.2-7.7c0.2-5.9-2.7-8.3-10.2-8.1
		C404.2,389.4,404.2,394.5,404.2,400z"/>
	<path class="st0" d="M453.7,365.7c0,9.8,0,19.2,0,28.6c8.1-8.5,12.6-19.2,19.4-28.7c4.9,0,9.9,0,15.3,0c0,18.1,0,36.1,0,54.9
		c-2.4,0-4.8,0-7.2,0c-2.4,0-4.9,0-7.8,0c-1.1-10,0.2-19.8-0.3-31c-1.9,2.6-3.2,4-4.1,5.6c-5.1,8.4-10.1,16.8-15.2,25.2
		c-5.1,0-10,0-15.6,0c0-18.2,0-36.2,0-54.6C443.4,365.7,448.2,365.7,453.7,365.7z"/>
	<path class="st0" d="M868,377.8c-4.5,0-8.4,0-13.1,0c0,2.1,0.1,4.1,0,6.1c-0.3,7.1-0.4,14.3-1.1,21.4c-1.2,11.7-8.1,19.9-24.6,14.7
		c0-1.7,0-3.5,0-5.4c0-1.8,0-3.7,0-5.8c1.4-0.1,2.3-0.2,3.2-0.2c3.3,0.2,4.9-1.9,5.5-4.6c0.5-2.2,0.6-4.5,0.6-6.7
		c0.1-8.5,0-17,0-25.5c0-1.9,0-3.7,0-5.5c4.4-1.2,37.7-1.5,46.1-0.4c0.2,17.9,0,35.9,0.1,54.3c-5.6,0-10.8,0-16.7,0
		C868,406.1,868,392.1,868,377.8z"/>
	<path class="st0" d="M568.2,365.6c0,6.3,0,12.2,0,18.7c5.8,0.9,11.2,0.2,17.3,0.5c0-6.5,0-12.6,0-19.1c5.9,0,11,0,16.6,0
		c0,18.1,0,36.1,0,54.5c-5.3,0-10.4,0-16.2,0c0-7.5,0-15,0-22.9c-5.9,0-11.3,0-17.3,0c-0.7,7.5,0.1,15.1-0.5,22.9
		c-5.5,0-10.5,0-15.5,0c-1.2-3.9-1.4-47.8-0.3-54.6C557.3,365.6,562.5,365.6,568.2,365.6z"/>
	<path class="st0" d="M802.5,365.5c6.3,0,12.3,0,19.1,0c-6.2,6.9-12.1,13.3-18.3,20.1c6.2,12,14.1,22.7,20.9,34.7
		c-6.9,0-13.3,0-19.9,0c-4.2-7.2-8.5-14.4-12.8-21.9c-3.3,1.9-4.9,4.1-4.9,7.5c0.1,4.7,0,9.3,0,14.3c-5.7,0-10.9,0-16.4,0
		c0-18.3,0-36.3,0-54.6c5.5,0,10.6,0,16.5,0c0,5.6,0,10.9,0,16.2c0.4,0.1,0.8,0.3,1.2,0.4C792.9,376.7,797.7,371,802.5,365.5z"/>
	<path class="st0" d="M953,420.5c0-18.5,0-36.4,0-54.3c3.8-1.2,33.9-1.5,41.2-0.4c0,3.2,0,6.5,0,10.6c-4.1,0-8.2,0-12.3,0
		c-3.9,0-7.8,0-12.1,0c0,3.3,0,5.9,0,9.3c3.4,0,6.6-0.2,9.7,0c3,0.2,6.1,0.4,8.9,1.2c7.7,2.3,11.8,8.1,11.6,16
		c-0.2,8.1-4.8,14.1-12.5,16.1c-1.3,0.3-2.6,0.5-3.9,0.7C973.5,421.1,963.4,420.2,953,420.5z M969.7,407.6c3.5,1.2,6.8,0.9,10.1,0
		c3-0.8,4.5-2.5,4.5-4.9c0-2.4-1.5-4.6-4.4-5.1c-3.2-0.6-6.6-0.5-10.2-0.7C969.7,400.8,969.7,404.1,969.7,407.6z"/>
	<path class="st0" d="M657.3,408.2c0,4.5,0,8,0,12c-14.3,0-28.5,0-42.7,0c-1.1-4-1.4-45.9-0.4-54c4-1,34.3-1.3,41.9-0.4
		c0,3.6,0,7.3,0,11.6c-8.4,0-16.8,0-25.4,0c0,3,0,5.4,0,8.4c6.9,0,13.8,0,21.1,0c0,4.3,0,7.9,0,12.3c-6.9,0-13.7,0-21,0
		c0,3.6,0,6.5,0,10C639.5,408.2,648.1,408.2,657.3,408.2z"/>
	<path class="st0" d="M715.6,399.9c-0.8,7.9-4.1,14-10.4,18.2c-10.2,6.7-26.8,4.8-35-4.2c-2.7-3-4.8-6.8-6.1-10.6
		c-2.2-6.5-2.2-13.3-0.2-20c3.6-12,11.4-18.9,24.1-19.5c8.6-0.4,16.9,1.6,22.7,9.1c2.8,3.7,4.1,7,4.3,12.6c-4.9,0-9.7,0-14.9,0
		c-0.4-0.9-0.8-1.9-1.2-2.9c-1.9-4.2-4.8-6-9.3-5.9c-4.3,0.1-7,2.5-8.5,6.3c-2.4,6.4-2.6,12.9-0.5,19.4c1.4,4.4,4.3,6.3,8.8,6.6
		c4.5,0.3,7.7-1.5,9.4-5.7c0.4-1,0.9-2.1,1.3-3.3C705.2,399.9,710.2,399.9,715.6,399.9z"/>
	<path class="st0" d="M910.3,365.7c2.7,6.7,5.4,13.4,8.7,21.4c4-7.6,5.7-14.7,9.1-21.5c5.6,0,11.4,0,17.6,0
		c-4.3,9.7-8.5,19-12.7,28.2c-2.2,5-4.5,10-6.8,14.9c-0.8,1.7-1.6,3.4-2.6,5c-5.2,8-10.6,9.8-20.2,6.5c0-3.5,0-7.2,0-10.9
		c5.2-0.8,5.2-0.8,7.5-4c-6.2-12.9-12.5-26-19.1-39.6C898.2,365.7,904.1,365.7,910.3,365.7z"/>
	<path class="st0" d="M512,420.2c0-14.1,0-27.9,0-42.5c-5.4,0-10.4,0-15.7,0c0-4.3,0-8,0-12c15.9,0,31.6,0,47.7,0
		c0,3.8,0,7.4,0,11.7c-4.9,0-9.7,0-15.3,0c-0.1,5.1-0.2,9.8-0.2,14.4c0,4.7,0,9.4,0,14.1c0,4.7,0,9.3,0,14.3
		C522.8,420.2,517.7,420.2,512,420.2z"/>
	<path class="st0" d="M211.4,233.8c-2.5,0.5-5.2,0.8-7.6,1.6c-9.1,3-18.2,6.1-27.8,9.3c-17.8-13.5-35.6-27-53.5-40.5
		c0.1-0.2,0.2-0.4,0.3-0.7c3.2,1.1,6.3,2.1,9.5,3.2c24.1,8.2,48.2,16.4,72.3,24.4c1.7,0.6,3.6,2.5,5.6,0.4l-0.2,0.1
		c1.2-1,2.8-1.8,3.7-3.1c5.1-7,10-14.2,15-21.3c1.1-1.5,2.2-3,3.3-4.6c22.1,0,44,0,66.6,0c-2.4,1-4.2,1.8-6,2.5
		c-24.8,8.4-49.6,16.8-74.4,25.3c-2.4,0.8-4.6,2.3-6.9,3.4C211.2,233.9,211.4,233.8,211.4,233.8z"/>
	<path class="st0" d="M211.2,233.9c8.8,2.8,17.5,5.6,26.3,8.4c2.3,0.8,4.6,1.6,7.6,2.7c6.7,21.5,13.5,43.3,20.3,65.2
		c-0.2,0.1-0.4,0.2-0.6,0.3c-0.9-1.1-1.8-2.2-2.6-3.4c-16.8-24.1-33.7-48.2-50.5-72.3c-0.2-0.3-0.3-0.7-0.4-1L211.2,233.9z"/>
	<path class="st0" d="M210.1,235.9c0,11.7,0,23.3,0,35.4c-17.3,13.1-34.7,26.3-52.1,39.5c-0.3-0.2-0.6-0.5-0.8-0.7
		C174.4,285.1,191.9,260.4,210.1,235.9z"/>
	<path class="st0" d="M210.3,231.6c-1.4-1.7-2.9-3.4-4.2-5.2c-4.8-6.8-9.4-13.7-14.3-20.4c-1.5-2.1-2.3-4.1-1.5-6.8
		c6.3-19.8,12.4-39.5,18.6-59.3c0.2-0.5,0.5-1,1.1-2.1c0.1,1.7,0.3,2.8,0.3,3.8c0,29.1,0,58.2,0,87.3c0,0.9-0.1,1.9-0.2,2.8
		L210.3,231.6z"/>
</g>
</svg>
