<?xml version="1.0" encoding="utf-8"?>
<!-- Generator: Adobe Illustrator 21.0.0, SVG Export Plug-In . SVG Version: 6.00 Build 0)  -->
<!DOCTYPE svg PUBLIC "-//W3C//DTD SVG 1.1//EN" "http://www.w3.org/Graphics/SVG/1.1/DTD/svg11.dtd">
<svg version="1.1" id="Layer_1" xmlns="http://www.w3.org/2000/svg" xmlns:xlink="http://www.w3.org/1999/xlink" x="0px" y="0px"
	 viewBox="0 0 1000 140" style="enable-background:new 0 0 1000 140;" xml:space="preserve">
<style type="text/css">
	.st0{fill:none;stroke:#FFFFFF;stroke-width:3.2492;stroke-linecap:round;stroke-linejoin:round;stroke-miterlimit:10;}
	.st1{fill:#FFFFFF;}
</style>
<g>
	<polyline class="st0" points="2,51.5 2,2.3 959.2,2.3 998,70 959.2,137.7 2,137.7 2,90.9 	"/>
	<g>
		<path class="st1" d="M132.2,111.5H67.9c-5.8,0-10.5-4.7-10.5-10.5V38.8c0-5.8,4.7-10.5,10.5-10.5h64.3V38H67.9
			c-0.4,0-0.8,0.4-0.8,0.8V101c0,0.4,0.4,0.8,0.8,0.8h64.3V111.5z"/>
		<path class="st1" d="M427,111.5h-58.6c-5.8,0-10.5-4.7-10.5-10.5V66.3c0-5.8,4.7-10.5,10.5-10.5H427c5.8,0,10.5,4.7,10.5,10.5V101
			C437.5,106.8,432.8,111.5,427,111.5z M368.4,65.5c-0.4,0-0.8,0.4-0.8,0.8V101c0,0.4,0.4,0.8,0.8,0.8H427c0.4,0,0.8-0.4,0.8-0.8
			V66.3c0-0.4-0.4-0.8-0.8-0.8H368.4z"/>
		<path class="st1" d="M370.1,38.5h-9.7c0-5.8,4.7-10.5,10.5-10.5h64.3v9.7h-64.3C370.5,37.7,370.1,38,370.1,38.5z"/>
		<path class="st1" d="M630.8,111.5h-64.3c-5.8,0-10.5-4.7-10.5-10.5V66.3c0-5.8,4.7-10.5,10.5-10.5h64.3v9.7h-64.3
			c-0.4,0-0.8,0.4-0.8,0.8V101c0,0.4,0.4,0.8,0.8,0.8h64.3V111.5z"/>
		<path class="st1" d="M565.7,38.5H556c0-5.8,4.7-10.5,10.5-10.5h64.3v9.7h-64.3C566.1,37.7,565.7,38,565.7,38.5z"/>
		<path class="st1" d="M822.5,111.5h-64.3c-5.8,0-10.5-4.7-10.5-10.5V66.3c0-5.8,4.7-10.5,10.5-10.5h64.3v9.7h-64.3
			c-0.4,0-0.8,0.4-0.8,0.8V101c0,0.4,0.4,0.8,0.8,0.8h64.3V111.5z"/>
		<path class="st1" d="M757.4,38.5h-9.7c0-5.8,4.7-10.5,10.5-10.5h64.3v9.7h-64.3C757.8,37.7,757.4,38,757.4,38.5z"/>
		<path class="st1" d="M232.9,111.1h-9.7V66.3c0-0.4-0.4-0.8-0.8-0.8h-58.7c-0.4,0-0.8,0.4-0.8,0.8v44.8h-9.7V66.3
			c0-5.8,4.7-10.5,10.5-10.5h58.7c5.8,0,10.5,4.7,10.5,10.5V111.1z"/>
		<path class="st1" d="M332.1,111.1l-10.8-43.8c-0.4-1.8-0.6-1.8-2.2-1.8h-47.4c-1.8,0-1.9,0.1-2.2,1.7l-10.8,43.9h-9.9L260,65.2
			c0.7-3.5,3.1-9.5,11.7-9.5h47.4c8.5,0,11,6,11.7,9.5l11.2,45.8H332.1z"/>
		<path class="st1" d="M314.6,47.2l-1.9-7.5c-0.4-1.8-0.6-1.8-2.2-1.8h-30.2c-1.8,0-1.9,0.1-2.2,1.7l-0.1,0.3l-1.9,7.2h-9.9l2.4-9.6
			c0.7-3.6,3.2-9.4,11.7-9.4h30.2c8.4,0,10.9,5.8,11.7,9.4l2.5,9.6H314.6z"/>
		<rect x="223.2" y="28.1" class="st1" width="9.7" height="19.2"/>
		<rect x="153.2" y="28.1" class="st1" width="9.7" height="19.2"/>
		<rect x="721.8" y="28" class="st1" width="9.7" height="19.3"/>
		<rect x="932.9" y="92.8" class="st1" width="9.7" height="19.3"/>
		<rect x="651.9" y="28" class="st1" width="9.7" height="19.3"/>
		<path class="st1" d="M731.5,111.5h-9.7V66.3c0-0.4-0.4-0.8-0.8-0.8h-58.7c-0.4,0-0.8,0.4-0.8,0.8v45.2h-9.7V66.3
			c0-5.8,4.7-10.5,10.5-10.5H721c5.8,0,10.5,4.7,10.5,10.5V111.5z"/>
		<path class="st1" d="M912.7,111.5H854c-5.8,0-10.5-4.7-10.5-10.5V28h9.7v73c0,0.4,0.4,0.8,0.8,0.8h58.7c0.4,0,0.8-0.4,0.8-0.8V28
			h9.7v73C923.2,106.7,918.5,111.5,912.7,111.5z"/>
		<rect x="932.9" y="93.3" class="st1" width="9.7" height="18.3"/>
		<rect x="530.2" y="28" class="st1" width="9.7" height="19.3"/>
		<rect x="491.9" y="28" class="st1" width="9.7" height="19.3"/>
		<path class="st1" d="M529.3,55.8h-65.1c-5.8,0-10.5,4.7-10.5,10.5v45.2h9.7V66.3c0-0.4,0.4-0.8,0.8-0.8h27.7v46h9.7v-46h27.7
			c0.4,0,0.8,0.4,0.8,0.8v45.2h9.7V66.3C539.9,60.5,535.1,55.8,529.3,55.8z"/>
		<rect x="453.7" y="28" class="st1" width="9.7" height="19.3"/>
	</g>
</g>
</svg>
