<svg id="Layer_1" xmlns="http://www.w3.org/2000/svg" viewBox="0 0 1000 200"><style>.st0{fill:#fff}</style><path class="st0" d="M68.9 127.6v43.5c0 1.6 0 3.4-.1 5.5s-.4 4.2-.8 6.4c-.9 4-3.1 7.8-6.6 11.2-3.4 3.4-9.3 5.2-17.6 5.2l-19 .2c-.8-.2-1.6-.2-2.5-.2-.9 0-1.8-.1-2.7-.2-4.8-.3-9.4-2.1-13.5-5.5-4-3.5-6.1-11.3-6.1-23.6V25.2c0-1.1.1-2.3.2-3.5C.4 16.3 2 11.2 4.9 6.5c3-4.7 9.6-7 19.9-7h19c8.7 0 14.8 1.7 18.2 5.2 3.4 3.5 5.4 7.4 6.2 11.6.3 1.9.5 3.7.6 5.5.1 1.8.1 3.5.1 5v39.3H41V21c0-1.4-.5-2.6-1.4-3.6-.9-1-2-1.8-3-2.2-.3-.2-.7-.3-1.2-.4-.5-.1-.9-.1-1.2-.1-1.6 0-3 .6-4.2 1.7-1.2 1.2-2 2.4-2.1 3.9v156.1c.3 1.2 1 2.4 2.1 3.4s2.5 1.5 4.2 1.5c1.7 0 3.3-.6 4.7-1.8 1.4-1.2 2.1-2.6 2.1-4.3v-47.7h27.9zm37.5 17L80.4 0h31.2l8.9 82.2L129.3 0h31.2l-26 144.6-.2 51.6h-27.9v-51.6zM176.9 0h41.3c9.1 0 15.4 1.7 19 5.3 3.6 3.5 5.9 7.4 6.8 11.8.5 1.9.7 3.8.8 5.7.1 2 .1 3.7.1 5.3V72c0 7-1.6 12.1-4.8 15.3-3.2 3.2-6.8 5.3-10.7 6.4-1.6.3-3.1.5-4.6.7-1.5.2-2.8.3-4.1.3v1.9c1.3 0 2.6.1 4 .2 1.4.2 2.8.4 4.2.7 4.2.9 8 2.9 11.5 5.7 3.4 2.9 5.2 7.3 5.2 13.2v52.8c0 8.9-1.8 15.2-5.4 18.9-3.6 3.7-7.6 6.1-11.9 7-1.7.5-3.5.8-5.3.9-1.8.2-3.5.2-5 .2h-41V0zm30.7 85c3.6 0 6.2-.7 7.7-2.2 1.6-1.5 2.3-3.7 2.3-6.7V27.8c0-3.1-1-5.5-2.9-7.2-2-1.7-4.3-2.6-6.9-2.6h-3v67h2.8zm.2 93.1c2.5 0 4.8-.8 6.8-2.3 2-1.6 3-4.2 3-7.9v-53.5c0-4.4-1-7.4-2.9-9.2-2-1.8-4.1-2.7-6.4-2.7h-3.5v75.7h3zM262 0h65.4v18h-37.5v67h37.5v18h-37.5v75h37.9v18.2H262V0zm83.8 0h43.8c9.7 0 16.1 2 19.2 6.1 3.1 4.1 4.9 8.5 5.4 13.3.2 1.3.2 2.5.2 3.9v73.4c0 1.3-.1 2.6-.2 4-.3 3.7-1.3 7.4-3 10.9s-4.9 6.2-9.6 8.3l18.5 76.4h-29.8l-14.8-72.4h-1.9v72.4h-27.9V0zm31.9 106.1c2.6 0 4.8-1.1 6.4-3.3 1.6-2.2 2.5-5.2 2.5-9.1V28c0-3.8-.7-6.3-2.2-7.7-1.5-1.4-3.2-2.2-5-2.3h-5.7v88.1h4zM436.5 0h27.9v178.1h31.1v18.2h-59V0zm68.9 0h65.4v18h-37.5v67h37.5v18h-37.5v75h37.9v18.2h-65.8V0zm83.9 0h27.9l17.3 89.7V0h27.9v196.3h-27.9l-17.3-80.6v80.6h-27.9V0zm96 0h27.9v196.3h-27.9V0zm50.9 0h27.9l17.3 89.7V0h27.9v196.3h-27.9l-17.3-80.6v80.6h-27.9V0zm96 0h27.9v84.4L874.2 0h27.6l-17.3 92.8 20.1 103.5h-26.9l-17.6-93.5v93.5h-27.9V0zm106.2 0h41.9l19.7 196.3h-27.4l-4.7-54.7h-19l-4.2 54.7h-26.9L938.4 0zm28.1 123.4l-7.3-99.8h-1.4l-7.7 99.8h16.4z"/></svg>