<svg id="Layer_1" xmlns="http://www.w3.org/2000/svg" viewBox="0 0 1000 168"><style>.st0{fill:#fff}.st1{fill:#affc41}</style><g id="XMLID_45_"><g id="XMLID_36_"><path id="XMLID_16_" class="st0" d="M985.3.6V167h14.7V.6z"/><path id="XMLID_43_" class="st0" d="M908.1 42.5c-34.4 0-62.4 27.9-62.4 62.4 0 34.4 27.9 62.4 62.4 62.4 19.5 0 37-9 48.4-23.1v17.7c.5 2.9 2.5 5.2 5.6 5.2h8.4v-62.2c-.1-34.5-28-62.4-62.4-62.4zm0 110.8c-26.7 0-48.4-21.7-48.4-48.4s21.7-48.4 48.4-48.4 48.4 21.7 48.4 48.4c-.1 26.7-21.7 48.4-48.4 48.4z"/><path id="XMLID_40_" class="st0" d="M845.7 104.6c0-1.8-.1-3.6-.3-5.3v-.1c-.1-1.8-.4-3.6-.7-5.3-.7-4.4-1.6-8.8-3.4-12.8-4.1-9.8-10.1-17.7-18-24.1-.8-.7-1.6-1.3-2.5-1.9-.9-.7-1.7-1.4-2.7-2l-1.5-.9c-1.7-1.1-3.4-2-5.2-2.9-.9-.5-1.8-.9-2.7-1.3-2.2-1-4.4-1.9-6.6-2.6-.4-.1-.9-.2-1.3-.4-2.5-.7-5.1-1.3-7.8-1.7-.2 0-.4-.1-.5-.1-3-.5-6.1-.8-9.3-.8-6.1 0-12 .9-17.6 2.6-.2 0-.3.1-.5.1-1.7.5-3.3 1.1-4.9 1.7-.2.1-.5.2-.7.3-22.7 9.3-38.7 31.6-38.7 57.7 0 7.7 1.4 15 4 21.7.3.8.6 1.7.9 2.5l.3.6c.7 1.6 1.4 3.1 2.2 4.6 4.8 9 11.8 16.6 20.2 22.3 10.2 7.2 21.7 10.7 34.8 10.8h23.4v-.3h.1v-7.8c0-3.4-2.7-6.1-6.1-6.1h-17.3c-24.2 0-44.2-17.8-47.8-41h110.2v-7.5zm-62.4-48.4c24.9 0 45.4 18.8 48 43h-96.1c2.7-24.2 23.2-43 48.1-43z"/><path id="XMLID_37_" class="st0" d="M720.9 104.9V.6h-8c-3.1 0-5.5 2.3-5.9 5.2v59.7c-11.4-14.1-28.9-23.1-48.4-23.1-34.4 0-62.4 27.9-62.4 62.4 0 34.4 27.9 62.4 62.4 62.4s62.3-27.9 62.3-62.3zm-14 0c0 26.7-21.7 48.4-48.4 48.4s-48.4-21.7-48.4-48.4 21.7-48.4 48.4-48.4 48.4 21.7 48.4 48.4z"/></g><g id="XMLID_27_"><path id="XMLID_33_" class="st0" d="M200.4 41.9c-34.4 0-62.4 27.9-62.4 62.4 0 34.4 27.9 62.4 62.4 62.4 19.5 0 37-9 48.4-23.1v17.7h.2c.5 2.9 2.9 5.2 6 5.2.3 0 .5-.1.7-.1v.2h7.1v-62.2c-.1-34.6-28-62.5-62.4-62.5zm0 110.7c-26.7 0-48.4-21.7-48.4-48.4s21.7-48.4 48.4-48.4 48.4 21.7 48.4 48.4c-.1 26.7-21.7 48.4-48.4 48.4z"/><path id="XMLID_30_" class="st0" d="M471.4 104.1c0-1.8-.1-3.6-.3-5.3v-.1c-.1-1.8-.4-3.6-.7-5.3-.7-4.4-1.6-8.8-3.4-12.8-4.1-9.8-10.1-17.7-18-24.1-.8-.7-1.6-1.3-2.5-1.9-.9-.7-1.7-1.4-2.7-2l-1.5-.9c-1.7-1.1-3.4-2-5.2-2.9-.9-.5-1.8-.9-2.7-1.3-2.2-1-4.4-1.9-6.6-2.6-.4-.1-.9-.2-1.3-.4-2.5-.7-5.1-1.3-7.8-1.7-.2 0-.4-.1-.5-.1-3-.5-6.1-.8-9.3-.8-6.1 0-12 .9-17.6 2.6-.2 0-.3.1-.5.1-1.7.5-3.3 1.1-4.9 1.7-.2.1-.5.2-.7.3-22.7 9.3-38.7 31.6-38.7 57.7 0 7.7 1.4 15 4 21.7.3.8.6 1.7.9 2.5l.3.6c.7 1.6 1.4 3.1 2.2 4.6 4.8 9 11.8 16.6 20.2 22.3 10.2 7.2 21.7 10.7 34.8 10.8h23.4v-.1h.1v-7.8c0-3.4-2.7-6.1-6.1-6.1H409c-24.2 0-44.2-17.8-47.8-41h110.2v-7.7zM409 55.8c24.9 0 45.4 18.8 48 43h-96c2.7-24.2 23.1-43 48-43z"/><path id="XMLID_5_" class="st0" d="M124 .7v78.6H14V.7H0v166.7h14V93.3h110v74.1h14V.7z"/><path id="XMLID_4_" class="st0" d="M370.5 74.8L358.8 67l-54.2 81.1L250.4 67l-11.7 7.8 56.2 84.1c1.9 3.4 5.5 5.7 9.7 5.7 4.2 0 7.9-2.4 9.7-5.9l56.2-83.9z"/></g><path class="st0" d="M533.8 42.5c-34.4 0-62.4 27.9-62.4 62.4 0 34.4 27.9 62.4 62.4 62.4 19.5 0 37-9 48.4-23.1v17.7c.5 2.9 2.6 5.2 5.7 5.2h8.3v-62.2c0-34.5-28-62.4-62.4-62.4zm0 110.8c-26.7 0-48.4-21.7-48.4-48.4s21.7-48.4 48.4-48.4 48.4 21.7 48.4 48.4-21.7 48.4-48.4 48.4z" id="XMLID_19_"/><circle id="XMLID_1_" class="st1" cx="533.8" cy="104.9" r="30"/></g></svg>