<svg id="Layer_1" xmlns="http://www.w3.org/2000/svg" viewBox="0 0 1000 422"><style>.st0{fill:#fff}</style><path class="st0" d="M210.6 322.1c-21.9 16.6-43.5 33-65.2 49.4-21.6 16.4-43.2 32.8-65.6 48.7 8.3-26.6 16.6-53.1 24.8-79.7s16.7-53.1 24.7-80c-43.5-33-86.4-65.6-129.4-98.1 17.8-1.1 35.3-1.1 52.9-1.1h107.5C177.1 107.8 193.6 54.6 210.6 0c16.9 54.4 33.5 107.5 50.1 161h73c1.5 4.5 2 53.3.8 67-13.9 10.6-28.2 21.4-42.8 32.6 16.6 53.3 33.1 106.5 49.6 159.6-.2.2-.5.3-.7.5-43.1-32.8-86.4-65.6-130-98.6zm37.8-76.2c20.1-15.3 39.7-30.2 59.3-45.1-.1-.4-.3-.8-.4-1.2H234c-7.7-24.6-15.3-48.7-22.8-72.8-.4 0-.8.1-1.2.1-7.6 24.2-15.1 48.4-22.7 72.7h-55.4c-6.1 0-12.1-.2-18.3 1.2 19.8 15 39.5 30.1 59.3 45.1-7.7 24.7-15.2 48.9-22.7 73.1l.9.6c19.8-15 39.6-29.9 59.6-45.1 20 15.1 39.8 30.1 59.6 45.1l.9-.6c-7.6-24.2-15.1-48.4-22.8-73.1zm647.2-85.2h38.5c.2 7.3.1 14.6.1 21.9v43.9h21.7c.6-7.5.2-14.8.3-22 .1-7.2 0-14.4 0-21.5v-22.2h38.7V338h-38.6v-84.5h-22V338h-38.5c-1-4.2-1.3-170.8-.2-177.3zM643.8 270.1h38.4c.2 1.4.5 2.6.5 3.9-.3 10.2-.1 20.4-1.1 30.5-1.8 19.3-13.9 32.2-33 35.8-10.9 2-21.8 2.3-32.6-.2-17.4-4-28-15-31.5-32.4-1.3-6.8-1.9-13.8-2-20.8-.2-24.7-.2-49.5 0-74.2 0-8.5.6-17 2.9-25.2 4.7-16.4 15.9-25.7 32.1-29.1 11.6-2.4 23.3-1.9 34.8.7 17.4 3.9 26.1 14.6 29.2 31.3 1.9 10.6 1 21.4 1.2 32.6h-38.5c-.1-1.1-.4-2.3-.4-3.5 0-6 .2-12.1.1-18.1-.1-3.2-.4-6.4-1.4-9.5-1.4-4.7-5.7-7.4-10.4-7.2-4.5.1-8 2.8-9.4 7.6-.7 2.3-1.1 4.8-1.1 7.2-.1 33.4-.1 66.9 0 100.3 0 2.8.6 5.6 1.4 8.3 1.3 4 4.4 6.1 8.5 6.4 4.3.3 8-1.2 10-5.1 1.2-2.3 1.9-5 2-7.5.3-7.7.2-15.5.3-23.2v-8.6zm242 67.9h-38.4c-1.6-14.4-3.1-28.7-4.7-43.3h-22.5c-2.2 14.4-4.3 28.7-6.5 43.2h-32.5c9.6-59.2 19.2-117.9 28.9-177.4 17.8-.1 35.5 0 53.9-.1 7.2 59.1 14.4 118 21.8 177.6zM832 189.7c-3.1 25.9-5.3 51.8-7.5 77.7 6.3 1.4 11.1 1.2 15.3-.6-2.6-25.6-4-51.4-7.8-77.1zm-469.4-29.1c2-.1 3.6-.2 5.3-.2 15.1 0 30.2-.2 45.3.1 8.3.1 16.6.8 24.6 3 18.7 5.2 24 16.9 24.7 31.1.6 13 .5 26.1.1 39.1-.5 14.4-8.2 24.4-21 30.4-7.2 3.4-15 5-23.1 5h-11.9c-1.5 0-2.9.3-5 .4v68.3h-38.4c-1.2-4.5-1.8-152-.6-177.2zm39.3 24.9v58.6c3.5 1.5 6.9.5 10.2.2 5.6-.5 8.9-3.7 10.1-9 .7-2.9 1.1-5.9 1.2-8.9.2-7.5.2-15.1 0-22.6-.1-3.2-.5-6.4-1.3-9.5-1.1-4.6-4.3-7.7-8.9-8.6-3.5-.7-7.3-.2-11.3-.2zm373.8 126.6v25.7h-80.6c-1.1-3.8-1.5-168.3-.4-177.1h80.9v25.7H734c-1.3 4.6-1.6 31.8-.6 39.8 4.3 1.5 8.8.5 13.2.7 4.5.2 9.1 0 13.6 0H774v26c-4.5 0-8.9.1-13.4.1h-27.4v58.5c4.6 1.2 9.3.4 13.9.6 4.7.1 9.4 0 14.2 0h14.4zm-283.8 25.7c1.9-7.2 3.8-14 5.6-20.9 1.5-5.5 2.8-11 4.5-16.4 1.1-3.6 1-7 .1-10.6-9.8-38.3-19.5-76.7-29.3-115.1-1.2-4.7-2.4-9.4-3.7-14.4h39c2.8 12 4.6 24.2 7.1 36.3 2.5 11.8 4 23.9 7.9 35.6 4.2-11.8 6.3-23.9 9.1-35.9 2.8-11.9 5.4-23.8 8.2-35.9h35.8c-17 59.1-34 118-51 177.2-11.1.1-22 .1-33.3.1zM404.1 413c-.2 2.7-.3 4.7-.5 7.1h-16.1c-.2-2.2-.4-4.4-.7-7.1-2.1-.1-4.1-.2-6.1-.3-4.6-.2-9.1-1.1-12.8-3.8-7.2-5.3-8.9-12.9-7.4-21.2 1.4-8.4 7.2-14 15.3-15.4 3.5-.6 7-.9 10.9-1.4.3-1.5.6-3.1.9-5.2h15.8c.3 1.6.6 3.4.9 5.2 3.5.5 6.8.8 10.1 1.3 9.6 1.7 15.6 8.6 15.7 18.5 0 3-.1 6.1-.9 8.9-2.1 7.6-8.8 12.2-18 12.9-2.2.3-4.4.4-7.1.5zm-17.2-29c-4.2-.6-7.9-.5-9.7 3.2-1.7 3.4-1.6 7.3.6 10.7 1.8 2.7 4.5 3.1 9.2 1.6-.1-4.9-.1-9.9-.1-15.5zm17.3 16c7 .6 10-1.8 10.2-7.7.2-5.9-2.7-8.3-10.2-8.1V400zm49.5-34.3v28.6c8.1-8.5 12.6-19.2 19.4-28.7h15.3v54.9h-15c-1.1-10 .2-19.8-.3-31-1.9 2.6-3.2 4-4.1 5.6-5.1 8.4-10.1 16.8-15.2 25.2h-15.6v-54.6h15.5zM868 377.8h-13.1c0 2.1.1 4.1 0 6.1-.3 7.1-.4 14.3-1.1 21.4-1.2 11.7-8.1 19.9-24.6 14.7v-11.2c1.4-.1 2.3-.2 3.2-.2 3.3.2 4.9-1.9 5.5-4.6.5-2.2.6-4.5.6-6.7.1-8.5 0-17 0-25.5v-5.5c4.4-1.2 37.7-1.5 46.1-.4.2 17.9 0 35.9.1 54.3H868v-42.4zm-299.8-12.2v18.7c5.8.9 11.2.2 17.3.5v-19.1h16.6v54.5h-16.2v-22.9h-17.3c-.7 7.5.1 15.1-.5 22.9h-15.5c-1.2-3.9-1.4-47.8-.3-54.6h15.9zm234.3-.1h19.1c-6.2 6.9-12.1 13.3-18.3 20.1 6.2 12 14.1 22.7 20.9 34.7h-19.9c-4.2-7.2-8.5-14.4-12.8-21.9-3.3 1.9-4.9 4.1-4.9 7.5.1 4.7 0 9.3 0 14.3h-16.4v-54.6h16.5v16.2c.4.1.8.3 1.2.4 5-5.5 9.8-11.2 14.6-16.7zm150.5 55v-54.3c3.8-1.2 33.9-1.5 41.2-.4v10.6h-24.4v9.3c3.4 0 6.6-.2 9.7 0 3 .2 6.1.4 8.9 1.2 7.7 2.3 11.8 8.1 11.6 16-.2 8.1-4.8 14.1-12.5 16.1-1.3.3-2.6.5-3.9.7-10.1 1.4-20.2.5-30.6.8zm16.7-12.9c3.5 1.2 6.8.9 10.1 0 3-.8 4.5-2.5 4.5-4.9 0-2.4-1.5-4.6-4.4-5.1-3.2-.6-6.6-.5-10.2-.7v10.7zm-312.4.6v12h-42.7c-1.1-4-1.4-45.9-.4-54 4-1 34.3-1.3 41.9-.4v11.6h-25.4v8.4h21.1v12.3h-21v10c8.7.1 17.3.1 26.5.1zm58.3-8.3c-.8 7.9-4.1 14-10.4 18.2-10.2 6.7-26.8 4.8-35-4.2-2.7-3-4.8-6.8-6.1-10.6-2.2-6.5-2.2-13.3-.2-20 3.6-12 11.4-18.9 24.1-19.5 8.6-.4 16.9 1.6 22.7 9.1 2.8 3.7 4.1 7 4.3 12.6h-14.9c-.4-.9-.8-1.9-1.2-2.9-1.9-4.2-4.8-6-9.3-5.9-4.3.1-7 2.5-8.5 6.3-2.4 6.4-2.6 12.9-.5 19.4 1.4 4.4 4.3 6.3 8.8 6.6 4.5.3 7.7-1.5 9.4-5.7.4-1 .9-2.1 1.3-3.3 5.1-.1 10.1-.1 15.5-.1zm194.7-34.2c2.7 6.7 5.4 13.4 8.7 21.4 4-7.6 5.7-14.7 9.1-21.5h17.6c-4.3 9.7-8.5 19-12.7 28.2-2.2 5-4.5 10-6.8 14.9-.8 1.7-1.6 3.4-2.6 5-5.2 8-10.6 9.8-20.2 6.5v-10.9c5.2-.8 5.2-.8 7.5-4-6.2-12.9-12.5-26-19.1-39.6h18.5zM512 420.2v-42.5h-15.7v-12H544v11.7h-15.3c-.1 5.1-.2 9.8-.2 14.4v28.4H512z"/><path class="st0" d="M211.4 233.8c-2.5.5-5.2.8-7.6 1.6-9.1 3-18.2 6.1-27.8 9.3-17.8-13.5-35.6-27-53.5-40.5.1-.2.2-.4.3-.7 3.2 1.1 6.3 2.1 9.5 3.2 24.1 8.2 48.2 16.4 72.3 24.4 1.7.6 3.6 2.5 5.6.4l-.2.1c1.2-1 2.8-1.8 3.7-3.1 5.1-7 10-14.2 15-21.3 1.1-1.5 2.2-3 3.3-4.6h66.6c-2.4 1-4.2 1.8-6 2.5-24.8 8.4-49.6 16.8-74.4 25.3-2.4.8-4.6 2.3-6.9 3.4-.1.1.1 0 .1 0z"/><path class="st0" d="M211.2 233.9c8.8 2.8 17.5 5.6 26.3 8.4 2.3.8 4.6 1.6 7.6 2.7 6.7 21.5 13.5 43.3 20.3 65.2l-.6.3c-.9-1.1-1.8-2.2-2.6-3.4-16.8-24.1-33.7-48.2-50.5-72.3-.2-.3-.3-.7-.4-1l-.1.1zm-1.1 2v35.4c-17.3 13.1-34.7 26.3-52.1 39.5-.3-.2-.6-.5-.8-.7 17.2-25 34.7-49.7 52.9-74.2zm.2-4.3c-1.4-1.7-2.9-3.4-4.2-5.2-4.8-6.8-9.4-13.7-14.3-20.4-1.5-2.1-2.3-4.1-1.5-6.8 6.3-19.8 12.4-39.5 18.6-59.3.2-.5.5-1 1.1-2.1.1 1.7.3 2.8.3 3.8v87.3c0 .9-.1 1.9-.2 2.8l.2-.1z"/></svg>