<svg id="Layer_1" xmlns="http://www.w3.org/2000/svg" viewBox="0 0 1000 140"><style>.st0{fill:none;stroke:#fff;stroke-width:3.2492;stroke-linecap:round;stroke-linejoin:round;stroke-miterlimit:10}.st1{fill:#fff}</style><path class="st0" d="M2 51.5V2.3h957.2L998 70l-38.8 67.7H2V90.9"/><path class="st1" d="M132.2 111.5H67.9c-5.8 0-10.5-4.7-10.5-10.5V38.8c0-5.8 4.7-10.5 10.5-10.5h64.3V38H67.9c-.4 0-.8.4-.8.8V101c0 .4.4.8.8.8h64.3v9.7zm294.8 0h-58.6c-5.8 0-10.5-4.7-10.5-10.5V66.3c0-5.8 4.7-10.5 10.5-10.5H427c5.8 0 10.5 4.7 10.5 10.5V101c0 5.8-4.7 10.5-10.5 10.5zm-58.6-46c-.4 0-.8.4-.8.8V101c0 .4.4.8.8.8H427c.4 0 .8-.4.8-.8V66.3c0-.4-.4-.8-.8-.8h-58.6zm1.7-27h-9.7c0-5.8 4.7-10.5 10.5-10.5h64.3v9.7h-64.3c-.4 0-.8.3-.8.8zm260.7 73h-64.3c-5.8 0-10.5-4.7-10.5-10.5V66.3c0-5.8 4.7-10.5 10.5-10.5h64.3v9.7h-64.3c-.4 0-.8.4-.8.8V101c0 .4.4.8.8.8h64.3v9.7zm-65.1-73H556c0-5.8 4.7-10.5 10.5-10.5h64.3v9.7h-64.3c-.4 0-.8.3-.8.8zm256.8 73h-64.3c-5.8 0-10.5-4.7-10.5-10.5V66.3c0-5.8 4.7-10.5 10.5-10.5h64.3v9.7h-64.3c-.4 0-.8.4-.8.8V101c0 .4.4.8.8.8h64.3v9.7zm-65.1-73h-9.7c0-5.8 4.7-10.5 10.5-10.5h64.3v9.7h-64.3c-.4 0-.8.3-.8.8zm-524.5 72.6h-9.7V66.3c0-.4-.4-.8-.8-.8h-58.7c-.4 0-.8.4-.8.8v44.8h-9.7V66.3c0-5.8 4.7-10.5 10.5-10.5h58.7c5.8 0 10.5 4.7 10.5 10.5v44.8zm99.2 0l-10.8-43.8c-.4-1.8-.6-1.8-2.2-1.8h-47.4c-1.8 0-1.9.1-2.2 1.7l-10.8 43.9h-9.9L260 65.2c.7-3.5 3.1-9.5 11.7-9.5h47.4c8.5 0 11 6 11.7 9.5L342 111h-9.9zm-17.5-63.9l-1.9-7.5c-.4-1.8-.6-1.8-2.2-1.8h-30.2c-1.8 0-1.9.1-2.2 1.7l-.1.3-1.9 7.2h-9.9l2.4-9.6c.7-3.6 3.2-9.4 11.7-9.4h30.2c8.4 0 10.9 5.8 11.7 9.4l2.5 9.6h-10.1zm-91.4-19.1h9.7v19.2h-9.7zm-70 0h9.7v19.2h-9.7zm568.6-.1h9.7v19.3h-9.7zm211.1 64.8h9.7v19.3h-9.7zM651.9 28h9.7v19.3h-9.7zm79.6 83.5h-9.7V66.3c0-.4-.4-.8-.8-.8h-58.7c-.4 0-.8.4-.8.8v45.2h-9.7V66.3c0-5.8 4.7-10.5 10.5-10.5H721c5.8 0 10.5 4.7 10.5 10.5v45.2zm181.2 0H854c-5.8 0-10.5-4.7-10.5-10.5V28h9.7v73c0 .4.4.8.8.8h58.7c.4 0 .8-.4.8-.8V28h9.7v73c0 5.7-4.7 10.5-10.5 10.5z"/><path class="st1" d="M932.9 93.3h9.7v18.3h-9.7zM530.2 28h9.7v19.3h-9.7zm-38.3 0h9.7v19.3h-9.7zm37.4 27.8h-65.1c-5.8 0-10.5 4.7-10.5 10.5v45.2h9.7V66.3c0-.4.4-.8.8-.8h27.7v46h9.7v-46h27.7c.4 0 .8.4.8.8v45.2h9.7V66.3c.1-5.8-4.7-10.5-10.5-10.5zM453.7 28h9.7v19.3h-9.7z"/></svg>