<?xml version="1.0" encoding="utf-8"?>
<!-- Generator: Adobe Illustrator 21.1.0, SVG Export Plug-In . SVG Version: 6.00 Build 0)  -->
<!DOCTYPE svg PUBLIC "-//W3C//DTD SVG 1.1//EN" "http://www.w3.org/Graphics/SVG/1.1/DTD/svg11.dtd">
<svg version="1.1" id="Layer_1" xmlns="http://www.w3.org/2000/svg" xmlns:xlink="http://www.w3.org/1999/xlink" x="0px" y="0px"
	 viewBox="0 0 38 30" style="enable-background:new 0 0 38 30;" xml:space="preserve">
<style type="text/css">
	.st0{fill:#FFFFFF;}
	.st1{fill:none;stroke:#FFFFFF;stroke-width:2;stroke-miterlimit:10;}
</style>
<g id="hand">
	<g id="mobile_main-copy" transform="translate(-148.000000, -460.000000)">
		<path id="Fill-1" class="st0" d="M169.6,490h7.8c4.8,0,8.6-3.9,8.6-8.7v-7.8c0-1.8-1.5-3.3-3.3-3.3c-0.5,0-1,0.1-1.4,0.3
			c-0.3-1.5-1.6-2.7-3.2-2.7c-0.5,0-1,0.1-1.4,0.3c-0.4-1.4-1.7-2.5-3.2-2.5c-0.5,0-0.9,0.1-1.3,0.3v-2.5c0-1.8-1.5-3.3-3.3-3.3
			c-1.8,0-3.3,1.5-3.3,3.3v8.1c-0.4-0.2-0.8-0.3-1.3-0.3c-1.8,0-3.3,1.5-3.3,3.3v6.8C161,486.1,164.9,490,169.6,490z M169.6,488
			c-3.7,0-6.6-3-6.6-6.7v-6.8c0-0.7,0.6-1.3,1.3-1.3c0.7,0,1.3,0.6,1.3,1.3v5.3h2v-16.5c0-0.7,0.6-1.3,1.3-1.3
			c0.7,0,1.3,0.6,1.3,1.3v10.2h2v-4.6c0-0.7,0.6-1.3,1.3-1.3s1.3,0.6,1.3,1.3v4.6h2v-2.4c0-0.7,0.6-1.3,1.3-1.3
			c0.7,0,1.3,0.6,1.3,1.3v2.4h2c0-0.7,0.6-1.3,1.3-1.3c0.7,0,1.3,0.6,1.3,1.3v7.8c0,3.7-3,6.7-6.6,6.7H169.6z"/>
	</g>
</g>
<g id="arrow">
	<polyline class="st1" points="1,23 6,28 11,23 	"/>
	<polyline class="st1" points="1,7 6,2 11,7 	"/>
	<line class="st1" x1="6" y1="2" x2="6" y2="28"/>
</g>
</svg>
