<?xml version="1.0" encoding="utf-8"?>
<!-- Generator: Adobe Illustrator 21.0.2, SVG Export Plug-In . SVG Version: 6.00 Build 0)  -->
<!DOCTYPE svg PUBLIC "-//W3C//DTD SVG 1.1//EN" "http://www.w3.org/Graphics/SVG/1.1/DTD/svg11.dtd">
<svg version="1.1" id="Layer_1" xmlns="http://www.w3.org/2000/svg" xmlns:xlink="http://www.w3.org/1999/xlink" x="0px" y="0px"
	 viewBox="0 0 50 50" style="enable-background:new 0 0 50 50;" xml:space="preserve">
<style type="text/css">
	.st0{fill:#FFFFFF;}
</style>
<path class="st0" d="M48.9,0c-0.1,0-0.3,0.1-0.4,0.1l-48,26C0,26.4-0.1,27,0.1,27.5c0.1,0.2,0.3,0.4,0.6,0.5l13.6,4.5L13,45.9
	c-0.1,0.5,0.3,1,0.9,1.1c0.3,0,0.7-0.1,0.9-0.4l8.6-9.7l13,12.8c0.4,0.4,1,0.4,1.4,0c0.1-0.1,0.2-0.3,0.3-0.5l12-48
	c0.1-0.5-0.2-1.1-0.7-1.2C49.2,0,49,0,48.9,0z M47.5,2.9l-11,44.1L24.6,35.4l17.2-23.8c0.4-0.4,0.4-1,0-1.4c-0.4-0.4-1-0.4-1.4,0
	L15.2,30.6L3.5,26.8L47.5,2.9z M35.8,16.5L22.7,34.7c0,0-0.1,0.1-0.1,0.1l-0.1,0.1c0,0,0,0.1-0.1,0.1l-7.2,8l1.1-10.8L35.8,16.5z"/>
</svg>
