<svg id="Layer_1" xmlns="http://www.w3.org/2000/svg" viewBox="0 0 1000 240"><style>.st0{enable-background:new}.st1{fill:#fff}</style><g class="st0"><path class="st1" d="M34 .1C45 .1 52.8 3 57.6 8.8c4.8 5.8 7.2 14.2 7.2 25.2v58.2c0 13.9-4.6 23.2-13.7 27.7 11.4 4.6 17.1 14.8 17.1 30.8V202c0 12.3-2.7 21.7-8 28.1-5.4 6.4-14.1 9.6-26.2 9.6H-.2V.1H34zm-20.5 13v100.3H34c11.4 0 17.1-7.1 17.1-21.2V34c0-13.9-5.7-20.9-17.1-20.9H13.5zm0 113.3v100.3H34c7.3 0 12.5-2.1 15.7-6.3 3.2-4.2 4.8-10.3 4.8-18.3v-51.3c0-8-1.6-14-4.8-18.1-3.2-4.1-8.4-6.2-15.7-6.2H13.5zm136.9 68.5h-44.2l-6.2 44.8H86L121.6-.2h13.7l35.6 239.9h-14l-6.5-44.8zm-42.1-13h40.4l-9.9-69.5L128.5 32l-10.3 80.4-9.9 69.5zM244.5.1h13.7v239.6h-13.7L202.4 54.2l1 44.8v140.7h-13.7V.1h13.7l42.1 185.5-1-44.8V.1zm39.7 0h34.2c12.1 0 20.8 3.5 26.2 10.4 5.4 7 8 17.1 8 30.3v157.8c0 13.2-2.7 23.4-8 30.5-5.4 7.1-14.1 10.6-26.2 10.6h-34.2V.1zm13.7 13v213.6h20.5c7.3 0 12.5-2.4 15.7-7.4 3.2-4.9 4.8-11.8 4.8-20.7V40.9c0-8.9-1.6-15.7-4.8-20.5-3.2-4.8-8.4-7.2-15.7-7.2h-20.5zm187.2 181.8h-13.7L441.3 40.5l1.7 44.8v154.4h-13.7V.1H443l25 110.2 10.3 66.4 10.3-66.4L513.6.1h13.7v239.6h-13.7V85.4l1.7-44.8-30.2 154.3zM609.7 13.5h-42.8v99.9h35.9v13h-35.9v99.9h42.8v13.3h-56.5V.1h56.5v13.4zm76.7 181.4h-13.7L642.6 40.5l1.7 44.8v154.4h-13.7V.1h13.7l25 110.2 10.3 66.4 10.3-66.4L714.9.1h13.7v239.6h-13.7V85.4l1.7-44.8-30.2 154.3zM788.7.1c11 0 18.8 2.9 23.6 8.7 4.8 5.8 7.2 14.2 7.2 25.2v58.2c0 13.9-4.6 23.2-13.7 27.7 11.4 4.6 17.1 14.8 17.1 30.8V202c0 12.3-2.7 21.7-8 28.1-5.4 6.4-14.1 9.6-26.2 9.6h-34.2V.1h34.2zm-20.5 13v100.3h20.5c11.4 0 17.1-7.1 17.1-21.2V34c0-13.9-5.7-20.9-17.1-20.9h-20.5zm0 113.3v100.3h20.5c7.3 0 12.5-2.1 15.7-6.3 3.2-4.2 4.8-10.3 4.8-18.3v-51.3c0-8-1.6-14-4.8-18.1-3.2-4.1-8.4-6.2-15.7-6.2h-20.5zM904.4 13.5h-42.8v99.9h35.9v13h-35.9v99.9h42.8v13.3h-56.5V.1h56.5v13.4zM925.3.1h32.5c12.1 0 20.8 3.5 26.2 10.4 5.4 7 8 17.1 8 30.3v57.8c0 11.2-1.9 20.1-5.6 26.9-3.8 6.7-9.8 11.1-18 13.2l30.1 101h-14l-30.1-99.9H939v99.9h-13.7V.1zm13.7 13v113.6h18.8c7.3 0 12.5-2.4 15.7-7.4 3.2-4.9 4.8-11.8 4.8-20.7V40.9c0-8.9-1.6-15.7-4.8-20.5-3.2-4.8-8.4-7.2-15.7-7.2H939z"/></g></svg>