<svg id="Layer_1" xmlns="http://www.w3.org/2000/svg" viewBox="0 0 1000 154"><style>.st0,.st1{fill:none;stroke:#fff;stroke-width:40;stroke-miterlimit:10}.st1{opacity:.5}.st1,.st2{enable-background:new}.st3{fill:#fff}.st4{opacity:.5;enable-background:new}</style><path class="st0" d="M466.3 132.1V76.4c0-29.2-23-55.7-55.7-55.7S355 48.2 355 76.4v55.7m0 0V76.4c0-29.2-23-55.7-55.7-55.7s-55.7 27.5-55.7 55.7v55.7"/><path class="st1" d="M243.6 132.1V76.4c0-29.2-23-55.7-55.7-55.7s-55.7 27.5-55.7 55.7 17.7 55.7 55.7 55.7h55.7z"/><circle class="st1" cx="76.7" cy="76.4" r="55.7"/><g class="st2"><path class="st3" d="M572.8 78.7v53.4h-7.6V95.5c0-.6 0-1.2.1-1.9s.1-1.4.2-2.1l-17.2 31.7c-.7 1.3-1.7 2-3.1 2H544c-1.4 0-2.4-.7-3.1-2l-17.4-31.8c.1.7.1 1.4.2 2.2 0 .7.1 1.4.1 2v36.6h-7.6V78.7h6.5c.8 0 1.4.1 1.8.2.4.1.8.6 1.1 1.2l17.1 31.1c.4.7.7 1.5 1.1 2.2.3.8.6 1.5.9 2.3l.9-2.4c.3-.8.7-1.5 1.1-2.2l16.9-31c.3-.7.7-1.1 1.2-1.2.4-.1 1-.2 1.8-.2h6.2zm15.8 35.1c.1 2.2.4 4 1 5.6.6 1.6 1.3 2.9 2.3 3.9 1 1 2.1 1.8 3.4 2.3s2.8.8 4.4.8c1.6 0 2.9-.2 4-.5 1.1-.4 2.1-.8 3-1.2s1.6-.8 2.2-1.2 1.1-.5 1.6-.5c.6 0 1.1.2 1.5.7l2.3 2.9c-.9 1.1-2 2.1-3.2 2.8-1.2.8-2.4 1.4-3.8 1.9-1.3.5-2.7.8-4.1 1-1.4.2-2.8.3-4.1.3-2.6 0-5.1-.4-7.3-1.3s-4.2-2.2-5.8-3.9c-1.6-1.7-2.9-3.8-3.9-6.3s-1.4-5.4-1.4-8.7c0-2.6.4-5.1 1.2-7.3.8-2.3 2-4.3 3.6-5.9s3.4-3 5.6-4c2.2-1 4.7-1.5 7.5-1.5 2.3 0 4.5.4 6.5 1.1 2 .8 3.7 1.9 5.1 3.3s2.6 3.2 3.4 5.4c.8 2.1 1.2 4.5 1.2 7.2 0 1.2-.1 2.1-.4 2.5-.3.4-.8.6-1.5.6h-24.3zm19-4.9c0-1.3-.2-2.6-.6-3.7s-.9-2.2-1.7-3-1.7-1.5-2.8-2c-1.1-.5-2.4-.7-3.8-.7-2.9 0-5.2.8-6.8 2.5-1.7 1.7-2.7 4-3.2 7h18.9zm26.4 23.8c-3.1 0-5.6-.9-7.3-2.7-1.7-1.8-2.5-4.3-2.5-7.5v-22H620c-.4 0-.8-.1-1.2-.4s-.5-.7-.5-1.3v-3.2l6.1-.9 1.7-10.9c.1-.4.3-.8.6-1s.7-.4 1.2-.4h4.1v12.4h10.5v5.8H632V122c0 1.4.3 2.4 1 3.1s1.6 1.1 2.7 1.1c.6 0 1.2-.1 1.6-.2.4-.2.8-.3 1.2-.5.3-.2.6-.4.8-.5s.5-.2.7-.2c.4 0 .8.2 1.1.7l2.4 3.9c-1.2 1.1-2.7 1.9-4.4 2.5-1.6.5-3.3.8-5.1.8zm22.5-31.4c1.2-2.4 2.6-4.3 4.3-5.7s3.7-2.1 6-2.1c.8 0 1.6.1 2.3.3.7.2 1.4.5 1.9.8l-.6 6c-.1.4-.3.7-.5.9-.2.2-.5.2-.8.2-.4 0-.9-.1-1.6-.2-.7-.1-1.4-.2-2.2-.2-1.1 0-2.1.2-3 .5-.9.3-1.6.8-2.3 1.4-.7.6-1.3 1.4-1.8 2.3s-1 1.9-1.4 3V132h-8V94.2h4.6c.8 0 1.4.2 1.7.5.3.3.5.8.7 1.6l.7 5zM686 82.8c0 .7-.1 1.4-.4 2-.3.6-.7 1.2-1.2 1.7s-1.1.9-1.7 1.2c-.7.3-1.4.4-2.1.4-.7 0-1.4-.1-2-.4s-1.2-.7-1.7-1.2-.8-1-1.1-1.7-.4-1.3-.4-2 .1-1.4.4-2.1c.3-.6.7-1.2 1.1-1.7s1-.9 1.7-1.2c.6-.3 1.3-.4 2-.4s1.4.1 2.1.4c.7.3 1.2.7 1.7 1.2s.9 1 1.2 1.7c.3.7.4 1.4.4 2.1zm-1.3 11.4V132h-8V94.2h8zm36.8 7.5c-.2.3-.5.6-.7.7-.2.2-.5.3-1 .3s-.9-.1-1.3-.4-1-.6-1.6-1c-.6-.4-1.4-.7-2.3-1s-2-.4-3.3-.4c-1.7 0-3.2.3-4.5.9-1.3.6-2.4 1.5-3.3 2.7-.9 1.2-1.5 2.5-2 4.2-.4 1.6-.6 3.5-.6 5.5 0 2.1.2 4 .7 5.7.5 1.7 1.1 3.1 2 4.2.9 1.1 1.9 2 3.2 2.6 1.2.6 2.7.9 4.2.9s2.8-.2 3.7-.6c1-.4 1.8-.8 2.4-1.2.6-.4 1.2-.9 1.7-1.2s.9-.6 1.5-.6 1.1.2 1.5.7l2.3 2.9c-.9 1.1-1.9 2.1-3 2.8-1.1.8-2.3 1.4-3.5 1.9-1.2.5-2.5.8-3.9 1-1.3.2-2.7.3-4 .3-2.4 0-4.5-.4-6.6-1.3s-3.8-2.2-5.3-3.8-2.7-3.7-3.6-6.1-1.3-5.2-1.3-8.3c0-2.8.4-5.4 1.2-7.8.8-2.4 1.9-4.4 3.5-6.2s3.4-3.1 5.7-4.1c2.2-1 4.8-1.5 7.8-1.5 2.7 0 5.2.4 7.3 1.3 2.1.9 4 2.2 5.6 3.8l-2.5 3.1zm31.5-.6c-.2.3-.4.6-.7.7-.2.1-.6.2-.9.2-.4 0-.9-.1-1.4-.4-.5-.3-1.1-.5-1.7-.9-.7-.3-1.5-.6-2.4-.9s-2-.4-3.2-.4c-1 0-1.9.1-2.7.4-.8.2-1.5.6-2 1-.6.4-1 .9-1.3 1.5-.3.6-.4 1.2-.4 1.9 0 .9.3 1.6.8 2.2.5.6 1.3 1.1 2.2 1.5s1.9.8 3 1.2 2.3.7 3.5 1.1 2.3.9 3.5 1.4c1.1.5 2.2 1.2 3 1.9.9.8 1.6 1.7 2.2 2.7s.8 2.4.8 3.9c0 1.8-.3 3.4-1 4.9s-1.6 2.8-2.8 3.9c-1.2 1.1-2.8 2-4.6 2.6s-4 .9-6.3.9c-1.3 0-2.6-.1-3.8-.4-1.2-.2-2.4-.6-3.5-1s-2.1-.9-3.1-1.5-1.8-1.2-2.5-1.9l1.9-3c.2-.4.5-.7.8-.9s.7-.3 1.2-.3 1 .2 1.5.5 1.1.7 1.8 1.1c.7.4 1.5.8 2.5 1.1s2.2.5 3.6.5c1.2 0 2.2-.1 3.1-.4.9-.3 1.6-.7 2.2-1.2s1-1.1 1.3-1.7c.3-.6.4-1.3.4-2 0-1-.3-1.8-.8-2.4s-1.3-1.2-2.2-1.6-1.9-.8-3.1-1.2c-1.1-.3-2.3-.7-3.5-1.1-1.2-.4-2.4-.9-3.5-1.4s-2.2-1.2-3.1-2-1.6-1.8-2.2-2.9-.8-2.6-.8-4.2c0-1.5.3-2.9.9-4.3.6-1.4 1.5-2.6 2.7-3.6s2.6-1.9 4.3-2.5c1.7-.6 3.7-.9 6-.9 2.5 0 4.9.4 6.9 1.2s3.8 1.9 5.2 3.3l-1.8 3.4z"/></g><g class="st4"><path class="st3" d="M566.1 32.4c0 4-.6 7.6-1.9 10.9-1.3 3.3-3.1 6.2-5.4 8.6-2.3 2.4-5.1 4.3-8.4 5.7-3.3 1.4-6.9 2-10.9 2s-7.6-.7-10.9-2c-3.3-1.4-6.1-3.2-8.4-5.7-2.4-2.4-4.2-5.3-5.5-8.6-1.3-3.3-1.9-7-1.9-10.9s.6-7.6 1.9-10.9 3.1-6.2 5.5-8.6c2.3-2.4 5.2-4.3 8.4-5.7 3.3-1.4 6.9-2 10.9-2s7.7.7 10.9 2c3.3 1.4 6.1 3.3 8.4 5.7s4.1 5.3 5.4 8.6 1.9 7 1.9 10.9zm-8.8 0c0-3.1-.4-5.8-1.2-8.3-.8-2.4-2-4.5-3.6-6.2s-3.4-3-5.6-3.9c-2.2-.9-4.7-1.4-7.4-1.4s-5.2.5-7.4 1.4c-2.2.9-4.1 2.2-5.6 3.9-1.6 1.7-2.8 3.8-3.6 6.2-.8 2.4-1.3 5.2-1.3 8.3 0 3.1.4 5.9 1.3 8.3.8 2.4 2 4.5 3.6 6.2 1.6 1.7 3.4 3 5.6 3.9 2.2.9 4.7 1.4 7.4 1.4s5.2-.5 7.4-1.4c2.2-.9 4.1-2.2 5.6-3.9s2.7-3.8 3.6-6.2c.7-2.4 1.2-5.2 1.2-8.3zm23.7-5.6c1.6-1.9 3.4-3.4 5.4-4.5 2-1.1 4.4-1.7 7-1.7 2.1 0 4.1.4 5.8 1.3 1.7.9 3.2 2.1 4.5 3.7s2.2 3.7 2.9 6.1 1 5.2 1 8.3c0 2.8-.4 5.4-1.1 7.8s-1.8 4.5-3.2 6.3c-1.4 1.8-3.1 3.2-5.1 4.2s-4.3 1.5-6.8 1.5c-2.2 0-4.1-.4-5.7-1.1-1.5-.7-3-1.7-4.2-3v16.1h-8V21.3h4.8c1.1 0 1.8.5 2.1 1.5l.6 4zm.4 22.8c1.1 1.4 2.3 2.4 3.7 3s2.8.9 4.4.9c3.1 0 5.5-1.1 7.3-3.4s2.6-5.7 2.6-10.2c0-2.3-.2-4.3-.6-6-.4-1.6-1-3-1.7-4s-1.6-1.8-2.7-2.3c-1.1-.5-2.3-.7-3.6-.7-2 0-3.8.4-5.2 1.3-1.5.9-2.8 2.1-4.1 3.8v17.6zm39.7-8.8c.1 2.2.4 4 1 5.6.6 1.6 1.3 2.9 2.3 3.9 1 1 2.1 1.8 3.4 2.3s2.8.8 4.4.8c1.6 0 2.9-.2 4-.5 1.1-.4 2.1-.8 3-1.2s1.6-.8 2.2-1.2 1.1-.5 1.6-.5c.6 0 1.1.2 1.5.7l2.3 2.9c-.9 1.1-2 2.1-3.2 2.8-1.2.8-2.4 1.4-3.8 1.9-1.3.5-2.7.8-4.1 1-1.4.2-2.8.3-4.1.3-2.6 0-5.1-.4-7.3-1.3s-4.2-2.2-5.8-3.9c-1.6-1.7-2.9-3.8-3.9-6.3s-1.4-5.4-1.4-8.7c0-2.6.4-5.1 1.2-7.3.8-2.3 2-4.3 3.6-5.9s3.4-3 5.6-4c2.2-1 4.7-1.5 7.5-1.5 2.3 0 4.5.4 6.5 1.1 2 .8 3.7 1.9 5.1 3.3s2.6 3.2 3.4 5.4c.8 2.1 1.2 4.5 1.2 7.2 0 1.2-.1 2.1-.4 2.5-.3.4-.8.6-1.5.6h-24.3zm19.1-4.9c0-1.3-.2-2.6-.6-3.7s-.9-2.2-1.7-3-1.7-1.5-2.8-2c-1.1-.5-2.4-.7-3.8-.7-2.9 0-5.2.8-6.8 2.5-1.7 1.7-2.7 4-3.2 7h18.9zm22-9.6c.8-.8 1.7-1.6 2.5-2.3.9-.7 1.8-1.3 2.8-1.8s2-.9 3.2-1.2c1.1-.3 2.3-.4 3.6-.4 2.1 0 3.9.3 5.5 1s2.9 1.7 4 2.9 1.9 2.8 2.4 4.5c.5 1.8.8 3.7.8 5.8v24.1h-7.9V35.1c0-2.5-.6-4.5-1.8-5.9-1.2-1.4-3-2.1-5.4-2.1-1.8 0-3.4.4-5 1.2-1.5.8-2.9 1.9-4.3 3.3v27.6h-8V21.3h4.8c1.1 0 1.8.5 2.1 1.5l.7 3.5zm96.4 32.8h-6.7c-.8 0-1.4-.2-1.9-.6-.5-.4-.8-.9-1.1-1.4l-4.5-11.8h-23L717 57.1c-.2.5-.5 1-1 1.4-.5.4-1.1.6-1.9.6h-6.7l21.2-53.4h8.8l21.2 53.4zm-16.4-20l-7.3-19.5c-.6-1.5-1.2-3.4-1.8-5.8-.3 1.2-.6 2.2-.9 3.2-.3 1-.6 1.8-.9 2.6L724 39.1h18.2zm46.9-10.4c-.2.3-.5.6-.7.7-.2.2-.5.3-1 .3s-.9-.1-1.3-.4-1-.6-1.6-1c-.6-.4-1.4-.7-2.3-1s-2-.4-3.3-.4c-1.7 0-3.2.3-4.5.9-1.3.6-2.4 1.5-3.3 2.7-.9 1.2-1.5 2.5-2 4.2-.4 1.6-.6 3.5-.6 5.5 0 2.1.2 4 .7 5.7.5 1.7 1.1 3.1 2 4.2.9 1.1 1.9 2 3.2 2.6 1.2.6 2.7.9 4.2.9s2.8-.2 3.7-.6c1-.4 1.8-.8 2.4-1.2.6-.4 1.2-.9 1.7-1.2s.9-.6 1.5-.6 1.1.2 1.5.7l2.3 2.9c-.9 1.1-1.9 2.1-3 2.8-1.1.8-2.3 1.4-3.5 1.9-1.2.5-2.5.8-3.9 1-1.3.2-2.7.3-4 .3-2.4 0-4.5-.4-6.6-1.3s-3.8-2.2-5.3-3.8-2.7-3.7-3.6-6.1-1.3-5.2-1.3-8.3c0-2.8.4-5.4 1.2-7.8.8-2.4 1.9-4.4 3.5-6.2s3.4-3.1 5.7-4.1c2.2-1 4.8-1.5 7.8-1.5 2.7 0 5.2.4 7.3 1.3 2.1.9 4 2.2 5.6 3.8l-2.5 3.1zm34.9 0c-.2.3-.5.6-.7.7-.2.2-.5.3-1 .3s-.9-.1-1.3-.4-1-.6-1.6-1c-.6-.4-1.4-.7-2.3-1s-2-.4-3.3-.4c-1.7 0-3.2.3-4.5.9-1.3.6-2.4 1.5-3.3 2.7-.9 1.2-1.5 2.5-2 4.2-.4 1.6-.6 3.5-.6 5.5 0 2.1.2 4 .7 5.7.5 1.7 1.1 3.1 2 4.2.9 1.1 1.9 2 3.2 2.6 1.2.6 2.7.9 4.2.9s2.8-.2 3.7-.6c1-.4 1.8-.8 2.4-1.2.6-.4 1.2-.9 1.7-1.2s.9-.6 1.5-.6 1.1.2 1.5.7l2.3 2.9c-.9 1.1-1.9 2.1-3 2.8-1.1.8-2.3 1.4-3.5 1.9-1.2.5-2.5.8-3.9 1-1.3.2-2.7.3-4 .3-2.4 0-4.5-.4-6.6-1.3s-3.8-2.2-5.3-3.8-2.7-3.7-3.6-6.1-1.3-5.2-1.3-8.3c0-2.8.4-5.4 1.2-7.8.8-2.4 1.9-4.4 3.5-6.2s3.4-3.1 5.7-4.1c2.2-1 4.8-1.5 7.8-1.5 2.7 0 5.2.4 7.3 1.3 2.1.9 4 2.2 5.6 3.8l-2.5 3.1zm14 12.1c.1 2.2.4 4 1 5.6.6 1.6 1.3 2.9 2.3 3.9 1 1 2.1 1.8 3.4 2.3s2.8.8 4.4.8c1.6 0 2.9-.2 4-.5 1.1-.4 2.1-.8 3-1.2s1.6-.8 2.2-1.2 1.1-.5 1.6-.5c.6 0 1.1.2 1.5.7l2.3 2.9c-.9 1.1-2 2.1-3.2 2.8-1.2.8-2.4 1.4-3.8 1.9-1.3.5-2.7.8-4.1 1-1.4.2-2.8.3-4.1.3-2.6 0-5.1-.4-7.3-1.3s-4.2-2.2-5.8-3.9c-1.6-1.7-2.9-3.8-3.9-6.3s-1.4-5.4-1.4-8.7c0-2.6.4-5.1 1.2-7.3.8-2.3 2-4.3 3.6-5.9s3.4-3 5.6-4c2.2-1 4.7-1.5 7.5-1.5 2.3 0 4.5.4 6.5 1.1 2 .8 3.7 1.9 5.1 3.3s2.6 3.2 3.4 5.4c.8 2.1 1.2 4.5 1.2 7.2 0 1.2-.1 2.1-.4 2.5-.3.4-.8.6-1.5.6H838zm19.1-4.9c0-1.3-.2-2.6-.6-3.7s-.9-2.2-1.7-3-1.7-1.5-2.8-2c-1.1-.5-2.4-.7-3.8-.7-2.9 0-5.2.8-6.8 2.5-1.7 1.7-2.7 4-3.2 7h18.9zm37.2-7.8c-.2.3-.4.6-.7.7-.2.1-.6.2-.9.2-.4 0-.9-.1-1.4-.4-.5-.3-1.1-.5-1.7-.9-.7-.3-1.5-.6-2.4-.9s-2-.4-3.2-.4c-1 0-1.9.1-2.7.4-.8.2-1.5.6-2 1-.6.4-1 .9-1.3 1.5-.3.6-.4 1.2-.4 1.9 0 .9.3 1.6.8 2.2.5.6 1.3 1.1 2.2 1.5s1.9.8 3 1.2 2.3.7 3.5 1.1 2.3.9 3.5 1.4c1.1.5 2.2 1.2 3 1.9.9.8 1.6 1.7 2.2 2.7s.8 2.4.8 3.9c0 1.8-.3 3.4-1 4.9s-1.6 2.8-2.8 3.9c-1.2 1.1-2.8 2-4.6 2.6s-4 .9-6.3.9c-1.3 0-2.6-.1-3.8-.4-1.2-.2-2.4-.6-3.5-1s-2.1-.9-3.1-1.5-1.8-1.2-2.5-1.9l1.9-3c.2-.4.5-.7.8-.9s.7-.3 1.2-.3 1 .2 1.5.5 1.1.7 1.8 1.1c.7.4 1.5.8 2.5 1.1s2.2.5 3.6.5c1.2 0 2.2-.1 3.1-.4.9-.3 1.6-.7 2.2-1.2s1-1.1 1.3-1.7c.3-.6.4-1.3.4-2 0-1-.3-1.8-.8-2.4s-1.3-1.2-2.2-1.6-1.9-.8-3.1-1.2c-1.1-.3-2.3-.7-3.5-1.1-1.2-.4-2.4-.9-3.5-1.4s-2.2-1.2-3.1-2-1.6-1.8-2.2-2.9-.9-2.1-.9-3.7c0-1.5.3-2.9.9-4.3.6-1.4 1.5-2.6 2.7-3.6s2.6-1.9 4.3-2.5c1.7-.6 3.7-.9 6-.9 2.5 0 4.9.4 6.9 1.2s3.8 1.9 5.2 3.3l-1.7 2.9zm32.3 0c-.2.3-.4.6-.7.7-.2.1-.6.2-.9.2-.4 0-.9-.1-1.4-.4-.5-.3-1.1-.5-1.7-.9-.7-.3-1.5-.6-2.4-.9s-2-.4-3.2-.4c-1 0-1.9.1-2.7.4-.8.2-1.5.6-2 1-.6.4-1 .9-1.3 1.5-.3.6-.4 1.2-.4 1.9 0 .9.3 1.6.8 2.2.5.6 1.3 1.1 2.2 1.5s1.9.8 3 1.2 2.3.7 3.5 1.1 2.3.9 3.5 1.4c1.1.5 2.2 1.2 3 1.9.9.8 1.6 1.7 2.2 2.7s.8 2.4.8 3.9c0 1.8-.3 3.4-1 4.9s-1.6 2.8-2.8 3.9c-1.2 1.1-2.8 2-4.6 2.6s-4 .9-6.3.9c-1.3 0-2.6-.1-3.8-.4-1.2-.2-2.4-.6-3.5-1s-2.1-.9-3.1-1.5-1.8-1.2-2.5-1.9l1.9-3c.2-.4.5-.7.8-.9s.7-.3 1.2-.3 1 .2 1.5.5 1.1.7 1.8 1.1c.7.4 1.5.8 2.5 1.1s2.2.5 3.6.5c1.2 0 2.2-.1 3.1-.4.9-.3 1.6-.7 2.2-1.2s1-1.1 1.3-1.7c.3-.6.4-1.3.4-2 0-1-.3-1.8-.8-2.4s-1.3-1.2-2.2-1.6-1.9-.8-3.1-1.2c-1.1-.3-2.3-.7-3.5-1.1-1.2-.4-2.4-.9-3.5-1.4s-2.2-1.2-3.1-2-1.6-1.8-2.2-2.9-.8-2.6-.8-4.2c0-1.5.3-2.9.9-4.3.6-1.4 1.5-2.6 2.7-3.6s2.6-1.9 4.3-2.5c1.7-.6 3.7-.9 6-.9 2.5 0 4.9.4 6.9 1.2s3.8 1.9 5.2 3.3l-1.8 3.4z"/></g></svg>