<svg id="Layer_1" xmlns="http://www.w3.org/2000/svg" viewBox="0 0 1000 180"><style>.st0{fill:#fff}.st1{stroke-width:.7278}.st1,.st2,.st3{fill:none;stroke:#fff}.st2{stroke-width:1.4556}.st3{stroke-width:.9098;stroke-miterlimit:22.9256}</style><path class="st0" d="M200.7 113.3h19v3.5h-15.1v25.8h-3.9v-29.3zm22.1 29.3v-29.3h11c1.9 0 3.4.1 4.5.3 1.4.2 2.6.7 3.6 1.4s1.8 1.6 2.3 2.8c.6 1.2.9 2.5.9 4 0 2.5-.8 4.6-2.4 6.3-1.6 1.7-4.5 2.6-8.6 2.6h-7.5v11.9h-3.8zm3.9-15.4h7.6c2.5 0 4.3-.5 5.3-1.4 1-.9 1.6-2.2 1.6-3.9 0-1.2-.3-2.3-.9-3.2-.6-.9-1.4-1.4-2.4-1.7-.7-.2-1.9-.3-3.6-.3h-7.5v10.5h-.1zm19.6-13.9h3.9l9.5 17.9 8.4-17.9h3.9l-11 22.8c-1.4 2.9-2.5 4.7-3.4 5.6-.9.9-2.1 1.3-3.8 1.3-1 0-2.2-.2-3.7-.7V139c1 .6 2.1.9 3.3.9.9 0 1.8-.3 2.4-.9.7-.6 1.4-2 2.3-4.1l-11.8-21.6zm29 0h23v29.3h-3.9v-25.8h-15.3v25.8h-3.8v-29.3zm29.4 0h23v29.3h-3.9v-25.8h-15.3v25.8h-3.8v-29.3zm26.1 29.3l11.3-29.3h4.2l12 29.3h-4.4l-3.4-8.9h-12.2l-3.2 8.9h-4.3zm8.5-12h9.9l-3.1-8.1c-.9-2.5-1.6-4.5-2.1-6.1-.4 1.9-.9 3.7-1.6 5.6l-3.1 8.6zm33.5-17.3h3.9v12.8c1.8 0 3-.3 3.7-1 .7-.7 1.6-2.3 2.8-4.9.8-1.9 1.5-3.3 2-4.1.5-.8 1.3-1.5 2.2-2 1-.5 2-.8 3.2-.8h2.4v3.4h-1.6c-1.2 0-2.2.3-2.8.9-.6.6-1.3 1.9-2.1 3.8-1 2.5-1.8 4-2.5 4.7-.7.6-1.5 1.2-2.4 1.5 1.9.5 3.7 2.3 5.6 5.2l6 9.8h-4.8l-4.9-7.9c-1.3-2.2-2.5-3.7-3.4-4.5-.9-.8-2.1-1.2-3.5-1.2v13.7h-3.9v-29.4h.1zm22.1 15c0-4.9 1.3-8.7 3.9-11.4 2.6-2.7 6-4.1 10.1-4.1 2.7 0 5.1.6 7.3 1.9 2.2 1.3 3.8 3.1 5 5.4 1.1 2.3 1.7 4.9 1.7 7.9s-.6 5.6-1.8 8c-1.2 2.3-2.9 4.1-5.1 5.3-2.2 1.2-4.6 1.8-7.1 1.8-2.8 0-5.2-.7-7.4-2s-3.8-3.2-4.9-5.5c-1.1-2.3-1.7-4.7-1.7-7.3zm4 .1c0 3.5.9 6.3 2.8 8.3 1.9 2 4.3 3 7.1 3 2.9 0 5.3-1 7.2-3.1 1.9-2.1 2.8-5 2.8-8.7 0-2.4-.4-4.5-1.2-6.2-.8-1.8-2-3.2-3.5-4.1-1.6-1-3.3-1.5-5.2-1.5-2.7 0-5.1.9-7.1 2.8-1.9 1.9-2.9 5.1-2.9 9.5zm28.9 14.2v-29.3h5.8l6.9 20.7c.6 1.9 1.1 3.4 1.4 4.3.3-1.1.9-2.6 1.6-4.7l7-20.4h5.2v29.3H452V118l-8.5 24.5H440l-8.5-24.9v24.9h-3.7v.1zm34.2-29.3h23.1v29.3h-3.9v-25.8h-15.3v25.8H462v-29.3zm26.2 29.3l11.3-29.3h4.2l12 29.3h-4.4l-3.4-8.9h-12.2l-3.2 8.9h-4.3zm8.4-12h9.9l-3.1-8.1c-.9-2.5-1.6-4.5-2.1-6.1-.4 1.9-.9 3.7-1.6 5.6l-3.1 8.6zm22.2 12v-29.3h3.9v12h15.2v-12h3.9v29.3h-3.9v-13.8h-15.2v13.8h-3.9zm29.5-29.3h3.5v23.2l15.6-23.2h3.9v29.3h-3.5v-23.1l-15.6 23.1h-3.9v-29.3zm29.4 0h3.5v23.2l15.6-23.2h3.9v29.3h-3.5v-23.1l-15.6 23.1h-3.9v-29.3zm14.6-7h2.4c-.2 1.7-.8 2.9-1.8 3.8-1 .9-2.4 1.3-4.1 1.3-1.7 0-3.1-.4-4.1-1.3-1-.9-1.6-2.2-1.8-3.8h2.5c.2.9.6 1.6 1.1 2 .6.4 1.3.7 2.2.7 1.1 0 1.9-.2 2.4-.6.6-.4 1-1.1 1.2-2.1zM200 90.6V44.7h17.3c3 0 5.4.2 7 .4 2.3.4 4.1 1.1 5.7 2.1 1.5 1 2.7 2.5 3.7 4.4.9 1.9 1.4 4 1.4 6.3 0 3.9-1.2 7.2-3.7 9.9s-7 4-13.4 4h-11.8v18.6H200v.2zm6.1-24.1H218c3.9 0 6.7-.7 8.3-2.2 1.6-1.5 2.5-3.5 2.5-6.2 0-1.9-.5-3.6-1.5-4.9-1-1.4-2.2-2.3-3.8-2.7-1-.3-2.9-.4-5.7-.4h-11.7v16.4zm30.6-21.8h6.1l14.9 28.1 13.1-28.1h6l-17.2 35.6c-2.2 4.5-3.9 7.4-5.3 8.7-1.4 1.4-3.3 2.1-5.9 2.1-1.6 0-3.5-.4-5.8-1.1v-5.2c1.6.9 3.3 1.4 5.2 1.4 1.5 0 2.8-.5 3.8-1.4 1.1-.9 2.3-3.1 3.6-6.5l-18.5-33.6zm78 29.8l6.1 1.5c-1.3 5-3.6 8.8-6.9 11.4-3.3 2.6-7.3 3.9-12.1 3.9-4.9 0-9-1-12-3-3.1-2-5.5-4.9-7.1-8.7-1.6-3.8-2.4-7.9-2.4-12.3 0-4.8.9-8.9 2.7-12.5 1.8-3.6 4.4-6.3 7.8-8.1 3.4-1.8 7.1-2.8 11.1-2.8 4.6 0 8.4 1.2 11.6 3.5 3.1 2.3 5.3 5.6 6.5 9.8l-6 1.4c-1.1-3.3-2.6-5.8-4.6-7.3-2-1.5-4.6-2.3-7.6-2.3-3.5 0-6.5.8-8.8 2.5-2.4 1.7-4 4-5 6.8s-1.4 5.8-1.4 8.8c0 3.9.6 7.3 1.7 10.2 1.1 2.9 2.9 5.1 5.3 6.5 2.4 1.4 5 2.2 7.8 2.2 3.4 0 6.3-1 8.6-2.9 2.2-1.8 3.8-4.8 4.7-8.6zm46.2 0L367 76c-1.3 5-3.6 8.8-6.9 11.4-3.3 2.6-7.3 3.9-12.1 3.9-4.9 0-9-1-12-3-3.1-2-5.5-4.9-7.1-8.7-1.6-3.8-2.4-7.9-2.4-12.3 0-4.8.9-8.9 2.7-12.5 1.8-3.6 4.4-6.3 7.8-8.1 3.4-1.8 7.1-2.8 11.1-2.8 4.6 0 8.4 1.2 11.6 3.5 3.1 2.3 5.3 5.6 6.5 9.8l-6 1.4c-1.1-3.3-2.6-5.8-4.6-7.3-2-1.5-4.6-2.3-7.6-2.3-3.5 0-6.5.8-8.8 2.5-2.4 1.7-4 4-5 6.8s-1.4 5.8-1.4 8.8c0 3.9.6 7.3 1.7 10.2 1.1 2.9 2.9 5.1 5.3 6.5 2.4 1.4 5 2.2 7.8 2.2 3.4 0 6.3-1 8.6-2.9 2.3-1.8 3.8-4.8 4.7-8.6zm13.6-29.8h6.1v20.1c2.8 0 4.7-.5 5.8-1.6 1.1-1.1 2.6-3.6 4.3-7.7 1.3-3 2.3-5.1 3.1-6.4.8-1.2 2-2.3 3.5-3.1 1.5-.8 3.2-1.3 5-1.3 2.3 0 3.6 0 3.7.1V50h-2.4c-1.9 0-3.4.5-4.3 1.4-1 .9-2.1 2.9-3.3 6-1.5 3.9-2.8 6.3-3.9 7.3s-2.3 1.8-3.8 2.4c3 .8 5.9 3.5 8.7 8.2l9.4 15.3H399l-7.7-12.4c-2.1-3.4-3.9-5.8-5.3-7.1-1.4-1.3-3.3-1.9-5.5-1.9v21.4h-6.1V44.7h.1zm37.3 0h5.5V81l24.4-36.3h6.1v45.9h-5.5V54.4l-24.4 36.2h-6.1V44.7zm46 0h5.5V81l24.4-36.3h6.1v45.8h-5.5V54.4l-24.4 36.2h-6.1V44.7zm22.8-10.9h3.8c-.3 2.6-1.3 4.6-2.9 6-1.6 1.4-3.7 2.1-6.4 2.1s-4.8-.7-6.4-2.1c-1.6-1.4-2.6-3.4-2.9-6h3.8c.3 1.4.9 2.5 1.7 3.2.9.7 2 1 3.5 1 1.7 0 3-.3 3.8-1 1.1-.6 1.7-1.7 2-3.2zm41 10.9h5.5V81l24.4-36.3h6.1v45.9h-5.5V54.4l-24.4 36.2h-6.1V44.7zm46 0h6.1v20.1c2.8 0 4.7-.5 5.8-1.6 1.1-1.1 2.6-3.6 4.3-7.7 1.3-3 2.3-5.1 3.1-6.4.8-1.2 2-2.3 3.5-3.1 1.5-.8 3.2-1.3 5-1.3 2.3 0 3.6 0 3.7.1V50h-2.4c-1.9 0-3.4.5-4.3 1.4-1 .9-2.1 2.9-3.3 6-1.5 3.9-2.8 6.3-3.9 7.3s-2.3 1.8-3.8 2.4c3 .8 5.9 3.5 8.7 8.2l9.4 15.3H592l-7.7-12.4c-2.1-3.4-3.9-5.8-5.3-7.1-1.4-1.3-3.3-1.9-5.5-1.9v21.4h-6.1V44.7h.2zm34.7 23.5c0-7.6 2-13.6 6.1-17.9 4.1-4.3 9.4-6.5 15.8-6.5 4.2 0 8 1 11.4 3 3.4 2 6 4.8 7.8 8.5 1.8 3.6 2.7 7.7 2.7 12.3 0 4.7-.9 8.8-2.8 12.5-1.9 3.7-4.5 6.4-8 8.3-3.4 1.9-7.1 2.8-11.1 2.8-4.3 0-8.2-1-11.6-3.1-3.4-2.1-6-4.9-7.7-8.5-1.8-3.5-2.6-7.3-2.6-11.4zm6.2.1c0 5.5 1.5 9.9 4.4 13 3 3.2 6.7 4.8 11.2 4.8 4.6 0 8.3-1.6 11.3-4.8 2.9-3.2 4.4-7.8 4.4-13.7 0-3.7-.6-7-1.9-9.8-1.3-2.8-3.1-4.9-5.5-6.5-2.4-1.5-5.2-2.3-8.2-2.3-4.3 0-8 1.5-11.1 4.4-3 3.1-4.6 8-4.6 14.9zm45.4 22.3V44.7h17.3c3 0 5.4.2 7 .4 2.3.4 4.1 1.1 5.7 2.1 1.5 1 2.7 2.5 3.7 4.4.9 1.9 1.4 4 1.4 6.3 0 3.9-1.2 7.2-3.7 9.9s-7 4-13.4 4H660v18.6h-6.1v.2zm6.1-24.1h11.9c3.9 0 6.7-.7 8.3-2.2 1.6-1.5 2.5-3.5 2.5-6.2 0-1.9-.5-3.6-1.5-4.9-1-1.4-2.2-2.3-3.8-2.7-1-.3-2.9-.4-5.7-.4H660v16.4zm36.8 24.1V44.7h6.1v18.9h23.8V44.7h6v45.9h-6V69h-23.8v21.6h-6.1zm46.4-45.9h6.1v19.6h10.9c7.2 0 11.9 1.3 14.1 4 2.3 2.6 3.4 5.6 3.4 9 0 3.5-1.2 6.6-3.6 9.3-2.4 2.7-6.9 4-13.5 4h-17.4V44.7zm6 40.7h11.1c3.8 0 6.6-.6 8.3-1.9 1.7-1.3 2.6-3.3 2.6-6.1 0-1.9-.5-3.5-1.6-4.8-1-1.3-2.4-2.1-4-2.5-1.7-.4-4.4-.5-8.3-.5h-8.1v15.8zm34-40.7h6.1v45.8h-6.1V44.7zm16.4 0h5.5V81l24.4-36.3h6.1v45.8h-5.5V54.4l-24.4 36.2h-6.1V44.7zm22.8-10.9h3.8c-.3 2.6-1.3 4.6-2.9 6-1.6 1.4-3.7 2.1-6.4 2.1s-4.8-.7-6.4-2.1c-1.6-1.4-2.5-3.4-2.9-6h3.8c.3 1.4.9 2.5 1.7 3.2.9.7 2 1 3.5 1 1.7 0 3-.3 3.8-1 1.1-.6 1.7-1.7 2-3.2zm45.1 10.9h27.9v40.4h4.1v16.1h-5.4V90.6h-30.3v10.7h-5.4V85.2h3.6c3.7-5.6 5.5-16.8 5.5-33.7v-6.8zm21.8 5.4h-16v2.3c0 3.9-.3 9.2-1 16-.7 6.8-2.1 12.3-4.1 16.7h21.1v-35zm15.5 18.1c0-7.6 2-13.6 6.1-17.9 4.1-4.3 9.4-6.5 15.8-6.5 4.2 0 8 1 11.4 3 3.4 2 6 4.8 7.8 8.5 1.8 3.6 2.7 7.7 2.7 12.3 0 4.7-.9 8.8-2.8 12.5-1.9 3.7-4.5 6.4-8 8.3-3.4 1.9-7.2 2.8-11.1 2.8-4.3 0-8.2-1-11.6-3.1-3.4-2.1-6-4.9-7.7-8.5-1.7-3.5-2.6-7.3-2.6-11.4zm6.3.1c0 5.5 1.5 9.9 4.5 13 3 3.2 6.7 4.8 11.2 4.8 4.6 0 8.3-1.6 11.3-4.8 2.9-3.2 4.4-7.8 4.4-13.7 0-3.7-.6-7-1.9-9.8-1.3-2.8-3.1-4.9-5.5-6.5-2.4-1.5-5.2-2.3-8.2-2.3-4.3 0-8 1.5-11.1 4.4-3.2 3.1-4.7 8-4.7 14.9zm45.2 22.3V44.7h9.1l10.8 32.4c1 3 1.7 5.3 2.2 6.8.5-1.7 1.3-4.1 2.4-7.4l11-31.9h8.2v45.8h-5.8V52.2l-13.3 38.4h-5.5l-13.3-39v39h-5.8zm-805.6 24.7c-1-1.2-3.3-3.3-3.6-9.3 0 0 1.8-27.1.9-32.3-.5-3.3-.1-23.8-22.7-33.6 0 0-4.9-1.6-9.5 1.4-4.7 3-3.6 8.7 1.5 15.1-2.7-.1-5.6.6-6.6 3.1-4.7-1.5-3.3-2.6-6.5-3-2.4-.3-3.7-.1-5.3-4.2-1.6-4-.6-7.4 0-9.3.6-1.9 4.3-4.3 5.3-6.4 1.1-.4 3.2.1 4.7-.2 1.5-.2 1.5-1.1 2.5-1 1 .1 2.9.6 4.4 2.2 1.1-.2.8-1.1.9-1.5.1-.4 1 1.1 4.8 1.4 3.8.4 4.6-2.7 3.8-3.6-.8-.8-1.2.7-1.4 1.3-.2.6-2 .7-3.9.2-.9-.3-1.4-.8-.9-1.1.5-.4.6-1.7 0-2.5-1.3-1.3-2.2-2.3-4.4-2.7-2.6-1.3-1.1-2.2-3.9-2.6-3-.5-6.4-.5-8.7.6-3-1.5-5.1 1.3-6.8-1.3-.2 2 2.9 3.1 1.2 3.4-1.8.3-3 .2-4.2 0 .8 1 2.6 1.7 1.9 2.4-.9.9-1.6 1.1-3.5.9.5 1.5 1.1 1.4.9 2.9-.2 1.5-1.5.7-2.3 3-.8-2.3-2.1-1.5-2.3-3-.2-1.4.5-1.3.9-2.9-1.9.2-2.6.1-3.5-.9-.7-.7 1.1-1.4 1.9-2.4-1.1.2-2.4.3-4.1 0-1.8-.3 1.4-1.4 1.2-3.4-1.8 2.6-3.8-.2-6.8 1.3-2.3-1.1-5.7-1.1-8.7-.6-2.8.5-1.2 1.3-3.9 2.6-2.2.4-3 1.3-4.4 2.7-.6.8-.5 2.2 0 2.5.5.4 0 .8-.9 1.1-1.8.5-3.7.5-3.9-.2-.2-.6-.6-2.2-1.4-1.3-.8.8 0 3.9 3.8 3.6 3.8-.4 4.7-1.8 4.8-1.4.1.4-.2 1.2.9 1.5 1.5-1.5 3.4-2 4.4-2.2 1-.1 1 .8 2.5 1 1.5.2 3.6-.2 4.7.2 1 2.1 4.7 4.5 5.3 6.4.6 1.9 1.6 5.3 0 9.3-1.6 4-2.9 3.9-5.3 4.2-3.2.4-1.8 1.5-6.5 3-1.1-2.5-3.9-3.2-6.6-3.1 5.1-6.4 6.2-12.1 1.5-15.1s-9.5-1.4-9.5-1.4c-22.4 9.7-22 30.2-22.5 33.5-.9 5.3.9 32.4.9 32.4-.2 6-2.6 8.1-3.6 9.3-.9.5-.2 1.9 1.4 1.9 7.9-2 12.2-8.3 13.2-11.5 6-4.4 5.8-15.4 6.3-15.7.5-.4.8 1 1.9.6 1.1-.4 1.6-2.5 2.2-3.1.6-.6 1.3.1 2.5-.9s1.1-3.7 1.7-4.1c.6-.4.7 1.2 1.6.9.9-.2 1-1.8 1.8-1.9.8-.1-.1 1.2 1.2 1.3 1.2.1 1.1-.7 2-.9.9-.2.3 1.2 1.6 1.3 1.3.1 1.5-.7 2.4-.9.9-.2.1.9 1.2.9 1.1.1 1.6-.8 2.9-1.1 1.3-.2.8 1.9.8 1.9-3.2 2.5-4.8 4.6-6 8.7-1.2 4 1 8.3 1 8.3-1.2 2.2-7.8 10.2-10.8 11.3-.9-2.2-1.2-6-5.8-7-2.1-.4-4.3.9-4.4 1.5-.2.6 1.8.3.9.6-.9.4-2.7 2.2-2.5 2.9.2.8 1.2-.2 1.9-.5.3-.1 1.3.6-.1 1.2-1.3.5-2.9 2-2.4 2.6.5.6 1.2-.5 2.3.1 1.1.6.3 1.2 2.3 1.6 2 .4 1.8.5 5.1.6 3.3.1 4.7 3 5.7 5.1 1.8-1.2 1.8-4-.1-6.1 3.3-4.3 7.8-8.1 12.6-11.2 2.4-1.5 2.3-5.3 5-5.6 1.7-.2 1.9 7 .9 10.2-.9 3.2-10.6 21.4-11.1 23.3-1.7 6.2 4.8 7.6 7.9 3.9 1.6 6.9 8.1 4.5 9 1.5.6 2.9 2.3 3.8 5.1 3.9h.2c2.8-.1 4.6-1 5.1-3.9.9 3 7.4 5.4 9-1.5 3 3.7 9.6 2.3 7.9-3.9-.5-1.9-10.2-20.1-11.1-23.3-.9-3.2-.8-10.4.9-10.2 2.7.3 2.6 4 5 5.6 4.7 3.1 9.2 7 12.6 11.2-1.8 2.1-1.8 4.9-.1 6.1 1-2.2 2.4-5 5.7-5.1 3.3-.1 3.1-.2 5.1-.6 2-.4 1.2-.9 2.3-1.6 1.1-.6 1.8.5 2.3-.1.5-.6-1.1-2.1-2.4-2.6-1.3-.5-.3-1.3-.1-1.2.7.2 1.6 1.2 1.9.5.2-.8-1.6-2.6-2.5-2.9-.9-.4 1.1-.1.9-.6-.2-.6-2.4-1.9-4.4-1.5-4.7.9-4.9 4.8-5.8 7-3-1.1-9.6-9.1-10.8-11.3 0 0 2.2-4.3 1-8.3-1.2-4-2.9-6.1-6-8.7 0 0-.6-2.2.8-1.9 1.3.2 1.8 1.1 2.9 1.1 1.1-.1.2-1.2 1.2-.9.9.2 1.1 1.1 2.4.9 1.3-.1.8-1.5 1.6-1.3.9.2.8 1 2 .9 1.2-.1.4-1.5 1.2-1.3.8.1.9 1.7 1.8 1.9.9.2 1-1.3 1.6-.9.6.4.5 3.1 1.7 4.1 1.2 1 1.9.3 2.5.9.6.6 1.1 2.7 2.2 3.1 1.1.4 1.4-1 1.9-.6s.4 11.3 6.3 15.7c1 3.2 5.3 9.5 13.2 11.5 1.5 0 2.2-1.5 1.3-1.9zm-32.2-79.5c-.3-.2-.7 0-1.3-.1-.6-.1-2-1.4-2-1.4s.9 0 1.4.3c.6.3 2.2 1.4 1.9 1.2zm-4.7-5.5s.8.4 1.7.4c.9 0 2.1 1.2 1.4 1.2-.7 0-1.5.5-2.2.7-.7.2-1.7 1.3-1.8.7-.2-.5.9-3 .9-3zm-52.6 5.4c-.6.1-1-.1-1.3.1-.3.2 1.3-.9 1.8-1.2.5-.3 1.4-.3 1.4-.3s-1.3 1.3-1.9 1.4zm4.4-2.3c-.2.6-1.1-.5-1.8-.7-.8-.2-1.6-.7-2.3-.7-.7 0 .5-1.2 1.4-1.2.9 0 1.7-.4 1.7-.4s1.1 2.4 1 3zm.9-4.1c-.7.5-.7-.4-.3-.8.4-.5 2.2-1 3.8-.9 1.6.1 2.9.5 3.5.4.7-.1 2.1.2 2.1.2s-.4 1.7-1.7 1.7c-1.3 0-1.8-1-3.1-1.2-1.2-.3-3.5.2-4.3.6zm2.1 2.5c-.5.1-.8-1-.5-1.1.3-.1 1.1-.3 1.1-.3s-.1 1.3-.6 1.4zm4.7 2.9c-2.3.1-3.7-1.1-3.6-2 0-.9 1.4-1.9 1.2-2.5-.2-.7.7.8 2.1.6 1.4-.2 3.1-.5 3.1-.5s-.5 4.3-2.8 4.4zm3.2-.5c-1.4 1 .2-2.3.4-3 .2-.7 1-1.5 1-1.5s-.1 3.5-1.4 4.5zm1.9.2c-1.6 1.1-1-.1-.8-.5.2-.4 1.9-4.3 1.9-4.3.4.3.5 3.7-1.1 4.8zm-24.8 74.8c.3 0 .5 0 .5.3s-.3.6-.6.6-.6-.3-.6-.6.4-.3.7-.3zm-.9-1.3c.3 0 .5 0 .5.3s-.2.6-.6.6c-.3 0-.6-.2-.6-.6.1-.3.4-.3.7-.3zm-1.7-1.3c.4 0 .9.4.9.7 0 .3-.3.6-.7.6-.4 0-.7-.2-.7-.6.1-.3.2-.7.5-.7zm-2.5 7.3c-.5 0-.8-.4-.8-.9s.4-.9.8-.9c.5 0 .8.4.8.9.1.5-.3.9-.8.9zm.7-3.6c-.3 0-.6-.4-.6-.8s.2-.4.5-.4.7 0 .7.4-.3.8-.6.8zm1.4 4c-.4 0-.7-.3-.7-.7 0-.4.3-.7.7-.7.4 0 .7.3.7.7 0 .4-.3.7-.7.7zm.2-3.2c-.3 0-.6-.4-.6-.8 0-.5.2-.6.6-.6.3 0 .6.1.6.6.1.4-.2.8-.6.8zm1.2-.3c.3 0 .4 0 .4.4s-.2.7-.5.7-.5-.3-.5-.7c.1-.4.4-.4.6-.4zm.2 4.1c-.3 0-.6-.3-.6-.6s.2-.6.6-.6c.3 0 .6.3.6.6s-.3.6-.6.6zm.5-2.5c0-.4.2-.5.4-.5s.4.1.4.5-.2.7-.4.7-.4-.3-.4-.7zm1 3c-.2 0-.4-.2-.4-.5s.2-.5.4-.5.4.2.4.5-.2.5-.4.5zm.4-1.5c-.2 0-.4-.2-.4-.4s.2-.4.4-.4.4.2.4.4-.2.4-.4.4zm.3-2.4c-.3 0-.6-.3-.6-.7 0-.4.3-.3.6-.3s.5-.1.5.3c.1.4-.2.7-.5.7zm1.1 3.5c-.3 0-.5-.4-.5-.8 0-.5.2-.5.5-.5s.9-.1.9.4c-.1.3-.6.9-.9.9zm1.7 1.9c-.3 0-.5-.2-.5-.5s.1-.6.4-.6c.3 0 .7.4.7.6 0 .3-.3.5-.6.5zm.3-1.6c-.3 0-.6-.3-.6-.7 0-.4.2-.2.6-.2.3 0 .6-.2.6.2 0 .3-.3.7-.6.7zm1.4 2.7c-.3 0-.5-.3-.5-.7 0-.4.2-.7.5-.7s.8.4.8.8c0 .3-.5.6-.8.6zm.3-4.7c-.3 0-.6-.3-.6-.6s.2-.3.5-.3.6 0 .6.3c.1.4-.1.6-.5.6zm64.8.2c0-.2.2-.4.4-.4s.4.2.4.4-.2.4-.4.4c-.3 0-.4-.2-.4-.4zm.8 1.9c-.2 0-.4-.2-.4-.5s.2-.5.4-.5.4.2.4.5-.2.5-.4.5zm.6-2.3c-.2 0-.4-.3-.4-.7 0-.4.2-.5.4-.5s.4.1.4.5-.2.7-.4.7zm.9 1.8c-.3 0-.6-.3-.6-.6s.2-.6.6-.6c.3 0 .6.3.6.6s-.3.6-.6.6zm4.4-1.9c0 .5-.4.9-.8.9-.5 0-.8-.4-.8-.9s.4-.9.8-.9c.5 0 .8.4.8.9zm-1.4-3.9c.3 0 .5 0 .5.4s-.3.8-.6.8-.6-.4-.6-.8.4-.4.7-.4zm-.7 4.6c0 .4-.3.7-.7.7-.4 0-.7-.3-.7-.7 0-.4.3-.7.7-.7.4 0 .7.3.7.7zm-.4-3.5c0 .5-.3.8-.6.8s-.6-.4-.6-.8c0-.5.3-.6.6-.6.4.1.6.1.6.6zm-.8-3.6c.4 0 .4.4.4.7 0 .3-.3.6-.7.6-.4 0-.7-.2-.7-.6.1-.3.6-.7 1-.7zm-.5 4.6c0 .4-.2.7-.5.7s-.5-.3-.5-.7c0-.4.2-.4.4-.4.4 0 .6 0 .6.4zm-1.1-3.3c.3 0 .6 0 .6.3s-.2.6-.6.6c-.3 0-.6-.2-.6-.6.1-.3.3-.3.6-.3zm-1 1.3c.3 0 .7 0 .7.3s-.3.6-.6.6-.6-.3-.6-.6c.1-.3.2-.3.5-.3zm-.8 1.3c.3 0 .6-.1.6.3s-.2.7-.6.7c-.3 0-.6-.3-.6-.7.1-.4.3-.3.6-.3zm-1 3.1c.3 0 .5.1.5.5 0 .5-.2.8-.5.8s-.8-.5-.8-1c0-.4.5-.3.8-.3zm-1.3 2.8c0 .3-.2.5-.5.5s-.5-.2-.5-.5.4-.6.7-.6c.3 0 .3.4.3.6zm-.7-2.1c.3 0 .6-.2.6.2s-.3.7-.6.7-.6-.3-.6-.7c-.1-.4.2-.2.6-.2zm-1 2.9c0 .4-.2.7-.5.7s-.8-.2-.8-.6c0-.4.5-.8.8-.8.3 0 .5.3.5.7zm-.7-4.7c.3 0 .5 0 .5.3s-.2.6-.6.6c-.3 0-.6-.3-.6-.6 0-.4.4-.3.7-.3zm-1.9-1.7c.3 0 .5-.2.5.1 0 .3-.2.6-.5.6s-.5-.2-.5-.6c0-.2.2-.1.5-.1zm-1.7-1.6c.4 0 .6-.1.6.3s-.3.7-.6.7-.6-.3-.6-.7c-.1-.4.2-.3.6-.3zm-1.7-1.8c.3 0 .5-.2.5.2s-.2.7-.6.7c-.3 0-.6-.3-.6-.7.1-.3.4-.2.7-.2zm-2.1-2.1c.4 0 .7-.3.7.2s-.3.8-.6.8c-.4 0-.6-.4-.6-.8-.1-.5.1-.2.5-.2zM146 77.4s.1 5.1-1.5 5c-1.6-.1-2.5-18.6-2.5-18.6s2.1 12.9 2.7 14.2c.4 1.3 1.3-.6 1.3-.6zm-32.1-13.5s2.5 4.2 3.1 4.4c.6.2.9-.8.9-.8s.7.8-.1 2.4c-1.2 2.3-3.9-6-3.9-6zm-.1 7.2c-.9.2-3.3-6.4-3.3-6.4s2.7 4.9 3 4.9c.3 0 .8-1.1.8-1.1s.3 2.4-.5 2.6zm3.6-9.3s3.2 4.6 3.7 4.4c.5-.2.2-2.3.2-2.3s2 3 .3 3.9c-1.8 1-4.2-6-4.2-6zm3.1-2.2s2.9 4.2 3.6 4.1c.7-.1.8-2 .8-2s1.1 3.7-.3 4.2c-1.2.5-4.1-6.3-4.1-6.3zm2.6-4.3s3.4 5.1 4.3 5.2c1 .1-1.3-5.3-1.3-5.3s4.2 6.7 2.4 7.9c-1.8 1-5.4-7.8-5.4-7.8zm-2-8s4.5 3.7 5.8 5.2c2.5 2.5 3.3 4.6 3.9 4.4 1.1-.3-2.4-5.4-2.4-5.4s3 3.9 3.6 5.2c.8 1.9-.3 3.3-1.2 1.9-2.6-3.8-9.7-11.3-9.7-11.3zm11.5 2.8s3.3 4.1 1.8 5.2c-1.5 1.1-7.1-7.7-7.1-7.7s5.3 5.1 6 5.4c.8.3-.7-2.9-.7-2.9zm2 17.8c.5 0 1.4-.7 1.4-.7s.4 3.9-1.1 4.2c-1.4.3-4.5-11.1-4.5-11.1s3.8 7.7 4.2 7.6zm-.3 4.9s1.1 12.8 2 12.7c.9-.1 1.8-4.1 1.8-4.1s-.7 7.8-2.4 7.6c-1.6-.2-1.4-16.2-1.4-16.2zm-.7-16.2s5 7.6 5.2 7.5c.3-.1.8-1 .8-1s1.2 4.2-.1 4.4c-1.3.1-5.9-10.9-5.9-10.9zm7.2 26.5c.7.5 1.2-1.8 1.2-1.8s.3 4.6-1.6 4.6c-1.9 0-2-17.3-2-17.3s1.7 13.9 2.4 14.5zm.9-23.5c.4 0 1.1-.5 1.1-.5s1.4 3.2-.1 3.6c-1.5.4-5.7-9.5-6.1-10.3.4.6 4.8 7.1 5.1 7.2zm-4.9-8.6c-.5 1-5.3-5.1-5.3-5.1s5.8 4.1 5.3 5.1zm-6.7-5.6c-1.1 1.1-2.5-2.4-2.5-2.4s3.6 1.3 2.5 2.4zm-25.3 14s-.2-.4.9 0 1.8.9 3.2 1.4c1.4.5 1.8-.4 3.2-1.4 1.4-1 2.2-1.8 4.4-1.6 1.2.1.8 0 1.4-.8.7-1-1.9-4.1-3.2-6.6-1.4-2.5-1.1-5.1.3-6.7 1.3-1.6 3.6-2.4 5.2-2.5 1.6-.2 5.1.4 5.9.7.7.4-.9.6-.3 1.5.7.9 2.1 1.8 2.1 2.9-.7-.4-1.6-.2-3-.4s-1.7-.7-2.4-2.2c-.7-1.5-1.7-1.3-1.9-.5-.2.8 2 2.4 1.5 3.3-1.2-.5-2.5-1.1-3.8-1.2-1.3-.2-2.6.6-.7 1.2 1.9.6 4.9 3.9 3.6 4.3-1.2.3-3.3-1.4-3.8-.2 2.5 1.1 5.3 4.3 4.7 4.7-.6.4-2.3-.7-2.7 0-.4.7 2 2.5 1.9 3.3 0 .8-2.3-.2-3.1-.1-.8 0 .3 1.6-.4 2.3-.7.7-1.5-.7-2.7-.3-1.2.4-.3 2.1-1.2 2.4-1 .4-1.8-.8-2.7-.7-.9.2.2 1.4-.8 1.6-1 .2-1.9-1.8-2.9-2-1-.2-.5 1.6-1.8 1.1-1-.7-1.8-3-.9-3.5zm-1.2 31.8c.6 0 1.1-1.5 1-.1 0 .5-.5 1-1 1-.6 0-1.1-.4-1-1 .3-1.5.4.1 1 .1zm-1.2-14.4l.2.1s.6 1 .7 1.1c.1.2-.5 1.6-1.1 1.3-.6-.2.2-2.5.2-2.5zm-1.1-15.5c.3.6-.6.9-1.1.5-.4-.4-.6-2.1-.6-2.1s1.5 1 1.7 1.6zm-1.5 8.5c0 .3.1 1.9-.5 1.1-.7-.8-.7-3.9-.7-3.9s1.1 2.5 1.2 2.8zm-3.4 28.1s.4.3.8 1.2c.4.9 1 7.5.8 8.2-.1.7-.7-1-.7-2.8.1-1.8-.9-6.6-.9-6.6zm-.3-4.3c.1.8.4 3.8-.7 2.9-1-1 .6-7.1.6-7.1s0 3.5.1 4.2zm-.2-5.9c-.8.9-1.3 1.1-2.5-1.4-1.1-2.5 1.3-7 1.3-7s-.4 6.6.6 6.5c.9 0 2.7-5.5 2.7-5.5s-1.3 6.5-2.1 7.4zm-2.2-47.5c.6-.2 1.5-1.4 1.4-.8-.2.6-1.1 3.5-2.2 2.6-1.1-1 .8-5 .8-5s-.6 3.4 0 3.2zm1.6 31.1c-1.6-1.4-2.1-9-2.1-9s2.4 6.8 2.8 6.6c.4-.2.8-6.2.8-6.2s.3 4.3.3 6c-.1 1.7-.2 3.9-1.8 2.6zm.9 8.4c-.5-.7-.4-3.2-.4-3.4 0 0 1 1.3 1.1 1.8.1.7-.2 2.4-.7 1.6zm-.6-15.9c-.9-.8-1.4-4.8-1.4-4.8s1.2 2.7 1.4 3.5c.4.7.8 2.2 0 1.3zm-1.8-15.5c-1.1-1.2-.5-5.2-.5-5.2s.6 3.9.6 3.5c0-.5.8-.3.9.4.1.7.1 2.5-1 1.3zm2.7 4.2c.4.7.2 1.4-.7.6-.9-.9-1-3.2-1-3.2s1.3 1.9 1.7 2.6zm-1.3-6.6c-.4-.5-.2-2.1-.2-2.1h.2s.7 1 1 1.4c.3.3-.6 1.2-1 .7zm-2.1 7c.3-.5.7-2 .8-1.4.1.6.2 3.7-.9 3.3-1.1-.4-1.8-5.9-1.8-5.9s1.6 4.4 1.9 4zm.3 17.8c0 .3-.3 1.7-.7.5-.4-1.2-.5-4-.5-4s1.2 3.2 1.2 3.5zm-.2 5.2c.7-.4 1.2-4 1.5-2.9.3 1.1-1.5 7.1-2.3 6.9-.8-.2-2.1-3.6-2.2-5.3-.1-1.6 1.2-4.4 1.2-4.4s.5 2.2.6 3.2c0 .9.5 2.8 1.2 2.5zM91 79.6s.7 3 .7 3.9c.1.9-2.3 5.4-2.3 5.4v-2.2l1.6-7.1zm-.6 10.2s1 5 1.5 4.6c.5-.4 1.9-4.6 2-3.9.1.7-1.7 7.5-2.6 6.8-1-.8-.9-7.5-.9-7.5zm3.9 7.9c0 .4-.2 2-.6 1.2-.4-.8 0-3.3 0-3.3s.5 1.7.6 2.1zm-.3 5.6c.4-.5.9-3.7 1.1-3.2.1.5-.4 6.7-1.4 5.7-1.1-1-1.4-7.5-1.4-7.5s1.3 5.5 1.7 5zm3.2-11.8c-.5-.7.4-3.9.4-3.9s.3 1.1.3 1.6c.1.5-.2 2.9-.7 2.3zm.9 4.7s.8.6.9 1c.1.4-.3 1-.7.6-.4-.5-.2-1.6-.2-1.6zm0-17.2c-1.2-1-.3-8.3-.3-8.3s1.2 4.8 1.4 5.9c.2 1.1.1 3.4-1.1 2.4zm-1.2-17.7C94.5 60.4 95 54 95 54s.4 2.2.5 3.4c.1 1.2 1.9 1.4 2.4 2.2.5.9 1.3 2.6-1 1.7zm12.9-29.5c-.5-.1-.7-1.4-.7-1.4s.8.2 1.1.3c.4.1.1 1.1-.4 1.1zm-4.9-3.9c.7.1 2-.3 3.6-.4 1.6-.1 3.3.4 3.8.9.4.5.5 1.3-.3.8-.7-.5-3.1-1-4.4-.7-1.3.2-1.8 1.2-3.1 1.2s-1.7-1.7-1.7-1.7 1.4-.2 2.1-.1zm.5 2.8c1.4.2 2.3-1.3 2.1-.6-.2.7 1.1 1.6 1.2 2.5 0 .9-1.3 2.1-3.6 2-2.3-.1-2.8-4.4-2.8-4.4s1.7.3 3.1.5zm-3.8.4c.2.7 1.8 4 .4 3s-1.4-4.6-1.4-4.6.7.9 1 1.6zm-2.7-1.5s1.7 3.9 1.9 4.3c.2.4.8 1.6-.8.5-1.5-1.1-1.5-4.5-1.1-4.8zm-.6 4s-.7 1.4-1 2.1c-.3.6.5 1.1.7 1.3.1.2-1.5 4.4-1.7 1.3-.1-3.2 2-4.7 2-4.7zm-1.8-.9s.5.3.7.7c.2.4-.2.6-.8.4-.7-.4.1-1.1.1-1.1zm-.5 7.5s.7.9.9 1.4c.2.4 0 2-.7 1-.6-1-.2-2.4-.2-2.4zm-1.1-7.6s-.5 1.3-.4 1.5c.1.3 1.2 0 1.1.4-.1.3-1.4.9-2 .2-.6-.8 1.3-2.1 1.3-2.1zm-2.2 3.2s-.2 1.4-.7 2.1c-.4.7-.8 1.8-1.5 1.6-.8-.2 2-3.6 2.2-3.7zm-1.4 5s-.6 3.1-.4 3.9c.2.8.7-.3.8.1.1.4-.3 3.9-1.2 1.5-.8-2.3.3-4.8.8-5.5zm-.1 18c.3 1 .9.5 1.1-.7.3-1.2.5-2.9.7-1.9.2.9.4 6.5-1 5.8-1.4-.7-2-6.1-2-6.1s1 2 1.2 2.9zm-1.8 9.4l.5-.3c.5-.3 1-5.7 1-5.7s.4 3.9.4 4.6c0 .7-1.8 4.7-1.8 4.7v-3.3h-.1zm.6 34.5c.1-.2.7-4.3.9-3.6.2.7-1.1 6.2-1.5 6.9v.1-.1c-.4-.7-1.8-6.2-1.5-6.9.3-.7.8 3.3.9 3.6.1.2.5.4.7.5 0-.1.4-.3.5-.5zm-7.5-15c-.8-.9-2.1-7.3-2.1-7.3s1.8 5.5 2.7 5.5c.9 0 .6-6.5.6-6.5s2.5 4.5 1.3 7c-1.2 2.4-1.7 2.2-2.5 1.3zm.4 8.8c-1 1-.7-2.1-.7-2.9.1-.8.1-4.3.1-4.3s1.6 6.2.6 7.2zm-1.8 8c0 1.8-.6 3.4-.7 2.8-.1-.7.4-7.3.8-8.2.4-.9.8-1.2.8-1.2s-1 4.8-.9 6.6zm-.8-8.3s.2 1.1-.2 1.5c-.4.4-.8-.2-.7-.6.1-.3.9-.9.9-.9zm-1.1-19.6c.2-1.1 1.4-5.9 1.4-5.9s.9 7.3-.3 8.3c-1.2 1-1.3-1.3-1.1-2.4zm1.3 12.5c0-.5.3-1.6.3-1.6s1 3.3.4 3.9c-.5.7-.8-1.7-.7-2.3zM84.6 37s1.9 4 .8 5c-1.1 1-2-2-2.1-2.6-.1-.6.8.7 1.4.8.6.2-.1-3.2-.1-3.2zm3.7 37.7c-.1 1.6-1.4 5-2.2 5.3-.8.2-2.6-5.7-2.3-6.9.3-1.1.8 2.5 1.5 2.9.7.4 1.1-1.5 1.2-2.5.1-.9.6-3.2.6-3.2s1.3 2.7 1.2 4.4zm.6 12v2.2s-2.4-4.5-2.3-5.4c.1-.9.7-3.9.7-3.9l1.6 7.1zm-3.2-15.5c-.4 1.2-.7-.2-.7-.5s1.2-3.5 1.2-3.5 0 2.8-.5 4zm-1.2-19.8c.1-.6.5.9.8 1.4.3.5 1.8-4 1.8-4s-.6 5.5-1.8 5.9c-1.1.4-.9-2.7-.8-3.3zm-.9-4.4c.1-.7.9-.9.9-.4s.6-3.5.6-3.5.5 4-.5 5.2c-1.1 1.2-1.1-.6-1-1.3zm-.2-3.2s.2 1.7-.2 2.1c-.4.5-1.3-.4-1-.8.3-.4 1-1.4 1-1.4l.2.1zm.1 6.1s0 2.3-1 3.2c-.9.9-1.1.2-.7-.6.5-.7 1.7-2.6 1.7-2.6zm.7 9.1s-.5 4-1.3 4.8c-.8.8-.4-.6-.1-1.4.2-.7 1.4-3.4 1.4-3.4zm-1.8 9.8c.4.2 2.8-6.6 2.8-6.6s-.4 7.7-2.1 9c-1.6 1.4-1.8-.9-1.8-2.6 0-1.8.3-6 .3-6s.5 6 .8 6.2zm-.2 10.9c-.5.7-.7-1-.7-1.5.1-.6 1.1-1.8 1.1-1.8 0 .1.1 2.6-.4 3.3zm1.9 18c0-.4.6-2.1.6-2.1s.4 2.5 0 3.3c-.4.8-.6-.8-.6-1.2zm-.8 2.4c.1-.5.7 2.7 1.1 3.2.4.5 1.8-5 1.8-5s-.4 6.4-1.4 7.5c-1.1 1-1.6-5.1-1.5-5.7zm1.3-9.6c.1-.7 1.4 3.5 2 3.9.5.4 1.5-4.6 1.5-4.6s.1 6.7-.8 7.4c-1 .7-2.8-6-2.7-6.7zm4.3-22.6l.5.3v3.3s-1.8-4-1.8-4.7.4-4.6.4-4.6.4 5.4.9 5.7zm-2.6-6c-1.4.7-1.2-4.9-1-5.8.2-.9.4.7.7 1.9.3 1.2.9 1.7 1.1.7.3-1 1.1-3 1.1-3s-.5 5.5-1.9 6.2zm1.5-15.5c-.9 2.4-1.3-1.1-1.2-1.5.1-.4.7.7.8-.1.2-.8-.4-3.9-.4-3.9.6.6 1.7 3.1.8 5.5zm.1-6.8c-.7.3-1.1-.9-1.5-1.6-.4-.7-.7-2.1-.7-2.1.2 0 3 3.4 2.2 3.7zm-4-5.5c.1-.3-.4-1.5-.4-1.5s1.9 1.3 1.3 2.1c-.6.7-1.9.1-2-.2-.1-.3 1.1-.1 1.1-.4zm-1.5 6.1s.4 1.4-.3 2.4-.9-.6-.7-1c.3-.5 1-1.4 1-1.4zm-1.2-6.9c.2-.4.7-.7.7-.7s.7.7.1 1c-.6.3-1 .1-.8-.3zm-.8 3.7c.1-.2 1-.7.7-1.3-.3-.6-1-2.1-1-2.1s2.1 1.4 2 4.6c-.1 3.2-1.8-1-1.7-1.2zm.1 22.7c.5-.8 2.3-1 2.4-2.2.1-1.2.5-3.4.5-3.4s.5 6.4-1.8 7.3c-2.4.8-1.6-.9-1.1-1.7zM79.2 71c-.7.8-.6-.8-.5-1.1 0-.3 1.2-2.7 1.2-2.7s-.1 3-.7 3.8zm-2.1-9.7c.3-.6 1.6-1.5 1.6-1.5s-.1 1.7-.6 2.1c-.4.3-1.3 0-1-.6zm-1.9 16.8c.1-.2.7-1.1.7-1.1l.2-.1s.8 2.3.2 2.6c-.6.2-1.2-1.2-1.1-1.4zm-.4 13.1c.6 0 .7-1.6 1-.1.1.5-.5 1-1 1-.6 0-1-.4-1-1 0-1.4.5.1 1 .1zm-3 2.5c0-.7.5.2 1.2.2s1-.9 1-.2-.5 1.3-1.1 1.3c-.6 0-1.1-.6-1.1-1.3zm.3 2.9c0 .6-.5 1.1-1.2 1.1-.6 0-1.2-.5-1.2-1.1 0-.6.5 0 1.2 0 .6 0 1.2-.6 1.2 0zM50.8 43s-1.4 3.5-2.5 2.4c-1-1.1 2.5-2.4 2.5-2.4zm9.9 26.9c-.8-1.6-.1-2.4-.1-2.4s.3 1.1.9.8c.6-.2 3.1-4.4 3.1-4.4s-2.8 8.3-3.9 6zm4.3-.2c.3 0 3-4.9 3-4.9s-2.5 6.6-3.3 6.4c-.9-.2-.5-2.5-.5-2.5s.5.9.8 1zm-8.1-1.8c-1.7-.9.3-3.9.3-3.9s-.3 2.1.2 2.3c.5.2 3.7-4.4 3.7-4.4s-2.5 6.9-4.2 6zm-3.1-2c-1.3-.5-.3-4.2-.3-4.2s0 1.9.8 2c.7.1 3.6-4.1 3.6-4.1s-2.8 6.8-4.1 6.3zm-14.9 1.6c-1.3-.2-.1-4.4-.1-4.4s.6.9.8 1c.3.1 5.2-7.5 5.2-7.5s-4.6 11-5.9 10.9zm1.1 1s-.1 17.3-2 17.3-1.6-4.6-1.6-4.6.5 2.3 1.2 1.8c.8-.5 2.4-14.5 2.4-14.5zm2.2 17c.9.1 2-12.7 2-12.7s.2 16.1-1.5 16.2c-1.7.2-2.4-7.6-2.4-7.6s1 4 1.9 4.1zm1.3-14.1c-1.4-.3-1.1-4.2-1.1-4.2s1 .7 1.4.7c.5 0 4.1-7.5 4.1-7.5s-3 11.4-4.4 11zm3.1-.7s.7.6 1 .6c.3 0 3.4-6.9 3.7-7.5-.3.8-3 11.5-4.1 11.6-1.1.2-.6-4.7-.6-4.7zm3.9 2.8s.4.8.9.9c.5 0 3.5-7.9 3.5-7.9s-2.6 11.2-4 11.1c-1.4-.1-.4-4.1-.4-4.1zM49.9 63c-1.8-1.1 2.4-7.9 2.4-7.9S50 60.5 51 60.4c1-.1 4.3-5.2 4.3-5.2s-3.6 8.9-5.4 7.8zm-2.3-4.4c-.9 1.3-2 0-1.2-1.9.5-1.3 3.5-5.2 3.5-5.2s-3.4 5-2.4 5.4c.6.2 1.5-1.8 3.9-4.4 1.4-1.4 5.8-5.2 5.8-5.2s-6.9 7.5-9.6 11.3zm-3.5-3.3c-1.5-1.1 1.8-5.2 1.8-5.2s-1.4 3.2-.7 2.9c.7-.4 6-5.4 6-5.4s-5.6 8.8-7.1 7.7zm2.9-9.4S42.2 52 41.7 51s5.3-5.1 5.3-5.1zM35.7 59s.7.6 1.1.5c.3 0 4.7-6.6 5.1-7.2-.4.7-4.6 10.7-6.1 10.3-1.6-.4-.1-3.6-.1-3.6zm-3.2 18.4s.9 1.9 1.4.7c.5-1.2 2.7-14.2 2.7-14.2s-.9 18.5-2.5 18.6c-1.6 0-1.6-5.1-1.6-5.1zm-2.3 38.1c1.4-3.7 3.9-11.1 4.5-18.5.6-7.5.4-13.6.4-13.6s3.2 30.6-4.9 32.1zm5.1-3.1s1.8-6.5 2.7-11.7c.9-5.2 1.5-14.6 1.5-14.6s1.3 21.2-4.2 26.3zm4-3.7c.9-5.5 2.8-9.8 3.2-12.4.4-2.6 1.3-6.7 1.3-6.7s-.8 14-4.5 19.1zm4.4-6.1c.7-4.4 2-5.3 2.3-7 .4-1.7 1.2-4.7 1.2-4.7s-.7 8.4-3.5 11.7zm2.7-12.9c-1.3 0-1.4-4.1-1.4-5.6-.1-.4-.1-.6 0-.6v.6c.1.8.5 2.2 1.1 2.7.7.7 2.5-11.2 2.5-11.2s-.5 14.2-2.2 14.1zm3.8-.8c-1.5-.4-1.1-2.8-1.1-2.8s.7 1.4 1.3.8c.6-.6 2.1-8.8 2.1-8.8s-.8 11.2-2.3 10.8zm3.6-2.7c-1.3-.4-.3-4-.3-4s.4 1.6.7 2c.4.4 2-3.7 2-3.7s-1.1 6-2.4 5.7zm.9-6.3c-1.4-.2-.5-4.3-.5-4.3s.6.9 1.1 1c.4.1 2.8-6.3 3.1-7.4 0-.1 0-.2.1-.2 0 0 0 .1-.1.2-.4 1.4-2.4 10.9-3.7 10.7zm3.5 1.2c-1.8-.7.2-5.4.2-5.4s.1 2.5.6 2.6c.5 0 3.4-7.3 3.4-7.3S60 81.8 58.2 81.1zm4.1.2c-1.5-.3-.4-3.9-.4-3.9s.2 1.7.6 1.8 3.3-7.4 3.3-7.4-2 9.8-3.5 9.5zm3.4.6c-1.6-.4.2-5.9.2-5.9s-.2 3.2.4 3.2c.6 0 3-6.1 3-6.1s-2 9.1-3.6 8.8zm3.9-.1c-1.2-.3-.1-4.9-.1-4.9s.1 2.2.4 2.3c.4 0 2-5.3 2-5.3s-1.1 8.1-2.3 7.9zm-.9-10c-1.4-.3.2-4.9.2-4.9s-.2 2.5.2 2.7c.4.2 3.4-5.2 3.4-5.2s-2.3 7.7-3.8 7.4zm3.8-9c-1.3.6-.8-1.3-1.8-1.1-1 .2-1.9 2.2-2.8 2-1-.2.1-1.4-.8-1.6-.9-.2-1.7 1-2.7.7-1-.4 0-2.1-1.2-2.4-1.2-.4-2.1 1-2.7.3-.7-.7.5-2.3-.4-2.3-.8 0-3.1.9-3.1.1s2.3-2.6 1.9-3.3c-.4-.7-2.1.4-2.7 0-.6-.4 2.2-3.6 4.7-4.7-.4-1.2-2.5.5-3.8.2-1.2-.3 1.7-3.6 3.6-4.3 1.9-.6.7-1.4-.7-1.2-1.3.2-2.6.7-3.8 1.2-.5-.9 1.8-2.5 1.5-3.3-.2-.8-1.1-1.1-1.9.5-.7 1.5-1.1 2.1-2.4 2.2-1.4.2-2.3 0-3 .4 0-1.1 1.4-2 2.1-2.9.7-.9-1-1.1-.3-1.5.7-.4 4.2-.9 5.9-.7 1.6.2 3.9 1 5.2 2.5 1.3 1.6 1.6 4.3.3 6.7-1.4 2.5-3.9 5.6-3.2 6.6.6.9.2.9 1.4.8 2.1-.2 3 .6 4.4 1.6 1.4 1 1.8 1.9 3.2 1.4 1.4-.5 2.1-1 3.2-1.4 1.1-.4.9 0 .9 0 1 .6.2 2.9-1 3.5zm.8 25.7c.5 0 1-.3 1 .1s-.4.7-.9.7-.9-.3-.9-.7c.1-.3.4-.1.8-.1zm-2 2.3c.5 0 1.1-.5 1.1.1S72 92 71.5 92s-.9-.5-.9-1.1c-.1-.6.2-.1.7-.1zm-1.9 2.9c.5 0 .9-.6.9 0s-.4 1.1-.9 1.1-.9-.5-.9-1.1c0-.6.4 0 .9 0zM61 111.5c-.3 0-.5-.2-.5-.6 0-.3.3-.1.5-.1.3 0 .5-.2.5.1 0 .4-.2.6-.5.6zm1.8-1.3c-.4 0-.6-.3-.6-.7 0-.4.3-.3.6-.3.4 0 .6-.1.6.3s-.3.7-.6.7zm1.7-1.8c-.3 0-.6-.3-.6-.7 0-.4.2-.2.5-.2s.6-.2.6.2c.1.4-.2.7-.5.7zm2-2.1c-.4 0-.6-.4-.6-.8 0-.5.3-.2.7-.2.4 0 .6-.3.6.2s-.3.8-.7.8zm2-2c-.4 0-.8-.4-.8-.9s.4-.1.8-.1.8-.4.8.1-.4.9-.8.9zm.4-5.4c0-.4.4-.3.9-.3s.8-.1.8.3-.4.8-.8.8c-.6 0-.9-.3-.9-.8zm2.1 4c-.6 0-1-.4-1-.9s.4-.3 1-.3 1.1-.2 1.1.3c0 .4-.5.9-1.1.9zm1.2-2.2c-.7 0-1.2-.5-1.2-1.2s.8-.1 1.5-.1 1-.5 1 .1c0 .7-.6 1.2-1.3 1.2zm2.1-2.3c-.5 0-.9-.5-.9-1.1 0-.6.5-.3 1.1-.3.5 0 .8-.3.8.3-.1.6-.5 1.1-1 1.1zm1.8-2.7c-.6 0-1.2-.6-1.2-1.3 0-.7.5.3 1.1.3.6 0 1.2-1 1.2-.3.1.7-.5 1.3-1.1 1.3zm1.4-28.1c-.8.6-.4-1.2 0-2.2.4-1 1.5-2.5 1.5-2.5s-.7 4.1-1.5 4.7zm.1 17.4c-.2-.9.4-4.5.4-4.5s2.3 6.9 1.2 8.1c-1.1 1.1-1.4-2.7-1.6-3.6zm-8 51.4c-5.4-1.1 7.8-21.7 7.8-21.7s-8.3 16.3-5.5 16.4c2.7.2 9.5-22.4 9.5-22.4s-5.7 29-11.8 27.7zm10 2.5c-7.9 1 3.6-30.1 3.6-30.1s-6.4 24.6-3.4 25.1c3 .5 6.2-27.1 6.2-27.1s-1 31.4-6.4 32.1zm13.4-.3c-.9.7-2.6 1.2-3.6 1.3-.9-.1-2.7-.6-3.5-1.3-.9-.7 0-8.1.3-10.5.4-2.5 1.7-18.4 1.7-18.4s.2 14.6.1 18.7c-.1 3.7 1.2 5.8 1.5 6.2.2-.4 1.6-2.4 1.5-6.2-.1-4.1.1-18.7.1-18.7s1.3 15.9 1.7 18.4c.2 2.4 1 9.7.2 10.5zm5.8.3c-5.4-.7-6.4-32-6.4-32s3.2 27.5 6.2 27.1c3-.5-3.4-25.1-3.4-25.1s11.5 31 3.6 30zm7.7-7.7c2.8-.2-5.6-16.4-5.6-16.4s13.3 20.6 7.8 21.7c-6.1 1.2-11.8-27.7-11.8-27.7s6.9 22.5 9.6 22.4zM100.8 85c-.2.9-.5 4.7-1.6 3.6-1.1-1.2 1.2-8.1 1.2-8.1s.6 3.6.4 4.5zm-1.4-22.1s1.1 1.4 1.5 2.5c.4 1 .8 2.9 0 2.2-.8-.6-1.5-4.7-1.5-4.7zm2.9 32.8c-.6 0-1.2-.6-1.2-1.3 0-.7.6.3 1.2.3s1.1-1 1.1-.3c.1.7-.4 1.3-1.1 1.3zm1.8 2.7c-.5 0-.9-.5-.9-1.1 0-.6.3-.3.8-.3s1.1-.3 1.1.3-.4 1.1-1 1.1zm2.1 2.3c-.7 0-1.2-.5-1.2-1.2s.3-.1 1-.1 1.5-.5 1.5.1c-.1.7-.6 1.2-1.3 1.2zm1.2 2.2c-.6 0-1-.4-1-.9s.5-.3 1.1-.3c.6 0 1-.2 1 .3-.1.4-.5.9-1.1.9zm.5-4c0-.4.4-.3.8-.3.5 0 .9-.1.9.3s-.4.8-.8.8c-.5 0-.9-.3-.9-.8zm2.8 4.5c0 .5-.4.9-.8.9s-.8-.4-.8-.9.3-.1.8-.1.8-.4.8.1zm-1.6-9.7c.5 0 .9-.6.9 0s-.4 1.1-.9 1.1-.9-.5-.9-1.1c0-.6.4 0 .9 0zm-.4 2.9c0 .6-.5 1.1-1.2 1.1-.6 0-1.2-.5-1.2-1.1 0-.6.5 0 1.2 0s1.2-.6 1.2 0zm-1.6-5.8c.5 0 .8-.5.8.1s-.4 1.1-.9 1.1-.9-.5-.9-1.1c0-.6.5-.1 1-.1zm-.4 2.9c0 .7-.5 1.3-1.1 1.3-.6 0-1.1-.6-1.1-1.3 0-.7.5.2 1.1.2.5 0 1.1-.9 1.1-.2zm-.9-5.1c0 .4-.4.7-.9.7s-.9-.3-.9-.7c0-.4.5-.1 1-.1.6 0 .8-.2.8.1zm0-24.3s3 5.4 3.4 5.2c.4-.2.2-2.7.2-2.7s1.7 4.6.2 4.9c-1.4.4-3.8-7.4-3.8-7.4zm3 17.5c-1.2.3-2.3-7.9-2.3-7.9s1.6 5.4 2 5.3c.4 0 .4-2.3.4-2.3s1.2 4.6-.1 4.9zm4 .1c-1.6.4-3.6-8.8-3.6-8.8s2.5 6.2 3 6.1c.6 0 .4-3.2.4-3.2s1.8 5.5.2 5.9zm3.4-.6c-1.5.3-3.6-9.6-3.6-9.6s2.9 7.5 3.3 7.4c.4-.1.6-1.8.6-1.8s1.2 3.8-.3 4zm4.1-.2c-1.8.7-4.2-10-4.2-10s2.9 7.3 3.4 7.3.6-2.6.6-2.6 1.9 4.7.2 5.3zm-.2-11.8c0-.1-.1-.2-.1-.2s.1.1.1.2c.4 1.1 2.7 7.5 3.1 7.4.5-.1 1.1-1 1.1-1s.9 4-.5 4.3c-1.3.1-3.3-9.4-3.7-10.7zm4.5 16.9c-1.3.4-2.5-5.7-2.5-5.7s1.6 4 2 3.7c.4-.4.7-2 .7-2s1.2 3.6-.2 4zm-1.1-19.7s3 7.9 3.5 7.9.9-.9.9-.9 1 4-.4 4.1c-1.4.1-4-11.1-4-11.1zm4.8 22.4c-1.5.4-2.4-10.7-2.4-10.7s1.6 8.2 2.1 8.8c.6.6 1.3-.8 1.3-.8s.5 2.4-1 2.7zm-1.1-25c-.1-.1-.1-.1 0 0-.1-.1-.1-.1 0 0 .3.6 3.4 7.5 3.7 7.5.3 0 1-.6 1-.6s.5 4.8-.6 4.7c-1.1-.1-3.9-10.8-4.1-11.6zm5.2 22.9c.5-.5.9-1.9 1.1-2.7v-.6.6c0 1.5-.1 5.6-1.4 5.6-1.7 0-2.1-14.1-2.1-14.1s1.7 12 2.4 11.2zm-1.1 4.1s.8 3.1 1.2 4.7c.4 1.7 1.6 2.6 2.3 7-2.8-3.3-3.5-11.7-3.5-11.7zm3.4-1.2s.8 4.1 1.3 6.7c.4 2.6 2.4 6.9 3.2 12.4-3.8-5.2-4.5-19.1-4.5-19.1zm4.3-3.6s.6 9.4 1.5 14.6c.9 5.2 2.7 11.7 2.7 11.7-5.5-5.1-4.2-26.3-4.2-26.3zm4.5-2.7s-.2 6.2.4 13.6c.6 7.5 3.1 14.8 4.5 18.5-8.2-1.5-4.9-32.1-4.9-32.1z"/><path class="st1" d="M160 90.8l2.7.1v-1.1H160v1zm0 1.7l2.7.1v-1.1l-2.7-.1v1.1zm-.2 1.8l2.7.2.1-1.1-2.7-.1-.1 1zm-.1 1.7l2.7.3.1-1.1-2.7-.2-.1 1zm-.2 1.8l2.7.3.1-1.1-2.7-.3-.1 1.1zm-.2 1.7l2.7.4.1-1.1-2.7-.3-.1 1zm-.3 1.8l2.7.5.2-1.1-2.7-.4-.2 1zm-.3 1.7l2.6.5.2-1.1-2.7-.5-.1 1.1zm-.4 1.7l2.6.6.3-1.1-2.6-.5-.3 1zm-.4 1.7l2.6.7.3-1.1-2.6-.6-.3 1zm-.4 1.8l2.6.7.3-1.1-2.6-.7-.3 1.1zm-.5 1.6l2.6.8.3-1.1-2.6-.7-.3 1zm-.5 1.7l2.6.8.4-1.1-2.6-.8-.4 1.1zm-.6 1.7l2.5.9.4-1.1-2.6-.9-.3 1.1zm-.6 1.6l2.5 1 .4-1.1-2.5-.9-.4 1zm-.7 1.7l2.5 1 .4-1.1-2.5-1-.4 1.1zm-.7 1.6l2.5 1.1.5-1-2.5-1.1-.5 1zm-.7 1.6l2.4 1.2.5-1-2.5-1.1-.4.9zm-.8 1.6l2.4 1.2.5-1-2.4-1.2-.5 1zm-.8 1.5l2.4 1.3.5-1-2.4-1.2-.5.9zm-.9 1.6l2.3 1.3.6-1-2.4-1.3-.5 1zm25.2-33.3l2.7.1v-1.4h-2.7v1.3zm-.1 2.1l2.7.1v-1.4l-2.7-.1v1.4zm-.1 2.2l2.7.2.1-1.4-2.7-.1-.1 1.3zm-.2 2.1l2.7.3.1-1.4-2.7-.2-.1 1.3zm-.2 2.2l2.7.3.2-1.4-2.7-.3-.2 1.4zm-.3 2.1l2.7.4.2-1.4-2.7-.3-.2 1.3zm-.3 2.1l2.7.5.2-1.4-2.7-.4-.2 1.3zm-.4 2.2l2.6.5.2-1.4-2.7-.5-.1 1.4zm-.5 2.1l2.6.6.3-1.3-2.6-.5-.3 1.2zm-.5 2.1l2.6.7.3-1.3-2.6-.6-.3 1.2zm-.5 2.1l2.6.7.4-1.3-2.6-.7-.4 1.3zm-.6 2l2.6.8.4-1.3-2.6-.7-.4 1.2zm-.7 2.1l2.6.8.4-1.3-2.6-.8-.4 1.3zm-.7 2l2.5.9.4-1.3-2.6-.9-.3 1.3zm-.7 2.1l2.5 1 .5-1.3-2.5-.9-.5 1.2zm-.8 2l2.5 1 .5-1.3-2.5-1-.5 1.3zm-.9 1.9l2.5 1.1.6-1.3-2.5-1.1-.6 1.3zm-.9 2l2.4 1.2.6-1.3-2.5-1.1-.5 1.2zm-.9 1.9l2.4 1.2.6-1.2-2.4-1.2-.6 1.2zm-1 2l2.4 1.3.6-1.2-2.4-1.2-.6 1.1zm-1.1 1.8l2.3 1.3.7-1.2-2.4-1.3-.6 1.2z"/><path class="st2" d="M163 90h4m0 .1c-.1 1.5 0 2.9-.2 4.4m.1 0l4.7.3m0 0c-.1 1.6-.2 3.1-.4 4.6m-.1 0l3.9.5m-12.6-.6l4 .5m-.1.1c-.1 1.5-.5 2.9-.7 4.3m0 0l4.6.9m0 0c-.3 1.5-.7 3-1 4.6m0 0l3.8 1m-15.8 7.4l3.7 1.6m0-.1c-.6 1.3-1.2 2.7-1.8 4m0 0l4.2 2.1m0 0c-.7 1.4-1.4 2.8-2.2 4.1m0 0l3.4 1.9m-4.2-22.9l3.8 1.1m.1 0c-.4 1.4-.8 2.8-1.3 4.2m0 0l4.5 1.5m0 0c-.5 1.5-1 2.9-1.6 4.4m-.1 0l3.7 1.5"/><path class="st1" d="M149.8 125.9l2.3 1.4.6-1-2.3-1.4-.6 1zm-.9 1.5l2.3 1.5.6-1-2.3-1.4-.6.9zm-1 1.5l2.2 1.5.6-1-2.3-1.5-.5 1zm-1 1.4l2.2 1.6.7-.9-2.2-1.5-.7.8zm-1 1.5l2.2 1.6.7-.9-2.2-1.6-.7.9zm-1.1 1.3l2.1 1.7.7-.9-2.1-1.6-.7.8zm-1.1 1.4l2.1 1.7m0 0c.3-.3.5-.6.7-.9m0 .1l-2.1-1.7m0 0c-.2.3-.4.6-.7.9m-1.2 1.2l2 1.8.7-.9-2.1-1.7-.6.8zm-1.1 1.4l2 1.8m0 0c.3-.3.5-.6.8-.8m-.1 0l-2-1.8m0 0c-.2.3-.5.6-.7.8m-1.2 1.2l1.9 1.9.8-.8-2-1.8-.7.7zm-1.3 1.3l1.9 1.9.8-.8-1.9-1.9-.8.8zm-1.3 1.2l1.8 2 .8-.8-1.9-1.9-.7.7zm-1.3 1.2l1.8 2m0 0c.3-.2.6-.5.8-.8m.1.1l-1.8-2m0 0c-.3.3-.5.5-.8.7m-1.4 1.2l1.7 2.1.9-.7-1.8-2-.8.6zm-1.3 1.1l1.7 2.1m-.1 0c.3-.2.6-.5.9-.7m0 0l-1.7-2.1m0 0c-.3.2-.6.5-.9.7m-1.3 1.1l1.6 2.1.9-.7-1.7-2.1-.8.7zm-1.4 1l1.6 2.2.9-.7-1.6-2.2-.9.7zm-1.5 1.1l1.5 2.2.9-.7-1.6-2.2-.8.7zm-1.4.9l1.5 2.3 1-.6-1.5-2.2-1 .5zm-1.5 1l1.4 2.3 1-.6-1.5-2.3-.9.6zm-1.5.9l1.4 2.3 1-.6-1.4-2.3-1 .6zm38.4-16.3l2.3 1.4.7-1.2-2.3-1.4-.7 1.2zm-1.1 1.9l2.3 1.5.7-1.2-2.3-1.4-.7 1.1zm-1.2 1.8l2.2 1.5.7-1.2-2.3-1.5-.6 1.2zm-1.3 1.7l2.2 1.6.8-1.1-2.2-1.5-.8 1zm-1.2 1.8l2.2 1.6.8-1.1-2.2-1.6-.8 1.1zm-1.4 1.7l2.1 1.7.9-1.1-2.1-1.6-.9 1zm-1.3 1.7l2.1 1.7m0 0c.3-.3.6-.7.9-1.1m-.1 0l-2.1-1.7m0 0c-.3.3-.5.7-.8 1m-1.4 1.7l2 1.8.9-1-2.1-1.7-.8.9zm-1.4 1.6l2 1.8m-.1 0c.3-.3.6-.7.9-1m.1 0l-2-1.8m0 0c-.3.3-.6.7-.9 1m-1.5 1.6l1.9 1.9 1-1-2-1.8-.9.9zm-1.5 1.5l1.9 1.9 1-1-1.9-1.9-1 1zm-1.6 1.5l1.8 2 1-1-1.9-1.9-.9.9zm-1.6 1.5l1.8 2m0 0c.3-.3.7-.6 1-.9m0 0l-1.8-2m0 0c-.3.3-.7.6-1 .9m-1.6 1.4l1.7 2.1 1-.9-1.8-2-.9.8zm-1.7 1.4l1.7 2.1m0 0c.4-.3.7-.6 1.1-.9m0 0l-1.7-2.1m0 0c-.3.3-.7.6-1 .8m-1.8 1.4l1.6 2.1 1.1-.9-1.7-2.1-1 .9zm-1.7 1.3l1.6 2.2 1.1-.8-1.6-2.2-1.1.8zm-1.8 1.2l1.5 2.2 1.1-.8-1.6-2.2-1 .8zm-1.8 1.2l1.5 2.3 1.2-.7-1.5-2.2-1.2.6zm-1.8 1.2l1.4 2.3 1.2-.7-1.5-2.3-1.1.7zm-1.8 1.1l1.4 2.3 1.2-.7-1.4-2.3-1.2.7z"/><path class="st2" d="M152.8 126.8l3.4 2m0 0c-.7 1.3-1.6 2.5-2.3 3.7m0 0l3.9 2.6m0 .1c-.9 1.3-1.8 2.6-2.7 3.8m0 0l3.2 2.4m-10.8-6.9l3.2 2.4m0 .1c-.9 1.2-1.8 2.3-2.8 3.4m0 0l3.6 3.1m0 0c-1 1.2-2.1 2.3-3.2 3.4m0 0l2.8 2.8m-17.4-1.5l2.4 3.2m0 0c-1.2.9-2.4 1.7-3.6 2.5m.1 0l2.6 3.9m0 0c-1.3.8-2.6 1.7-3.9 2.5m-.1 0l2 3.4m7.9-22l2.8 2.8m0 0c-1.1 1-2.1 2.1-3.2 3m-.1 0l3.1 3.5m.1.1c-1.2 1-2.3 2-3.6 3m0 0l2.4 3.1"/><path class="st1" d="M123.4 151.3l1.3 2.4 1-.6-1.3-2.3-1 .5zm-1.6.8l1.2 2.4 1-.5-1.3-2.4-.9.5zm-1.5.8l1.2 2.4 1-.5-1.2-2.4-1 .5zm-1.6.7l1.1 2.5 1-.5-1.2-2.4-.9.4zm-1.6.8l1.1 2.5 1-.5-1.1-2.5-1 .5zm-1.7.6l1 2.5 1.1-.4-1-2.5-1.1.4zm-1.6.7l.9 2.5 1.1-.4-1-2.5-1 .4zm-1.7.5l.9 2.6 1.1-.4-.9-2.5-1.1.3zm-1.6.6l.8 2.6 1.1-.4-.8-2.6-1.1.4zm-1.7.5l.7 2.6 1.1-.3-.8-2.6-1 .3zm-1.7.5l.7 2.6 1.1-.3-.7-2.6-1.1.3zm-1.7.4l.6 2.6 1.1-.3-.7-2.6-1 .3zm-1.7.4l.5 2.6 1.1-.3-.6-2.6-1 .3zm-1.8.3l.5 2.7 1.1-.2-.5-2.6-1.1.1zm-1.7.3l.4 2.7 1.1-.2-.5-2.7-1 .2zm-1.8.2l.3 2.7 1.1-.1-.4-2.7-1 .1zm-1.7.3l.3 2.7 1.1-.1-.3-2.7-1.1.1zm-1.8.1l.2 2.7 1.1-.1-.3-2.7-1 .1zm-1.7.1l.1 2.7 1.1-.1-.2-2.7-1 .1zm-1.8.1l.1 2.7h1.1l-.1-2.7h-1.1zm-1.8 0v2.7h1.1l-.1-2.7h-1zm41.5 5.2l1.3 2.4 1.2-.7-1.3-2.3-1.2.6zm-1.9 1l1.2 2.4 1.2-.6-1.3-2.4-1.1.6zm-2 1l1.2 2.4 1.2-.6-1.2-2.4-1.2.6zm-1.9.9l1.1 2.5 1.3-.6-1.2-2.4-1.2.5zm-2 .9l1.1 2.5 1.3-.6-1.1-2.5-1.3.6zm-2 .8l1 2.5 1.3-.5-1-2.5-1.3.5zm-2 .8l.9 2.5 1.3-.5-1-2.5-1.2.5zm-2 .7l.9 2.6 1.3-.4-.9-2.5-1.3.3zm-2.1.7l.8 2.6 1.3-.4-.8-2.6-1.3.4zm-2.1.6l.7 2.6 1.3-.4-.8-2.6-1.2.4zm-2 .6l.7 2.6 1.3-.4-.7-2.6-1.3.4zm-2.1.4l.6 2.6 1.3-.3-.7-2.6-1.2.3zm-2.1.5l.5 2.6 1.3-.3-.6-2.6-1.2.3zm-2.2.4l.5 2.7 1.4-.2-.5-2.6-1.4.1zm-2.1.4l.4 2.7 1.4-.2-.5-2.7-1.3.2zm-2.1.3l.3 2.7 1.4-.2-.4-2.7-1.3.2zm-2.2.2l.3 2.7 1.4-.2-.3-2.7-1.4.2zm-2.1.2l.2 2.7 1.4-.1-.3-2.7-1.3.1zm-2.2.2l.1 2.7 1.4-.1-.2-2.7-1.3.1zm-2.1.1l.1 2.7h1.4l-.1-2.7h-1.4zm-2.2 0v2.7h1.4l-.1-2.7h-1.3z"/><path class="st2" d="M125.5 153.5l2 3.5m0 0c-1.3.8-2.6 1.4-3.9 2.1m0 0l2.1 4.2m0 0c-1.4.7-2.8 1.3-4.2 2m0 0l1.5 3.6m-5.9-11.3l1.5 3.7m.1 0c-1.4.5-2.7 1.1-4.1 1.5m-.1 0l1.5 4.5m.1 0c-1.5.5-3 1-4.5 1.4m0 0l1.1 3.8m-14.4-10l.5 4m0-.1c-1.4.2-2.9.3-4.4.4m.1.1l.3 4.7m0 0c-1.5.2-3.1.1-4.6.2m-.1-.1v4m17.8-15.1l1 3.9m0-.1c-1.4.3-2.9.7-4.3 1m.1 0l.9 4.6m0 0c-1.5.3-3.1.6-4.6.8m0 0l.6 3.9"/><path class="st1" d="M87.8 160l-.1 2.7h1.1V160h-1zm-1.7 0l-.1 2.7h1.1l.1-2.7h-1.1zm-1.8-.2l-.2 2.7 1.1.1.1-2.7-1-.1zm-1.7-.1l-.3 2.7 1.1.1.2-2.7-1-.1zm-1.8-.2l-.3 2.7 1.1.1.3-2.7-1.1-.1zm-1.7-.2l-.4 2.7 1.1.1.3-2.7-1-.1zm-1.8-.3l-.5 2.7 1.1.2.4-2.7-1-.2zm-1.7-.3l-.5 2.6 1.1.2.5-2.7-1.1-.1zm-1.7-.4l-.6 2.6 1.1.3.5-2.6-1-.3zm-1.7-.4l-.7 2.6 1.1.3.6-2.6-1-.3zm-1.7-.4l-.7 2.6 1.1.3.7-2.6-1.1-.3zm-1.7-.5l-.8 2.6 1.1.3.7-2.6-1-.3zm-1.7-.5l-.8 2.6 1.1.4.8-2.6-1.1-.4zm-1.7-.6l-.9 2.5 1.1.4.9-2.6-1.1-.3zm-1.6-.6l-1 2.5 1.1.4.9-2.5-1-.4zm-1.7-.7l-1 2.5 1.1.4 1-2.5-1.1-.4zm-1.6-.7l-1.1 2.5 1 .5 1.1-2.5-1-.5zm-1.6-.7l-1.2 2.4 1 .5 1.1-2.5-.9-.4zm-1.6-.8l-1.2 2.4 1 .5 1.2-2.4-1-.5zm-1.5-.8l-1.3 2.4 1 .5 1.2-2.4-.9-.5zm-1.6-.9l-1.3 2.3 1 .6 1.3-2.4-1-.5zm33.3 25.2l-.1 2.7h1.4v-2.7h-1.3zm-2.1-.1l-.1 2.7h1.4l.1-2.7h-1.4zm-2.2-.1l-.2 2.7 1.4.1.1-2.7-1.3-.1zm-2.1-.2l-.3 2.7 1.4.1.2-2.7-1.3-.1zm-2.2-.2l-.3 2.7 1.4.2.3-2.7-1.4-.2zm-2.1-.3l-.4 2.7 1.4.2.3-2.7-1.3-.2zm-2.1-.3l-.5 2.7 1.4.2.4-2.7-1.3-.2zm-2.2-.4l-.5 2.6 1.4.2.5-2.7-1.4-.1zm-2.1-.5l-.6 2.6 1.3.3.5-2.6-1.2-.3zm-2.1-.5l-.7 2.6 1.3.3.6-2.6-1.2-.3zm-2.1-.5l-.7 2.6 1.3.4.7-2.6-1.3-.4zm-2-.6l-.8 2.6 1.3.4.7-2.6-1.2-.4zm-2.1-.7l-.8 2.6 1.3.4.8-2.6-1.3-.4zm-2-.7l-.9 2.5 1.3.4.9-2.6-1.3-.3zm-2.1-.7l-1 2.5 1.3.5.9-2.5-1.2-.5zm-2-.8l-1 2.5 1.3.5 1-2.5-1.3-.5zm-1.9-.9l-1.1 2.5 1.3.6 1.1-2.5-1.3-.6zm-2-.9l-1.2 2.4 1.3.6 1.1-2.5-1.2-.5zm-1.9-.9L49 169l1.2.6 1.2-2.4-1.2-.6zm-2-1l-1.3 2.4 1.2.6 1.2-2.4-1.1-.6zm-1.8-1.1l-1.3 2.3 1.2.7 1.3-2.4-1.2-.6z"/><path class="st2" d="M88.6 163v4m-.1 0c-1.5-.1-2.9 0-4.4-.2m.1.1l-.3 4.7m-.1 0c-1.6-.1-3.1-.2-4.6-.4m0-.1l-.5 3.9m.6-12.6l-.5 4m-.1-.1c-1.5-.1-2.9-.5-4.4-.7m.1 0l-.9 4.6m0 0c-1.5-.3-3-.7-4.6-1m0 0l-1 3.8m-7.4-15.8l-1.6 3.7m.1 0c-1.3-.6-2.7-1.2-4-1.8m0 0l-2.1 4.2m0 0c-1.4-.7-2.8-1.4-4.1-2.2m0 0l-1.9 3.4m22.9-4.2l-1.1 3.8m0 .1c-1.4-.4-2.8-.8-4.2-1.3m0 0l-1.5 4.5m0 0c-1.5-.5-2.9-1-4.4-1.6m0-.1l-1.5 3.7"/><path class="st1" d="M52.7 149.8l-1.4 2.3 1 .6 1.4-2.3-1-.6zm-1.5-.9l-1.5 2.3 1 .6 1.4-2.3-.9-.6zm-1.5-1l-1.5 2.2 1 .6 1.5-2.3-1-.5zm-1.4-1l-1.6 2.2.9.7 1.5-2.2-.8-.7zm-1.4-1l-1.6 2.2.9.7 1.6-2.2-.9-.7zm-1.4-1.1l-1.7 2.1.9.7 1.6-2.1-.8-.7zm-1.4-1.1l-1.7 2.1m0 0c.3.3.6.5.9.7m-.1 0l1.7-2.1m0 0c-.3-.2-.6-.4-.9-.7m-1.2-1.2l-1.8 2 .9.7 1.7-2.1-.8-.6zm-1.4-1.1l-1.8 2m0 0c.3.3.6.5.8.8m.1-.1l1.8-2m-.1 0c-.3-.2-.6-.5-.8-.7m-1.2-1.2l-1.9 1.9.8.8 1.8-2-.7-.7zm-1.3-1.3l-1.9 1.9.8.8 1.9-1.9-.8-.8zm-1.2-1.3l-2 1.8.8.8 1.9-1.9-.7-.7zm-1.2-1.3l-2 1.8m0 0c.2.3.5.6.8.8m-.1.1l2-1.8m0 0c-.3-.3-.5-.5-.7-.8m-1.2-1.4l-2.1 1.7.7.9 2-1.8-.6-.8zm-1.1-1.3l-2.1 1.7m0-.1c.2.3.5.6.7.9m0 0l2.1-1.7m0 0c-.2-.3-.5-.6-.7-.9m-1.1-1.3l-2.1 1.6.7.9 2.1-1.7-.7-.8zm-1-1.4l-2.2 1.6.7.9 2.2-1.6-.7-.9zm-1.1-1.5l-2.2 1.5.7.9 2.2-1.6-.7-.8zm-.9-1.4l-2.3 1.5.6 1 2.2-1.5-.5-1zm-1-1.5l-2.3 1.4.6 1 2.3-1.5-.6-.9zm-.9-1.5l-2.3 1.4.6 1 2.3-1.4-.6-1zm16.3 38.4l-1.4 2.3 1.2.7 1.4-2.3-1.2-.7zm-1.9-1.1l-1.5 2.3 1.2.7 1.4-2.3-1.1-.7zm-1.8-1.2l-1.5 2.2 1.2.7 1.5-2.3-1.2-.6zm-1.7-1.3l-1.6 2.2 1.1.8 1.5-2.2-1-.8zm-1.8-1.2l-1.6 2.2 1.1.8 1.6-2.2-1.1-.8zm-1.7-1.4l-1.7 2.1 1.1.9 1.6-2.1-1-.9zm-1.7-1.3l-1.7 2.1m0 0c.3.3.7.6 1.1.9m0-.1l1.7-2.1m0 0c-.3-.3-.7-.5-1-.8m-1.7-1.4l-1.8 2 1 .9 1.7-2.1-.9-.8zm-1.6-1.4l-1.8 2m0-.1c.3.3.7.6 1 .9m0 .1l1.8-2m0-.1c-.3-.3-.7-.6-1-.9m-1.6-1.4l-1.9 1.9 1 1 1.8-2-.9-.9zm-1.5-1.5l-1.9 1.9 1 1 1.9-1.9-1-1zm-1.5-1.6l-2 1.8 1 1 1.9-1.9-.9-.9zm-1.5-1.6l-2 1.8m0 0c.3.3.6.7.9 1m0 0l2-1.8m0 0c-.3-.3-.6-.7-.9-1m-1.4-1.6l-2.1 1.7.9 1 2-1.8-.8-.9zm-1.3-1.7l-2.1 1.7m0 0c.3.4.6.7.9 1.1m-.1 0l2.1-1.7m0 0c-.3-.3-.6-.7-.8-1m-1.4-1.8l-2.1 1.6.9 1.1 2.1-1.7-.9-1zm-1.3-1.7l-2.2 1.6.8 1.1 2.2-1.6-.8-1.1zm-1.2-1.8l-2.2 1.5.8 1.1 2.2-1.6-.8-1zm-1.2-1.8l-2.3 1.5.7 1.2 2.2-1.5-.6-1.2zm-1.2-1.8l-2.3 1.4.7 1.2 2.3-1.5-.7-1.1zm-1.1-1.8l-2.3 1.4.7 1.2 2.3-1.4-.7-1.2z"/><path class="st2" d="M51.8 152.8l-2 3.4m0 0c-1.3-.7-2.5-1.6-3.7-2.3m0 0l-2.6 3.9m-.1 0c-1.3-.9-2.6-1.8-3.8-2.7m0 0l-2.4 3.2m6.9-10.8l-2.4 3.2m-.1 0c-1.2-.9-2.3-1.8-3.4-2.8m0 0l-3.1 3.6m0 0c-1.2-1-2.3-2.1-3.4-3.2m0 0l-2.8 2.8m1.5-17.4l-3.2 2.4m0 0c-.9-1.2-1.7-2.4-2.5-3.6m0 0l-3.9 2.6m0 .1c-.8-1.3-1.7-2.6-2.5-3.9m0-.1l-3.4 2m22 7.9l-2.8 2.8m0 0c-1-1.1-2.1-2.1-3-3.2m0-.1l-3.5 3.1m-.1.1c-1-1.2-2-2.3-3-3.6m0 0l-3.1 2.4"/><path class="st1" d="M27.3 123.4l-2.4 1.3.6 1 2.3-1.3-.5-1zm-.8-1.6l-2.4 1.2.5 1 2.4-1.3-.5-.9zm-.8-1.5l-2.4 1.2.5 1 2.4-1.2-.5-1zm-.7-1.6l-2.5 1.1.5 1 2.4-1.2-.4-.9zm-.8-1.6l-2.5 1.1.5 1 2.5-1.1-.5-1zm-.6-1.7l-2.5 1 .4 1.1 2.5-1-.4-1.1zm-.7-1.6l-2.5.9.4 1.1 2.5-1-.4-1zm-.5-1.7l-2.6.9.4 1.1 2.5-.9-.3-1.1zm-.6-1.6l-2.6.8.4 1.1 2.6-.8-.4-1.1zm-.5-1.7l-2.6.7.3 1.1 2.6-.8-.3-1zm-.5-1.7l-2.6.7.3 1.1 2.6-.7-.3-1.1zm-.4-1.7l-2.6.6.3 1.1 2.6-.7-.3-1zm-.4-1.7l-2.6.5.3 1.1 2.6-.6-.3-1zm-.3-1.8l-2.7.5.2 1.1 2.6-.5-.1-1.1zm-.3-1.7l-2.7.4.2 1.1 2.7-.5-.2-1zm-.2-1.8l-2.7.3.1 1.1 2.7-.4-.1-1zm-.2-1.7l-2.7.3.1 1.1 2.7-.3-.1-1.1zm-.2-1.8l-2.7.2.1 1.1 2.7-.3-.1-1zm-.1-1.7l-2.7.1.1 1.1 2.7-.2-.1-1zm-.1-1.8l-2.7.1v1.1l2.7-.1v-1.1zm0-1.8h-2.7v1.1l2.7-.1v-1zm-5.2 41.5l-2.4 1.3.7 1.2 2.3-1.3-.6-1.2zm-1-1.9l-2.4 1.2.6 1.2 2.4-1.3-.6-1.1zm-1-2L9 128.4l.6 1.2 2.4-1.2-.6-1.2zm-.9-1.9L8 126.4l.6 1.3 2.4-1.2-.5-1.2zm-.9-2l-2.5 1.1.6 1.3 2.5-1.1-.6-1.3zm-.8-2l-2.5 1 .5 1.3 2.5-1-.5-1.3zm-.8-2l-2.5.9.5 1.3 2.5-1-.5-1.2zm-.7-2l-2.6.9.4 1.3 2.5-.9-.3-1.3zm-.7-2.1l-2.5.8.4 1.3 2.6-.8-.5-1.3zm-.6-2.1l-2.6.7.4 1.3 2.6-.8-.4-1.2zm-.6-2l-2.6.7.4 1.3 2.6-.7-.4-1.3zM5 109l-2.6.6.3 1.3 2.6-.7L5 109zm-.5-2.1l-2.6.5.3 1.3 2.6-.6-.3-1.2zm-.4-2.2l-2.7.5.2 1.4 2.6-.5-.1-1.4zm-.4-2.1L1 103l.2 1.4 2.7-.5-.2-1.3zm-.3-2.1l-2.7.3.2 1.4 2.7-.4-.2-1.3zm-.2-2.2l-2.7.3.2 1.4 2.7-.3-.2-1.4zM3 96.2l-2.7.2.1 1.4 2.7-.3-.1-1.3zM2.8 94l-2.7.1.1 1.4 2.7-.2-.1-1.3zm0-2.1L.1 92v1.4l2.7-.1v-1.4zm-.1-2.2H0v1.4l2.7-.1v-1.3z"/><path class="st2" d="M25.1 125.5l-3.5 2m0 0c-.8-1.3-1.4-2.6-2.1-3.9m0 0l-4.2 2.1m0 0c-.7-1.4-1.3-2.8-2-4.2m.1 0L9.7 123m11.3-5.9l-3.7 1.5m0 0c-.5-1.4-1.1-2.7-1.5-4.1m0 0l-4.5 1.5m0 .1c-.5-1.5-1-3-1.4-4.5m0 0l-3.8 1.1m10-14.4l-4 .5m.1 0c-.2-1.4-.3-2.9-.4-4.4m0 .1l-4.8.3m0 0c-.2-1.5-.1-3.1-.2-4.6m.1-.1h-4M18 107.9l-3.9 1m.1 0c-.3-1.4-.7-2.9-1-4.3m0 .1l-4.6.9m0 0c-.3-1.6-.6-3.1-.8-4.6m0 0l-3.9.6"/><path class="st1" d="M18.6 87.8l-2.7-.1v1.1h2.7v-1zm0-1.7L16 86v1.1l2.7.1-.1-1.1zm.2-1.8l-2.7-.2-.1 1.2 2.7.1.1-1.1zm.1-1.7l-2.7-.3-.1 1.1 2.7.2.1-1zm.2-1.8l-2.7-.3-.1 1.1 2.7.3.1-1.1zm.2-1.7l-2.7-.4-.1 1.1 2.7.3.1-1zm.3-1.8l-2.7-.5-.2 1.2 2.7.4.2-1.1zm.3-1.7l-2.6-.5-.2 1.1 2.7.5.1-1.1zm.4-1.7l-2.6-.6-.3 1.1 2.6.5.3-1zm.4-1.7l-2.6-.7-.3 1.1 2.6.6.3-1zm.4-1.7l-2.6-.7-.3 1.1 2.6.7.3-1.1zm.5-1.7L19 68l-.3 1.1 2.6.7.3-1zm.5-1.7l-2.6-.8-.4 1.1 2.6.8.4-1.1zm.6-1.7l-2.5-.9-.4 1.1 2.6.9.3-1.1zm.6-1.6l-2.5-1-.4 1.1 2.5.9.4-1zm.7-1.7l-2.5-1-.4 1.1 2.5 1 .4-1.1zm.7-1.6l-2.5-1.1-.5 1 2.5 1.1.5-1zm.7-1.6L23 57.8l-.5 1 2.5 1.1.4-1zm.8-1.6l-2.4-1.2-.5 1 2.4 1.2.5-1zm.8-1.5l-2.4-1.3-.5 1 2.4 1.2.5-.9zm.9-1.6l-2.3-1.3-.6 1 2.4 1.3.5-1zM2.7 87.5H0v1.4h2.7v-1.4zm.1-2.1l-2.7-.1v1.4l2.7.1v-1.4zm.1-2.2L.2 83l-.1 1.4 2.7.1.1-1.3zm.2-2.1l-2.7-.3-.1 1.4 2.7.2.1-1.3zm.2-2.2l-2.7-.3L.5 80l2.7.3.1-1.4zm.3-2.1l-2.7-.4-.2 1.4 2.7.3.2-1.3zm.3-2.1l-2.7-.5-.2 1.4 2.7.4.2-1.3zm.4-2.2L1.7 72l-.2 1.4 2.7.5.1-1.4zm.5-2.1l-2.6-.6-.3 1.3 2.6.5.3-1.2zm.5-2.1l-2.6-.7-.4 1.4 2.7.6.3-1.3zm.5-2.1l-2.6-.7-.4 1.3 2.6.7.4-1.3zm.6-2l-2.6-.8-.4 1.3 2.6.7.4-1.2zm.7-2.1l-2.6-.8-.4 1.3 2.6.8.4-1.3zm.7-2l-2.5-.9-.4 1.3 2.6.9.3-1.3zm.7-2.1L6 57l-.5 1.3 2.5 1 .5-1.3zm.8-2l-2.5-1-.5 1.3 2.5 1 .5-1.3zm.9-1.9L7.7 53l-.6 1.3 2.5 1.1.6-1.3zm.9-2l-2.4-1.2-.6 1.3 2.5 1.1.5-1.2zm.9-1.9L9.6 49 9 50.2l2.4 1.2.6-1.2zm1-2L10.7 47l-.7 1.2 2.4 1.2.6-1.2zm1.1-1.8L11.8 45l-.7 1.2 2.4 1.3.6-1.1z"/><path class="st2" d="M15.6 88.6h-4m0-.1c.1-1.5 0-2.9.2-4.4m-.1.1L7 83.8m0 0c.1-1.6.2-3.1.4-4.6m.1 0l-3.9-.5m12.7.6l-4-.5m0-.1c.1-1.5.5-2.9.7-4.3m0 0l-4.6-.9m0 0c.3-1.5.7-3 1-4.6m0 0l-3.8-1m15.8-7.4L17.7 59m0 0c.6-1.3 1.2-2.7 1.8-4m0 0l-4.2-2.1m0 0c.7-1.4 1.4-2.8 2.2-4.1m0 0l-3.5-2m4.3 23l-3.8-1.1m-.1 0c.4-1.4.8-2.8 1.3-4.2m0 0L11.2 63m0 0c.5-1.5 1-2.9 1.6-4.4m.1 0l-3.7-1.5"/><path class="st1" d="M28.8 52.7l-2.3-1.4-.6 1 2.3 1.4.6-1zm.9-1.5l-2.3-1.5-.6 1 2.3 1.4.6-.9zm1-1.5l-2.2-1.5-.6 1 2.3 1.5.5-1zm1-1.4l-2.2-1.6-.7.9 2.2 1.5.7-.8zm1-1.4l-2.2-1.6-.7.9 2.2 1.6.7-.9zm1.1-1.4l-2.1-1.7-.7.9 2.1 1.6.7-.8zm1.1-1.4l-2.1-1.7m0 0c-.3.3-.5.6-.7.9m0-.1l2.1 1.7m0 0c.2-.3.4-.6.7-.9m1.2-1.2L34 41l-.7.9 2.1 1.7.7-.8zm1.1-1.4l-2-1.8m0 0c-.3.3-.5.6-.8.8m.1.1l2 1.8m0-.1c.2-.3.5-.6.7-.8m1.3-1.2l-1.9-1.9-.8.8 2 1.8.7-.7zm1.2-1.3L37.8 37l-.8.8 1.9 1.9.8-.8zm1.3-1.2l-1.8-2-.8.8 1.9 1.9.7-.7zm1.3-1.2l-1.8-2m0 0c-.3.2-.6.5-.8.8m-.1-.1l1.8 2m0 0c.3-.3.5-.5.8-.7m1.4-1.2l-1.7-2.1-.9.8 1.8 2 .8-.7zm1.4-1.1l-1.7-2.1m0 0c-.3.2-.6.5-.9.7m0 0l1.7 2.1m0 0c.3-.2.6-.5.9-.7m1.3-1.1L44.7 31l-.9.7 1.7 2.1.8-.7zm1.5-1l-1.6-2.2-.9.7 1.6 2.2.9-.7zm1.4-1.1l-1.5-2.2-.9.7 1.6 2.2.8-.7zm1.5-.9l-1.5-2.3-1 .6 1.5 2.2 1-.5zm1.4-1l-1.4-2.3-1 .6 1.5 2.3.9-.6zm1.5-.9l-1.4-2.3-1 .6 1.4 2.3 1-.6zM15.2 44.5l-2.3-1.4-.7 1.2 2.3 1.4.7-1.2zm1.1-1.9L14 41.1l-.7 1.2 2.3 1.4.7-1.1zm1.2-1.8l-2.2-1.5-.7 1.2 2.3 1.5.6-1.2zm1.3-1.7l-2.2-1.6-.8 1.1 2.2 1.5.8-1zm1.2-1.8l-2.2-1.6-.8 1.1 2.2 1.6.8-1.1zm1.4-1.7l-2.1-1.7-.9 1.1 2.1 1.6.9-1zm1.3-1.7l-2.1-1.7m0 0c-.3.3-.6.7-.9 1.1m.1 0l2.1 1.7m0 0c.3-.3.5-.7.8-1m1.4-1.7l-2-1.8-.9 1 2.1 1.7.8-.9zm1.4-1.6l-2-1.8m.1 0c-.3.3-.6.7-.9 1m-.1 0l2 1.8m.1 0c.3-.3.6-.7.9-1m1.4-1.6l-1.9-1.9-1 1 2 1.8.9-.9zm1.5-1.5l-1.9-1.9-1 1 1.9 1.9 1-1zm1.6-1.5l-1.8-2-1 1 1.9 1.9.9-.9zm1.6-1.5l-1.8-2m0 0c-.3.3-.7.6-1 .9m0 0l1.8 2m0 0c.3-.3.7-.6 1-.9m1.6-1.4l-1.7-2.1-1 .9 1.8 2 .9-.8zm1.7-1.3l-1.7-2.1m0 0c-.4.3-.7.6-1.1.9m0-.1l1.7 2.1m0 0c.3-.3.7-.6 1-.8m1.8-1.4L35 18.4l-1 .8 1.7 2.1 1-.8zm1.7-1.3L36.8 17l-1.1.8 1.6 2.2 1.1-.8zm1.8-1.2l-1.5-2.2-1.1.8 1.6 2.2 1-.8zm1.8-1.2l-1.5-2.3-1.2.7 1.5 2.2 1.2-.6zm1.8-1.2l-1.4-2.3-1.2.7 1.5 2.3 1.1-.7zm1.8-1.1l-1.4-2.3-1.2.7 1.4 2.3 1.2-.7z"/><path class="st2" d="M25.8 51.8l-3.4-2m0 0c.7-1.3 1.6-2.5 2.3-3.7m0 0l-3.9-2.6m0-.1c.9-1.3 1.8-2.6 2.7-3.8m0 0l-3.2-2.4m10.8 6.9l-3.2-2.4m0-.1c.9-1.2 1.8-2.3 2.8-3.4m0 0l-3.6-3.1m0 0c1-1.2 2.1-2.3 3.2-3.4m0 0l-2.8-2.8m17.4 1.5l-2.4-3.2m0 0c1.2-.9 2.4-1.7 3.6-2.5m0 0l-2.6-3.9m-.1 0c1.3-.8 2.6-1.7 3.9-2.5m.1 0l-2-3.4m-7.8 22l-2.8-2.8m-.1 0c1.1-1 2.1-2.1 3.2-3m.1 0l-3.1-3.5m-.1-.1c1.2-1 2.3-2 3.6-3m0 0L36 21.4"/><path class="st1" d="M55.2 27.3L53.9 25l-1 .6 1.3 2.3 1-.6zm1.6-.8l-1.2-2.4-1 .5 1.3 2.4.9-.5zm1.5-.8l-1.2-2.4-1 .5 1.2 2.4 1-.5zm1.6-.7l-1.1-2.5-1 .5 1.2 2.4.9-.4zm1.6-.8l-1.1-2.5-1 .5 1.1 2.5 1-.5zm1.7-.6l-1-2.5-1.1.4 1 2.5 1.1-.4zm1.6-.7l-.9-2.5-1.1.4 1 2.5 1-.4zm1.7-.5l-.9-2.6-1.1.4.9 2.5 1.1-.3zm1.6-.6l-.8-2.6-1.1.4.8 2.6 1.1-.4zm1.7-.5l-.7-2.6-1.1.3.8 2.6 1-.3zm1.7-.5l-.7-2.6-1.1.3.7 2.6 1.1-.3zm1.7-.4l-.6-2.6-1.1.2.7 2.6 1-.2zM75 20l-.5-2.6-1.1.3.6 2.6 1-.3zm1.7-.3l-.5-2.7-1.1.2.5 2.6 1.1-.1zm1.7-.3l-.4-2.7-1.1.2.5 2.7 1-.2zm1.8-.2l-.3-2.7-1.1.1.4 2.7 1-.1zm1.7-.2l-.3-2.7-1.1.1.3 2.7 1.1-.1zm1.8-.2l-.2-2.7-1.1.1.3 2.7 1-.1zm1.7-.1l-.1-2.7-1.1.1.2 2.7 1-.1zm1.8-.1l-.1-2.7-1.1.1.1 2.7 1.1-.1zm1.8 0v-2.7h-1.1l.1 2.7h1zm-41.5-5.2L46.2 11l-1.2.7 1.3 2.3 1.2-.6zm1.9-1L48.2 10l-1.2.6 1.3 2.4 1.1-.6zm2-1L50.2 9l-1.2.6 1.2 2.4 1.2-.6zm1.9-.9L52.2 8l-1.3.6 1.2 2.4 1.2-.5zm2-.9l-1.1-2.5-1.2.6 1.1 2.5 1.2-.6zm2-.8l-1-2.5-1.3.5 1 2.5 1.3-.5zm2-.8l-.9-2.5-1.3.5 1 2.5 1.2-.5zm2-.7l-.9-2.6-1.3.4.9 2.5 1.3-.3zm2.1-.7L62.6 4l-1.3.4.8 2.6 1.3-.4zm2.1-.6l-.7-2.6-1.3.4.8 2.6 1.2-.4zm2-.6l-.7-2.6-1.3.4.7 2.6 1.3-.4zm2.1-.4L69 2.3l-1.3.3.7 2.6 1.2-.2zm2.1-.5l-.5-2.6-1.3.3.6 2.6 1.2-.3zm2.2-.4l-.5-2.7-1.4.3.5 2.6 1.4-.2zm2.1-.4L75.6 1l-1.4.2.5 2.7 1.3-.2zm2.1-.3L77.8.7l-1.4.2.4 2.7 1.3-.2zm2.2-.2L80 .5l-1.4.2.3 2.7 1.4-.2zm2.1-.2L82.2.3l-1.4.1.3 2.7 1.3-.1zm2.2-.2L84.5.1l-1.4.1.2 2.7 1.3-.1zm2.1 0L86.6.1h-1.4l.1 2.7h1.4zm2.2-.1V0h-1.4l.1 2.7h1.3z"/><path class="st2" d="M53.1 25.1l-2-3.5m0 0c1.3-.8 2.6-1.4 3.9-2.1m0 0l-2.1-4.2m0 0c1.4-.7 2.8-1.3 4.2-2m0 .1l-1.5-3.6M61.5 21L60 17.3m0 0c1.4-.5 2.7-1.1 4.1-1.5m0 0l-1.5-4.5m0 0c1.5-.5 3-1 4.5-1.4m-.1 0l-1-3.8m14.3 10l-.5-4m0 .1c1.4-.2 2.9-.3 4.4-.4m-.1 0L83.8 7m0 0c1.5-.2 3.1-.1 4.6-.2m.1.1v-4M70.7 18l-1-3.9m0 .1c1.4-.3 2.9-.7 4.3-1m0 0l-1-4.6m0 0c1.5-.3 3.1-.6 4.6-.8m0 0L77 3.9"/><path class="st1" d="M90.8 18.6l.1-2.7h-1.1v2.7h1zm1.7 0l.1-2.7h-1.1l-.1 2.7h1.1zm1.8.2l.2-2.7-1.2-.1-.1 2.7 1.1.1zm1.7.1l.3-2.7-1.1-.1-.2 2.7 1 .1zm1.8.2l.3-2.7-1.1-.1-.3 2.7 1.1.1zm1.7.2l.4-2.7-1.1-.1-.3 2.7 1 .1zm1.8.3l.5-2.7-1.1-.2-.4 2.7 1 .2zm1.7.3l.5-2.6-1.1-.2-.5 2.7 1.1.1zm1.7.4l.6-2.6-1.1-.3-.5 2.6 1 .3zm1.7.4l.7-2.6-1.1-.3-.6 2.6 1 .3zm1.8.4l.7-2.6-1.1-.3-.7 2.6 1.1.3zm1.6.5l.8-2.6-1.1-.3-.7 2.6 1 .3zm1.7.5l.8-2.6-1.1-.4-.8 2.6 1.1.4zm1.7.6l.9-2.5-1.1-.4-.9 2.6 1.1.3zm1.6.6l1-2.5-1.1-.4-.9 2.5 1 .4zm1.7.7l1-2.5-1.1-.4-1 2.5 1.1.4zm1.6.7l1.1-2.5-1-.5-1.1 2.5 1 .5zm1.6.7l1.2-2.4-1-.5-1.1 2.5.9.4zm1.6.8l1.2-2.4-1-.5-1.2 2.4 1 .5zm1.5.8l1.3-2.4-1-.5-1.2 2.4.9.5zm1.6.9l1.3-2.3-1-.6-1.3 2.4 1 .5zM91.1 2.7V0h-1.4v2.7h1.4zm2.1.1l.1-2.7h-1.4l-.1 2.7h1.4zm2.2.1l.2-2.7-1.4-.1-.2 2.7 1.4.1zm2.1.2l.3-2.7-1.4-.1-.2 2.7 1.3.1zm2.2.2l.3-2.7-1.4-.2-.3 2.7 1.4.2zm2.1.3l.4-2.7-1.4-.2-.3 2.7 1.3.2zm2.1.3l.5-2.7L103 1l-.4 2.7 1.3.2zm2.2.4l.5-2.6-1.4-.2-.5 2.7 1.4.1zm2.1.5l.6-2.6-1.3-.3-.5 2.6 1.2.3zm2.1.5l.7-2.6-1.3-.3L109 5l1.3.3zm2.1.5l.7-2.6-1.3-.4-.7 2.6 1.3.4zm2 .6l.8-2.6-1.3-.4-.7 2.6 1.2.4zm2.1.7l.8-2.6-1.3-.4-.8 2.6 1.3.4zm2 .7l.9-2.5-1.3-.4-.9 2.6 1.3.3zm2.1.7l1-2.5-1.3-.5-1 2.5 1.3.5zm2 .8l1-2.5-1.3-.5-1 2.5 1.3.5zm2 .9l1.1-2.5-1.3-.6-1.1 2.5 1.3.6zm1.9.9l1.2-2.4-1.3-.6-1.1 2.5 1.2.5zm1.9.9l1.2-2.4-1.2-.6-1.2 2.4 1.2.6zm2 1l1.3-2.4-1.2-.6-1.2 2.4 1.1.6zm1.8 1.1l1.3-2.3-1.2-.7-1.3 2.4 1.2.6z"/><path class="st2" d="M90 15.6v-4m.1 0c1.5.1 2.9 0 4.4.2m0-.1l.3-4.7m0 0c1.6.1 3.1.2 4.6.4m0 .1l.5-3.9m-.6 12.7l.5-4m.1 0c1.5.1 2.9.5 4.4.7m-.1 0l.9-4.6m0 0c1.5.3 3 .7 4.6 1m0 0l1-3.8m7.4 15.8l1.6-3.7m-.1 0c1.3.6 2.7 1.2 4 1.8m0 0l2.1-4.2m0 0c1.4.7 2.8 1.4 4.1 2.2m0 0l1.9-3.4m-22.9 4.2l1.1-3.8m0-.1c1.4.4 2.8.8 4.2 1.3m0 0l1.5-4.5m0 0c1.5.5 2.9 1 4.4 1.6m0 .1l1.5-3.7"/><path class="st1" d="M125.9 28.8l1.4-2.3-1-.6-1.4 2.3 1 .6zm1.5.9l1.5-2.3-1-.6-1.4 2.3.9.6zm1.5 1l1.5-2.2-1-.6-1.5 2.3 1 .5zm1.4 1l1.6-2.2-.9-.7-1.5 2.2.8.7zm1.5 1l1.6-2.2-.9-.7-1.6 2.2.9.7zm1.3 1.1l1.7-2.1-.9-.7-1.6 2.1.8.7zm1.4 1.1l1.7-2.1m0 0c-.3-.3-.6-.5-.9-.7m.1 0l-1.7 2.1m0 0c.3.2.6.4.9.7m1.2 1.2l1.8-2-.9-.7-1.7 2.1.8.6zm1.4 1.1l1.8-2m0 0c-.3-.3-.6-.5-.8-.8m0 .1l-1.8 2m0 0c.3.2.6.5.8.7m1.2 1.3l1.9-1.9-.8-.8-1.8 2 .7.7zm1.3 1.2l1.9-1.9-.8-.8-1.9 1.9.8.8zm1.2 1.3l2-1.8-.8-.8-1.9 1.9.7.7zm1.2 1.3l2-1.8m0 0c-.2-.3-.5-.6-.8-.8m.1-.1l-2 1.8m0 0c.3.3.5.5.7.8m1.2 1.4l2.1-1.7-.7-.9-2 1.8.6.8zm1.1 1.4l2.1-1.7m0 0c-.2-.3-.5-.6-.7-.9m0 0l-2.1 1.7m0 0c.2.3.5.6.7.9m1.1 1.3l2.1-1.6-.7-.9-2.1 1.7.7.8zm1 1.5l2.2-1.6-.7-.9-2.2 1.6.7.9zm1.1 1.4l2.2-1.5-.7-.9-2.2 1.6.7.8zm.9 1.5l2.3-1.5-.6-1-2.2 1.5.5 1zm1 1.4l2.3-1.4-.6-1-2.3 1.5.6.9zm.9 1.5l2.3-1.4-.6-1-2.3 1.4.6 1zm-16.3-38.4l1.4-2.3-1.2-.7-1.4 2.3 1.2.7zm1.9 1.1l1.5-2.3-1.2-.7-1.4 2.3 1.1.7zm1.8 1.2l1.5-2.2-1.2-.7-1.5 2.3 1.2.6zm1.7 1.3l1.6-2.2-1.1-.8-1.5 2.2 1 .8zm1.8 1.2l1.6-2.2-1.1-.8-1.6 2.2 1.1.8zm1.7 1.4l1.7-2.1-1.1-.9-1.6 2.1 1 .9zm1.7 1.3l1.7-2.1m0 0c-.3-.3-.7-.6-1.1-.9m0 .1l-1.7 2.1m0 0c.3.3.7.5 1 .8m1.7 1.4l1.8-2-1-.9-1.7 2.1.9.8zm1.6 1.4l1.8-2m0 .1c-.3-.3-.7-.6-1-.9m0-.1l-1.8 2m0 .1c.3.3.7.6 1 .9m1.6 1.4l1.9-1.9-1-1-1.8 2 .9.9zm1.5 1.5l1.9-1.9-1-1-1.9 1.9 1 1zm1.5 1.6l2-1.8-1-1-1.9 1.9.9.9zm1.5 1.6l2-1.8m0 0c-.3-.3-.6-.7-.9-1m0 0l-2 1.8m0 0c.3.3.6.7.9 1m1.4 1.6l2.1-1.7-.9-1-2 1.8.8.9zm1.4 1.7l2.1-1.7m0 0c-.3-.4-.6-.7-.9-1.1m0 0l-2.1 1.7m0 0c.3.3.6.7.8 1m1.4 1.8l2.1-1.6-.9-1.1-2.1 1.7.9 1zm1.3 1.7l2.2-1.6-.8-1.1-2.2 1.6.8 1.1zm1.2 1.8l2.2-1.5-.8-1.1-2.2 1.6.8 1zm1.2 1.8l2.3-1.5-.7-1.2-2.2 1.5.6 1.2zm1.2 1.8l2.3-1.4-.7-1.2-2.3 1.5.7 1.1zm1.1 1.8l2.3-1.4-.7-1.2-2.3 1.4.7 1.2z"/><path class="st2" d="M126.8 25.8l2-3.4m0 0c1.3.7 2.5 1.6 3.7 2.3m0 0l2.6-3.9m.1 0c1.3.9 2.6 1.8 3.8 2.7m0 0l2.4-3.2m-6.9 10.8l2.4-3.2m.1 0c1.2.9 2.3 1.8 3.4 2.8m0 0l3.1-3.6m0 0c1.2 1 2.3 2.1 3.4 3.2m0 0l2.8-2.8m-1.5 17.4l3.2-2.4m0 0c.9 1.2 1.7 2.4 2.5 3.6m0 0l3.9-2.6m0-.1c.8 1.3 1.7 2.6 2.5 3.9m0 .1l3.4-2m-22-7.8l2.8-2.8m0-.1c1 1.1 2.1 2.1 3 3.2m0 .1l3.5-3.1m.1 0c1 1.2 2 2.3 3 3.6m0-.1l3.1-2.4"/><path class="st1" d="M151.3 55.2l2.4-1.3-.6-1-2.3 1.3.5 1zm.8 1.6l2.4-1.2-.5-1-2.4 1.3.5.9zm.8 1.5l2.4-1.2-.5-1-2.4 1.2.5 1zm.7 1.6l2.5-1.1-.5-1-2.4 1.2.4.9zm.8 1.6l2.5-1.1-.5-1-2.5 1.1.5 1zm.6 1.7l2.5-1-.4-1.1-2.5 1 .4 1.1zm.7 1.6l2.5-.9-.4-1.1-2.5 1 .4 1zm.5 1.7l2.6-.9-.4-1.1-2.5.9.3 1.1zm.6 1.6l2.6-.8-.4-1.1-2.6.8.4 1.1zm.5 1.7l2.6-.7-.3-1.1-2.6.8.3 1zm.5 1.7l2.6-.7-.3-1.1-2.6.7.3 1.1zm.4 1.7l2.6-.6-.3-1.1-2.6.7.3 1zm.4 1.8l2.6-.5-.3-1.1-2.6.6.3 1zm.3 1.7l2.7-.5-.2-1.1-2.6.5.1 1.1zm.3 1.7l2.7-.4-.2-1.1-2.7.5.2 1zm.2 1.8l2.7-.3-.1-1.1-2.7.4.1 1zm.3 1.7l2.7-.3-.1-1.1-2.7.3.1 1.1zm.1 1.8l2.7-.2-.1-1.1-2.7.3.1 1zm.1 1.7l2.7-.1-.1-1.1-2.7.2.1 1zm.1 1.8l2.7-.1V86l-2.7.1v1.1zm0 1.8h2.7v-1.1l-2.7.1v1zm5.2-41.5l2.4-1.3-.7-1.2-2.3 1.3.6 1.2zm1 1.9l2.4-1.2-.6-1.2-2.4 1.3.6 1.1zm1 2l2.4-1.2-.6-1.2-2.4 1.2.6 1.2zm.9 1.9l2.5-1.1-.6-1.3-2.4 1.2.5 1.2zm.9 2l2.5-1.1-.6-1.3-2.5 1.1.6 1.3zm.8 2l2.5-1-.5-1.3-2.5 1 .5 1.3zm.8 2l2.5-.9-.5-1.3-2.5 1 .5 1.2zm.7 2l2.6-.9-.4-1.3-2.5.9.3 1.3zm.7 2.1l2.6-.8-.4-1.3-2.6.8.4 1.3zm.6 2.1l2.6-.7-.4-1.3-2.6.8.4 1.2zm.6 2l2.6-.7-.4-1.3-2.6.7.4 1.3zm.4 2.1l2.6-.6-.3-1.3-2.6.7.3 1.2zm.5 2.1l2.6-.5-.3-1.3-2.6.6.3 1.2zm.4 2.2l2.7-.5-.2-1.4-2.6.5.1 1.4zm.4 2.1l2.7-.4-.2-1.4-2.7.5.2 1.3zm.3 2.1l2.7-.3-.2-1.4-2.7.4.2 1.3zm.2 2.2l2.7-.3-.2-1.4-2.7.3.2 1.4zm.2 2.1l2.7-.2-.1-1.4-2.7.3.1 1.3zm.2 2.2l2.7-.1-.1-1.4-2.7.2.1 1.3zm.1 2.1l2.7-.1v-1.4l-2.7.1v1.4zm0 2.2h2.7v-1.4l-2.7.1v1.3z"/><path class="st2" d="M153.5 53.1l3.5-2m0 0c.8 1.3 1.4 2.6 2.1 3.9m0 0l4.2-2.1m0 0c.7 1.4 1.3 2.8 2 4.2m0 0l3.6-1.5m-11.3 5.9l3.7-1.5m0 0c.5 1.4 1.1 2.7 1.5 4.1m0 0l4.5-1.5m0 0c.5 1.5 1 3 1.4 4.5m0-.1l3.8-1.1m-10 14.4l4-.5m-.1 0c.2 1.4.3 2.9.4 4.4m.1-.1l4.7-.3m0 0c.2 1.5.1 3.1.2 4.6m-.1.1h4m-15.1-17.8l3.9-1m-.1 0c.3 1.4.7 2.9 1 4.3m0 0l4.6-1m0 0c.3 1.5.6 3.1.8 4.6m0 0l3.9-.6"/><path class="st3" d="M89.3 146.6c-15.6 0-28.3 6.8-28.3 15.1 0 8.4 12.7 15.1 28.3 15.1 15.6 0 28.3-6.8 28.3-15.1.1-8.3-12.6-15.1-28.3-15.1zm0 28.5c-13.8 0-25-6-25-13.4s11.2-13.4 25-13.4 25 6 25 13.4c0 7.5-11.1 13.4-25 13.4zm.4 0c-13.8 0-25-6-25-13.4s11.2-13.4 25-13.4 25 6 25 13.4c0 7.5-11.2 13.4-25 13.4z"/><path class="st3" d="M82.3 176.2c0-1.4-7.2-.5-2.9-2.4 3.7-1.6 4.5.6 9.4.7 5.2.1 10.4-3.1 7.3.2-1.8 1.9 0 1.1-.1 2.6-.1 1.4 4.6 2.5 1.6 2.2-1.4-.2 1.4.1-2 0-2.2-.1-1.8.3-6.7.3-5.4 0-6.2-.7-8.1-.3-2.8.5-.2-.3-1.7-.2-5.7.5 3.2-1.6 3.2-3.1zm-1.2-31.3c0-1.4-10.1-1.1-5.8-3 3.7-1.6 9.4 1.7 14.3 1.8 5.2.1 10.7-3.8 7.5-.6-1.8 1.9-2.3 1.6-1.1 3.1.9 1 5.4 2.8 2.3 2.5-1.4-.2 2.6 1.7-.8 1.6-2.2-.1-3.1-1.2-7.9-1.2-5.4 0-7.3.9-9.1 1.2-2.8.5-1.7-1.8-.7-2.8 1.8-1.8 1.3-1.1 1.3-2.6z"/><path class="st3" d="M95.4 149.2c-.4-.3-1.1-1.8-.9-3.3.3-1.5 1-3 2.3-3.6 1.3-.6 2.5-.9 6.1-.6 3.5.3 4.3 2 6.1 3.2 2.8 2 4.4 4.9 5.9 6.1 1.5 1.2 3.3 2.2 5.5 2.8s3.2-.1 3.8-.6c.5-.5.4-1.2.4-1.2.2-.7 0-.9-.7-.9s.7 2-.9 2.1c-1.6.2-2-1.3-1.7-2.9.2-.9 2.3-1.7 3.5-1 1.2.7 1.5 2.2 1.3 3.1-.2.9-1.5 2.1-2.5 2.6-1.1.5-2.9.2-4.5-.2-1.6-.3-4.5-2.6-5-3.2-.5-.7-2.1.5-2.3-.5-.2-1-2.3-3.7-2.8-4.4-.5-.7-.4 1.4-.6 1.7-.2.3-1.2.9-1.1.3.2-.7-3.2-5.4-4-5.6-.9-.2.2 1.5.9 2.2.7.7-1.1.3-1.1.3s.8 1.5.1 1.7c-.7.2-.9-1.5-1.6-1.7-.8-.2-2.5-1.3-3.5-1.3-1.1 0-2.3 1.4-2.3 2.9s2.7 1.8 2.2 1.5c-.5-.3-1.3-2.3.6-2.5.9-.1 2 1.3 1.5 2.1-.5.9-1.1 2.2-3.4 1.6l-1.3-.7zm0 24.9c-.3.2-.7 1.4-.4 2.5.2 1.1.8 2.2 1.9 2.6 1.1.4 2.1.7 5.1.4 2.9-.2 3.6-1.4 5.2-2.4 2.4-1.4 3.7-3.5 4.9-4.4 1.3-.9 2.8-1.6 4.6-2 1.8-.4 2.7.1 3.2.4.4.4.4.9.4.9.1.5 0 .7-.6.7s.6-1.4-.7-1.5c-1.3-.1-1.7.9-1.4 2.1.2.7 1.9 1.2 2.9.7s1.3-1.6 1.1-2.2c-.1-.6-1.3-1.5-2.1-1.9-.9-.4-2.4-.1-3.8.1-1.3.2-3.8 1.9-4.2 2.3-.4.5-1.8-.4-1.9.4-.1.7-1.9 2.7-2.4 3.2-.4.5-.4-1-.5-1.2-.1-.2-1-.7-.9-.2.1.5-2.6 3.9-3.4 4-.7.1.1-1.1.7-1.6s-1-.2-1-.2.7-1.1.1-1.2c-.6-.1-.7 1.1-1.3 1.2-.6.1-2.1.9-2.9.9-.9 0-1.9-1-1.9-2.1s2.3-1.3 1.8-1.1c-.4.2-1.1 1.7.5 1.8.7.1 1.7-.9 1.3-1.5-.4-.6-1.6-1.7-3.1-1.2l-1.2.5z"/><path class="st3" d="M109.3 148.8s-.4 1.3.1 1.7c.4.4 1.1.3 1-.1-.1-.4-.1-1-.4-1.2-.3-.1-.7-.4-.7-.4zm-4.4-1.8s0 .8.7 1.4c.7.6.6-.5.6-.5l-1.3-.9zm8.7 5.8c.3.1 4.6 3.1 4.6 7.6 1.8-.3 1.3-.9 1.2-1.3-.1-.4-.9-.8-.9-.8s.7-1.4 1.9-1.2c1.2.2 2.4.8 4.1.7 1.8-.1 4.5-.1 4.6-1.1.1-.9 2.8-3.1-1.1-3.8-2.2-.3-1.6 1.7-4.1 2.6-2.6 1-4.8.3-6.1-.5-1.2-.7-4.2-2.2-4.2-2.2zm-31.4-3.2c.3-.3.8-1.9.5-3.4-.3-1.5-1-3-2.2-3.6-1.3-.6-2.5-.9-6-.6-3.5.3-4.2 2-6 3.2-2.8 2-4.3 4.9-5.8 6.1-1.5 1.2-3.3 2.2-5.4 2.8-2.2.6-3.2-.1-3.7-.6s-.4-1.2-.4-1.2c-.2-.7 0-.9.7-.9s-.7 2 .9 2.1c1.6.2 2-1.3 1.6-2.9-.2-.9-2.2-1.7-3.5-1-1.2.7-1.5 2.2-1.3 3.1.2.9 1.5 2.1 2.5 2.6s2.9.2 4.4-.2c1.6-.3 4.4-2.6 4.9-3.2.5-.7 2.1.5 2.2-.5.2-1 2.2-3.7 2.8-4.4.5-.7.4 1.4.6 1.7.2.3 1.2.9 1 .3-.2-.7 3.1-5.4 4-5.6.9-.2-.2 1.5-.9 2.2-.7.7 1.1.3 1.1.3s-.8 1.5-.1 1.7c.7.2.9-1.5 1.6-1.7.8-.2 2.4-1.3 3.5-1.3 1 0 2.2 1.4 2.2 2.9s-2.7 1.8-2.2 1.5c.5-.3 1.3-2.3-.6-2.5-.9-.1-1.6 1.1-1.5 2.1.1.8 1 1.9 3.4 1.6l1.7-.6zm-.4 24.8c.3.2.7 1.4.4 2.5-.2 1.1-.8 2.2-1.9 2.6-1.1.4-2.1.7-5 .4-2.9-.2-3.6-1.4-5.1-2.4-2.3-1.4-3.6-3.5-4.9-4.4-1.2-.9-2.8-1.6-4.6-2-1.8-.4-2.7.1-3.1.4-.4.4-.4.9-.4.9-.1.5 0 .7.6.7s-.6-1.4.7-1.5c1.3-.1 1.7.9 1.4 2.1-.2.7-1.9 1.2-2.9.7s-1.2-1.6-1.1-2.2c.1-.6 1.2-1.5 2.1-1.9.9-.4 2.4-.1 3.7.1 1.3.2 3.7 1.9 4.1 2.3.4.5 1.7-.4 1.9.4.1.7 1.9 2.7 2.3 3.2.4.5.4-1 .5-1.2.1-.2 1-.7.9-.2-.1.5 2.6 3.9 3.3 4 .7.1-.1-1.1-.7-1.6s.9-.2.9-.2-.7-1.1-.1-1.2c.6-.1.7 1.1 1.3 1.2.6.1 2 .9 2.9.9.9 0 1.9-1 1.9-2.1s-2.2-1.3-1.8-1.1c.4.2 1.1 1.7-.5 1.8-.7.1-1.7-.9-1.2-1.5.4-.6 1.6-1.7 3-1.2l1.4.5z"/><path class="st3" d="M65 152.7c-.3.1-4.5 3.7-4.6 8.2-1.8-.3-2.4-.9-2.3-1.4.1-.4.9-.8.9-.8s-.7-1.4-1.9-1.2c-1.2.2-2.3.8-4.1.7-1.7-.1-4.4-.1-4.5-1.1-.1-.9-2.7-3.1 1.1-3.8 2.2-.3 1.6 1.7 4.1 2.6 2.6 1 4.8.3 6-.5 1.2-.8 5.3-2.7 5.3-2.7zm53.8 8.6c-.5.9-.4 3.7 2.7 4.4 3.2.7 4.5-1.6 5.1-2.4.6-.8.2-3.3-1.4-3.9-1.6-.6-2.6-.2-2.6-.2s1.1 1.5 1.8 1.5c.7.1 1.4.3 1.1 1.2-.4.9-.4 1.7-1.8 2.2-1.4.5-2.7.4-3.6-.4-.9-.9-1.3-2.4-1.3-2.4z"/><path class="st3" d="M120.8 160.9s-1.5.3-.9 1.2c.6.9 1.6.2 1.5-.2 0-.3-.6-1-.6-1z"/><path class="st3" d="M121.6 159.3s-.3 1.5.4 1.7c.6.3.5.6.3 1.1-.3.5-1.5.9-.9 1.2.6.3 1.3.3 2 .1.7-.3 1.4-1.5 1.1-1.8-.3-.3-1.8-1.2-2-1.6-.3-.5-.9-.7-.9-.7zm-5.2 8c-.6.8 1.5-2.5 1.5-3s2.1 2.3 2.6 2.5c.5.2-.4.6-1.2.8-.7.1-2.9-.3-2.9-.3zm-56.9-6c.5.9.4 3.7-2.7 4.4-3.2.7-4.5-1.6-5.1-2.4-.6-.8-.2-3.3 1.4-3.9 1.6-.6 2.6-.2 2.6-.2s-1.1 1.5-1.9 1.5c-.7.1-1.4.3-1.1 1.2.4.9.4 1.7 1.8 2.2 1.4.5 2.7.4 3.6-.4 1.1-.9 1.4-2.4 1.4-2.4z"/><path class="st3" d="M57.5 160.9s1.5.3.9 1.2c-.6.9-1.6.2-1.5-.2.1-.3.6-1 .6-1z"/><path class="st3" d="M56.7 159.3s.3 1.5-.4 1.7c-.6.3-.5.6-.3 1.1.3.5 1.5.9.9 1.2-.6.3-1.3.3-2 .1-.7-.3-1.4-1.5-1.1-1.8.3-.3 1.8-1.2 2-1.6.3-.5.9-.7.9-.7zm5.2 8c.6.8-1.5-2.5-1.5-3s-2.1 2.3-2.6 2.5c-.5.2.4.6 1.2.8.8.1 2.9-.3 2.9-.3z"/><path class="st0" d="M74.8 162.7c-.2 1-.6 1.8-1.3 2.3-.6.5-1.3.8-2.1.8-.9 0-1.7-.4-2.4-1.1-.7-.7-1-1.7-1-2.9s.4-2.2 1.1-2.9c.8-.7 1.7-1.1 2.7-1.1.8 0 1.4.2 1.9.6.5.4.8.8.8 1.2 0 .2-.1.4-.2.5-.1.1-.3.2-.6.2s-.6-.1-.8-.3c-.1-.1-.2-.3-.2-.7 0-.3-.2-.6-.4-.7-.2-.2-.5-.2-.9-.2-.6 0-1.1.2-1.4.6-.5.5-.7 1.3-.7 2.2 0 .9.2 1.7.7 2.4.5.7 1.1 1 1.9 1 .6 0 1.1-.2 1.5-.6.3-.3.6-.7.9-1.4l.5.1zm5.7 1.8c-.8.6-1.3 1-1.6 1-.3.1-.7.2-1 .2-.6 0-1-.2-1.4-.5-.4-.4-.5-.8-.5-1.4 0-.4.1-.7.3-1 .2-.4.7-.7 1.3-1.1.6-.3 1.6-.7 3-1.2v-.3c0-.8-.1-1.3-.4-1.6-.3-.3-.6-.4-1.1-.4-.4 0-.7.1-.9.3-.2.2-.3.4-.3.6v.5c0 .3-.1.5-.2.6-.1.1-.3.2-.5.2s-.4-.1-.5-.2c-.1-.1-.2-.3-.2-.6 0-.5.3-.9.8-1.3s1.2-.6 2.2-.6c.7 0 1.3.1 1.8.3.3.2.6.4.8.8.1.2.2.7.2 1.5v3.9c0 .2.1.3.1.3.1.1.1.1.2.1s.2 0 .2-.1c.1-.1.4-.3.7-.6v.5c-.7.8-1.3 1.2-1.9 1.2-.3 0-.5-.1-.7-.3-.3 0-.4-.3-.4-.8zm0-.5v-2.9c-.9.3-1.5.6-1.7.7-.5.2-.8.5-1 .8-.2.3-.3.6-.3.9 0 .4.1.7.4 1 .3.3.5.4.9.4.4-.1 1-.4 1.7-.9zm3-6h3.8v.3H87c-.2 0-.4.1-.5.2-.1.1-.2.2-.2.4s.1.4.2.7l1.9 4.2 1.9-4.4c.1-.3.2-.5.2-.7 0-.1 0-.1-.1-.2l-.2-.2h-.6v-.3h2.6v.3c-.3 0-.5.1-.6.2-.2.2-.4.4-.6.8l-2.9 6.5h-.4l-2.9-6.4c-.1-.3-.3-.5-.4-.6-.1-.1-.3-.2-.4-.3-.1 0-.3-.1-.6-.1v-.4h.1zm12.2-.2v6.1c0 .5 0 .8.1 1 .1.2.2.3.3.4.1.1.4.1.8.1v.3H93v-.3c.4 0 .7 0 .8-.1.1-.1.2-.2.3-.4.1-.2.1-.5.1-1V161c0-.8 0-1.4-.1-1.6 0-.2-.1-.3-.2-.4-.1-.1-.2-.1-.4-.1s-.4 0-.6.1l-.1-.3 2.4-.9h.5zm-.7-4c.2 0 .5.1.6.2.2.2.3.4.3.6 0 .2-.1.4-.3.6-.2.2-.4.2-.6.2-.2 0-.5-.1-.6-.2-.2-.2-.3-.4-.3-.6 0-.2.1-.4.3-.6.1-.1.3-.2.6-.2zm7.5 10.7c-.8.6-1.3 1-1.6 1-.3.1-.7.2-1 .2-.6 0-1-.2-1.4-.5-.4-.4-.5-.8-.5-1.4 0-.4.1-.7.3-1 .2-.4.7-.7 1.3-1.1.6-.3 1.6-.7 3-1.2v-.3c0-.8-.1-1.3-.4-1.6-.3-.3-.6-.4-1.1-.4-.4 0-.7.1-.9.3-.2.2-.3.4-.3.6v.5c0 .3-.1.5-.2.6-.1.1-.3.2-.5.2s-.4-.1-.5-.2c-.1-.1-.2-.3-.2-.6 0-.5.3-.9.8-1.3s1.2-.6 2.2-.6c.7 0 1.3.1 1.8.3.3.2.6.4.8.8.1.2.2.7.2 1.5v3.9c0 .2.1.3.1.3.1.1.1.1.2.1s.2 0 .2-.1c.1-.1.4-.3.7-.6v.5c-.7.8-1.3 1.2-1.9 1.2-.3 0-.5-.1-.7-.3-.4 0-.4-.3-.4-.8zm0-.5v-2.9c-.9.3-1.5.6-1.7.7-.5.2-.8.5-1 .8-.2.3-.3.6-.3.9 0 .4.1.7.4 1 .3.3.5.4.9.4.3-.1.9-.4 1.7-.9zm5.7-6.2v1.7c.7-1.1 1.4-1.7 2.1-1.7.3 0 .6.1.8.3.2.2.3.4.3.6 0 .2-.1.4-.2.5-.2.1-.3.2-.5.2s-.4-.1-.7-.3c-.3-.2-.4-.3-.6-.3-.1 0-.2.1-.3.2-.3.2-.5.6-.8 1.1v3.6c0 .4.1.7.2 1 .1.1.2.3.4.4.2.1.5.1.8.1v.3h-4.1v-.3c.4 0 .7-.1.9-.2.1-.1.2-.2.3-.4V161c0-.9 0-1.4-.1-1.6 0-.2-.1-.3-.2-.4-.1-.1-.2-.1-.4-.1s-.4 0-.6.1l-.1-.3 2.4-.9h.4z"/></svg>