<svg id="Layer_1" xmlns="http://www.w3.org/2000/svg" viewBox="0 0 1000 170" enable-background="new 0 0 1000 170"><style>.st0{filter:url(#Adobe_OpacityMaskFilter)}.st1,.st2{fill:#fff}.st2{mask:url(#SVGID_1_)}</style><g id="Group"><defs><filter id="Adobe_OpacityMaskFilter" filterUnits="userSpaceOnUse" x="0" y="0" width="1000" height="170"><feColorMatrix values="-1 0 0 0 1 0 -1 0 0 1 0 0 -1 0 1 0 0 0 1 0" color-interpolation-filters="sRGB" result="source"/><feFlood result="back" flood-color="#fff" flood-opacity="1"/><feBlend in="source" in2="back"/></filter></defs><mask maskUnits="userSpaceOnUse" x="0" y="0" width="1000" height="170" id="SVGID_1_"><g class="st0"><path class="st1" d="M121 130H57c-6.1 0-11-4.9-11-11V52c0-6.1 4.9-11 11-11h64v11H58l-.2 67 63.2.2V130zm290 0h-58c-6.1 0-11-4.9-11-11V85c0-6.1 4.9-11 11-11h58c6.1 0 11 4.9 11 11v34c-.1 6-5 11-11 11zm-58-45.1l-.2 34.1 58 .2c.1 0 .2-.1.2-.2V85l-58-.1zm-11.7-29.7c0-6.2 5-11.2 11.2-11.2H417v11h-64.5l-11.2.2zM612 130h-63c-6.1 0-11-4.9-11-11V85c0-6.1 4.9-11 11-11h63v11h-63l-.2 34 63.2.2V130zm-75.7-74.8c0-6.2 5-11.2 11.2-11.2H612v11h-64.5l-11.2.2zM801 130h-63c-6.1 0-11-4.9-11-11V85c0-6.1 4.9-11 11-11h63v11h-63l-.2 34 63.2.2V130zm-75.7-74.8c0-6.2 5-11.2 11.2-11.2H801v11h-64.5l-11.2.2zM221 130h-11V97l-58-.2-.2 33.2H141V97c0-6.1 4.9-11 11-11h58c6.1 0 11 4.9 11 11v33zm96 .1l-6.7-31.8c-.2-.8-.3-1.1-.4-1.2 0 0-.3-.1-1.1-.1h-55.6c-.8 0-1.1.1-1.2.1 0 0-.2.3-.3 1L245 130h-10.3l6.8-33.8c.7-3.8 3.3-10.2 12.3-10.2h55.7c8.9 0 11.5 6.2 12.3 10l7.1 34H317v.1zm-13-51l-6-22.9c-.2-.8-.3-1.1-.4-1.1 0 0-.3-.1-1.1-.1h-29.2c-.8 0-1.1.1-1.2.1 0 0-.2.3-.3 1l-.1.4-5.9 22.5h-11.2l6.2-25.3c.8-3.7 3.4-9.7 12-9.7h29.4c8.6 0 11.2 5.9 12 9.7l6.2 25.3-10.4.1zM210 44h11v35h-11zm-69 0h11v35h-11zm571 86h-11V97l-58-.2-.2 33.2H632V97c0-6.1 4.9-11 11-11h58c6.1 0 11 4.9 11 11v33zm-11-86h11v35h-11zm-69 0h11v35h-11zm258 86h-58c-6.1 0-11-4.9-11-11V44h11v75l58 .2.2-75.2H901v75.1c0 5.9-5 10.9-11 10.9zm19-31h11v31h-11zM512 44h11v35h-11zm-38 0h11v35h-11zm38.1 42H448c-6.1 0-11 4.9-11 11v33h11l.2-33 26.8.1V130h10V97l27 .1V130h11V97c.1-6.1-4.8-11-10.9-11zM437 44h11v35h-11z"/></g></mask><path class="st2" d="M949 170H0V0h949l51 85z"/></g></svg>