<?xml version="1.0" encoding="utf-8"?>
<!-- Generator: Adobe Illustrator 21.1.0, SVG Export Plug-In . SVG Version: 6.00 Build 0)  -->
<!DOCTYPE svg PUBLIC "-//W3C//DTD SVG 1.1//EN" "http://www.w3.org/Graphics/SVG/1.1/DTD/svg11.dtd">
<svg version="1.1" id="Layer_1" xmlns="http://www.w3.org/2000/svg" xmlns:xlink="http://www.w3.org/1999/xlink" x="0px" y="0px"
	 viewBox="0 0 1000 240" style="enable-background:new 0 0 1000 240;" xml:space="preserve">
<style type="text/css">
	.st0{enable-background:new    ;}
	.st1{fill:#FFFFFF;}
</style>
<g class="st0">
	<path class="st1" d="M34,0.1c11,0,18.8,2.9,23.6,8.7c4.8,5.8,7.2,14.2,7.2,25.2v58.2c0,13.9-4.6,23.2-13.7,27.7
		c11.4,4.6,17.1,14.8,17.1,30.8v51.3c0,12.3-2.7,21.7-8,28.1c-5.4,6.4-14.1,9.6-26.2,9.6H-0.2V0.1H34z M13.5,13.1v100.3H34
		c11.4,0,17.1-7.1,17.1-21.2V34c0-13.9-5.7-20.9-17.1-20.9H13.5z M13.5,126.4v100.3H34c7.3,0,12.5-2.1,15.7-6.3
		c3.2-4.2,4.8-10.3,4.8-18.3v-51.3c0-8-1.6-14-4.8-18.1c-3.2-4.1-8.4-6.2-15.7-6.2H13.5z"/>
	<path class="st1" d="M150.4,194.9h-44.2l-6.2,44.8H86L121.6-0.2h13.7l35.6,239.9h-14L150.4,194.9z M108.3,181.9h40.4l-9.9-69.5
		L128.5,32l-10.3,80.4L108.3,181.9z"/>
	<path class="st1" d="M244.5,0.1h13.7v239.6h-13.7L202.4,54.2l1,44.8v140.7h-13.7V0.1h13.7l42.1,185.5l-1-44.8V0.1z"/>
	<path class="st1" d="M284.2,0.1h34.2c12.1,0,20.8,3.5,26.2,10.4c5.4,7,8,17.1,8,30.3v157.8c0,13.2-2.7,23.4-8,30.5
		c-5.4,7.1-14.1,10.6-26.2,10.6h-34.2V0.1z M297.9,13.1v213.6h20.5c7.3,0,12.5-2.4,15.7-7.4c3.2-4.9,4.8-11.8,4.8-20.7V40.9
		c0-8.9-1.6-15.7-4.8-20.5c-3.2-4.8-8.4-7.2-15.7-7.2H297.9z"/>
	<path class="st1" d="M485.1,194.9h-13.7L441.3,40.5l1.7,44.8v154.4h-13.7V0.1H443l25,110.2l10.3,66.4l10.3-66.4l25-110.2h13.7
		v239.6h-13.7V85.4l1.7-44.8L485.1,194.9z"/>
	<path class="st1" d="M609.7,13.5h-42.8v99.9h35.9v13h-35.9v99.9h42.8v13.3h-56.5V0.1h56.5V13.5z"/>
	<path class="st1" d="M686.4,194.9h-13.7L642.6,40.5l1.7,44.8v154.4h-13.7V0.1h13.7l25,110.2l10.3,66.4l10.3-66.4l25-110.2h13.7
		v239.6h-13.7V85.4l1.7-44.8L686.4,194.9z"/>
	<path class="st1" d="M788.7,0.1c11,0,18.8,2.9,23.6,8.7c4.8,5.8,7.2,14.2,7.2,25.2v58.2c0,13.9-4.6,23.2-13.7,27.7
		c11.4,4.6,17.1,14.8,17.1,30.8v51.3c0,12.3-2.7,21.7-8,28.1c-5.4,6.4-14.1,9.6-26.2,9.6h-34.2V0.1H788.7z M768.2,13.1v100.3h20.5
		c11.4,0,17.1-7.1,17.1-21.2V34c0-13.9-5.7-20.9-17.1-20.9H768.2z M768.2,126.4v100.3h20.5c7.3,0,12.5-2.1,15.7-6.3
		c3.2-4.2,4.8-10.3,4.8-18.3v-51.3c0-8-1.6-14-4.8-18.1c-3.2-4.1-8.4-6.2-15.7-6.2H768.2z"/>
	<path class="st1" d="M904.4,13.5h-42.8v99.9h35.9v13h-35.9v99.9h42.8v13.3h-56.5V0.1h56.5V13.5z"/>
	<path class="st1" d="M925.3,0.1h32.5c12.1,0,20.8,3.5,26.2,10.4c5.4,7,8,17.1,8,30.3v57.8c0,11.2-1.9,20.1-5.6,26.9
		c-3.8,6.7-9.8,11.1-18,13.2l30.1,101h-14l-30.1-99.9H939v99.9h-13.7V0.1z M939,13.1v113.6h18.8c7.3,0,12.5-2.4,15.7-7.4
		c3.2-4.9,4.8-11.8,4.8-20.7V40.9c0-8.9-1.6-15.7-4.8-20.5c-3.2-4.8-8.4-7.2-15.7-7.2H939z"/>
</g>
</svg>
