<?xml version="1.0" encoding="utf-8"?>
<!-- Generator: Adobe Illustrator 21.0.0, SVG Export Plug-In . SVG Version: 6.00 Build 0)  -->
<!DOCTYPE svg PUBLIC "-//W3C//DTD SVG 1.1//EN" "http://www.w3.org/Graphics/SVG/1.1/DTD/svg11.dtd">
<svg version="1.1" id="Layer_1" xmlns="http://www.w3.org/2000/svg" xmlns:xlink="http://www.w3.org/1999/xlink" x="0px" y="0px"
	 viewBox="0 0 1000 200" style="enable-background:new 0 0 1000 200;" xml:space="preserve">
<style type="text/css">
	.st0{fill:#FFFFFF;}
</style>
<g>
	<g>
		<path class="st0" d="M68.9,127.6v42.8c0,0.2,0,0.3,0,0.3c0,0.1,0,0.2,0,0.4c0,1.6,0,3.4-0.1,5.5c-0.1,2.1-0.4,4.2-0.8,6.4
			c-0.9,4-3.1,7.8-6.6,11.2c-3.4,3.4-9.3,5.2-17.6,5.2l-19,0.2c-0.8-0.2-1.6-0.2-2.5-0.2c-0.9,0-1.8-0.1-2.7-0.2
			c-4.8-0.3-9.4-2.1-13.5-5.5C2.1,190.2,0,182.4,0,170.1V28.5c0-1.1,0-2.2,0-3.3c0-1.1,0.1-2.3,0.2-3.5C0.4,16.3,2,11.2,4.9,6.5
			c3-4.7,9.6-7,19.9-7h19c8.7,0,14.8,1.7,18.2,5.2c3.4,3.5,5.4,7.4,6.2,11.6c0.3,1.9,0.5,3.7,0.6,5.5c0.1,1.8,0.1,3.5,0.1,5
			c0,0.3,0,0.6,0,0.8s0,0.4,0,0.6v37.9H41V21c0-1.4-0.5-2.6-1.4-3.6c-0.9-1-2-1.8-3-2.2c-0.3-0.2-0.7-0.3-1.2-0.4
			c-0.5-0.1-0.9-0.1-1.2-0.1c-1.6,0-3,0.6-4.2,1.7c-1.2,1.2-2,2.4-2.1,3.9c0,0.1,0,0.3,0,0.4c0,0.1,0,0.2,0,0.3v154.2
			c0,0.2,0,0.3,0,0.5c0,0.2,0,0.4,0,0.7c0.3,1.2,1,2.4,2.1,3.4c1.1,1,2.5,1.5,4.2,1.5c1.7,0,3.3-0.6,4.7-1.8
			c1.4-1.2,2.1-2.6,2.1-4.3v-47.7H68.9z"/>
		<path class="st0" d="M106.4,144.6L80.4,0h31.2l8.9,82.2L129.3,0h31.2l-26,144.6l-0.2,51.6h-27.9V144.6z"/>
		<path class="st0" d="M176.9,0h41.3c9.1,0,15.4,1.7,19,5.3c3.6,3.5,5.9,7.4,6.8,11.8c0.5,1.9,0.7,3.8,0.8,5.7
			c0.1,2,0.1,3.7,0.1,5.3c0,0.2,0,0.3,0,0.5V72c0,7-1.6,12.1-4.8,15.3c-3.2,3.2-6.8,5.3-10.7,6.4c-1.6,0.3-3.1,0.5-4.6,0.7
			c-1.5,0.2-2.8,0.3-4.1,0.3v1.9c1.3,0,2.6,0.1,4,0.2c1.4,0.2,2.8,0.4,4.2,0.7c4.2,0.9,8,2.9,11.5,5.7c3.4,2.9,5.2,7.3,5.2,13.2
			v52.8c0,8.9-1.8,15.2-5.4,18.9c-3.6,3.7-7.6,6.1-11.9,7c-1.7,0.5-3.5,0.8-5.3,0.9c-1.8,0.2-3.5,0.2-5,0.2h-41V0z M207.6,85
			c3.6,0,6.2-0.7,7.7-2.2c1.6-1.5,2.3-3.7,2.3-6.7V27.8c0-3.1-1-5.5-2.9-7.2c-2-1.7-4.3-2.6-6.9-2.6h-3V85H207.6z M207.8,178.1
			c2.5,0,4.8-0.8,6.8-2.3c2-1.6,3-4.2,3-7.9v-53.5c0-4.4-1-7.4-2.9-9.2c-2-1.8-4.1-2.7-6.4-2.7h-3.5v75.7H207.8z"/>
		<path class="st0" d="M262,0h65.4v18h-37.5V85h37.5v18h-37.5v75h37.9v18.2H262V0z"/>
		<path class="st0" d="M345.8,0h43.8c9.7,0,16.1,2,19.2,6.1c3.1,4.1,4.9,8.5,5.4,13.3c0.2,1.3,0.2,2.5,0.2,3.9c0,1.3,0,2.6,0,3.8
			c0,0.2,0,0.3,0,0.5c0,0.2,0,0.3,0,0.5V93c0,1.2,0,2.5,0,3.7c0,1.3-0.1,2.6-0.2,4c-0.3,3.7-1.3,7.4-3,10.9
			c-1.7,3.5-4.9,6.2-9.6,8.3l18.5,76.4h-29.8l-14.8-72.4h-1.9v72.4h-27.9V0z M377.7,106.1c2.6,0,4.8-1.1,6.4-3.3
			c1.6-2.2,2.5-5.2,2.5-9.1V28c0-3.8-0.7-6.3-2.2-7.7c-1.5-1.4-3.2-2.2-5-2.3c-0.2,0-0.4,0-0.6,0c-0.2,0-0.4,0-0.6,0h-4.5v88.1
			H377.7z"/>
		<path class="st0" d="M436.5,0h27.9v178.1h31.1v18.2h-59V0z"/>
		<path class="st0" d="M505.4,0h65.4v18h-37.5V85h37.5v18h-37.5v75h37.9v18.2h-65.8V0z"/>
		<path class="st0" d="M589.3,0h27.9l17.3,89.7V0h27.9v196.3h-27.9l-17.3-80.6v80.6h-27.9V0z"/>
		<path class="st0" d="M685.3,0h27.9v196.3h-27.9V0z"/>
		<path class="st0" d="M736.2,0h27.9l17.3,89.7V0h27.9v196.3h-27.9l-17.3-80.6v80.6h-27.9V0z"/>
		<path class="st0" d="M832.2,0h27.9v84.4L874.2,0h27.6l-17.3,92.8l20.1,103.5h-26.9l-17.6-93.5v93.5h-27.9V0z"/>
		<path class="st0" d="M938.4,0h41.9l19.7,196.3h-27.4l-4.7-54.7h-19l-4.2,54.7h-26.9L938.4,0z M966.5,123.4l-7.3-99.8h-1.4
			l-7.7,99.8H966.5z"/>
	</g>
</g>
</svg>
