<?xml version="1.0" encoding="utf-8"?>
<!-- Generator: Adobe Illustrator 21.1.0, SVG Export Plug-In . SVG Version: 6.00 Build 0)  -->
<!DOCTYPE svg PUBLIC "-//W3C//DTD SVG 1.1//EN" "http://www.w3.org/Graphics/SVG/1.1/DTD/svg11.dtd">
<svg version="1.1" id="Layer_1" xmlns="http://www.w3.org/2000/svg" xmlns:xlink="http://www.w3.org/1999/xlink" x="0px" y="0px"
	 viewBox="0 0 1000 198" style="enable-background:new 0 0 1000 198;" xml:space="preserve">
<style type="text/css">
	.st0{fill:#FFFFFF;}
	.st1{opacity:0.3;}
	.st2{fill:#FFFFFF;stroke:#FFFFFF;stroke-width:10.0067;stroke-miterlimit:10;}
	.st3{fill:#FFFFFF;stroke:#FFFFFF;stroke-width:6.6711;stroke-miterlimit:10;}
</style>
<g>
	<g>
		<path class="st0" d="M756.2,158.8v-19.3c-10.7,15.3-22.7,21.7-40.4,21.7c-32.7,0-58-24-58-55.7s24.3-55.7,56.4-55.7
			c16.7,0,31.4,6.7,41.7,19.3V15h14.3v143.4h-14V158.8z M714.1,63c-23,0-41.7,18.7-41.7,42c0,24.3,18.7,43,43,43
			c22.7,0,41.4-19.3,41.4-42.7S737.8,63,714.1,63z"/>
		<path class="st0" d="M847.9,161.1c-33,0-57-23.7-57-56.4c0-31,24.3-55,55.7-55c31.7,0,55,23.3,55,56
			C901.9,137.8,878.9,161.1,847.9,161.1z M846.9,63c-23.3,0-41,18-41,42c0,25,17.3,42.7,42,42.7c23,0,39.7-17.7,39.7-42
			C887.3,81.4,870.3,63,846.9,63z"/>
		<path class="st0" d="M922.3,40.7V16.3h14.3v24.3C936.6,40.7,922.3,40.7,922.3,40.7z M922.3,158.8V52.4h14.3v106.4H922.3z"/>
	</g>
	<g class="st1">
		<path class="st2" d="M994,55.7c0,3.3-2.7,5.7-5.7,5.7c-3.3,0-5.7-2.3-5.7-5.7c0-3.3,2.7-5.7,5.7-5.7C991.3,50,994,52.4,994,55.7z
			 M994,149.4c0,3.3-2.7,5.7-5.7,5.7c-3.3,0-5.7-2.3-5.7-5.7c0-3.3,2.7-5.7,5.7-5.7C991.3,143.8,994,146.1,994,149.4z"/>
	</g>
	<g class="st1">
		<path class="st3" d="M640.1,4h6.7l-86.1,179.8H554L640.1,4z"/>
	</g>
	<g class="st1">
		<path class="st0" d="M58,161.1c-32.7,0-58-24-58-55.7C0,74.4,25,50,57,50c24,0,44.4,13.3,52.7,34.7h-16c-8-14-21-21.7-37-21.7
			c-23.7,0-42,18.7-42,42.7c0,23.3,18.7,42.4,42.7,42.4c15,0,25.4-5.7,36.4-20.7h16.3C97.1,151.8,79.7,161.1,58,161.1z"/>
		<path class="st0" d="M158.4,196.1h-15.3l17.3-40.7l-41-103.1h15.7l33.7,84.7l36-84.7h15.3L158.4,196.1z"/>
		<path class="st0" d="M289.9,161.1c-17.3,0-32.7-7.7-41.7-20.7v18.3h-14.3V15.3h14.3V71c9-13.3,24-20.7,41.7-20.7
			c31.4,0,56,24.3,56,55.7S321.9,161.1,289.9,161.1z M289.5,63c-23.7,0-42.4,18.3-42.4,42c0,23.3,18.7,43,42,43c24,0,42-18.3,42-43
			C331.2,81.1,313.5,63,289.5,63z"/>
		<path class="st0" d="M376.6,110.4c1,21,19.7,37.7,41.4,37.7c16,0,31-9.7,37-24.3h15c-6.7,20.3-27.7,37.4-51.7,37.4
			c-31.4,0-56-24.7-56-56c0-31,24.3-55,55-55c31.4,0,55.4,22.7,55.4,60.4H376.6z M417.3,63c-20.3,0-36.4,13.7-40.4,34h81.4
			C453.6,76,437.6,63,417.3,63z"/>
		<path class="st0" d="M507,96.7v62h-14.3V52.4H507v15c5.7-11.7,14.7-17,30-17.7V64C517,66,507,77,507,96.7z"/>
	</g>
</g>
</svg>
