<?xml version="1.0" encoding="utf-8"?>
<!-- Generator: Adobe Illustrator 21.1.0, SVG Export Plug-In . SVG Version: 6.00 Build 0)  -->
<!DOCTYPE svg PUBLIC "-//W3C//DTD SVG 1.1//EN" "http://www.w3.org/Graphics/SVG/1.1/DTD/svg11.dtd">
<svg version="1.1" id="Layer_1" xmlns="http://www.w3.org/2000/svg" xmlns:xlink="http://www.w3.org/1999/xlink" x="0px" y="0px"
	 viewBox="0 0 1000 154" style="enable-background:new 0 0 1000 154;" xml:space="preserve">
<style type="text/css">
	.st0{fill:none;stroke:#FFFFFF;stroke-width:40;stroke-miterlimit:10;}
	.st1{opacity:0.5;fill:none;stroke:#FFFFFF;stroke-width:40;stroke-miterlimit:10;enable-background:new    ;}
	.st2{enable-background:new    ;}
	.st3{fill:#FFFFFF;}
	.st4{opacity:0.5;enable-background:new    ;}
</style>
<g>
	<g>
		<path class="st0" d="M466.3,132.1c0,0,0-26.5,0-55.7s-23-55.7-55.7-55.7S355,48.2,355,76.4s0,55.7,0,55.7"/>
		<path class="st0" d="M355,132.1c0,0,0-26.5,0-55.7s-23-55.7-55.7-55.7s-55.7,27.5-55.7,55.7s0,55.7,0,55.7"/>
	</g>
	<path class="st1" d="M243.6,132.1c0,0,0-26.5,0-55.7s-23-55.7-55.7-55.7s-55.7,27.5-55.7,55.7s17.7,55.7,55.7,55.7H243.6z"/>
	<circle class="st1" cx="76.7" cy="76.4" r="55.7"/>
	<g class="st2">
		<path class="st3" d="M572.8,78.7v53.4h-7.6V95.5c0-0.6,0-1.2,0.1-1.9s0.1-1.4,0.2-2.1l-17.2,31.7c-0.7,1.3-1.7,2-3.1,2h-1.2
			c-1.4,0-2.4-0.7-3.1-2l-17.4-31.8c0.1,0.7,0.1,1.4,0.2,2.2c0,0.7,0.1,1.4,0.1,2v36.6h-7.6V78.7h6.5c0.8,0,1.4,0.1,1.8,0.2
			c0.4,0.1,0.8,0.6,1.1,1.2l17.1,31.1c0.4,0.7,0.7,1.5,1.1,2.2c0.3,0.8,0.6,1.5,0.9,2.3c0.3-0.8,0.6-1.6,0.9-2.4
			c0.3-0.8,0.7-1.5,1.1-2.2l16.9-31c0.3-0.7,0.7-1.1,1.2-1.2c0.4-0.1,1-0.2,1.8-0.2H572.8z"/>
		<path class="st3" d="M588.6,113.8c0.1,2.2,0.4,4,1,5.6c0.6,1.6,1.3,2.9,2.3,3.9c1,1,2.1,1.8,3.4,2.3s2.8,0.8,4.4,0.8
			c1.6,0,2.9-0.2,4-0.5c1.1-0.4,2.1-0.8,3-1.2s1.6-0.8,2.2-1.2s1.1-0.5,1.6-0.5c0.6,0,1.1,0.2,1.5,0.7l2.3,2.9
			c-0.9,1.1-2,2.1-3.2,2.8c-1.2,0.8-2.4,1.4-3.8,1.9c-1.3,0.5-2.7,0.8-4.1,1c-1.4,0.2-2.8,0.3-4.1,0.3c-2.6,0-5.1-0.4-7.3-1.3
			c-2.2-0.9-4.2-2.2-5.8-3.9c-1.6-1.7-2.9-3.8-3.9-6.3s-1.4-5.4-1.4-8.7c0-2.6,0.4-5.1,1.2-7.3c0.8-2.3,2-4.3,3.6-5.9s3.4-3,5.6-4
			c2.2-1,4.7-1.5,7.5-1.5c2.3,0,4.5,0.4,6.5,1.1c2,0.8,3.7,1.9,5.1,3.3s2.6,3.2,3.4,5.4c0.8,2.1,1.2,4.5,1.2,7.2
			c0,1.2-0.1,2.1-0.4,2.5c-0.3,0.4-0.8,0.6-1.5,0.6H588.6z M607.6,108.9c0-1.3-0.2-2.6-0.6-3.7s-0.9-2.2-1.7-3s-1.7-1.5-2.8-2
			c-1.1-0.5-2.4-0.7-3.8-0.7c-2.9,0-5.2,0.8-6.8,2.5c-1.7,1.7-2.7,4-3.2,7H607.6z"/>
		<path class="st3" d="M634,132.7c-3.1,0-5.6-0.9-7.3-2.7c-1.7-1.8-2.5-4.3-2.5-7.5v-22h-4.2c-0.4,0-0.8-0.1-1.2-0.4
			s-0.5-0.7-0.5-1.3v-3.2l6.1-0.9l1.7-10.9c0.1-0.4,0.3-0.8,0.6-1s0.7-0.4,1.2-0.4h4.1v12.4h10.5v5.8h-10.5V122c0,1.4,0.3,2.4,1,3.1
			s1.6,1.1,2.7,1.1c0.6,0,1.2-0.1,1.6-0.2c0.4-0.2,0.8-0.3,1.2-0.5c0.3-0.2,0.6-0.4,0.8-0.5s0.5-0.2,0.7-0.2c0.4,0,0.8,0.2,1.1,0.7
			l2.4,3.9c-1.2,1.1-2.7,1.9-4.4,2.5C637.5,132.4,635.8,132.7,634,132.7z"/>
		<path class="st3" d="M656.5,101.3c1.2-2.4,2.6-4.3,4.3-5.7s3.7-2.1,6-2.1c0.8,0,1.6,0.1,2.3,0.3c0.7,0.2,1.4,0.5,1.9,0.8l-0.6,6
			c-0.1,0.4-0.3,0.7-0.5,0.9c-0.2,0.2-0.5,0.2-0.8,0.2c-0.4,0-0.9-0.1-1.6-0.2c-0.7-0.1-1.4-0.2-2.2-0.2c-1.1,0-2.1,0.2-3,0.5
			c-0.9,0.3-1.6,0.8-2.3,1.4c-0.7,0.6-1.3,1.4-1.8,2.3s-1,1.9-1.4,3v23.5h-8V94.2h4.6c0.8,0,1.4,0.2,1.7,0.5
			c0.3,0.3,0.5,0.8,0.7,1.6L656.5,101.3z"/>
		<path class="st3" d="M686,82.8c0,0.7-0.1,1.4-0.4,2c-0.3,0.6-0.7,1.2-1.2,1.7c-0.5,0.5-1.1,0.9-1.7,1.2c-0.7,0.3-1.4,0.4-2.1,0.4
			c-0.7,0-1.4-0.1-2-0.4s-1.2-0.7-1.7-1.2s-0.8-1-1.1-1.7s-0.4-1.3-0.4-2c0-0.7,0.1-1.4,0.4-2.1c0.3-0.6,0.7-1.2,1.1-1.7
			s1-0.9,1.7-1.2c0.6-0.3,1.3-0.4,2-0.4c0.7,0,1.4,0.1,2.1,0.4c0.7,0.3,1.2,0.7,1.7,1.2c0.5,0.5,0.9,1,1.2,1.7
			C685.9,81.4,686,82.1,686,82.8z M684.7,94.2v37.8h-8V94.2H684.7z"/>
		<path class="st3" d="M721.5,101.7c-0.2,0.3-0.5,0.6-0.7,0.7c-0.2,0.2-0.5,0.3-1,0.3s-0.9-0.1-1.3-0.4s-1-0.6-1.6-1
			c-0.6-0.4-1.4-0.7-2.3-1s-2-0.4-3.3-0.4c-1.7,0-3.2,0.3-4.5,0.9c-1.3,0.6-2.4,1.5-3.3,2.7c-0.9,1.2-1.5,2.5-2,4.2
			c-0.4,1.6-0.6,3.5-0.6,5.5c0,2.1,0.2,4,0.7,5.7c0.5,1.7,1.1,3.1,2,4.2c0.9,1.1,1.9,2,3.2,2.6c1.2,0.6,2.7,0.9,4.2,0.9
			c1.5,0,2.8-0.2,3.7-0.6c1-0.4,1.8-0.8,2.4-1.2c0.6-0.4,1.2-0.9,1.7-1.2s0.9-0.6,1.5-0.6c0.6,0,1.1,0.2,1.5,0.7l2.3,2.9
			c-0.9,1.1-1.9,2.1-3,2.8c-1.1,0.8-2.3,1.4-3.5,1.9c-1.2,0.5-2.5,0.8-3.9,1c-1.3,0.2-2.7,0.3-4,0.3c-2.4,0-4.5-0.4-6.6-1.3
			s-3.8-2.2-5.3-3.8s-2.7-3.7-3.6-6.1s-1.3-5.2-1.3-8.3c0-2.8,0.4-5.4,1.2-7.8c0.8-2.4,1.9-4.4,3.5-6.2s3.4-3.1,5.7-4.1
			c2.2-1,4.8-1.5,7.8-1.5c2.7,0,5.2,0.4,7.3,1.3c2.1,0.9,4,2.2,5.6,3.8L721.5,101.7z"/>
		<path class="st3" d="M753,101.1c-0.2,0.3-0.4,0.6-0.7,0.7c-0.2,0.1-0.6,0.2-0.9,0.2c-0.4,0-0.9-0.1-1.4-0.4
			c-0.5-0.3-1.1-0.5-1.7-0.9c-0.7-0.3-1.5-0.6-2.4-0.9s-2-0.4-3.2-0.4c-1,0-1.9,0.1-2.7,0.4c-0.8,0.2-1.5,0.6-2,1
			c-0.6,0.4-1,0.9-1.3,1.5c-0.3,0.6-0.4,1.2-0.4,1.9c0,0.9,0.3,1.6,0.8,2.2c0.5,0.6,1.3,1.1,2.2,1.5s1.9,0.8,3,1.2s2.3,0.7,3.5,1.1
			s2.3,0.9,3.5,1.4c1.1,0.5,2.2,1.2,3,1.9c0.9,0.8,1.6,1.7,2.2,2.7s0.8,2.4,0.8,3.9c0,1.8-0.3,3.4-1,4.9s-1.6,2.8-2.8,3.9
			c-1.2,1.1-2.8,2-4.6,2.6s-4,0.9-6.3,0.9c-1.3,0-2.6-0.1-3.8-0.4c-1.2-0.2-2.4-0.6-3.5-1s-2.1-0.9-3.1-1.5c-1-0.6-1.8-1.2-2.5-1.9
			l1.9-3c0.2-0.4,0.5-0.7,0.8-0.9s0.7-0.3,1.2-0.3c0.5,0,1,0.2,1.5,0.5s1.1,0.7,1.8,1.1c0.7,0.4,1.5,0.8,2.5,1.1s2.2,0.5,3.6,0.5
			c1.2,0,2.2-0.1,3.1-0.4c0.9-0.3,1.6-0.7,2.2-1.2s1-1.1,1.3-1.7c0.3-0.6,0.4-1.3,0.4-2c0-1-0.3-1.8-0.8-2.4s-1.3-1.2-2.2-1.6
			s-1.9-0.8-3.1-1.2c-1.1-0.3-2.3-0.7-3.5-1.1c-1.2-0.4-2.4-0.9-3.5-1.4s-2.2-1.2-3.1-2s-1.6-1.8-2.2-2.9s-0.8-2.6-0.8-4.2
			c0-1.5,0.3-2.9,0.9-4.3c0.6-1.4,1.5-2.6,2.7-3.6s2.6-1.9,4.3-2.5c1.7-0.6,3.7-0.9,6-0.9c2.5,0,4.9,0.4,6.9,1.2s3.8,1.9,5.2,3.3
			L753,101.1z"/>
	</g>
	<g class="st4">
		<path class="st3" d="M566.1,32.4c0,4-0.6,7.6-1.9,10.9c-1.3,3.3-3.1,6.2-5.4,8.6c-2.3,2.4-5.1,4.3-8.4,5.7c-3.3,1.4-6.9,2-10.9,2
			c-4,0-7.6-0.7-10.9-2c-3.3-1.4-6.1-3.2-8.4-5.7c-2.4-2.4-4.2-5.3-5.5-8.6c-1.3-3.3-1.9-7-1.9-10.9s0.6-7.6,1.9-10.9
			s3.1-6.2,5.5-8.6c2.3-2.4,5.2-4.3,8.4-5.7c3.3-1.4,6.9-2,10.9-2c4,0,7.7,0.7,10.9,2c3.3,1.4,6.1,3.3,8.4,5.7s4.1,5.3,5.4,8.6
			S566.1,28.5,566.1,32.4z M557.3,32.4c0-3.1-0.4-5.8-1.2-8.3c-0.8-2.4-2-4.5-3.6-6.2s-3.4-3-5.6-3.9c-2.2-0.9-4.7-1.4-7.4-1.4
			c-2.7,0-5.2,0.5-7.4,1.4c-2.2,0.9-4.1,2.2-5.6,3.9c-1.6,1.7-2.8,3.8-3.6,6.2c-0.8,2.4-1.3,5.2-1.3,8.3c0,3.1,0.4,5.9,1.3,8.3
			c0.8,2.4,2,4.5,3.6,6.2c1.6,1.7,3.4,3,5.6,3.9c2.2,0.9,4.7,1.4,7.4,1.4c2.7,0,5.2-0.5,7.4-1.4c2.2-0.9,4.1-2.2,5.6-3.9
			s2.7-3.8,3.6-6.2C556.8,38.3,557.3,35.5,557.3,32.4z"/>
		<path class="st3" d="M581,26.8c1.6-1.9,3.4-3.4,5.4-4.5c2-1.1,4.4-1.7,7-1.7c2.1,0,4.1,0.4,5.8,1.3c1.7,0.9,3.2,2.1,4.5,3.7
			s2.2,3.7,2.9,6.1s1,5.2,1,8.3c0,2.8-0.4,5.4-1.1,7.8s-1.8,4.5-3.2,6.3c-1.4,1.8-3.1,3.2-5.1,4.2s-4.3,1.5-6.8,1.5
			c-2.2,0-4.1-0.4-5.7-1.1c-1.5-0.7-3-1.7-4.2-3v16.1h-8V21.3h4.8c1.1,0,1.8,0.5,2.1,1.5L581,26.8z M581.4,49.6
			c1.1,1.4,2.3,2.4,3.7,3s2.8,0.9,4.4,0.9c3.1,0,5.5-1.1,7.3-3.4s2.6-5.7,2.6-10.2c0-2.3-0.2-4.3-0.6-6c-0.4-1.6-1-3-1.7-4
			s-1.6-1.8-2.7-2.3c-1.1-0.5-2.3-0.7-3.6-0.7c-2,0-3.8,0.4-5.2,1.3c-1.5,0.9-2.8,2.1-4.1,3.8V49.6z"/>
		<path class="st3" d="M621.1,40.8c0.1,2.2,0.4,4,1,5.6c0.6,1.6,1.3,2.9,2.3,3.9c1,1,2.1,1.8,3.4,2.3s2.8,0.8,4.4,0.8
			c1.6,0,2.9-0.2,4-0.5c1.1-0.4,2.1-0.8,3-1.2s1.6-0.8,2.2-1.2s1.1-0.5,1.6-0.5c0.6,0,1.1,0.2,1.5,0.7l2.3,2.9
			c-0.9,1.1-2,2.1-3.2,2.8c-1.2,0.8-2.4,1.4-3.8,1.9c-1.3,0.5-2.7,0.8-4.1,1c-1.4,0.2-2.8,0.3-4.1,0.3c-2.6,0-5.1-0.4-7.3-1.3
			c-2.2-0.9-4.2-2.2-5.8-3.9c-1.6-1.7-2.9-3.8-3.9-6.3s-1.4-5.4-1.4-8.7c0-2.6,0.4-5.1,1.2-7.3c0.8-2.3,2-4.3,3.6-5.9s3.4-3,5.6-4
			c2.2-1,4.7-1.5,7.5-1.5c2.3,0,4.5,0.4,6.5,1.1c2,0.8,3.7,1.9,5.1,3.3s2.6,3.2,3.4,5.4c0.8,2.1,1.2,4.5,1.2,7.2
			c0,1.2-0.1,2.1-0.4,2.5c-0.3,0.4-0.8,0.6-1.5,0.6H621.1z M640.2,35.9c0-1.3-0.2-2.6-0.6-3.7s-0.9-2.2-1.7-3s-1.7-1.5-2.8-2
			c-1.1-0.5-2.4-0.7-3.8-0.7c-2.9,0-5.2,0.8-6.8,2.5c-1.7,1.7-2.7,4-3.2,7H640.2z"/>
		<path class="st3" d="M662.2,26.3c0.8-0.8,1.7-1.6,2.5-2.3c0.9-0.7,1.8-1.3,2.8-1.8s2-0.9,3.2-1.2c1.1-0.3,2.3-0.4,3.6-0.4
			c2.1,0,3.9,0.3,5.5,1s2.9,1.7,4,2.9s1.9,2.8,2.4,4.5c0.5,1.8,0.8,3.7,0.8,5.8v24.1h-7.9V35.1c0-2.5-0.6-4.5-1.8-5.9
			c-1.2-1.4-3-2.1-5.4-2.1c-1.8,0-3.4,0.4-5,1.2c-1.5,0.8-2.9,1.9-4.3,3.3v27.6h-8V21.3h4.8c1.1,0,1.8,0.5,2.1,1.5L662.2,26.3z"/>
		<path class="st3" d="M758.6,59.1h-6.7c-0.8,0-1.4-0.2-1.9-0.6c-0.5-0.4-0.8-0.9-1.1-1.4l-4.5-11.8h-23L717,57.1
			c-0.2,0.5-0.5,1-1,1.4c-0.5,0.4-1.1,0.6-1.9,0.6h-6.7l21.2-53.4h8.8L758.6,59.1z M742.2,39.1l-7.3-19.5c-0.6-1.5-1.2-3.4-1.8-5.8
			c-0.3,1.2-0.6,2.2-0.9,3.2c-0.3,1-0.6,1.8-0.9,2.6l-7.3,19.5H742.2z"/>
		<path class="st3" d="M789.1,28.7c-0.2,0.3-0.5,0.6-0.7,0.7c-0.2,0.2-0.5,0.3-1,0.3s-0.9-0.1-1.3-0.4s-1-0.6-1.6-1
			c-0.6-0.4-1.4-0.7-2.3-1s-2-0.4-3.3-0.4c-1.7,0-3.2,0.3-4.5,0.9c-1.3,0.6-2.4,1.5-3.3,2.7c-0.9,1.2-1.5,2.5-2,4.2
			c-0.4,1.6-0.6,3.5-0.6,5.5c0,2.1,0.2,4,0.7,5.7c0.5,1.7,1.1,3.1,2,4.2c0.9,1.1,1.9,2,3.2,2.6c1.2,0.6,2.7,0.9,4.2,0.9
			c1.5,0,2.8-0.2,3.7-0.6c1-0.4,1.8-0.8,2.4-1.2c0.6-0.4,1.2-0.9,1.7-1.2s0.9-0.6,1.5-0.6c0.6,0,1.1,0.2,1.5,0.7l2.3,2.9
			c-0.9,1.1-1.9,2.1-3,2.8c-1.1,0.8-2.3,1.4-3.5,1.9c-1.2,0.5-2.5,0.8-3.9,1c-1.3,0.2-2.7,0.3-4,0.3c-2.4,0-4.5-0.4-6.6-1.3
			s-3.8-2.2-5.3-3.8s-2.7-3.7-3.6-6.1s-1.3-5.2-1.3-8.3c0-2.8,0.4-5.4,1.2-7.8c0.8-2.4,1.9-4.4,3.5-6.2s3.4-3.1,5.7-4.1
			c2.2-1,4.8-1.5,7.8-1.5c2.7,0,5.2,0.4,7.3,1.3c2.1,0.9,4,2.2,5.6,3.8L789.1,28.7z"/>
		<path class="st3" d="M824,28.7c-0.2,0.3-0.5,0.6-0.7,0.7c-0.2,0.2-0.5,0.3-1,0.3s-0.9-0.1-1.3-0.4s-1-0.6-1.6-1
			c-0.6-0.4-1.4-0.7-2.3-1s-2-0.4-3.3-0.4c-1.7,0-3.2,0.3-4.5,0.9c-1.3,0.6-2.4,1.5-3.3,2.7c-0.9,1.2-1.5,2.5-2,4.2
			c-0.4,1.6-0.6,3.5-0.6,5.5c0,2.1,0.2,4,0.7,5.7c0.5,1.7,1.1,3.1,2,4.2c0.9,1.1,1.9,2,3.2,2.6c1.2,0.6,2.7,0.9,4.2,0.9
			c1.5,0,2.8-0.2,3.7-0.6c1-0.4,1.8-0.8,2.4-1.2c0.6-0.4,1.2-0.9,1.7-1.2s0.9-0.6,1.5-0.6c0.6,0,1.1,0.2,1.5,0.7l2.3,2.9
			c-0.9,1.1-1.9,2.1-3,2.8c-1.1,0.8-2.3,1.4-3.5,1.9c-1.2,0.5-2.5,0.8-3.9,1c-1.3,0.2-2.7,0.3-4,0.3c-2.4,0-4.5-0.4-6.6-1.3
			s-3.8-2.2-5.3-3.8s-2.7-3.7-3.6-6.1s-1.3-5.2-1.3-8.3c0-2.8,0.4-5.4,1.2-7.8c0.8-2.4,1.9-4.4,3.5-6.2s3.4-3.1,5.7-4.1
			c2.2-1,4.8-1.5,7.8-1.5c2.7,0,5.2,0.4,7.3,1.3c2.1,0.9,4,2.2,5.6,3.8L824,28.7z"/>
		<path class="st3" d="M838,40.8c0.1,2.2,0.4,4,1,5.6c0.6,1.6,1.3,2.9,2.3,3.9c1,1,2.1,1.8,3.4,2.3s2.8,0.8,4.4,0.8
			c1.6,0,2.9-0.2,4-0.5c1.1-0.4,2.1-0.8,3-1.2s1.6-0.8,2.2-1.2s1.1-0.5,1.6-0.5c0.6,0,1.1,0.2,1.5,0.7l2.3,2.9
			c-0.9,1.1-2,2.1-3.2,2.8c-1.2,0.8-2.4,1.4-3.8,1.9c-1.3,0.5-2.7,0.8-4.1,1c-1.4,0.2-2.8,0.3-4.1,0.3c-2.6,0-5.1-0.4-7.3-1.3
			c-2.2-0.9-4.2-2.2-5.8-3.9c-1.6-1.7-2.9-3.8-3.9-6.3s-1.4-5.4-1.4-8.7c0-2.6,0.4-5.1,1.2-7.3c0.8-2.3,2-4.3,3.6-5.9s3.4-3,5.6-4
			c2.2-1,4.7-1.5,7.5-1.5c2.3,0,4.5,0.4,6.5,1.1c2,0.8,3.7,1.9,5.1,3.3s2.6,3.2,3.4,5.4c0.8,2.1,1.2,4.5,1.2,7.2
			c0,1.2-0.1,2.1-0.4,2.5c-0.3,0.4-0.8,0.6-1.5,0.6H838z M857.1,35.9c0-1.3-0.2-2.6-0.6-3.7s-0.9-2.2-1.7-3s-1.7-1.5-2.8-2
			c-1.1-0.5-2.4-0.7-3.8-0.7c-2.9,0-5.2,0.8-6.8,2.5c-1.7,1.7-2.7,4-3.2,7H857.1z"/>
		<path class="st3" d="M894.3,28.1c-0.2,0.3-0.4,0.6-0.7,0.7c-0.2,0.1-0.6,0.2-0.9,0.2c-0.4,0-0.9-0.1-1.4-0.4
			c-0.5-0.3-1.1-0.5-1.7-0.9c-0.7-0.3-1.5-0.6-2.4-0.9s-2-0.4-3.2-0.4c-1,0-1.9,0.1-2.7,0.4c-0.8,0.2-1.5,0.6-2,1
			c-0.6,0.4-1,0.9-1.3,1.5c-0.3,0.6-0.4,1.2-0.4,1.9c0,0.9,0.3,1.6,0.8,2.2c0.5,0.6,1.3,1.1,2.2,1.5s1.9,0.8,3,1.2s2.3,0.7,3.5,1.1
			s2.3,0.9,3.5,1.4c1.1,0.5,2.2,1.2,3,1.9c0.9,0.8,1.6,1.7,2.2,2.7s0.8,2.4,0.8,3.9c0,1.8-0.3,3.4-1,4.9s-1.6,2.8-2.8,3.9
			c-1.2,1.1-2.8,2-4.6,2.6s-4,0.9-6.3,0.9c-1.3,0-2.6-0.1-3.8-0.4c-1.2-0.2-2.4-0.6-3.5-1s-2.1-0.9-3.1-1.5c-1-0.6-1.8-1.2-2.5-1.9
			l1.9-3c0.2-0.4,0.5-0.7,0.8-0.9s0.7-0.3,1.2-0.3c0.5,0,1,0.2,1.5,0.5s1.1,0.7,1.8,1.1c0.7,0.4,1.5,0.8,2.5,1.1s2.2,0.5,3.6,0.5
			c1.2,0,2.2-0.1,3.1-0.4c0.9-0.3,1.6-0.7,2.2-1.2s1-1.1,1.3-1.7c0.3-0.6,0.4-1.3,0.4-2c0-1-0.3-1.8-0.8-2.4s-1.3-1.2-2.2-1.6
			s-1.9-0.8-3.1-1.2c-1.1-0.3-2.3-0.7-3.5-1.1c-1.2-0.4-2.4-0.9-3.5-1.4s-2.2-1.2-3.1-2s-1.6-1.8-2.2-2.9S870,33.6,870,32
			c0-1.5,0.3-2.9,0.9-4.3c0.6-1.4,1.5-2.6,2.7-3.6s2.6-1.9,4.3-2.5c1.7-0.6,3.7-0.9,6-0.9c2.5,0,4.9,0.4,6.9,1.2s3.8,1.9,5.2,3.3
			L894.3,28.1z"/>
		<path class="st3" d="M926.6,28.1c-0.2,0.3-0.4,0.6-0.7,0.7c-0.2,0.1-0.6,0.2-0.9,0.2c-0.4,0-0.9-0.1-1.4-0.4
			c-0.5-0.3-1.1-0.5-1.7-0.9c-0.7-0.3-1.5-0.6-2.4-0.9s-2-0.4-3.2-0.4c-1,0-1.9,0.1-2.7,0.4c-0.8,0.2-1.5,0.6-2,1
			c-0.6,0.4-1,0.9-1.3,1.5c-0.3,0.6-0.4,1.2-0.4,1.9c0,0.9,0.3,1.6,0.8,2.2c0.5,0.6,1.3,1.1,2.2,1.5s1.9,0.8,3,1.2s2.3,0.7,3.5,1.1
			s2.3,0.9,3.5,1.4c1.1,0.5,2.2,1.2,3,1.9c0.9,0.8,1.6,1.7,2.2,2.7s0.8,2.4,0.8,3.9c0,1.8-0.3,3.4-1,4.9s-1.6,2.8-2.8,3.9
			c-1.2,1.1-2.8,2-4.6,2.6s-4,0.9-6.3,0.9c-1.3,0-2.6-0.1-3.8-0.4c-1.2-0.2-2.4-0.6-3.5-1s-2.1-0.9-3.1-1.5c-1-0.6-1.8-1.2-2.5-1.9
			l1.9-3c0.2-0.4,0.5-0.7,0.8-0.9s0.7-0.3,1.2-0.3c0.5,0,1,0.2,1.5,0.5s1.1,0.7,1.8,1.1c0.7,0.4,1.5,0.8,2.5,1.1s2.2,0.5,3.6,0.5
			c1.2,0,2.2-0.1,3.1-0.4c0.9-0.3,1.6-0.7,2.2-1.2s1-1.1,1.3-1.7c0.3-0.6,0.4-1.3,0.4-2c0-1-0.3-1.8-0.8-2.4s-1.3-1.2-2.2-1.6
			s-1.9-0.8-3.1-1.2c-1.1-0.3-2.3-0.7-3.5-1.1c-1.2-0.4-2.4-0.9-3.5-1.4s-2.2-1.2-3.1-2s-1.6-1.8-2.2-2.9s-0.8-2.6-0.8-4.2
			c0-1.5,0.3-2.9,0.9-4.3c0.6-1.4,1.5-2.6,2.7-3.6s2.6-1.9,4.3-2.5c1.7-0.6,3.7-0.9,6-0.9c2.5,0,4.9,0.4,6.9,1.2s3.8,1.9,5.2,3.3
			L926.6,28.1z"/>
	</g>
</g>
</svg>
