<?xml version="1.0" encoding="utf-8"?>
<!-- Generator: Adobe Illustrator 21.0.0, SVG Export Plug-In . SVG Version: 6.00 Build 0)  -->
<!DOCTYPE svg PUBLIC "-//W3C//DTD SVG 1.1//EN" "http://www.w3.org/Graphics/SVG/1.1/DTD/svg11.dtd">
<svg version="1.1" id="Layer_1" xmlns="http://www.w3.org/2000/svg" xmlns:xlink="http://www.w3.org/1999/xlink" x="0px" y="0px"
	 viewBox="0 0 1000 154" style="enable-background:new 0 0 1000 154;" xml:space="preserve">
<style type="text/css">
	.st0{fill:none;stroke:#FFFFFF;stroke-width:40;stroke-miterlimit:10;}
	.st1{opacity:0.5;fill:none;stroke:#FFFFFF;stroke-width:40;stroke-miterlimit:10;}
	.st2{fill:#FFFFFF;}
	.st3{font-family:'Lato-Semibold';}
	.st4{font-size:74.213px;}
	.st5{opacity:0.5;fill:#FFFFFF;}
</style>
<g>
	<g>
		<path class="st0" d="M466.3,132.1c0,0,0-26.5,0-55.7s-23-55.7-55.7-55.7S355,48.2,355,76.4s0,55.7,0,55.7"/>
		<path class="st0" d="M355,132.1c0,0,0-26.5,0-55.7s-23-55.7-55.7-55.7s-55.7,27.5-55.7,55.7s0,55.7,0,55.7"/>
	</g>
	<path class="st1" d="M243.6,132.1c0,0,0-26.5,0-55.7s-23-55.7-55.7-55.7s-55.7,27.5-55.7,55.7s17.7,55.7,55.7,55.7H243.6z"/>
	<circle class="st1" cx="76.7" cy="76.4" r="55.7"/>
	<text transform="matrix(1 0 0 1 509.5693 132.0967)" class="st2 st3 st4">Metrics</text>
	<text transform="matrix(1 0 0 1 509.5693 59.1324)" class="st5 st3 st4">Open Access</text>
</g>
</svg>
