<?xml version="1.0" encoding="utf-8"?>
<!-- Generator: Adobe Illustrator 21.0.0, SVG Export Plug-In . SVG Version: 6.00 Build 0)  -->
<!DOCTYPE svg PUBLIC "-//W3C//DTD SVG 1.1//EN" "http://www.w3.org/Graphics/SVG/1.1/DTD/svg11.dtd">
<svg version="1.1" id="Layer_1" xmlns="http://www.w3.org/2000/svg" xmlns:xlink="http://www.w3.org/1999/xlink" x="0px" y="0px"
	 viewBox="0 0 1000 180" style="enable-background:new 0 0 1000 180;" xml:space="preserve">
<style type="text/css">
	.st0{fill:#FFFFFF;}
	.st1{fill:none;stroke:#FFFFFF;stroke-width:0.7278;}
	.st2{fill:none;stroke:#FFFFFF;stroke-width:1.4556;}
	.st3{fill:#231F20;stroke:#FFFFFF;stroke-width:0.9098;stroke-miterlimit:22.9256;}
</style>
<g>
	<polygon class="st0" points="200.7,113.3 219.7,113.3 219.7,116.8 204.6,116.8 204.6,142.6 200.7,142.6 200.7,113.3 	"/>
	<path class="st0" d="M222.8,142.6v-29.3h11c1.9,0,3.4,0.1,4.5,0.3c1.4,0.2,2.6,0.7,3.6,1.4c1,0.7,1.8,1.6,2.3,2.8
		c0.6,1.2,0.9,2.5,0.9,4c0,2.5-0.8,4.6-2.4,6.3c-1.6,1.7-4.5,2.6-8.6,2.6h-7.5v11.9H222.8L222.8,142.6z M226.7,127.2h7.6
		c2.5,0,4.3-0.5,5.3-1.4c1-0.9,1.6-2.2,1.6-3.9c0-1.2-0.3-2.3-0.9-3.2c-0.6-0.9-1.4-1.4-2.4-1.7c-0.7-0.2-1.9-0.3-3.6-0.3h-7.5
		V127.2L226.7,127.2z"/>
	<path class="st0" d="M246.3,113.3h3.9l9.5,17.9l8.4-17.9h3.9l-11,22.8c-1.4,2.9-2.5,4.7-3.4,5.6c-0.9,0.9-2.1,1.3-3.8,1.3
		c-1,0-2.2-0.2-3.7-0.7V139c1,0.6,2.1,0.9,3.3,0.9c0.9,0,1.8-0.3,2.4-0.9c0.7-0.6,1.4-2,2.3-4.1L246.3,113.3L246.3,113.3z"/>
	<polygon class="st0" points="275.3,113.3 298.3,113.3 298.3,142.6 294.4,142.6 294.4,116.8 279.1,116.8 279.1,142.6 275.3,142.6 
		275.3,113.3 	"/>
	<polygon class="st0" points="304.7,113.3 327.7,113.3 327.7,142.6 323.8,142.6 323.8,116.8 308.5,116.8 308.5,142.6 304.7,142.6 
		304.7,113.3 	"/>
	<path class="st0" d="M330.8,142.6l11.3-29.3h4.2l12,29.3h-4.4l-3.4-8.9h-12.2l-3.2,8.9H330.8L330.8,142.6z M339.3,130.6h9.9
		l-3.1-8.1c-0.9-2.5-1.6-4.5-2.1-6.1c-0.4,1.9-0.9,3.7-1.6,5.6L339.3,130.6L339.3,130.6z"/>
	<path class="st0" d="M372.8,113.3h3.9v12.8c1.8,0,3-0.3,3.7-1c0.7-0.7,1.6-2.3,2.8-4.9c0.8-1.9,1.5-3.3,2-4.1
		c0.5-0.8,1.3-1.5,2.2-2c1-0.5,2-0.8,3.2-0.8c1.5,0,2.3,0,2.4,0v3.4c-0.1,0-0.4,0-0.8,0c-0.4,0-0.7,0-0.8,0c-1.2,0-2.2,0.3-2.8,0.9
		c-0.6,0.6-1.3,1.9-2.1,3.8c-1,2.5-1.8,4-2.5,4.7c-0.7,0.6-1.5,1.2-2.4,1.5c1.9,0.5,3.7,2.3,5.6,5.2l6,9.8h-4.8l-4.9-7.9
		c-1.3-2.2-2.5-3.7-3.4-4.5c-0.9-0.8-2.1-1.2-3.5-1.2v13.7h-3.9V113.3L372.8,113.3z"/>
	<path class="st0" d="M394.9,128.3c0-4.9,1.3-8.7,3.9-11.4c2.6-2.7,6-4.1,10.1-4.1c2.7,0,5.1,0.6,7.3,1.9c2.2,1.3,3.8,3.1,5,5.4
		c1.1,2.3,1.7,4.9,1.7,7.9c0,3-0.6,5.6-1.8,8c-1.2,2.3-2.9,4.1-5.1,5.3c-2.2,1.2-4.6,1.8-7.1,1.8c-2.8,0-5.2-0.7-7.4-2
		c-2.2-1.3-3.8-3.2-4.9-5.5C395.5,133.3,394.9,130.9,394.9,128.3L394.9,128.3z M398.9,128.4c0,3.5,0.9,6.3,2.8,8.3
		c1.9,2,4.3,3,7.1,3c2.9,0,5.3-1,7.2-3.1c1.9-2.1,2.8-5,2.8-8.7c0-2.4-0.4-4.5-1.2-6.2c-0.8-1.8-2-3.2-3.5-4.1
		c-1.6-1-3.3-1.5-5.2-1.5c-2.7,0-5.1,0.9-7.1,2.8C399.9,120.8,398.9,124,398.9,128.4L398.9,128.4z"/>
	<path class="st0" d="M427.8,142.6v-29.3h5.8l6.9,20.7c0.6,1.9,1.1,3.4,1.4,4.3c0.3-1.1,0.9-2.6,1.6-4.7l7-20.4h5.2v29.3H452v-24.5
		l-8.5,24.5H440l-8.5-24.9v24.9H427.8L427.8,142.6z"/>
	<polygon class="st0" points="462,113.3 485.1,113.3 485.1,142.6 481.2,142.6 481.2,116.8 465.9,116.8 465.9,142.6 462,142.6 
		462,113.3 	"/>
	<path class="st0" d="M488.2,142.6l11.3-29.3h4.2l12,29.3h-4.4l-3.4-8.9h-12.2l-3.2,8.9H488.2L488.2,142.6z M496.6,130.6h9.9
		l-3.1-8.1c-0.9-2.5-1.6-4.5-2.1-6.1c-0.4,1.9-0.9,3.7-1.6,5.6L496.6,130.6L496.6,130.6z"/>
	<polygon class="st0" points="518.8,142.6 518.8,113.3 522.7,113.3 522.7,125.3 537.9,125.3 537.9,113.3 541.8,113.3 541.8,142.6 
		537.9,142.6 537.9,128.8 522.7,128.8 522.7,142.6 518.8,142.6 	"/>
	<polygon class="st0" points="548.3,113.3 551.8,113.3 551.8,136.5 567.4,113.3 571.3,113.3 571.3,142.6 567.8,142.6 567.8,119.5 
		552.2,142.6 548.3,142.6 548.3,113.3 	"/>
	<path class="st0" d="M577.7,113.3h3.5v23.2l15.6-23.2h3.9v29.3h-3.5v-23.1l-15.6,23.1h-3.9V113.3L577.7,113.3z M592.3,106.3h2.4
		c-0.2,1.7-0.8,2.9-1.8,3.8c-1,0.9-2.4,1.3-4.1,1.3c-1.7,0-3.1-0.4-4.1-1.3c-1-0.9-1.6-2.2-1.8-3.8h2.5c0.2,0.9,0.6,1.6,1.1,2
		c0.6,0.4,1.3,0.7,2.2,0.7c1.1,0,1.9-0.2,2.4-0.6C591.7,108,592.1,107.3,592.3,106.3L592.3,106.3z"/>
</g>
<g>
	<path class="st0" d="M200,90.6V44.7h17.3c3,0,5.4,0.2,7,0.4c2.3,0.4,4.1,1.1,5.7,2.1c1.5,1,2.7,2.5,3.7,4.4c0.9,1.9,1.4,4,1.4,6.3
		c0,3.9-1.2,7.2-3.7,9.9c-2.5,2.7-7,4-13.4,4h-11.8v18.6H200L200,90.6z M206.1,66.5h11.9c3.9,0,6.7-0.7,8.3-2.2
		c1.6-1.5,2.5-3.5,2.5-6.2c0-1.9-0.5-3.6-1.5-4.9c-1-1.4-2.2-2.3-3.8-2.7c-1-0.3-2.9-0.4-5.7-0.4h-11.7V66.5L206.1,66.5z"/>
	<path class="st0" d="M236.7,44.7h6.1l14.9,28.1l13.1-28.1h6l-17.2,35.6c-2.2,4.5-3.9,7.4-5.3,8.7c-1.4,1.4-3.3,2.1-5.9,2.1
		c-1.6,0-3.5-0.4-5.8-1.1v-5.2c1.6,0.9,3.3,1.4,5.2,1.4c1.5,0,2.8-0.5,3.8-1.4c1.1-0.9,2.3-3.1,3.6-6.5L236.7,44.7L236.7,44.7z"/>
	<path class="st0" d="M314.7,74.5l6.1,1.5c-1.3,5-3.6,8.8-6.9,11.4c-3.3,2.6-7.3,3.9-12.1,3.9c-4.9,0-9-1-12-3
		c-3.1-2-5.5-4.9-7.1-8.7c-1.6-3.8-2.4-7.9-2.4-12.3c0-4.8,0.9-8.9,2.7-12.5c1.8-3.6,4.4-6.3,7.8-8.1c3.4-1.8,7.1-2.8,11.1-2.8
		c4.6,0,8.4,1.2,11.6,3.5c3.1,2.3,5.3,5.6,6.5,9.8l-6,1.4c-1.1-3.3-2.6-5.8-4.6-7.3c-2-1.5-4.6-2.3-7.6-2.3c-3.5,0-6.5,0.8-8.8,2.5
		c-2.4,1.7-4,4-5,6.8c-1,2.8-1.4,5.8-1.4,8.8c0,3.9,0.6,7.3,1.7,10.2c1.1,2.9,2.9,5.1,5.3,6.5c2.4,1.4,5,2.2,7.8,2.2
		c3.4,0,6.3-1,8.6-2.9C312.2,81.3,313.8,78.3,314.7,74.5L314.7,74.5z"/>
	<path class="st0" d="M360.9,74.5L367,76c-1.3,5-3.6,8.8-6.9,11.4c-3.3,2.6-7.3,3.9-12.1,3.9c-4.9,0-9-1-12-3
		c-3.1-2-5.5-4.9-7.1-8.7c-1.6-3.8-2.4-7.9-2.4-12.3c0-4.8,0.9-8.9,2.7-12.5c1.8-3.6,4.4-6.3,7.8-8.1c3.4-1.8,7.1-2.8,11.1-2.8
		c4.6,0,8.4,1.2,11.6,3.5c3.1,2.3,5.3,5.6,6.5,9.8l-6,1.4c-1.1-3.3-2.6-5.8-4.6-7.3c-2-1.5-4.6-2.3-7.6-2.3c-3.5,0-6.5,0.8-8.8,2.5
		c-2.4,1.7-4,4-5,6.8c-1,2.8-1.4,5.8-1.4,8.8c0,3.9,0.6,7.3,1.7,10.2c1.1,2.9,2.9,5.1,5.3,6.5c2.4,1.4,5,2.2,7.8,2.2
		c3.4,0,6.3-1,8.6-2.9C358.5,81.3,360,78.3,360.9,74.5L360.9,74.5z"/>
	<path class="st0" d="M374.5,44.7h6.1v20.1c2.8,0,4.7-0.5,5.8-1.6c1.1-1.1,2.6-3.6,4.3-7.7c1.3-3,2.3-5.1,3.1-6.4
		c0.8-1.2,2-2.3,3.5-3.1c1.5-0.8,3.2-1.3,5-1.3c2.3,0,3.6,0,3.7,0.1V50c-0.2,0-0.6,0-1.2,0c-0.7,0-1.1,0-1.2,0
		c-1.9,0-3.4,0.5-4.3,1.4c-1,0.9-2.1,2.9-3.3,6c-1.5,3.9-2.8,6.3-3.9,7.3c-1.1,1-2.3,1.8-3.8,2.4c3,0.8,5.9,3.5,8.7,8.2l9.4,15.3
		H399l-7.7-12.4c-2.1-3.4-3.9-5.8-5.3-7.1c-1.4-1.3-3.3-1.9-5.5-1.9v21.4h-6.1V44.7L374.5,44.7z"/>
	<polygon class="st0" points="411.8,44.7 417.3,44.7 417.3,81 441.7,44.7 447.8,44.7 447.8,90.6 442.3,90.6 442.3,54.4 417.9,90.6 
		411.8,90.6 411.8,44.7 	"/>
	<path class="st0" d="M457.8,44.7h5.5V81l24.4-36.3h6.1v45.8h-5.5V54.4l-24.4,36.2h-6.1V44.7L457.8,44.7z M480.6,33.8h3.8
		c-0.3,2.6-1.3,4.6-2.9,6c-1.6,1.4-3.7,2.1-6.4,2.1c-2.7,0-4.8-0.7-6.4-2.1c-1.6-1.4-2.6-3.4-2.9-6h3.8c0.3,1.4,0.9,2.5,1.7,3.2
		c0.9,0.7,2,1,3.5,1c1.7,0,3-0.3,3.8-1C479.7,36.4,480.3,35.3,480.6,33.8L480.6,33.8z"/>
	<polygon class="st0" points="521.6,44.7 527.1,44.7 527.1,81 551.5,44.7 557.6,44.7 557.6,90.6 552.1,90.6 552.1,54.4 527.7,90.6 
		521.6,90.6 521.6,44.7 	"/>
	<path class="st0" d="M567.6,44.7h6.1v20.1c2.8,0,4.7-0.5,5.8-1.6c1.1-1.1,2.6-3.6,4.3-7.7c1.3-3,2.3-5.1,3.1-6.4
		c0.8-1.2,2-2.3,3.5-3.1c1.5-0.8,3.2-1.3,5-1.3c2.3,0,3.6,0,3.7,0.1V50c-0.2,0-0.6,0-1.2,0c-0.7,0-1.1,0-1.2,0
		c-1.9,0-3.4,0.5-4.3,1.4c-1,0.9-2.1,2.9-3.3,6c-1.5,3.9-2.8,6.3-3.9,7.3c-1.1,1-2.3,1.8-3.8,2.4c3,0.8,5.9,3.5,8.7,8.2l9.4,15.3
		h-7.5l-7.7-12.4c-2.1-3.4-3.9-5.8-5.3-7.1c-1.4-1.3-3.3-1.9-5.5-1.9v21.4h-6.1V44.7L567.6,44.7z"/>
	<path class="st0" d="M602.3,68.2c0-7.6,2-13.6,6.1-17.9c4.1-4.3,9.4-6.5,15.8-6.5c4.2,0,8,1,11.4,3c3.4,2,6,4.8,7.8,8.5
		c1.8,3.6,2.7,7.7,2.7,12.3c0,4.7-0.9,8.8-2.8,12.5c-1.9,3.7-4.5,6.4-8,8.3c-3.4,1.9-7.1,2.8-11.1,2.8c-4.3,0-8.2-1-11.6-3.1
		c-3.4-2.1-6-4.9-7.7-8.5C603.1,76.1,602.3,72.3,602.3,68.2L602.3,68.2z M608.5,68.3c0,5.5,1.5,9.9,4.4,13c3,3.2,6.7,4.8,11.2,4.8
		c4.6,0,8.3-1.6,11.3-4.8c2.9-3.2,4.4-7.8,4.4-13.7c0-3.7-0.6-7-1.9-9.8c-1.3-2.8-3.1-4.9-5.5-6.5c-2.4-1.5-5.2-2.3-8.2-2.3
		c-4.3,0-8,1.5-11.1,4.4C610.1,56.5,608.5,61.4,608.5,68.3L608.5,68.3z"/>
	<path class="st0" d="M653.9,90.6V44.7h17.3c3,0,5.4,0.2,7,0.4c2.3,0.4,4.1,1.1,5.7,2.1c1.5,1,2.7,2.5,3.7,4.4
		c0.9,1.9,1.4,4,1.4,6.3c0,3.9-1.2,7.2-3.7,9.9c-2.5,2.7-7,4-13.4,4H660v18.6H653.9L653.9,90.6z M660,66.5h11.9
		c3.9,0,6.7-0.7,8.3-2.2c1.6-1.5,2.5-3.5,2.5-6.2c0-1.9-0.5-3.6-1.5-4.9c-1-1.4-2.2-2.3-3.8-2.7c-1-0.3-2.9-0.4-5.7-0.4H660V66.5
		L660,66.5z"/>
	<polygon class="st0" points="696.8,90.6 696.8,44.7 702.9,44.7 702.9,63.6 726.7,63.6 726.7,44.7 732.7,44.7 732.7,90.6 
		726.7,90.6 726.7,69 702.9,69 702.9,90.6 696.8,90.6 	"/>
	<path class="st0" d="M743.2,44.7h6.1v19.6h10.9c7.2,0,11.9,1.3,14.1,4c2.3,2.6,3.4,5.6,3.4,9c0,3.5-1.2,6.6-3.6,9.3
		c-2.4,2.7-6.9,4-13.5,4h-17.4V44.7L743.2,44.7z M749.2,85.4h11.1c3.8,0,6.6-0.6,8.3-1.9c1.7-1.3,2.6-3.3,2.6-6.1
		c0-1.9-0.5-3.5-1.6-4.8c-1-1.3-2.4-2.1-4-2.5c-1.7-0.4-4.4-0.5-8.3-0.5h-8.1V85.4L749.2,85.4z M783.2,44.7h6.1v45.8h-6.1V44.7
		L783.2,44.7z"/>
	<path class="st0" d="M799.6,44.7h5.5V81l24.4-36.3h6.1v45.8h-5.5V54.4l-24.4,36.2h-6.1V44.7L799.6,44.7z M822.4,33.8h3.8
		c-0.3,2.6-1.3,4.6-2.9,6c-1.6,1.4-3.7,2.1-6.4,2.1c-2.7,0-4.8-0.7-6.4-2.1c-1.6-1.4-2.5-3.4-2.9-6h3.8c0.3,1.4,0.9,2.5,1.7,3.2
		c0.9,0.7,2,1,3.5,1c1.7,0,3-0.3,3.8-1C821.5,36.4,822.1,35.3,822.4,33.8L822.4,33.8z"/>
	<path class="st0" d="M867.5,44.7h27.9v40.4h4.1v16.1h-5.4V90.6h-30.3v10.7h-5.4V85.2h3.6c3.7-5.6,5.5-16.8,5.5-33.7V44.7
		L867.5,44.7z M889.3,50.1h-16v2.3c0,3.9-0.3,9.2-1,16c-0.7,6.8-2.1,12.3-4.1,16.7h21.1V50.1L889.3,50.1z"/>
	<path class="st0" d="M904.8,68.2c0-7.6,2-13.6,6.1-17.9c4.1-4.3,9.4-6.5,15.8-6.5c4.2,0,8,1,11.4,3c3.4,2,6,4.8,7.8,8.5
		c1.8,3.6,2.7,7.7,2.7,12.3c0,4.7-0.9,8.8-2.8,12.5c-1.9,3.7-4.5,6.4-8,8.3c-3.4,1.9-7.2,2.8-11.1,2.8c-4.3,0-8.2-1-11.6-3.1
		c-3.4-2.1-6-4.9-7.7-8.5C905.7,76.1,904.8,72.3,904.8,68.2L904.8,68.2z M911.1,68.3c0,5.5,1.5,9.9,4.5,13c3,3.2,6.7,4.8,11.2,4.8
		c4.6,0,8.3-1.6,11.3-4.8c2.9-3.2,4.4-7.8,4.4-13.7c0-3.7-0.6-7-1.9-9.8c-1.3-2.8-3.1-4.9-5.5-6.5c-2.4-1.5-5.2-2.3-8.2-2.3
		c-4.3,0-8,1.5-11.1,4.4C912.6,56.5,911.1,61.4,911.1,68.3L911.1,68.3z"/>
	<path class="st0" d="M956.3,90.6V44.7h9.1l10.8,32.4c1,3,1.7,5.3,2.2,6.8c0.5-1.7,1.3-4.1,2.4-7.4l11-31.9h8.2v45.8h-5.8V52.2
		l-13.3,38.4h-5.5l-13.3-39v39H956.3L956.3,90.6z"/>
</g>
<g>
	<path class="st0" d="M150.7,115.3c-1-1.2-3.3-3.3-3.6-9.3c0,0,1.8-27.1,0.9-32.3c-0.5-3.3-0.1-23.8-22.7-33.6c0,0-4.9-1.6-9.5,1.4
		c-4.7,3-3.6,8.7,1.5,15.1c-2.7-0.1-5.6,0.6-6.6,3.1c-4.7-1.5-3.3-2.6-6.5-3c-2.4-0.3-3.7-0.1-5.3-4.2c-1.6-4-0.6-7.4,0-9.3
		c0.6-1.9,4.3-4.3,5.3-6.4c1.1-0.4,3.2,0.1,4.7-0.2c1.5-0.2,1.5-1.1,2.5-1c1,0.1,2.9,0.6,4.4,2.2c1.1-0.2,0.8-1.1,0.9-1.5
		c0.1-0.4,1,1.1,4.8,1.4c3.8,0.4,4.6-2.7,3.8-3.6c-0.8-0.8-1.2,0.7-1.4,1.3c-0.2,0.6-2,0.7-3.9,0.2c-0.9-0.3-1.4-0.8-0.9-1.1
		c0.5-0.4,0.6-1.7,0-2.5c-1.3-1.3-2.2-2.3-4.4-2.7c-2.6-1.3-1.1-2.2-3.9-2.6c-3-0.5-6.4-0.5-8.7,0.6c-3-1.5-5.1,1.3-6.8-1.3
		c-0.2,2,2.9,3.1,1.2,3.4c-1.8,0.3-3,0.2-4.2,0c0.8,1,2.6,1.7,1.9,2.4c-0.9,0.9-1.6,1.1-3.5,0.9c0.5,1.5,1.1,1.4,0.9,2.9
		c-0.2,1.5-1.5,0.7-2.3,3c-0.8-2.3-2.1-1.5-2.3-3c-0.2-1.4,0.5-1.3,0.9-2.9c-1.9,0.2-2.6,0.1-3.5-0.9c-0.7-0.7,1.1-1.4,1.9-2.4
		c-1.1,0.2-2.4,0.3-4.1,0c-1.8-0.3,1.4-1.4,1.2-3.4c-1.8,2.6-3.8-0.2-6.8,1.3c-2.3-1.1-5.7-1.1-8.7-0.6c-2.8,0.5-1.2,1.3-3.9,2.6
		c-2.2,0.4-3,1.3-4.4,2.7c-0.6,0.8-0.5,2.2,0,2.5c0.5,0.4,0,0.8-0.9,1.1c-1.8,0.5-3.7,0.5-3.9-0.2c-0.2-0.6-0.6-2.2-1.4-1.3
		c-0.8,0.8,0,3.9,3.8,3.6c3.8-0.4,4.7-1.8,4.8-1.4c0.1,0.4-0.2,1.2,0.9,1.5c1.5-1.5,3.4-2,4.4-2.2c1-0.1,1,0.8,2.5,1
		c1.5,0.2,3.6-0.2,4.7,0.2c1,2.1,4.7,4.5,5.3,6.4c0.6,1.9,1.6,5.3,0,9.3c-1.6,4-2.9,3.9-5.3,4.2c-3.2,0.4-1.8,1.5-6.5,3
		c-1.1-2.5-3.9-3.2-6.6-3.1c5.1-6.4,6.2-12.1,1.5-15.1c-4.7-3-9.5-1.4-9.5-1.4C31,49.8,31.4,70.3,30.9,73.6
		C30,78.9,31.8,106,31.8,106c-0.2,6-2.6,8.1-3.6,9.3c-0.9,0.5-0.2,1.9,1.4,1.9c7.9-2,12.2-8.3,13.2-11.5c6-4.4,5.8-15.4,6.3-15.7
		c0.5-0.4,0.8,1,1.9,0.6c1.1-0.4,1.6-2.5,2.2-3.1c0.6-0.6,1.3,0.1,2.5-0.9c1.2-1,1.1-3.7,1.7-4.1c0.6-0.4,0.7,1.2,1.6,0.9
		c0.9-0.2,1-1.8,1.8-1.9c0.8-0.1-0.1,1.2,1.2,1.3c1.2,0.1,1.1-0.7,2-0.9c0.9-0.2,0.3,1.2,1.6,1.3c1.3,0.1,1.5-0.7,2.4-0.9
		c0.9-0.2,0.1,0.9,1.2,0.9c1.1,0.1,1.6-0.8,2.9-1.1c1.3-0.2,0.8,1.9,0.8,1.9c-3.2,2.5-4.8,4.6-6,8.7c-1.2,4,1,8.3,1,8.3
		c-1.2,2.2-7.8,10.2-10.8,11.3c-0.9-2.2-1.2-6-5.8-7c-2.1-0.4-4.3,0.9-4.4,1.5c-0.2,0.6,1.8,0.3,0.9,0.6c-0.9,0.4-2.7,2.2-2.5,2.9
		c0.2,0.8,1.2-0.2,1.9-0.5c0.3-0.1,1.3,0.6-0.1,1.2c-1.3,0.5-2.9,2-2.4,2.6c0.5,0.6,1.2-0.5,2.3,0.1c1.1,0.6,0.3,1.2,2.3,1.6
		c2,0.4,1.8,0.5,5.1,0.6c3.3,0.1,4.7,3,5.7,5.1c1.8-1.2,1.8-4-0.1-6.1c3.3-4.3,7.8-8.1,12.6-11.2c2.4-1.5,2.3-5.3,5-5.6
		c1.7-0.2,1.9,7,0.9,10.2c-0.9,3.2-10.6,21.4-11.1,23.3c-1.7,6.2,4.8,7.6,7.9,3.9c1.6,6.9,8.1,4.5,9,1.5c0.6,2.9,2.3,3.8,5.1,3.9v0
		c0,0,0.1,0,0.1,0c0,0,0.1,0,0.1,0v0c2.8-0.1,4.6-1,5.1-3.9c0.9,3,7.4,5.4,9-1.5c3,3.7,9.6,2.3,7.9-3.9
		c-0.5-1.9-10.2-20.1-11.1-23.3c-0.9-3.2-0.8-10.4,0.9-10.2c2.7,0.3,2.6,4,5,5.6c4.7,3.1,9.2,7,12.6,11.2c-1.8,2.1-1.8,4.9-0.1,6.1
		c1-2.2,2.4-5,5.7-5.1c3.3-0.1,3.1-0.2,5.1-0.6c2-0.4,1.2-0.9,2.3-1.6c1.1-0.6,1.8,0.5,2.3-0.1c0.5-0.6-1.1-2.1-2.4-2.6
		c-1.3-0.5-0.3-1.3-0.1-1.2c0.7,0.2,1.6,1.2,1.9,0.5c0.2-0.8-1.6-2.6-2.5-2.9c-0.9-0.4,1.1-0.1,0.9-0.6c-0.2-0.6-2.4-1.9-4.4-1.5
		c-4.7,0.9-4.9,4.8-5.8,7c-3-1.1-9.6-9.1-10.8-11.3c0,0,2.2-4.3,1-8.3c-1.2-4-2.9-6.1-6-8.7c0,0-0.6-2.2,0.8-1.9
		c1.3,0.2,1.8,1.1,2.9,1.1c1.1-0.1,0.2-1.2,1.2-0.9c0.9,0.2,1.1,1.1,2.4,0.9c1.3-0.1,0.8-1.5,1.6-1.3c0.9,0.2,0.8,1,2,0.9
		c1.2-0.1,0.4-1.5,1.2-1.3c0.8,0.1,0.9,1.7,1.8,1.9c0.9,0.2,1-1.3,1.6-0.9c0.6,0.4,0.5,3.1,1.7,4.1c1.2,1,1.9,0.3,2.5,0.9
		c0.6,0.6,1.1,2.7,2.2,3.1c1.1,0.4,1.4-1,1.9-0.6c0.5,0.4,0.4,11.3,6.3,15.7c1,3.2,5.3,9.5,13.2,11.5
		C150.9,117.2,151.6,115.7,150.7,115.3L150.7,115.3z M118.5,35.8L118.5,35.8c-0.3-0.2-0.7,0-1.3-0.1c-0.6-0.1-2-1.4-2-1.4
		s0.9,0,1.4,0.3C117.2,34.9,118.8,36,118.5,35.8L118.5,35.8z M113.8,30.3L113.8,30.3c0,0,0.8,0.4,1.7,0.4c0.9,0,2.1,1.2,1.4,1.2
		c-0.7,0-1.5,0.5-2.2,0.7c-0.7,0.2-1.7,1.3-1.8,0.7C112.7,32.8,113.8,30.3,113.8,30.3L113.8,30.3z M61.2,35.7L61.2,35.7
		c-0.6,0.1-1-0.1-1.3,0.1c-0.3,0.2,1.3-0.9,1.8-1.2c0.5-0.3,1.4-0.3,1.4-0.3S61.8,35.6,61.2,35.7L61.2,35.7z M65.6,33.4L65.6,33.4
		c-0.2,0.6-1.1-0.5-1.8-0.7C63,32.5,62.2,32,61.5,32c-0.7,0,0.5-1.2,1.4-1.2c0.9,0,1.7-0.4,1.7-0.4S65.7,32.8,65.6,33.4L65.6,33.4z
		 M66.5,29.3L66.5,29.3c-0.7,0.5-0.7-0.4-0.3-0.8c0.4-0.5,2.2-1,3.8-0.9c1.6,0.1,2.9,0.5,3.5,0.4c0.7-0.1,2.1,0.2,2.1,0.2
		s-0.4,1.7-1.7,1.7c-1.3,0-1.8-1-3.1-1.2C69.6,28.4,67.3,28.9,66.5,29.3L66.5,29.3z M68.6,31.8L68.6,31.8c-0.5,0.1-0.8-1-0.5-1.1
		c0.3-0.1,1.1-0.3,1.1-0.3S69.1,31.7,68.6,31.8L68.6,31.8z M73.3,34.7L73.3,34.7c-2.3,0.1-3.7-1.1-3.6-2c0-0.9,1.4-1.9,1.2-2.5
		c-0.2-0.7,0.7,0.8,2.1,0.6c1.4-0.2,3.1-0.5,3.1-0.5S75.6,34.6,73.3,34.7L73.3,34.7z M76.5,34.2L76.5,34.2c-1.4,1,0.2-2.3,0.4-3
		c0.2-0.7,1-1.5,1-1.5S77.8,33.2,76.5,34.2L76.5,34.2z M78.4,34.4L78.4,34.4c-1.6,1.1-1-0.1-0.8-0.5c0.2-0.4,1.9-4.3,1.9-4.3
		C79.9,29.9,80,33.3,78.4,34.4L78.4,34.4z M53.6,109.2L53.6,109.2c0.3,0,0.5,0,0.5,0.3c0,0.3-0.3,0.6-0.6,0.6
		c-0.3,0-0.6-0.3-0.6-0.6C52.9,109.2,53.3,109.2,53.6,109.2L53.6,109.2z M52.7,107.9L52.7,107.9c0.3,0,0.5,0,0.5,0.3
		c0,0.3-0.2,0.6-0.6,0.6c-0.3,0-0.6-0.2-0.6-0.6C52.1,107.9,52.4,107.9,52.7,107.9L52.7,107.9z M51,106.6L51,106.6
		c0.4,0,0.9,0.4,0.9,0.7c0,0.3-0.3,0.6-0.7,0.6c-0.4,0-0.7-0.2-0.7-0.6C50.6,107,50.7,106.6,51,106.6L51,106.6z M48.5,113.9
		L48.5,113.9c-0.5,0-0.8-0.4-0.8-0.9c0-0.5,0.4-0.9,0.8-0.9c0.5,0,0.8,0.4,0.8,0.9C49.4,113.5,49,113.9,48.5,113.9L48.5,113.9z
		 M49.2,110.3L49.2,110.3c-0.3,0-0.6-0.4-0.6-0.8c0-0.4,0.2-0.4,0.5-0.4c0.3,0,0.7,0,0.7,0.4C49.8,109.9,49.5,110.3,49.2,110.3
		L49.2,110.3z M50.6,114.3L50.6,114.3c-0.4,0-0.7-0.3-0.7-0.7c0-0.4,0.3-0.7,0.7-0.7c0.4,0,0.7,0.3,0.7,0.7
		C51.3,114,51,114.3,50.6,114.3L50.6,114.3z M50.8,111.1L50.8,111.1c-0.3,0-0.6-0.4-0.6-0.8c0-0.5,0.2-0.6,0.6-0.6
		c0.3,0,0.6,0.1,0.6,0.6C51.5,110.7,51.2,111.1,50.8,111.1L50.8,111.1z M52,110.8L52,110.8c0.3,0,0.4,0,0.4,0.4
		c0,0.4-0.2,0.7-0.5,0.7c-0.3,0-0.5-0.3-0.5-0.7C51.5,110.8,51.8,110.8,52,110.8L52,110.8z M52.2,114.9L52.2,114.9
		c-0.3,0-0.6-0.3-0.6-0.6s0.2-0.6,0.6-0.6c0.3,0,0.6,0.3,0.6,0.6S52.5,114.9,52.2,114.9L52.2,114.9z M52.7,112.4L52.7,112.4
		c0-0.4,0.2-0.5,0.4-0.5c0.2,0,0.4,0.1,0.4,0.5c0,0.4-0.2,0.7-0.4,0.7C52.9,113.1,52.7,112.8,52.7,112.4L52.7,112.4z M53.7,115.4
		L53.7,115.4c-0.2,0-0.4-0.2-0.4-0.5c0-0.3,0.2-0.5,0.4-0.5c0.2,0,0.4,0.2,0.4,0.5C54.1,115.2,53.9,115.4,53.7,115.4L53.7,115.4z
		 M54.1,113.9L54.1,113.9c-0.2,0-0.4-0.2-0.4-0.4c0-0.2,0.2-0.4,0.4-0.4c0.2,0,0.4,0.2,0.4,0.4C54.5,113.7,54.3,113.9,54.1,113.9
		L54.1,113.9z M54.4,111.5L54.4,111.5c-0.3,0-0.6-0.3-0.6-0.7c0-0.4,0.3-0.3,0.6-0.3c0.3,0,0.5-0.1,0.5,0.3
		C55,111.2,54.7,111.5,54.4,111.5L54.4,111.5z M55.5,115L55.5,115c-0.3,0-0.5-0.4-0.5-0.8c0-0.5,0.2-0.5,0.5-0.5
		c0.3,0,0.9-0.1,0.9,0.4C56.3,114.4,55.8,115,55.5,115L55.5,115z M57.2,116.9L57.2,116.9c-0.3,0-0.5-0.2-0.5-0.5
		c0-0.3,0.1-0.6,0.4-0.6c0.3,0,0.7,0.4,0.7,0.6C57.8,116.7,57.5,116.9,57.2,116.9L57.2,116.9z M57.5,115.3L57.5,115.3
		c-0.3,0-0.6-0.3-0.6-0.7c0-0.4,0.2-0.2,0.6-0.2c0.3,0,0.6-0.2,0.6,0.2C58.1,114.9,57.8,115.3,57.5,115.3L57.5,115.3z M58.9,118
		L58.9,118c-0.3,0-0.5-0.3-0.5-0.7c0-0.4,0.2-0.7,0.5-0.7c0.3,0,0.8,0.4,0.8,0.8C59.7,117.7,59.2,118,58.9,118L58.9,118z
		 M59.2,113.3L59.2,113.3c-0.3,0-0.6-0.3-0.6-0.6c0-0.3,0.2-0.3,0.5-0.3c0.3,0,0.6,0,0.6,0.3C59.8,113.1,59.6,113.3,59.2,113.3
		L59.2,113.3z M124,113.5L124,113.5c0-0.2,0.2-0.4,0.4-0.4c0.2,0,0.4,0.2,0.4,0.4c0,0.2-0.2,0.4-0.4,0.4
		C124.1,113.9,124,113.7,124,113.5L124,113.5z M124.8,115.4L124.8,115.4c-0.2,0-0.4-0.2-0.4-0.5c0-0.3,0.2-0.5,0.4-0.5
		c0.2,0,0.4,0.2,0.4,0.5C125.2,115.2,125,115.4,124.8,115.4L124.8,115.4z M125.4,113.1L125.4,113.1c-0.2,0-0.4-0.3-0.4-0.7
		c0-0.4,0.2-0.5,0.4-0.5s0.4,0.1,0.4,0.5C125.8,112.8,125.6,113.1,125.4,113.1L125.4,113.1z M126.3,114.9L126.3,114.9
		c-0.3,0-0.6-0.3-0.6-0.6s0.2-0.6,0.6-0.6c0.3,0,0.6,0.3,0.6,0.6S126.6,114.9,126.3,114.9L126.3,114.9z M130.7,113L130.7,113
		c0,0.5-0.4,0.9-0.8,0.9c-0.5,0-0.8-0.4-0.8-0.9c0-0.5,0.4-0.9,0.8-0.9C130.4,112.1,130.7,112.5,130.7,113L130.7,113z M129.3,109.1
		L129.3,109.1c0.3,0,0.5,0,0.5,0.4c0,0.4-0.3,0.8-0.6,0.8c-0.3,0-0.6-0.4-0.6-0.8C128.6,109.1,129,109.1,129.3,109.1L129.3,109.1z
		 M128.6,113.7L128.6,113.7c0,0.4-0.3,0.7-0.7,0.7c-0.4,0-0.7-0.3-0.7-0.7c0-0.4,0.3-0.7,0.7-0.7C128.3,113,128.6,113.3,128.6,113.7
		L128.6,113.7z M128.2,110.2L128.2,110.2c0,0.5-0.3,0.8-0.6,0.8c-0.3,0-0.6-0.4-0.6-0.8c0-0.5,0.3-0.6,0.6-0.6
		C128,109.7,128.2,109.7,128.2,110.2L128.2,110.2z M127.4,106.6L127.4,106.6c0.4,0,0.4,0.4,0.4,0.7c0,0.3-0.3,0.6-0.7,0.6
		c-0.4,0-0.7-0.2-0.7-0.6C126.5,107,127,106.6,127.4,106.6L127.4,106.6z M126.9,111.2L126.9,111.2c0,0.4-0.2,0.7-0.5,0.7
		s-0.5-0.3-0.5-0.7c0-0.4,0.2-0.4,0.4-0.4C126.7,110.8,126.9,110.8,126.9,111.2L126.9,111.2z M125.8,107.9L125.8,107.9
		c0.3,0,0.6,0,0.6,0.3c0,0.3-0.2,0.6-0.6,0.6c-0.3,0-0.6-0.2-0.6-0.6C125.3,107.9,125.5,107.9,125.8,107.9L125.8,107.9z
		 M124.8,109.2L124.8,109.2c0.3,0,0.7,0,0.7,0.3c0,0.3-0.3,0.6-0.6,0.6c-0.3,0-0.6-0.3-0.6-0.6C124.4,109.2,124.5,109.2,124.8,109.2
		L124.8,109.2z M124,110.5L124,110.5c0.3,0,0.6-0.1,0.6,0.3c0,0.4-0.2,0.7-0.6,0.7c-0.3,0-0.6-0.3-0.6-0.7
		C123.5,110.4,123.7,110.5,124,110.5L124,110.5z M123,113.6L123,113.6c0.3,0,0.5,0.1,0.5,0.5c0,0.5-0.2,0.8-0.5,0.8
		c-0.3,0-0.8-0.5-0.8-1C122.2,113.5,122.7,113.6,123,113.6L123,113.6z M121.7,116.4L121.7,116.4c0,0.3-0.2,0.5-0.5,0.5
		c-0.3,0-0.5-0.2-0.5-0.5c0-0.3,0.4-0.6,0.7-0.6C121.7,115.8,121.7,116.2,121.7,116.4L121.7,116.4z M121,114.3L121,114.3
		c0.3,0,0.6-0.2,0.6,0.2c0,0.4-0.3,0.7-0.6,0.7c-0.3,0-0.6-0.3-0.6-0.7C120.3,114.1,120.6,114.3,121,114.3L121,114.3z M120,117.2
		L120,117.2c0,0.4-0.2,0.7-0.5,0.7c-0.3,0-0.8-0.2-0.8-0.6c0-0.4,0.5-0.8,0.8-0.8C119.8,116.5,120,116.8,120,117.2L120,117.2z
		 M119.3,112.5L119.3,112.5c0.3,0,0.5,0,0.5,0.3c0,0.3-0.2,0.6-0.6,0.6c-0.3,0-0.6-0.3-0.6-0.6C118.6,112.4,119,112.5,119.3,112.5
		L119.3,112.5z M117.4,110.8L117.4,110.8c0.3,0,0.5-0.2,0.5,0.1c0,0.3-0.2,0.6-0.5,0.6c-0.3,0-0.5-0.2-0.5-0.6
		C116.9,110.7,117.1,110.8,117.4,110.8L117.4,110.8z M115.7,109.2L115.7,109.2c0.4,0,0.6-0.1,0.6,0.3c0,0.4-0.3,0.7-0.6,0.7
		s-0.6-0.3-0.6-0.7C115,109.1,115.3,109.2,115.7,109.2L115.7,109.2z M114,107.4L114,107.4c0.3,0,0.5-0.2,0.5,0.2
		c0,0.4-0.2,0.7-0.6,0.7c-0.3,0-0.6-0.3-0.6-0.7C113.4,107.3,113.7,107.4,114,107.4L114,107.4z M111.9,105.3L111.9,105.3
		c0.4,0,0.7-0.3,0.7,0.2c0,0.5-0.3,0.8-0.6,0.8c-0.4,0-0.6-0.4-0.6-0.8C111.3,105,111.5,105.3,111.9,105.3L111.9,105.3z M146,77.4
		L146,77.4c0,0,0.1,5.1-1.5,5c-1.6-0.1-2.5-18.6-2.5-18.6s2.1,12.9,2.7,14.2C145.1,79.3,146,77.4,146,77.4L146,77.4z M113.9,63.9
		L113.9,63.9c0,0,2.5,4.2,3.1,4.4c0.6,0.2,0.9-0.8,0.9-0.8s0.7,0.8-0.1,2.4C116.6,72.2,113.9,63.9,113.9,63.9L113.9,63.9z
		 M113.8,71.1L113.8,71.1c-0.9,0.2-3.3-6.4-3.3-6.4s2.7,4.9,3,4.9c0.3,0,0.8-1.1,0.8-1.1S114.6,70.9,113.8,71.1L113.8,71.1z
		 M117.4,61.8L117.4,61.8c0,0,3.2,4.6,3.7,4.4c0.5-0.2,0.2-2.3,0.2-2.3s2,3,0.3,3.9C119.8,68.8,117.4,61.8,117.4,61.8L117.4,61.8z
		 M120.5,59.6L120.5,59.6c0,0,2.9,4.2,3.6,4.1c0.7-0.1,0.8-2,0.8-2s1.1,3.7-0.3,4.2C123.4,66.4,120.5,59.6,120.5,59.6L120.5,59.6z
		 M123.1,55.3L123.1,55.3c0,0,3.4,5.1,4.3,5.2c1,0.1-1.3-5.3-1.3-5.3s4.2,6.7,2.4,7.9C126.7,64.1,123.1,55.3,123.1,55.3L123.1,55.3z
		 M121.1,47.3L121.1,47.3c0,0,4.5,3.7,5.8,5.2c2.5,2.5,3.3,4.6,3.9,4.4c1.1-0.3-2.4-5.4-2.4-5.4s3,3.9,3.6,5.2
		c0.8,1.9-0.3,3.3-1.2,1.9C128.2,54.8,121.1,47.3,121.1,47.3L121.1,47.3z M132.6,50.1L132.6,50.1c0,0,3.3,4.1,1.8,5.2
		c-1.5,1.1-7.1-7.7-7.1-7.7s5.3,5.1,6,5.4C134.1,53.3,132.6,50.1,132.6,50.1L132.6,50.1z M134.6,67.9L134.6,67.9
		c0.5,0,1.4-0.7,1.4-0.7s0.4,3.9-1.1,4.2c-1.4,0.3-4.5-11.1-4.5-11.1S134.2,68,134.6,67.9L134.6,67.9z M134.3,72.8L134.3,72.8
		c0,0,1.1,12.8,2,12.7c0.9-0.1,1.8-4.1,1.8-4.1s-0.7,7.8-2.4,7.6C134.1,88.8,134.3,72.8,134.3,72.8L134.3,72.8z M133.6,56.6
		L133.6,56.6c0,0,5,7.6,5.2,7.5c0.3-0.1,0.8-1,0.8-1s1.2,4.2-0.1,4.4C138.2,67.6,133.6,56.6,133.6,56.6L133.6,56.6z M140.8,83.1
		L140.8,83.1c0.7,0.5,1.2-1.8,1.2-1.8s0.3,4.6-1.6,4.6c-1.9,0-2-17.3-2-17.3S140.1,82.5,140.8,83.1L140.8,83.1z M141.7,59.6
		L141.7,59.6c0.4,0,1.1-0.5,1.1-0.5s1.4,3.2-0.1,3.6c-1.5,0.4-5.7-9.5-6.1-10.3c0,0,0,0,0,0c0,0,0,0,0,0
		C137,53,141.4,59.5,141.7,59.6L141.7,59.6z M136.8,51L136.8,51c-0.5,1-5.3-5.1-5.3-5.1S137.3,50,136.8,51L136.8,51z M130.1,45.4
		L130.1,45.4c-1.1,1.1-2.5-2.4-2.5-2.4S131.2,44.3,130.1,45.4L130.1,45.4z M104.8,59.4L104.8,59.4c0,0-0.2-0.4,0.9,0
		c1.1,0.4,1.8,0.9,3.2,1.4c1.4,0.5,1.8-0.4,3.2-1.4c1.4-1,2.2-1.8,4.4-1.6c1.2,0.1,0.8,0,1.4-0.8c0.7-1-1.9-4.1-3.2-6.6
		c-1.4-2.5-1.1-5.1,0.3-6.7c1.3-1.6,3.6-2.4,5.2-2.5c1.6-0.2,5.1,0.4,5.9,0.7c0.7,0.4-0.9,0.6-0.3,1.5c0.7,0.9,2.1,1.8,2.1,2.9
		c-0.7-0.4-1.6-0.2-3-0.4c-1.4-0.2-1.7-0.7-2.4-2.2c-0.7-1.5-1.7-1.3-1.9-0.5c-0.2,0.8,2,2.4,1.5,3.3c-1.2-0.5-2.5-1.1-3.8-1.2
		c-1.3-0.2-2.6,0.6-0.7,1.2c1.9,0.6,4.9,3.9,3.6,4.3c-1.2,0.3-3.3-1.4-3.8-0.2c2.5,1.1,5.3,4.3,4.7,4.7c-0.6,0.4-2.3-0.7-2.7,0
		c-0.4,0.7,2,2.5,1.9,3.3c0,0.8-2.3-0.2-3.1-0.1c-0.8,0,0.3,1.6-0.4,2.3c-0.7,0.7-1.5-0.7-2.7-0.3c-1.2,0.4-0.3,2.1-1.2,2.4
		c-1,0.4-1.8-0.8-2.7-0.7c-0.9,0.2,0.2,1.4-0.8,1.6c-1,0.2-1.9-1.8-2.9-2c-1-0.2-0.5,1.6-1.8,1.1C104.7,62.2,103.9,59.9,104.8,59.4
		L104.8,59.4z M103.6,91.2L103.6,91.2c0.6,0,1.1-1.5,1-0.1c0,0.5-0.5,1-1,1c-0.6,0-1.1-0.4-1-1C102.9,89.6,103,91.2,103.6,91.2
		L103.6,91.2z M102.4,76.8L102.4,76.8l0.2,0.1c0,0,0.6,1,0.7,1.1c0.1,0.2-0.5,1.6-1.1,1.3C101.6,79.1,102.4,76.8,102.4,76.8
		L102.4,76.8z M101.3,61.3L101.3,61.3c0.3,0.6-0.6,0.9-1.1,0.5c-0.4-0.4-0.6-2.1-0.6-2.1S101.1,60.7,101.3,61.3L101.3,61.3z
		 M99.8,69.8L99.8,69.8c0,0.3,0.1,1.9-0.5,1.1c-0.7-0.8-0.7-3.9-0.7-3.9S99.7,69.5,99.8,69.8L99.8,69.8z M96.4,97.9L96.4,97.9
		c0,0,0.4,0.3,0.8,1.2c0.4,0.9,1,7.5,0.8,8.2c-0.1,0.7-0.7-1-0.7-2.8C97.4,102.7,96.4,97.9,96.4,97.9L96.4,97.9z M96.1,93.6
		L96.1,93.6c0.1,0.8,0.4,3.8-0.7,2.9c-1-1,0.6-7.1,0.6-7.1S96,92.9,96.1,93.6L96.1,93.6z M95.9,87.7L95.9,87.7
		c-0.8,0.9-1.3,1.1-2.5-1.4c-1.1-2.5,1.3-7,1.3-7s-0.4,6.6,0.6,6.5c0.9,0,2.7-5.5,2.7-5.5S96.7,86.8,95.9,87.7L95.9,87.7z
		 M93.7,40.2L93.7,40.2c0.6-0.2,1.5-1.4,1.4-0.8C94.9,40,94,42.9,92.9,42c-1.1-1,0.8-5,0.8-5S93.1,40.4,93.7,40.2L93.7,40.2z
		 M95.3,71.3L95.3,71.3c-1.6-1.4-2.1-9-2.1-9s2.4,6.8,2.8,6.6c0.4-0.2,0.8-6.2,0.8-6.2s0.3,4.3,0.3,6C97,70.4,96.9,72.6,95.3,71.3
		L95.3,71.3z M96.2,79.7L96.2,79.7c-0.5-0.7-0.4-3.2-0.4-3.4c0,0,1,1.3,1.1,1.8C97,78.8,96.7,80.5,96.2,79.7L96.2,79.7z M95.6,63.8
		L95.6,63.8C94.7,63,94.2,59,94.2,59s1.2,2.7,1.4,3.5C96,63.2,96.4,64.7,95.6,63.8L95.6,63.8z M93.8,48.3L93.8,48.3
		c-1.1-1.2-0.5-5.2-0.5-5.2s0.6,3.9,0.6,3.5c0-0.5,0.8-0.3,0.9,0.4C94.9,47.7,94.9,49.5,93.8,48.3L93.8,48.3z M96.5,52.5L96.5,52.5
		c0.4,0.7,0.2,1.4-0.7,0.6c-0.9-0.9-1-3.2-1-3.2S96.1,51.8,96.5,52.5L96.5,52.5z M95.2,45.9L95.2,45.9c-0.4-0.5-0.2-2.1-0.2-2.1
		l0.2,0c0,0,0.7,1,1,1.4C96.5,45.5,95.6,46.4,95.2,45.9L95.2,45.9z M93.1,52.9L93.1,52.9c0.3-0.5,0.7-2,0.8-1.4
		c0.1,0.6,0.2,3.7-0.9,3.3c-1.1-0.4-1.8-5.9-1.8-5.9S92.8,53.3,93.1,52.9L93.1,52.9z M93.4,70.7L93.4,70.7c0,0.3-0.3,1.7-0.7,0.5
		c-0.4-1.2-0.5-4-0.5-4S93.4,70.4,93.4,70.7L93.4,70.7z M93.2,75.9L93.2,75.9c0.7-0.4,1.2-4,1.5-2.9c0.3,1.1-1.5,7.1-2.3,6.9
		c-0.8-0.2-2.1-3.6-2.2-5.3c-0.1-1.6,1.2-4.4,1.2-4.4s0.5,2.2,0.6,3.2C92,74.3,92.5,76.2,93.2,75.9L93.2,75.9z M91,79.6L91,79.6
		c0,0,0.7,3,0.7,3.9c0.1,0.9-2.3,5.4-2.3,5.4v-2.2L91,79.6L91,79.6z M90.4,89.8L90.4,89.8c0,0,1,5,1.5,4.6c0.5-0.4,1.9-4.6,2-3.9
		c0.1,0.7-1.7,7.5-2.6,6.8C90.3,96.5,90.4,89.8,90.4,89.8L90.4,89.8z M94.3,97.7L94.3,97.7c0,0.4-0.2,2-0.6,1.2
		c-0.4-0.8,0-3.3,0-3.3S94.2,97.3,94.3,97.7L94.3,97.7z M94,103.3L94,103.3c0.4-0.5,0.9-3.7,1.1-3.2c0.1,0.5-0.4,6.7-1.4,5.7
		c-1.1-1-1.4-7.5-1.4-7.5S93.6,103.8,94,103.3L94,103.3z M97.2,91.5L97.2,91.5c-0.5-0.7,0.4-3.9,0.4-3.9s0.3,1.1,0.3,1.6
		C98,89.7,97.7,92.1,97.2,91.5L97.2,91.5z M98.1,96.2L98.1,96.2c0,0,0.8,0.6,0.9,1c0.1,0.4-0.3,1-0.7,0.6
		C97.9,97.3,98.1,96.2,98.1,96.2L98.1,96.2z M98.1,79L98.1,79c-1.2-1-0.3-8.3-0.3-8.3s1.2,4.8,1.4,5.9C99.4,77.7,99.3,80,98.1,79
		L98.1,79z M96.9,61.3L96.9,61.3C94.5,60.4,95,54,95,54s0.4,2.2,0.5,3.4c0.1,1.2,1.9,1.4,2.4,2.2C98.4,60.5,99.2,62.2,96.9,61.3
		L96.9,61.3z M109.8,31.8L109.8,31.8c-0.5-0.1-0.7-1.4-0.7-1.4s0.8,0.2,1.1,0.3C110.6,30.8,110.3,31.8,109.8,31.8L109.8,31.8z
		 M104.9,27.9L104.9,27.9c0.7,0.1,2-0.3,3.6-0.4c1.6-0.1,3.3,0.4,3.8,0.9c0.4,0.5,0.5,1.3-0.3,0.8c-0.7-0.5-3.1-1-4.4-0.7
		c-1.3,0.2-1.8,1.2-3.1,1.2c-1.3,0-1.7-1.7-1.7-1.7S104.2,27.8,104.9,27.9L104.9,27.9z M105.4,30.7L105.4,30.7
		c1.4,0.2,2.3-1.3,2.1-0.6c-0.2,0.7,1.1,1.6,1.2,2.5c0,0.9-1.3,2.1-3.6,2c-2.3-0.1-2.8-4.4-2.8-4.4S104,30.5,105.4,30.7L105.4,30.7z
		 M101.6,31.1L101.6,31.1c0.2,0.7,1.8,4,0.4,3c-1.4-1-1.4-4.6-1.4-4.6S101.3,30.4,101.6,31.1L101.6,31.1z M98.9,29.6L98.9,29.6
		c0,0,1.7,3.9,1.9,4.3c0.2,0.4,0.8,1.6-0.8,0.5C98.5,33.3,98.5,29.9,98.9,29.6L98.9,29.6z M98.3,33.6L98.3,33.6c0,0-0.7,1.4-1,2.1
		C97,36.3,97.8,36.8,98,37c0.1,0.2-1.5,4.4-1.7,1.3C96.2,35.1,98.3,33.6,98.3,33.6L98.3,33.6z M96.5,32.7L96.5,32.7
		c0,0,0.5,0.3,0.7,0.7c0.2,0.4-0.2,0.6-0.8,0.4C95.7,33.4,96.5,32.7,96.5,32.7L96.5,32.7z M96,40.2L96,40.2c0,0,0.7,0.9,0.9,1.4
		c0.2,0.4,0,2-0.7,1C95.6,41.6,96,40.2,96,40.2L96,40.2z M94.9,32.6L94.9,32.6c0,0-0.5,1.3-0.4,1.5c0.1,0.3,1.2,0,1.1,0.4
		c-0.1,0.3-1.4,0.9-2,0.2C93,33.9,94.9,32.6,94.9,32.6L94.9,32.6z M92.7,35.8L92.7,35.8c0,0-0.2,1.4-0.7,2.1
		c-0.4,0.7-0.8,1.8-1.5,1.6C89.7,39.3,92.5,35.9,92.7,35.8L92.7,35.8z M91.3,40.8L91.3,40.8c0,0-0.6,3.1-0.4,3.9
		c0.2,0.8,0.7-0.3,0.8,0.1c0.1,0.4-0.3,3.9-1.2,1.5C89.7,44,90.8,41.5,91.3,40.8L91.3,40.8z M91.2,58.8L91.2,58.8
		c0.3,1,0.9,0.5,1.1-0.7c0.3-1.2,0.5-2.9,0.7-1.9c0.2,0.9,0.4,6.5-1,5.8c-1.4-0.7-2-6.1-2-6.1S91,57.9,91.2,58.8L91.2,58.8z
		 M89.4,68.2L89.4,68.2c0,0,0,0,0.5-0.3c0.5-0.3,1-5.7,1-5.7s0.4,3.9,0.4,4.6c0,0.7-1.8,4.7-1.8,4.7V68.2L89.4,68.2z M90,102.7
		L90,102.7c0.1-0.2,0.7-4.3,0.9-3.6c0.2,0.7-1.1,6.2-1.5,6.9v0.1c0,0,0,0,0,0c0,0,0,0,0,0V106c-0.4-0.7-1.8-6.2-1.5-6.9
		c0.3-0.7,0.8,3.3,0.9,3.6c0.1,0.2,0.5,0.4,0.7,0.5C89.5,103.1,89.9,102.9,90,102.7L90,102.7z M82.5,87.7L82.5,87.7
		c-0.8-0.9-2.1-7.3-2.1-7.3s1.8,5.5,2.7,5.5c0.9,0,0.6-6.5,0.6-6.5s2.5,4.5,1.3,7C83.8,88.8,83.3,88.6,82.5,87.7L82.5,87.7z
		 M82.9,96.5L82.9,96.5c-1,1-0.7-2.1-0.7-2.9c0.1-0.8,0.1-4.3,0.1-4.3S83.9,95.5,82.9,96.5L82.9,96.5z M81.1,104.5L81.1,104.5
		c0,1.8-0.6,3.4-0.7,2.8c-0.1-0.7,0.4-7.3,0.8-8.2c0.4-0.9,0.8-1.2,0.8-1.2S81,102.7,81.1,104.5L81.1,104.5z M80.3,96.2L80.3,96.2
		c0,0,0.2,1.1-0.2,1.5c-0.4,0.4-0.8-0.2-0.7-0.6C79.5,96.8,80.3,96.2,80.3,96.2L80.3,96.2z M79.2,76.6L79.2,76.6
		c0.2-1.1,1.4-5.9,1.4-5.9s0.9,7.3-0.3,8.3C79.1,80,79,77.7,79.2,76.6L79.2,76.6z M80.5,89.1L80.5,89.1c0-0.5,0.3-1.6,0.3-1.6
		s1,3.3,0.4,3.9C80.7,92.1,80.4,89.7,80.5,89.1L80.5,89.1z M84.6,37L84.6,37c0,0,1.9,4,0.8,5c-1.1,1-2-2-2.1-2.6
		c-0.1-0.6,0.8,0.7,1.4,0.8C85.3,40.4,84.6,37,84.6,37L84.6,37z M88.3,74.7L88.3,74.7c-0.1,1.6-1.4,5-2.2,5.3
		c-0.8,0.2-2.6-5.7-2.3-6.9c0.3-1.1,0.8,2.5,1.5,2.9c0.7,0.4,1.1-1.5,1.2-2.5c0.1-0.9,0.6-3.2,0.6-3.2S88.4,73,88.3,74.7L88.3,74.7z
		 M88.9,86.7L88.9,86.7v2.2c0,0-2.4-4.5-2.3-5.4c0.1-0.9,0.7-3.9,0.7-3.9L88.9,86.7L88.9,86.7z M85.7,71.2L85.7,71.2
		C85.3,72.4,85,71,85,70.7c0-0.3,1.2-3.5,1.2-3.5S86.2,70,85.7,71.2L85.7,71.2z M84.5,51.4L84.5,51.4c0.1-0.6,0.5,0.9,0.8,1.4
		c0.3,0.5,1.8-4,1.8-4s-0.6,5.5-1.8,5.9C84.2,55.1,84.4,52,84.5,51.4L84.5,51.4z M83.6,47L83.6,47c0.1-0.7,0.9-0.9,0.9-0.4
		c0,0.5,0.6-3.5,0.6-3.5s0.5,4-0.5,5.2C83.5,49.5,83.5,47.7,83.6,47L83.6,47z M83.4,43.8L83.4,43.8c0,0,0.2,1.7-0.2,2.1
		c-0.4,0.5-1.3-0.4-1-0.8c0.3-0.4,1-1.4,1-1.4L83.4,43.8L83.4,43.8z M83.5,49.9L83.5,49.9c0,0,0,2.3-1,3.2c-0.9,0.9-1.1,0.2-0.7-0.6
		C82.3,51.8,83.5,49.9,83.5,49.9L83.5,49.9z M84.2,59L84.2,59c0,0-0.5,4-1.3,4.8c-0.8,0.8-0.4-0.6-0.1-1.4C83,61.7,84.2,59,84.2,59
		L84.2,59z M82.4,68.8L82.4,68.8c0.4,0.2,2.8-6.6,2.8-6.6s-0.4,7.7-2.1,9c-1.6,1.4-1.8-0.9-1.8-2.6c0-1.8,0.3-6,0.3-6
		S82.1,68.6,82.4,68.8L82.4,68.8z M82.2,79.7L82.2,79.7c-0.5,0.7-0.7-1-0.7-1.5c0.1-0.6,1.1-1.8,1.1-1.8
		C82.6,76.5,82.7,79,82.2,79.7L82.2,79.7z M84.1,97.7L84.1,97.7c0-0.4,0.6-2.1,0.6-2.1s0.4,2.5,0,3.3C84.3,99.7,84.1,98.1,84.1,97.7
		L84.1,97.7z M83.3,100.1L83.3,100.1c0.1-0.5,0.7,2.7,1.1,3.2c0.4,0.5,1.8-5,1.8-5s-0.4,6.4-1.4,7.5
		C83.7,106.8,83.2,100.7,83.3,100.1L83.3,100.1z M84.6,90.5L84.6,90.5c0.1-0.7,1.4,3.5,2,3.9c0.5,0.4,1.5-4.6,1.5-4.6
		s0.1,6.7-0.8,7.4C86.3,97.9,84.5,91.2,84.6,90.5L84.6,90.5z M88.9,67.9L88.9,67.9c0.5,0.3,0.5,0.3,0.5,0.3v3.3c0,0-1.8-4-1.8-4.7
		s0.4-4.6,0.4-4.6S88.4,67.6,88.9,67.9L88.9,67.9z M86.3,61.9L86.3,61.9c-1.4,0.7-1.2-4.9-1-5.8c0.2-0.9,0.4,0.7,0.7,1.9
		c0.3,1.2,0.9,1.7,1.1,0.7c0.3-1,1.1-3,1.1-3S87.7,61.2,86.3,61.9L86.3,61.9z M87.8,46.4L87.8,46.4c-0.9,2.4-1.3-1.1-1.2-1.5
		c0.1-0.4,0.7,0.7,0.8-0.1c0.2-0.8-0.4-3.9-0.4-3.9C87.6,41.5,88.7,44,87.8,46.4L87.8,46.4z M87.9,39.6L87.9,39.6
		c-0.7,0.3-1.1-0.9-1.5-1.6c-0.4-0.7-0.7-2.1-0.7-2.1C85.9,35.9,88.7,39.3,87.9,39.6L87.9,39.6z M83.9,34.1L83.9,34.1
		c0.1-0.3-0.4-1.5-0.4-1.5s1.9,1.3,1.3,2.1c-0.6,0.7-1.9,0.1-2-0.2C82.7,34.2,83.9,34.4,83.9,34.1L83.9,34.1z M82.4,40.2L82.4,40.2
		c0,0,0.4,1.4-0.3,2.4c-0.7,1-0.9-0.6-0.7-1C81.7,41.1,82.4,40.2,82.4,40.2L82.4,40.2z M81.2,33.3L81.2,33.3
		c0.2-0.4,0.7-0.7,0.7-0.7s0.7,0.7,0.1,1C81.4,33.9,81,33.7,81.2,33.3L81.2,33.3z M80.4,37L80.4,37c0.1-0.2,1-0.7,0.7-1.3
		c-0.3-0.6-1-2.1-1-2.1s2.1,1.4,2,4.6C82,41.4,80.3,37.2,80.4,37L80.4,37z M80.5,59.7L80.5,59.7c0.5-0.8,2.3-1,2.4-2.2
		c0.1-1.2,0.5-3.4,0.5-3.4s0.5,6.4-1.8,7.3C79.2,62.2,80,60.5,80.5,59.7L80.5,59.7z M79.2,71L79.2,71c-0.7,0.8-0.6-0.8-0.5-1.1
		c0-0.3,1.2-2.7,1.2-2.7S79.8,70.2,79.2,71L79.2,71z M77.1,61.3L77.1,61.3c0.3-0.6,1.6-1.5,1.6-1.5s-0.1,1.7-0.6,2.1
		C77.7,62.2,76.8,61.9,77.1,61.3L77.1,61.3z M75.2,78.1L75.2,78.1c0.1-0.2,0.7-1.1,0.7-1.1l0.2-0.1c0,0,0.8,2.3,0.2,2.6
		C75.7,79.7,75.1,78.3,75.2,78.1L75.2,78.1z M74.8,91.2L74.8,91.2c0.6,0,0.7-1.6,1-0.1c0.1,0.5-0.5,1-1,1c-0.6,0-1-0.4-1-1
		C73.8,89.7,74.3,91.2,74.8,91.2L74.8,91.2z M71.8,93.7L71.8,93.7c0-0.7,0.5,0.2,1.2,0.2S74,93,74,93.7c0,0.7-0.5,1.3-1.1,1.3
		C72.3,95,71.8,94.4,71.8,93.7L71.8,93.7z M72.1,96.6L72.1,96.6c0,0.6-0.5,1.1-1.2,1.1c-0.6,0-1.2-0.5-1.2-1.1c0-0.6,0.5,0,1.2,0
		C71.5,96.6,72.1,96,72.1,96.6L72.1,96.6z M50.8,43L50.8,43c0,0-1.4,3.5-2.5,2.4C47.3,44.3,50.8,43,50.8,43L50.8,43z M60.7,69.9
		L60.7,69.9c-0.8-1.6-0.1-2.4-0.1-2.4s0.3,1.1,0.9,0.8c0.6-0.2,3.1-4.4,3.1-4.4S61.8,72.2,60.7,69.9L60.7,69.9z M65,69.7L65,69.7
		c0.3,0,3-4.9,3-4.9s-2.5,6.6-3.3,6.4c-0.9-0.2-0.5-2.5-0.5-2.5S64.7,69.6,65,69.7L65,69.7z M56.9,67.9L56.9,67.9
		c-1.7-0.9,0.3-3.9,0.3-3.9s-0.3,2.1,0.2,2.3c0.5,0.2,3.7-4.4,3.7-4.4S58.6,68.8,56.9,67.9L56.9,67.9z M53.8,65.9L53.8,65.9
		c-1.3-0.5-0.3-4.2-0.3-4.2s0,1.9,0.8,2c0.7,0.1,3.6-4.1,3.6-4.1S55.1,66.4,53.8,65.9L53.8,65.9z M38.9,67.5L38.9,67.5
		c-1.3-0.2-0.1-4.4-0.1-4.4s0.6,0.9,0.8,1c0.3,0.1,5.2-7.5,5.2-7.5S40.2,67.6,38.9,67.5L38.9,67.5z M40,68.5L40,68.5
		c0,0-0.1,17.3-2,17.3c-1.9,0-1.6-4.6-1.6-4.6s0.5,2.3,1.2,1.8C38.4,82.5,40,68.5,40,68.5L40,68.5z M42.2,85.5L42.2,85.5
		c0.9,0.1,2-12.7,2-12.7s0.2,16.1-1.5,16.2c-1.7,0.2-2.4-7.6-2.4-7.6S41.3,85.4,42.2,85.5L42.2,85.5z M43.5,71.4L43.5,71.4
		c-1.4-0.3-1.1-4.2-1.1-4.2s1,0.7,1.4,0.7c0.5,0,4.1-7.5,4.1-7.5S44.9,71.8,43.5,71.4L43.5,71.4z M46.6,70.7L46.6,70.7
		c0,0,0.7,0.6,1,0.6c0.3,0,3.4-6.9,3.7-7.5c0,0,0,0,0,0c0,0,0,0,0,0c-0.3,0.8-3,11.5-4.1,11.6C46.1,75.6,46.6,70.7,46.6,70.7
		L46.6,70.7z M50.5,73.5L50.5,73.5c0,0,0.4,0.8,0.9,0.9c0.5,0,3.5-7.9,3.5-7.9s-2.6,11.2-4,11.1C49.5,77.5,50.5,73.5,50.5,73.5
		L50.5,73.5z M49.9,63L49.9,63c-1.8-1.1,2.4-7.9,2.4-7.9S50,60.5,51,60.4c1-0.1,4.3-5.2,4.3-5.2S51.7,64.1,49.9,63L49.9,63z
		 M47.6,58.6L47.6,58.6c-0.9,1.3-2,0-1.2-1.9c0.5-1.3,3.5-5.2,3.5-5.2s-3.4,5-2.4,5.4c0.6,0.2,1.5-1.8,3.9-4.4
		c1.4-1.4,5.8-5.2,5.8-5.2S50.3,54.8,47.6,58.6L47.6,58.6z M44.1,55.3L44.1,55.3c-1.5-1.1,1.8-5.2,1.8-5.2s-1.4,3.2-0.7,2.9
		c0.7-0.4,6-5.4,6-5.4S45.6,56.4,44.1,55.3L44.1,55.3z M47,45.9L47,45.9c0,0-4.8,6.1-5.3,5.1C41.2,50,47,45.9,47,45.9L47,45.9z
		 M35.7,59L35.7,59c0,0,0.7,0.6,1.1,0.5c0.3,0,4.7-6.6,5.1-7.2c0,0,0,0,0,0c0,0,0,0,0,0c-0.4,0.7-4.6,10.7-6.1,10.3
		C34.2,62.2,35.7,59,35.7,59L35.7,59z M32.5,77.4L32.5,77.4c0,0,0.9,1.9,1.4,0.7c0.5-1.2,2.7-14.2,2.7-14.2s-0.9,18.5-2.5,18.6
		C32.5,82.5,32.5,77.4,32.5,77.4L32.5,77.4z M30.2,115.5L30.2,115.5c1.4-3.7,3.9-11.1,4.5-18.5c0.6-7.5,0.4-13.6,0.4-13.6
		S38.3,114,30.2,115.5L30.2,115.5z M35.3,112.4L35.3,112.4c0,0,1.8-6.5,2.7-11.7c0.9-5.2,1.5-14.6,1.5-14.6S40.8,107.3,35.3,112.4
		L35.3,112.4z M39.3,108.7L39.3,108.7c0.9-5.5,2.8-9.8,3.2-12.4c0.4-2.6,1.3-6.7,1.3-6.7S43,103.6,39.3,108.7L39.3,108.7z
		 M43.7,102.6L43.7,102.6c0.7-4.4,2-5.3,2.3-7c0.4-1.7,1.2-4.7,1.2-4.7S46.5,99.3,43.7,102.6L43.7,102.6z M46.4,89.7L46.4,89.7
		c-1.3,0-1.4-4.1-1.4-5.6c-0.1-0.4-0.1-0.6,0-0.6c0,0,0,0.2,0,0.6c0.1,0.8,0.5,2.2,1.1,2.7c0.7,0.7,2.5-11.2,2.5-11.2
		S48.1,89.8,46.4,89.7L46.4,89.7z M50.2,88.9L50.2,88.9c-1.5-0.4-1.1-2.8-1.1-2.8s0.7,1.4,1.3,0.8c0.6-0.6,2.1-8.8,2.1-8.8
		S51.7,89.3,50.2,88.9L50.2,88.9z M53.8,86.2L53.8,86.2c-1.3-0.4-0.3-4-0.3-4s0.4,1.6,0.7,2c0.4,0.4,2-3.7,2-3.7
		S55.1,86.5,53.8,86.2L53.8,86.2z M54.7,79.9L54.7,79.9c-1.4-0.2-0.5-4.3-0.5-4.3s0.6,0.9,1.1,1c0.4,0.1,2.8-6.3,3.1-7.4
		c0-0.1,0-0.2,0.1-0.2c0,0,0,0.1-0.1,0.2C58,70.6,56,80.1,54.7,79.9L54.7,79.9z M58.2,81.1L58.2,81.1c-1.8-0.7,0.2-5.4,0.2-5.4
		s0.1,2.5,0.6,2.6c0.5,0,3.4-7.3,3.4-7.3S60,81.8,58.2,81.1L58.2,81.1z M62.3,81.3L62.3,81.3c-1.5-0.3-0.4-3.9-0.4-3.9
		s0.2,1.7,0.6,1.8s3.3-7.4,3.3-7.4S63.8,81.6,62.3,81.3L62.3,81.3z M65.7,81.9L65.7,81.9c-1.6-0.4,0.2-5.9,0.2-5.9s-0.2,3.2,0.4,3.2
		c0.6,0,3-6.1,3-6.1S67.3,82.2,65.7,81.9L65.7,81.9z M69.6,81.8L69.6,81.8c-1.2-0.3-0.1-4.9-0.1-4.9s0.1,2.2,0.4,2.3
		c0.4,0,2-5.3,2-5.3S70.8,82,69.6,81.8L69.6,81.8z M68.7,71.8L68.7,71.8c-1.4-0.3,0.2-4.9,0.2-4.9s-0.2,2.5,0.2,2.7
		c0.4,0.2,3.4-5.2,3.4-5.2S70.2,72.1,68.7,71.8L68.7,71.8z M72.5,62.8L72.5,62.8c-1.3,0.6-0.8-1.3-1.8-1.1c-1,0.2-1.9,2.2-2.8,2
		c-1-0.2,0.1-1.4-0.8-1.6c-0.9-0.2-1.7,1-2.7,0.7c-1-0.4,0-2.1-1.2-2.4c-1.2-0.4-2.1,1-2.7,0.3c-0.7-0.7,0.5-2.3-0.4-2.3
		c-0.8,0-3.1,0.9-3.1,0.1c0-0.8,2.3-2.6,1.9-3.3c-0.4-0.7-2.1,0.4-2.7,0c-0.6-0.4,2.2-3.6,4.7-4.7c-0.4-1.2-2.5,0.5-3.8,0.2
		c-1.2-0.3,1.7-3.6,3.6-4.3c1.9-0.6,0.7-1.4-0.7-1.2c-1.3,0.2-2.6,0.7-3.8,1.2c-0.5-0.9,1.8-2.5,1.5-3.3c-0.2-0.8-1.1-1.1-1.9,0.5
		c-0.7,1.5-1.1,2.1-2.4,2.2c-1.4,0.2-2.3,0-3,0.4c0-1.1,1.4-2,2.1-2.9c0.7-0.9-1-1.1-0.3-1.5c0.7-0.4,4.2-0.9,5.9-0.7
		c1.6,0.2,3.9,1,5.2,2.5c1.3,1.6,1.6,4.3,0.3,6.7c-1.4,2.5-3.9,5.6-3.2,6.6c0.6,0.9,0.2,0.9,1.4,0.8c2.1-0.2,3,0.6,4.4,1.6
		c1.4,1,1.8,1.9,3.2,1.4c1.4-0.5,2.1-1,3.2-1.4c1.1-0.4,0.9,0,0.9,0C74.5,59.9,73.7,62.2,72.5,62.8L72.5,62.8z M73.3,88.5L73.3,88.5
		c0.5,0,1-0.3,1,0.1c0,0.4-0.4,0.7-0.9,0.7c-0.5,0-0.9-0.3-0.9-0.7C72.6,88.3,72.9,88.5,73.3,88.5L73.3,88.5z M71.3,90.8L71.3,90.8
		c0.5,0,1.1-0.5,1.1,0.1c0,0.6-0.4,1.1-0.9,1.1c-0.5,0-0.9-0.5-0.9-1.1C70.5,90.3,70.8,90.8,71.3,90.8L71.3,90.8z M69.4,93.7
		L69.4,93.7c0.5,0,0.9-0.6,0.9,0c0,0.6-0.4,1.1-0.9,1.1c-0.5,0-0.9-0.5-0.9-1.1C68.5,93.1,68.9,93.7,69.4,93.7L69.4,93.7z M61,111.5
		L61,111.5c-0.3,0-0.5-0.2-0.5-0.6c0-0.3,0.3-0.1,0.5-0.1c0.3,0,0.5-0.2,0.5,0.1C61.5,111.3,61.3,111.5,61,111.5L61,111.5z
		 M62.8,110.2L62.8,110.2c-0.4,0-0.6-0.3-0.6-0.7c0-0.4,0.3-0.3,0.6-0.3c0.4,0,0.6-0.1,0.6,0.3C63.4,109.9,63.1,110.2,62.8,110.2
		L62.8,110.2z M64.5,108.4L64.5,108.4c-0.3,0-0.6-0.3-0.6-0.7c0-0.4,0.2-0.2,0.5-0.2c0.3,0,0.6-0.2,0.6,0.2
		C65.1,108.1,64.8,108.4,64.5,108.4L64.5,108.4z M66.5,106.3L66.5,106.3c-0.4,0-0.6-0.4-0.6-0.8c0-0.5,0.3-0.2,0.7-0.2
		c0.4,0,0.6-0.3,0.6,0.2C67.2,106,66.9,106.3,66.5,106.3L66.5,106.3z M68.5,104.3L68.5,104.3c-0.4,0-0.8-0.4-0.8-0.9
		c0-0.5,0.4-0.1,0.8-0.1c0.4,0,0.8-0.4,0.8,0.1C69.3,103.9,68.9,104.3,68.5,104.3L68.5,104.3z M68.9,98.9L68.9,98.9
		c0-0.4,0.4-0.3,0.9-0.3c0.5,0,0.8-0.1,0.8,0.3c0,0.4-0.4,0.8-0.8,0.8C69.2,99.7,68.9,99.4,68.9,98.9L68.9,98.9z M71,102.9L71,102.9
		c-0.6,0-1-0.4-1-0.9c0-0.5,0.4-0.3,1-0.3c0.6,0,1.1-0.2,1.1,0.3C72.1,102.4,71.6,102.9,71,102.9L71,102.9z M72.2,100.7L72.2,100.7
		c-0.7,0-1.2-0.5-1.2-1.2c0-0.7,0.8-0.1,1.5-0.1c0.7,0,1-0.5,1,0.1C73.5,100.2,72.9,100.7,72.2,100.7L72.2,100.7z M74.3,98.4
		L74.3,98.4c-0.5,0-0.9-0.5-0.9-1.1c0-0.6,0.5-0.3,1.1-0.3c0.5,0,0.8-0.3,0.8,0.3C75.2,97.9,74.8,98.4,74.3,98.4L74.3,98.4z
		 M76.1,95.7L76.1,95.7c-0.6,0-1.2-0.6-1.2-1.3c0-0.7,0.5,0.3,1.1,0.3c0.6,0,1.2-1,1.2-0.3C77.3,95.1,76.7,95.7,76.1,95.7L76.1,95.7
		z M77.5,67.6L77.5,67.6c-0.8,0.6-0.4-1.2,0-2.2c0.4-1,1.5-2.5,1.5-2.5S78.3,67,77.5,67.6L77.5,67.6z M77.6,85L77.6,85
		c-0.2-0.9,0.4-4.5,0.4-4.5s2.3,6.9,1.2,8.1C78.1,89.7,77.8,85.9,77.6,85L77.6,85z M69.6,136.4L69.6,136.4
		c-5.4-1.1,7.8-21.7,7.8-21.7s-8.3,16.3-5.5,16.4c2.7,0.2,9.5-22.4,9.5-22.4S75.7,137.7,69.6,136.4L69.6,136.4z M79.6,138.9
		L79.6,138.9c-7.9,1,3.6-30.1,3.6-30.1s-6.4,24.6-3.4,25.1c3,0.5,6.2-27.1,6.2-27.1S85,138.2,79.6,138.9L79.6,138.9z M93,138.6
		L93,138.6c-0.9,0.7-2.6,1.2-3.6,1.3v0c0,0,0,0,0,0c0,0,0,0,0,0v0c-0.9-0.1-2.7-0.6-3.5-1.3c-0.9-0.7,0-8.1,0.3-10.5
		c0.4-2.5,1.7-18.4,1.7-18.4s0.2,14.6,0.1,18.7c-0.1,3.7,1.2,5.8,1.5,6.2c0.2-0.4,1.6-2.4,1.5-6.2c-0.1-4.1,0.1-18.7,0.1-18.7
		s1.3,15.9,1.7,18.4C93,130.5,93.8,137.8,93,138.6L93,138.6z M98.8,138.9L98.8,138.9c-5.4-0.7-6.4-32-6.4-32s3.2,27.5,6.2,27.1
		c3-0.5-3.4-25.1-3.4-25.1S106.7,139.9,98.8,138.9L98.8,138.9z M106.5,131.2L106.5,131.2c2.8-0.2-5.6-16.4-5.6-16.4
		s13.3,20.6,7.8,21.7c-6.1,1.2-11.8-27.7-11.8-27.7S103.8,131.3,106.5,131.2L106.5,131.2z M100.8,85L100.8,85
		c-0.2,0.9-0.5,4.7-1.6,3.6c-1.1-1.2,1.2-8.1,1.2-8.1S101,84.1,100.8,85L100.8,85z M99.4,62.9L99.4,62.9c0,0,1.1,1.4,1.5,2.5
		c0.4,1,0.8,2.9,0,2.2C100.1,67,99.4,62.9,99.4,62.9L99.4,62.9z M102.3,95.7L102.3,95.7c-0.6,0-1.2-0.6-1.2-1.3
		c0-0.7,0.6,0.3,1.2,0.3c0.6,0,1.1-1,1.1-0.3C103.5,95.1,103,95.7,102.3,95.7L102.3,95.7z M104.1,98.4L104.1,98.4
		c-0.5,0-0.9-0.5-0.9-1.1c0-0.6,0.3-0.3,0.8-0.3c0.5,0,1.1-0.3,1.1,0.3C105.1,97.9,104.7,98.4,104.1,98.4L104.1,98.4z M106.2,100.7
		L106.2,100.7c-0.7,0-1.2-0.5-1.2-1.2c0-0.7,0.3-0.1,1-0.1c0.7,0,1.5-0.5,1.5,0.1C107.4,100.2,106.9,100.7,106.2,100.7L106.2,100.7z
		 M107.4,102.9L107.4,102.9c-0.6,0-1-0.4-1-0.9c0-0.5,0.5-0.3,1.1-0.3c0.6,0,1-0.2,1,0.3C108.4,102.4,108,102.9,107.4,102.9
		L107.4,102.9z M107.9,98.9L107.9,98.9c0-0.4,0.4-0.3,0.8-0.3c0.5,0,0.9-0.1,0.9,0.3c0,0.4-0.4,0.8-0.8,0.8
		C108.3,99.7,107.9,99.4,107.9,98.9L107.9,98.9z M110.7,103.4L110.7,103.4c0,0.5-0.4,0.9-0.8,0.9c-0.4,0-0.8-0.4-0.8-0.9
		c0-0.5,0.3-0.1,0.8-0.1C110.4,103.3,110.7,102.9,110.7,103.4L110.7,103.4z M109.1,93.7L109.1,93.7c0.5,0,0.9-0.6,0.9,0
		c0,0.6-0.4,1.1-0.9,1.1c-0.5,0-0.9-0.5-0.9-1.1C108.2,93.1,108.6,93.7,109.1,93.7L109.1,93.7z M108.7,96.6L108.7,96.6
		c0,0.6-0.5,1.1-1.2,1.1c-0.6,0-1.2-0.5-1.2-1.1c0-0.6,0.5,0,1.2,0C108.2,96.6,108.7,96,108.7,96.6L108.7,96.6z M107.1,90.8
		L107.1,90.8c0.5,0,0.8-0.5,0.8,0.1c0,0.6-0.4,1.1-0.9,1.1c-0.5,0-0.9-0.5-0.9-1.1C106.1,90.3,106.6,90.8,107.1,90.8L107.1,90.8z
		 M106.7,93.7L106.7,93.7c0,0.7-0.5,1.3-1.1,1.3c-0.6,0-1.1-0.6-1.1-1.3c0-0.7,0.5,0.2,1.1,0.2C106.1,93.9,106.7,93,106.7,93.7
		L106.7,93.7z M105.8,88.6L105.8,88.6c0,0.4-0.4,0.7-0.9,0.7c-0.5,0-0.9-0.3-0.9-0.7c0-0.4,0.5-0.1,1-0.1
		C105.6,88.5,105.8,88.3,105.8,88.6L105.8,88.6z M105.8,64.3L105.8,64.3c0,0,3,5.4,3.4,5.2c0.4-0.2,0.2-2.7,0.2-2.7s1.7,4.6,0.2,4.9
		C108.2,72.1,105.8,64.3,105.8,64.3L105.8,64.3z M108.8,81.8L108.8,81.8c-1.2,0.3-2.3-7.9-2.3-7.9s1.6,5.4,2,5.3
		c0.4,0,0.4-2.3,0.4-2.3S110.1,81.5,108.8,81.8L108.8,81.8z M112.8,81.9L112.8,81.9c-1.6,0.4-3.6-8.8-3.6-8.8s2.5,6.2,3,6.1
		c0.6,0,0.4-3.2,0.4-3.2S114.4,81.5,112.8,81.9L112.8,81.9z M116.2,81.3L116.2,81.3c-1.5,0.3-3.6-9.6-3.6-9.6s2.9,7.5,3.3,7.4
		c0.4-0.1,0.6-1.8,0.6-1.8S117.7,81.1,116.2,81.3L116.2,81.3z M120.3,81.1L120.3,81.1c-1.8,0.7-4.2-10-4.2-10s2.9,7.3,3.4,7.3
		c0.5,0,0.6-2.6,0.6-2.6S122,80.5,120.3,81.1L120.3,81.1z M120.1,69.3L120.1,69.3c0-0.1-0.1-0.2-0.1-0.2
		C120,69.1,120.1,69.2,120.1,69.3c0.4,1.1,2.7,7.5,3.1,7.4c0.5-0.1,1.1-1,1.1-1s0.9,4-0.5,4.3C122.5,80.1,120.5,70.6,120.1,69.3
		L120.1,69.3z M124.6,86.2L124.6,86.2c-1.3,0.4-2.5-5.7-2.5-5.7s1.6,4,2,3.7c0.4-0.4,0.7-2,0.7-2S126,85.8,124.6,86.2L124.6,86.2z
		 M123.5,66.5L123.5,66.5c0,0,3,7.9,3.5,7.9c0.5,0,0.9-0.9,0.9-0.9s1,4-0.4,4.1C126.1,77.7,123.5,66.5,123.5,66.5L123.5,66.5z
		 M128.3,88.9L128.3,88.9c-1.5,0.4-2.4-10.7-2.4-10.7s1.6,8.2,2.1,8.8c0.6,0.6,1.3-0.8,1.3-0.8S129.8,88.6,128.3,88.9L128.3,88.9z
		 M127.2,63.9L127.2,63.9C127.1,63.8,127.1,63.8,127.2,63.9C127.1,63.8,127.1,63.8,127.2,63.9c0.3,0.6,3.4,7.5,3.7,7.5
		c0.3,0,1-0.6,1-0.6s0.5,4.8-0.6,4.7C130.2,75.4,127.4,64.7,127.2,63.9L127.2,63.9z M132.4,86.8L132.4,86.8c0.5-0.5,0.9-1.9,1.1-2.7
		c0-0.4,0-0.6,0-0.6c0,0,0,0.2,0,0.6c0,1.5-0.1,5.6-1.4,5.6c-1.7,0-2.1-14.1-2.1-14.1S131.7,87.6,132.4,86.8L132.4,86.8z
		 M131.3,90.9L131.3,90.9c0,0,0.8,3.1,1.2,4.7c0.4,1.7,1.6,2.6,2.3,7C132,99.3,131.3,90.9,131.3,90.9L131.3,90.9z M134.7,89.7
		L134.7,89.7c0,0,0.8,4.1,1.3,6.7c0.4,2.6,2.4,6.9,3.2,12.4C135.4,103.6,134.7,89.7,134.7,89.7L134.7,89.7z M139,86.1L139,86.1
		c0,0,0.6,9.4,1.5,14.6c0.9,5.2,2.7,11.7,2.7,11.7C137.7,107.3,139,86.1,139,86.1L139,86.1z M143.5,83.4L143.5,83.4
		c0,0-0.2,6.2,0.4,13.6c0.6,7.5,3.1,14.8,4.5,18.5C140.2,114,143.5,83.4,143.5,83.4L143.5,83.4z"/>
	<g>
		<path class="st1" d="M160,90.8l2.7,0.1l0-1.1l-2.7,0L160,90.8L160,90.8z M160,92.5l2.7,0.1l0-1.1l-2.7-0.1L160,92.5L160,92.5z
			 M159.8,94.3l2.7,0.2l0.1-1.1l-2.7-0.1L159.8,94.3L159.8,94.3z M159.7,96l2.7,0.3l0.1-1.1l-2.7-0.2L159.7,96L159.7,96z
			 M159.5,97.8l2.7,0.3l0.1-1.1l-2.7-0.3L159.5,97.8L159.5,97.8z M159.3,99.5l2.7,0.4l0.1-1.1l-2.7-0.3L159.3,99.5L159.3,99.5z
			 M159,101.3l2.7,0.5l0.2-1.1l-2.7-0.4L159,101.3L159,101.3z M158.7,103l2.6,0.5l0.2-1.1l-2.7-0.5L158.7,103L158.7,103z
			 M158.3,104.7l2.6,0.6l0.3-1.1l-2.6-0.5L158.3,104.7L158.3,104.7z M157.9,106.4l2.6,0.7l0.3-1.1l-2.6-0.6L157.9,106.4L157.9,106.4
			z M157.5,108.2l2.6,0.7l0.3-1.1l-2.6-0.7L157.5,108.2L157.5,108.2z M157,109.8l2.6,0.8l0.3-1.1l-2.6-0.7L157,109.8L157,109.8z
			 M156.5,111.5l2.6,0.8l0.4-1.1l-2.6-0.8L156.5,111.5L156.5,111.5z M155.9,113.2l2.5,0.9l0.4-1.1l-2.6-0.9L155.9,113.2L155.9,113.2
			z M155.3,114.8l2.5,1l0.4-1.1l-2.5-0.9L155.3,114.8L155.3,114.8z M154.6,116.5l2.5,1l0.4-1.1l-2.5-1L154.6,116.5L154.6,116.5z
			 M153.9,118.1l2.5,1.1l0.5-1l-2.5-1.1L153.9,118.1L153.9,118.1z M153.2,119.7l2.4,1.2l0.5-1l-2.5-1.1L153.2,119.7L153.2,119.7z
			 M152.4,121.3l2.4,1.2l0.5-1l-2.4-1.2L152.4,121.3L152.4,121.3z M151.6,122.8l2.4,1.3l0.5-1l-2.4-1.2L151.6,122.8L151.6,122.8z
			 M150.7,124.4l2.3,1.3l0.6-1l-2.4-1.3L150.7,124.4L150.7,124.4z M175.9,91.1l2.7,0.1l0-1.4l-2.7,0L175.9,91.1L175.9,91.1z
			 M175.8,93.2l2.7,0.1l0-1.4l-2.7-0.1L175.8,93.2L175.8,93.2z M175.7,95.4l2.7,0.2l0.1-1.4l-2.7-0.1L175.7,95.4L175.7,95.4z
			 M175.5,97.5l2.7,0.3l0.1-1.4l-2.7-0.2L175.5,97.5L175.5,97.5z M175.3,99.7l2.7,0.3l0.2-1.4l-2.7-0.3L175.3,99.7L175.3,99.7z
			 M175,101.8l2.7,0.4l0.2-1.4l-2.7-0.3L175,101.8L175,101.8z M174.7,103.9l2.7,0.5l0.2-1.4l-2.7-0.4L174.7,103.9L174.7,103.9z
			 M174.3,106.1l2.6,0.5l0.2-1.4l-2.7-0.5L174.3,106.1L174.3,106.1z M173.8,108.2l2.6,0.6l0.3-1.3l-2.6-0.5L173.8,108.2L173.8,108.2
			z M173.3,110.3l2.6,0.7l0.3-1.3l-2.6-0.6L173.3,110.3L173.3,110.3z M172.8,112.4l2.6,0.7l0.4-1.3l-2.6-0.7L172.8,112.4
			L172.8,112.4z M172.2,114.4l2.6,0.8l0.4-1.3l-2.6-0.7L172.2,114.4L172.2,114.4z M171.5,116.5l2.6,0.8l0.4-1.3l-2.6-0.8
			L171.5,116.5L171.5,116.5z M170.8,118.5l2.5,0.9l0.4-1.3l-2.6-0.9L170.8,118.5L170.8,118.5z M170.1,120.6l2.5,1l0.5-1.3l-2.5-0.9
			L170.1,120.6L170.1,120.6z M169.3,122.6l2.5,1l0.5-1.3l-2.5-1L169.3,122.6L169.3,122.6z M168.4,124.5l2.5,1.1l0.6-1.3l-2.5-1.1
			L168.4,124.5L168.4,124.5z M167.5,126.5l2.4,1.2l0.6-1.3l-2.5-1.1L167.5,126.5L167.5,126.5z M166.6,128.4l2.4,1.2l0.6-1.2
			l-2.4-1.2L166.6,128.4L166.6,128.4z M165.6,130.4l2.4,1.3l0.6-1.2l-2.4-1.2L165.6,130.4L165.6,130.4z M164.5,132.2l2.3,1.3
			l0.7-1.2l-2.4-1.3L164.5,132.2L164.5,132.2z"/>
		<path class="st2" d="M163,90l4,0 M167,90.1c-0.1,1.5,0,2.9-0.2,4.4 M166.9,94.5l4.7,0.3 M171.6,94.8c-0.1,1.6-0.2,3.1-0.4,4.6
			 M171.1,99.4l3.9,0.5 M162.4,99.3l4,0.5 M166.3,99.9c-0.1,1.5-0.5,2.9-0.7,4.3 M165.6,104.2l4.6,0.9 M170.2,105.1
			c-0.3,1.5-0.7,3-1,4.6 M169.2,109.7l3.8,1 M157.2,118.1l3.7,1.6 M160.9,119.6c-0.6,1.3-1.2,2.7-1.8,4 M159.1,123.6l4.2,2.1
			 M163.3,125.7c-0.7,1.4-1.4,2.8-2.2,4.1 M161.1,129.8l3.4,1.9 M160.3,108.8l3.8,1.1 M164.2,109.9c-0.4,1.4-0.8,2.8-1.3,4.2
			 M162.9,114.1l4.5,1.5 M167.4,115.6c-0.5,1.5-1,2.9-1.6,4.4 M165.7,120l3.7,1.5"/>
		<path class="st1" d="M149.8,125.9l2.3,1.4l0.6-1l-2.3-1.4L149.8,125.9L149.8,125.9z M148.9,127.4l2.3,1.5l0.6-1l-2.3-1.4
			L148.9,127.4L148.9,127.4z M147.9,128.9l2.2,1.5l0.6-1l-2.3-1.5L147.9,128.9L147.9,128.9z M146.9,130.3l2.2,1.6l0.7-0.9l-2.2-1.5
			L146.9,130.3L146.9,130.3z M145.9,131.8l2.2,1.6l0.7-0.9l-2.2-1.6L145.9,131.8L145.9,131.8z M144.8,133.1l2.1,1.7l0.7-0.9
			l-2.1-1.6L144.8,133.1L144.8,133.1z M143.7,134.5l2.1,1.7 M145.8,136.2c0.3-0.3,0.5-0.6,0.7-0.9 M146.5,135.4l-2.1-1.7
			 M144.4,133.7c-0.2,0.3-0.4,0.6-0.7,0.9 M142.5,135.8l2,1.8l0.7-0.9l-2.1-1.7L142.5,135.8L142.5,135.8z M141.4,137.2l2,1.8
			 M143.4,139c0.3-0.3,0.5-0.6,0.8-0.8 M144.1,138.2l-2-1.8 M142.1,136.4c-0.2,0.3-0.5,0.6-0.7,0.8 M140.2,138.4l1.9,1.9l0.8-0.8
			l-2-1.8L140.2,138.4L140.2,138.4z M138.9,139.7l1.9,1.9l0.8-0.8l-1.9-1.9L138.9,139.7L138.9,139.7z M137.6,140.9l1.8,2l0.8-0.8
			l-1.9-1.9L137.6,140.9L137.6,140.9z M136.3,142.1l1.8,2 M138.1,144.1c0.3-0.2,0.6-0.5,0.8-0.8 M139,143.4l-1.8-2 M137.2,141.4
			c-0.3,0.3-0.5,0.5-0.8,0.7 M135,143.3l1.7,2.1l0.9-0.7l-1.8-2L135,143.3L135,143.3z M133.7,144.4l1.7,2.1 M135.3,146.5
			c0.3-0.2,0.6-0.5,0.9-0.7 M136.2,145.8l-1.7-2.1 M134.5,143.7c-0.3,0.2-0.6,0.5-0.9,0.7 M132.3,145.5l1.6,2.1l0.9-0.7l-1.7-2.1
			L132.3,145.5L132.3,145.5z M130.9,146.5l1.6,2.2l0.9-0.7l-1.6-2.2L130.9,146.5L130.9,146.5z M129.4,147.6l1.5,2.2l0.9-0.7
			l-1.6-2.2L129.4,147.6L129.4,147.6z M128,148.5l1.5,2.3l1-0.6l-1.5-2.2L128,148.5L128,148.5z M126.5,149.5l1.4,2.3l1-0.6l-1.5-2.3
			L126.5,149.5L126.5,149.5z M125,150.4l1.4,2.3l1-0.6l-1.4-2.3L125,150.4L125,150.4z M163.4,134.1l2.3,1.4l0.7-1.2l-2.3-1.4
			L163.4,134.1L163.4,134.1z M162.3,136l2.3,1.5l0.7-1.2l-2.3-1.4L162.3,136L162.3,136z M161.1,137.8l2.2,1.5l0.7-1.2l-2.3-1.5
			L161.1,137.8L161.1,137.8z M159.8,139.5l2.2,1.6l0.8-1.1l-2.2-1.5L159.8,139.5L159.8,139.5z M158.6,141.3l2.2,1.6l0.8-1.1
			l-2.2-1.6L158.6,141.3L158.6,141.3z M157.2,143l2.1,1.7l0.9-1.1l-2.1-1.6L157.2,143L157.2,143z M155.9,144.7l2.1,1.7 M158,146.4
			c0.3-0.3,0.6-0.7,0.9-1.1 M158.8,145.3l-2.1-1.7 M156.7,143.6c-0.3,0.3-0.5,0.7-0.8,1 M154.5,146.3l2,1.8l0.9-1l-2.1-1.7
			L154.5,146.3L154.5,146.3z M153.1,147.9l2,1.8 M155,149.7c0.3-0.3,0.6-0.7,0.9-1 M156,148.7l-2-1.8 M154,146.9
			c-0.3,0.3-0.6,0.7-0.9,1 M151.6,149.5l1.9,1.9l1-1l-2-1.8L151.6,149.5L151.6,149.5z M150.1,151l1.9,1.9l1-1l-1.9-1.9L150.1,151
			L150.1,151z M148.5,152.5l1.8,2l1-1l-1.9-1.9L148.5,152.5L148.5,152.5z M146.9,154l1.8,2 M148.7,156c0.3-0.3,0.7-0.6,1-0.9
			 M149.7,155.1l-1.8-2 M147.9,153.1c-0.3,0.3-0.7,0.6-1,0.9 M145.3,155.4l1.7,2.1l1-0.9l-1.8-2L145.3,155.4L145.3,155.4z
			 M143.6,156.8l1.7,2.1 M145.3,158.9c0.4-0.3,0.7-0.6,1.1-0.9 M146.4,158l-1.7-2.1 M144.7,155.9c-0.3,0.3-0.7,0.6-1,0.8
			 M141.9,158.1l1.6,2.1l1.1-0.9l-1.7-2.1L141.9,158.1L141.9,158.1z M140.2,159.4l1.6,2.2l1.1-0.8l-1.6-2.2L140.2,159.4L140.2,159.4
			z M138.4,160.6l1.5,2.2l1.1-0.8l-1.6-2.2L138.4,160.6L138.4,160.6z M136.6,161.8l1.5,2.3l1.2-0.7l-1.5-2.2L136.6,161.8
			L136.6,161.8z M134.8,163l1.4,2.3l1.2-0.7l-1.5-2.3L134.8,163L134.8,163z M133,164.1l1.4,2.3l1.2-0.7l-1.4-2.3L133,164.1
			L133,164.1z"/>
		<path class="st2" d="M152.8,126.8l3.4,2 M156.2,128.8c-0.7,1.3-1.6,2.5-2.3,3.7 M153.9,132.5l3.9,2.6 M157.8,135.2
			c-0.9,1.3-1.8,2.6-2.7,3.8 M155.1,139l3.2,2.4 M147.5,134.5l3.2,2.4 M150.7,137c-0.9,1.2-1.8,2.3-2.8,3.4 M147.9,140.4l3.6,3.1
			 M151.5,143.5c-1,1.2-2.1,2.3-3.2,3.4 M148.3,146.9l2.8,2.8 M133.7,148.2l2.4,3.2 M136.1,151.4c-1.2,0.9-2.4,1.7-3.6,2.5
			 M132.6,153.9l2.6,3.9 M135.2,157.8c-1.3,0.8-2.6,1.7-3.9,2.5 M131.2,160.3l2,3.4 M141.1,141.7l2.8,2.8 M143.9,144.5
			c-1.1,1-2.1,2.1-3.2,3 M140.6,147.5l3.1,3.5 M143.8,151.1c-1.2,1-2.3,2-3.6,3 M140.2,154.1l2.4,3.1"/>
		<path class="st1" d="M123.4,151.3l1.3,2.4l1-0.6l-1.3-2.3L123.4,151.3L123.4,151.3z M121.8,152.1l1.2,2.4l1-0.5l-1.3-2.4
			L121.8,152.1L121.8,152.1z M120.3,152.9l1.2,2.4l1-0.5l-1.2-2.4L120.3,152.9L120.3,152.9z M118.7,153.6l1.1,2.5l1-0.5l-1.2-2.4
			L118.7,153.6L118.7,153.6z M117.1,154.4l1.1,2.5l1-0.5l-1.1-2.5L117.1,154.4L117.1,154.4z M115.4,155l1,2.5l1.1-0.4l-1-2.5
			L115.4,155L115.4,155z M113.8,155.7l0.9,2.5l1.1-0.4l-1-2.5L113.8,155.7L113.8,155.7z M112.1,156.2l0.9,2.6l1.1-0.4l-0.9-2.5
			L112.1,156.2L112.1,156.2z M110.5,156.8l0.8,2.6l1.1-0.4l-0.8-2.6L110.5,156.8L110.5,156.8z M108.8,157.3l0.7,2.6l1.1-0.3
			l-0.8-2.6L108.8,157.3L108.8,157.3z M107.1,157.8l0.7,2.6l1.1-0.3l-0.7-2.6L107.1,157.8L107.1,157.8z M105.4,158.2l0.6,2.6
			l1.1-0.3l-0.7-2.6L105.4,158.2L105.4,158.2z M103.7,158.6l0.5,2.6l1.1-0.3l-0.6-2.6L103.7,158.6L103.7,158.6z M101.9,158.9
			l0.5,2.7l1.1-0.2l-0.5-2.6L101.9,158.9L101.9,158.9z M100.2,159.2l0.4,2.7l1.1-0.2l-0.5-2.7L100.2,159.2L100.2,159.2z M98.4,159.4
			l0.3,2.7l1.1-0.1l-0.4-2.7L98.4,159.4L98.4,159.4z M96.7,159.7l0.3,2.7l1.1-0.1l-0.3-2.7L96.7,159.7L96.7,159.7z M94.9,159.8
			l0.2,2.7l1.1-0.1l-0.3-2.7L94.9,159.8L94.9,159.8z M93.2,159.9l0.1,2.7l1.1-0.1l-0.2-2.7L93.2,159.9L93.2,159.9z M91.4,160
			l0.1,2.7l1.1,0l-0.1-2.7L91.4,160L91.4,160z M89.6,160l0,2.7l1.1,0l-0.1-2.7L89.6,160L89.6,160z M131.1,165.2l1.3,2.4l1.2-0.7
			l-1.3-2.3L131.1,165.2L131.1,165.2z M129.2,166.2l1.2,2.4l1.2-0.6l-1.3-2.4L129.2,166.2L129.2,166.2z M127.2,167.2l1.2,2.4
			l1.2-0.6l-1.2-2.4L127.2,167.2L127.2,167.2z M125.3,168.1l1.1,2.5l1.3-0.6l-1.2-2.4L125.3,168.1L125.3,168.1z M123.3,169l1.1,2.5
			l1.3-0.6l-1.1-2.5L123.3,169L123.3,169z M121.3,169.8l1,2.5l1.3-0.5l-1-2.5L121.3,169.8L121.3,169.8z M119.3,170.6l0.9,2.5
			l1.3-0.5l-1-2.5L119.3,170.6L119.3,170.6z M117.3,171.3l0.9,2.6l1.3-0.4l-0.9-2.5L117.3,171.3L117.3,171.3z M115.2,172l0.8,2.6
			l1.3-0.4l-0.8-2.6L115.2,172L115.2,172z M113.1,172.6l0.7,2.6l1.3-0.4l-0.8-2.6L113.1,172.6L113.1,172.6z M111.1,173.2l0.7,2.6
			l1.3-0.4l-0.7-2.6L111.1,173.2L111.1,173.2z M109,173.6l0.6,2.6l1.3-0.3l-0.7-2.6L109,173.6L109,173.6z M106.9,174.1l0.5,2.6
			l1.3-0.3l-0.6-2.6L106.9,174.1L106.9,174.1z M104.7,174.5l0.5,2.7l1.4-0.2l-0.5-2.6L104.7,174.5L104.7,174.5z M102.6,174.9
			l0.4,2.7l1.4-0.2l-0.5-2.7L102.6,174.9L102.6,174.9z M100.5,175.2l0.3,2.7l1.4-0.2l-0.4-2.7L100.5,175.2L100.5,175.2z M98.3,175.4
			l0.3,2.7l1.4-0.2l-0.3-2.7L98.3,175.4L98.3,175.4z M96.2,175.6l0.2,2.7l1.4-0.1l-0.3-2.7L96.2,175.6L96.2,175.6z M94,175.8
			l0.1,2.7l1.4-0.1l-0.2-2.7L94,175.8L94,175.8z M91.9,175.9l0.1,2.7l1.4,0l-0.1-2.7L91.9,175.9L91.9,175.9z M89.7,175.9l0,2.7
			l1.4,0l-0.1-2.7L89.7,175.9L89.7,175.9z"/>
		<path class="st2" d="M125.5,153.5l2,3.5 M127.5,157c-1.3,0.8-2.6,1.4-3.9,2.1 M123.6,159.1l2.1,4.2 M125.7,163.3
			c-1.4,0.7-2.8,1.3-4.2,2 M121.5,165.3l1.5,3.6 M117.1,157.6l1.5,3.7 M118.7,161.3c-1.4,0.5-2.7,1.1-4.1,1.5 M114.5,162.8l1.5,4.5
			 M116.1,167.3c-1.5,0.5-3,1-4.5,1.4 M111.6,168.7l1.1,3.8 M98.3,162.5l0.5,4 M98.8,166.4c-1.4,0.2-2.9,0.3-4.4,0.4 M94.5,166.9
			l0.3,4.7 M94.8,171.6c-1.5,0.2-3.1,0.1-4.6,0.2 M90.1,171.7l0,4 M107.9,160.6l1,3.9 M108.9,164.4c-1.4,0.3-2.9,0.7-4.3,1
			 M104.7,165.4l0.9,4.6 M105.6,170c-1.5,0.3-3.1,0.6-4.6,0.8 M101,170.8l0.6,3.9"/>
		<path class="st1" d="M87.8,160l-0.1,2.7l1.1,0l0-2.7L87.8,160L87.8,160z M86.1,160l-0.1,2.7l1.1,0l0.1-2.7L86.1,160L86.1,160z
			 M84.3,159.8l-0.2,2.7l1.1,0.1l0.1-2.7L84.3,159.8L84.3,159.8z M82.6,159.7l-0.3,2.7l1.1,0.1l0.2-2.7L82.6,159.7L82.6,159.7z
			 M80.8,159.5l-0.3,2.7l1.1,0.1l0.3-2.7L80.8,159.5L80.8,159.5z M79.1,159.3l-0.4,2.7l1.1,0.1l0.3-2.7L79.1,159.3L79.1,159.3z
			 M77.3,159l-0.5,2.7l1.1,0.2l0.4-2.7L77.3,159L77.3,159z M75.6,158.7l-0.5,2.6l1.1,0.2l0.5-2.7L75.6,158.7L75.6,158.7z
			 M73.9,158.3l-0.6,2.6l1.1,0.3l0.5-2.6L73.9,158.3L73.9,158.3z M72.2,157.9l-0.7,2.6l1.1,0.3l0.6-2.6L72.2,157.9L72.2,157.9z
			 M70.5,157.5l-0.7,2.6l1.1,0.3l0.7-2.6L70.5,157.5L70.5,157.5z M68.8,157l-0.8,2.6l1.1,0.3l0.7-2.6L68.8,157L68.8,157z
			 M67.1,156.5l-0.8,2.6l1.1,0.4l0.8-2.6L67.1,156.5L67.1,156.5z M65.4,155.9l-0.9,2.5l1.1,0.4l0.9-2.6L65.4,155.9L65.4,155.9z
			 M63.8,155.3l-1,2.5l1.1,0.4l0.9-2.5L63.8,155.3L63.8,155.3z M62.1,154.6l-1,2.5l1.1,0.4l1-2.5L62.1,154.6L62.1,154.6z
			 M60.5,153.9l-1.1,2.5l1,0.5l1.1-2.5L60.5,153.9L60.5,153.9z M58.9,153.2l-1.2,2.4l1,0.5l1.1-2.5L58.9,153.2L58.9,153.2z
			 M57.3,152.4l-1.2,2.4l1,0.5l1.2-2.4L57.3,152.4L57.3,152.4z M55.8,151.6l-1.3,2.4l1,0.5l1.2-2.4L55.8,151.6L55.8,151.6z
			 M54.2,150.7l-1.3,2.3l1,0.6l1.3-2.4L54.2,150.7L54.2,150.7z M87.5,175.9l-0.1,2.7l1.4,0l0-2.7L87.5,175.9L87.5,175.9z
			 M85.4,175.8l-0.1,2.7l1.4,0l0.1-2.7L85.4,175.8L85.4,175.8z M83.2,175.7l-0.2,2.7l1.4,0.1l0.1-2.7L83.2,175.7L83.2,175.7z
			 M81.1,175.5l-0.3,2.7l1.4,0.1l0.2-2.7L81.1,175.5L81.1,175.5z M78.9,175.3l-0.3,2.7l1.4,0.2l0.3-2.7L78.9,175.3L78.9,175.3z
			 M76.8,175l-0.4,2.7l1.4,0.2l0.3-2.7L76.8,175L76.8,175z M74.7,174.7l-0.5,2.7l1.4,0.2l0.4-2.7L74.7,174.7L74.7,174.7z
			 M72.5,174.3l-0.5,2.6l1.4,0.2l0.5-2.7L72.5,174.3L72.5,174.3z M70.4,173.8l-0.6,2.6l1.3,0.3l0.5-2.6L70.4,173.8L70.4,173.8z
			 M68.3,173.3l-0.7,2.6l1.3,0.3l0.6-2.6L68.3,173.3L68.3,173.3z M66.2,172.8l-0.7,2.6l1.3,0.4l0.7-2.6L66.2,172.8L66.2,172.8z
			 M64.2,172.2l-0.8,2.6l1.3,0.4l0.7-2.6L64.2,172.2L64.2,172.2z M62.1,171.5l-0.8,2.6l1.3,0.4l0.8-2.6L62.1,171.5L62.1,171.5z
			 M60.1,170.8l-0.9,2.5l1.3,0.4l0.9-2.6L60.1,170.8L60.1,170.8z M58,170.1l-1,2.5l1.3,0.5l0.9-2.5L58,170.1L58,170.1z M56,169.3
			l-1,2.5l1.3,0.5l1-2.5L56,169.3L56,169.3z M54.1,168.4l-1.1,2.5l1.3,0.6l1.1-2.5L54.1,168.4L54.1,168.4z M52.1,167.5l-1.2,2.4
			l1.3,0.6l1.1-2.5L52.1,167.5L52.1,167.5z M50.2,166.6l-1.2,2.4l1.2,0.6l1.2-2.4L50.2,166.6L50.2,166.6z M48.2,165.6l-1.3,2.4
			l1.2,0.6l1.2-2.4L48.2,165.6L48.2,165.6z M46.4,164.5l-1.3,2.3l1.2,0.7l1.3-2.4L46.4,164.5L46.4,164.5z"/>
		<path class="st2" d="M88.6,163l0,4 M88.5,167c-1.5-0.1-2.9,0-4.4-0.2 M84.2,166.9l-0.3,4.7 M83.8,171.6c-1.6-0.1-3.1-0.2-4.6-0.4
			 M79.2,171.1l-0.5,3.9 M79.3,162.4l-0.5,4 M78.7,166.3c-1.5-0.1-2.9-0.5-4.4-0.7 M74.4,165.6l-0.9,4.6 M73.5,170.2
			c-1.5-0.3-3-0.7-4.6-1 M68.9,169.2l-1,3.8 M60.5,157.2l-1.6,3.7 M59,160.9c-1.3-0.6-2.7-1.2-4-1.8 M55,159.1l-2.1,4.2 M52.9,163.3
			c-1.4-0.7-2.8-1.4-4.1-2.2 M48.8,161.1l-1.9,3.4 M69.8,160.3l-1.1,3.8 M68.7,164.2c-1.4-0.4-2.8-0.8-4.2-1.3 M64.5,162.9l-1.5,4.5
			 M63,167.4c-1.5-0.5-2.9-1-4.4-1.6 M58.6,165.7l-1.5,3.7"/>
		<path class="st1" d="M52.7,149.8l-1.4,2.3l1,0.6l1.4-2.3L52.7,149.8L52.7,149.8z M51.2,148.9l-1.5,2.3l1,0.6l1.4-2.3L51.2,148.9
			L51.2,148.9z M49.7,147.9l-1.5,2.2l1,0.6l1.5-2.3L49.7,147.9L49.7,147.9z M48.3,146.9l-1.6,2.2l0.9,0.7l1.5-2.2L48.3,146.9
			L48.3,146.9z M46.9,145.9l-1.6,2.2l0.9,0.7l1.6-2.2L46.9,145.9L46.9,145.9z M45.5,144.8l-1.7,2.1l0.9,0.7l1.6-2.1L45.5,144.8
			L45.5,144.8z M44.1,143.7l-1.7,2.1 M42.4,145.8c0.3,0.3,0.6,0.5,0.9,0.7 M43.2,146.5l1.7-2.1 M44.9,144.4
			c-0.3-0.2-0.6-0.4-0.9-0.7 M42.8,142.5l-1.8,2l0.9,0.7l1.7-2.1L42.8,142.5L42.8,142.5z M41.4,141.4l-1.8,2 M39.6,143.4
			c0.3,0.3,0.6,0.5,0.8,0.8 M40.5,144.1l1.8-2 M42.2,142.1c-0.3-0.2-0.6-0.5-0.8-0.7 M40.2,140.2l-1.9,1.9l0.8,0.8l1.8-2L40.2,140.2
			L40.2,140.2z M38.9,138.9l-1.9,1.9l0.8,0.8l1.9-1.9L38.9,138.9L38.9,138.9z M37.7,137.6l-2,1.8l0.8,0.8l1.9-1.9L37.7,137.6
			L37.7,137.6z M36.5,136.3l-2,1.8 M34.5,138.1c0.2,0.3,0.5,0.6,0.8,0.8 M35.2,139l2-1.8 M37.2,137.2c-0.3-0.3-0.5-0.5-0.7-0.8
			 M35.3,135l-2.1,1.7l0.7,0.9l2-1.8L35.3,135L35.3,135z M34.2,133.7l-2.1,1.7 M32.1,135.3c0.2,0.3,0.5,0.6,0.7,0.9 M32.8,136.2
			l2.1-1.7 M34.9,134.5c-0.2-0.3-0.5-0.6-0.7-0.9 M33.1,132.3l-2.1,1.6l0.7,0.9l2.1-1.7L33.1,132.3L33.1,132.3z M32.1,130.9
			l-2.2,1.6l0.7,0.9l2.2-1.6L32.1,130.9L32.1,130.9z M31,129.4l-2.2,1.5l0.7,0.9l2.2-1.6L31,129.4L31,129.4z M30.1,128l-2.3,1.5
			l0.6,1l2.2-1.5L30.1,128L30.1,128z M29.1,126.5l-2.3,1.4l0.6,1l2.3-1.5L29.1,126.5L29.1,126.5z M28.2,125l-2.3,1.4l0.6,1l2.3-1.4
			L28.2,125L28.2,125z M44.5,163.4l-1.4,2.3l1.2,0.7l1.4-2.3L44.5,163.4L44.5,163.4z M42.6,162.3l-1.5,2.3l1.2,0.7l1.4-2.3
			L42.6,162.3L42.6,162.3z M40.8,161.1l-1.5,2.2l1.2,0.7l1.5-2.3L40.8,161.1L40.8,161.1z M39.1,159.8l-1.6,2.2l1.1,0.8l1.5-2.2
			L39.1,159.8L39.1,159.8z M37.3,158.6l-1.6,2.2l1.1,0.8l1.6-2.2L37.3,158.6L37.3,158.6z M35.6,157.2l-1.7,2.1l1.1,0.9l1.6-2.1
			L35.6,157.2L35.6,157.2z M33.9,155.9l-1.7,2.1 M32.2,158c0.3,0.3,0.7,0.6,1.1,0.9 M33.3,158.8l1.7-2.1 M35,156.7
			c-0.3-0.3-0.7-0.5-1-0.8 M32.3,154.5l-1.8,2l1,0.9l1.7-2.1L32.3,154.5L32.3,154.5z M30.7,153.1l-1.8,2 M28.9,155
			c0.3,0.3,0.7,0.6,1,0.9 M29.9,156l1.8-2 M31.7,153.9c-0.3-0.3-0.7-0.6-1-0.9 M29.1,151.6l-1.9,1.9l1,1l1.8-2L29.1,151.6
			L29.1,151.6z M27.6,150.1l-1.9,1.9l1,1l1.9-1.9L27.6,150.1L27.6,150.1z M26.1,148.5l-2,1.8l1,1l1.9-1.9L26.1,148.5L26.1,148.5z
			 M24.6,146.9l-2,1.8 M22.6,148.7c0.3,0.3,0.6,0.7,0.9,1 M23.5,149.7l2-1.8 M25.5,147.9c-0.3-0.3-0.6-0.7-0.9-1 M23.2,145.3
			l-2.1,1.7l0.9,1l2-1.8L23.2,145.3L23.2,145.3z M21.9,143.6l-2.1,1.7 M19.8,145.3c0.3,0.4,0.6,0.7,0.9,1.1 M20.6,146.4l2.1-1.7
			 M22.7,144.7c-0.3-0.3-0.6-0.7-0.8-1 M20.5,141.9l-2.1,1.6l0.9,1.1l2.1-1.7L20.5,141.9L20.5,141.9z M19.2,140.2l-2.2,1.6l0.8,1.1
			l2.2-1.6L19.2,140.2L19.2,140.2z M18,138.4l-2.2,1.5l0.8,1.1l2.2-1.6L18,138.4L18,138.4z M16.8,136.6l-2.3,1.5l0.7,1.2l2.2-1.5
			L16.8,136.6L16.8,136.6z M15.6,134.8l-2.3,1.4l0.7,1.2l2.3-1.5L15.6,134.8L15.6,134.8z M14.5,133l-2.3,1.4l0.7,1.2l2.3-1.4
			L14.5,133L14.5,133z"/>
		<path class="st2" d="M51.8,152.8l-2,3.4 M49.8,156.2c-1.3-0.7-2.5-1.6-3.7-2.3 M46.1,153.9l-2.6,3.9 M43.4,157.8
			c-1.3-0.9-2.6-1.8-3.8-2.7 M39.6,155.1l-2.4,3.2 M44.1,147.5l-2.4,3.2 M41.6,150.7c-1.2-0.9-2.3-1.8-3.4-2.8 M38.2,147.9l-3.1,3.6
			 M35.1,151.5c-1.2-1-2.3-2.1-3.4-3.2 M31.7,148.3l-2.8,2.8 M30.4,133.7l-3.2,2.4 M27.2,136.1c-0.9-1.2-1.7-2.4-2.5-3.6
			 M24.7,132.5l-3.9,2.6 M20.8,135.2c-0.8-1.3-1.7-2.6-2.5-3.9 M18.3,131.2l-3.4,2 M36.9,141.1l-2.8,2.8 M34.1,143.9
			c-1-1.1-2.1-2.1-3-3.2 M31.1,140.6l-3.5,3.1 M27.5,143.8c-1-1.2-2-2.3-3-3.6 M24.5,140.2l-3.1,2.4"/>
		<path class="st1" d="M27.3,123.4l-2.4,1.3l0.6,1l2.3-1.3L27.3,123.4L27.3,123.4z M26.5,121.8l-2.4,1.2l0.5,1l2.4-1.3L26.5,121.8
			L26.5,121.8z M25.7,120.3l-2.4,1.2l0.5,1l2.4-1.2L25.7,120.3L25.7,120.3z M25,118.7l-2.5,1.1l0.5,1l2.4-1.2L25,118.7L25,118.7z
			 M24.2,117.1l-2.5,1.1l0.5,1l2.5-1.1L24.2,117.1L24.2,117.1z M23.6,115.4l-2.5,1l0.4,1.1l2.5-1L23.6,115.4L23.6,115.4z
			 M22.9,113.8l-2.5,0.9l0.4,1.1l2.5-1L22.9,113.8L22.9,113.8z M22.4,112.1l-2.6,0.9l0.4,1.1l2.5-0.9L22.4,112.1L22.4,112.1z
			 M21.8,110.5l-2.6,0.8l0.4,1.1l2.6-0.8L21.8,110.5L21.8,110.5z M21.3,108.8l-2.6,0.7l0.3,1.1l2.6-0.8L21.3,108.8L21.3,108.8z
			 M20.8,107.1l-2.6,0.7l0.3,1.1l2.6-0.7L20.8,107.1L20.8,107.1z M20.4,105.4l-2.6,0.6l0.3,1.1l2.6-0.7L20.4,105.4L20.4,105.4z
			 M20,103.7l-2.6,0.5l0.3,1.1l2.6-0.6L20,103.7L20,103.7z M19.7,101.9l-2.7,0.5l0.2,1.1l2.6-0.5L19.7,101.9L19.7,101.9z
			 M19.4,100.2l-2.7,0.4l0.2,1.1l2.7-0.5L19.4,100.2L19.4,100.2z M19.2,98.4l-2.7,0.3l0.1,1.1l2.7-0.4L19.2,98.4L19.2,98.4z
			 M19,96.7L16.3,97l0.1,1.1l2.7-0.3L19,96.7L19,96.7z M18.8,94.9l-2.7,0.2l0.1,1.1l2.7-0.3L18.8,94.9L18.8,94.9z M18.7,93.2
			L16,93.3l0.1,1.1l2.7-0.2L18.7,93.2L18.7,93.2z M18.6,91.4l-2.7,0.1l0,1.1l2.7-0.1L18.6,91.4L18.6,91.4z M18.6,89.6l-2.7,0l0,1.1
			l2.7-0.1L18.6,89.6L18.6,89.6z M13.4,131.1l-2.4,1.3l0.7,1.2l2.3-1.3L13.4,131.1L13.4,131.1z M12.4,129.2l-2.4,1.2l0.6,1.2
			l2.4-1.3L12.4,129.2L12.4,129.2z M11.4,127.2L9,128.4l0.6,1.2l2.4-1.2L11.4,127.2L11.4,127.2z M10.5,125.3l-2.5,1.1l0.6,1.3
			l2.4-1.2L10.5,125.3L10.5,125.3z M9.6,123.3l-2.5,1.1l0.6,1.3l2.5-1.1L9.6,123.3L9.6,123.3z M8.8,121.3l-2.5,1l0.5,1.3l2.5-1
			L8.8,121.3L8.8,121.3z M8,119.3l-2.5,0.9l0.5,1.3l2.5-1L8,119.3L8,119.3z M7.3,117.3l-2.6,0.9l0.4,1.3l2.5-0.9L7.3,117.3
			L7.3,117.3z M6.6,115.2L4.1,116l0.4,1.3l2.6-0.8L6.6,115.2L6.6,115.2z M6,113.1l-2.6,0.7l0.4,1.3l2.6-0.8L6,113.1L6,113.1z
			 M5.4,111.1l-2.6,0.7l0.4,1.3l2.6-0.7L5.4,111.1L5.4,111.1z M5,109l-2.6,0.6l0.3,1.3l2.6-0.7L5,109L5,109z M4.5,106.9l-2.6,0.5
			l0.3,1.3l2.6-0.6L4.5,106.9L4.5,106.9z M4.1,104.7l-2.7,0.5l0.2,1.4l2.6-0.5L4.1,104.7L4.1,104.7z M3.7,102.6L1,103l0.2,1.4
			l2.7-0.5L3.7,102.6L3.7,102.6z M3.4,100.5l-2.7,0.3l0.2,1.4l2.7-0.4L3.4,100.5L3.4,100.5z M3.2,98.3l-2.7,0.3l0.2,1.4l2.7-0.3
			L3.2,98.3L3.2,98.3z M3,96.2l-2.7,0.2l0.1,1.4l2.7-0.3L3,96.2L3,96.2z M2.8,94l-2.7,0.1l0.1,1.4l2.7-0.2L2.8,94L2.8,94z M2.8,91.9
			L0.1,92l0,1.4l2.7-0.1L2.8,91.9L2.8,91.9z M2.7,89.7l-2.7,0l0,1.4l2.7-0.1L2.7,89.7L2.7,89.7z"/>
		<path class="st2" d="M25.1,125.5l-3.5,2 M21.6,127.5c-0.8-1.3-1.4-2.6-2.1-3.9 M19.5,123.6l-4.2,2.1 M15.3,125.7
			c-0.7-1.4-1.3-2.8-2-4.2 M13.4,121.5L9.7,123 M21,117.1l-3.7,1.5 M17.3,118.6c-0.5-1.4-1.1-2.7-1.5-4.1 M15.8,114.5l-4.5,1.5
			 M11.3,116.1c-0.5-1.5-1-3-1.4-4.5 M9.9,111.6l-3.8,1.1 M16.1,98.3l-4,0.5 M12.2,98.8c-0.2-1.4-0.3-2.9-0.4-4.4 M11.8,94.5L7,94.8
			 M7,94.8c-0.2-1.5-0.1-3.1-0.2-4.6 M6.9,90.1l-4,0 M18,107.9l-3.9,1 M14.2,108.9c-0.3-1.4-0.7-2.9-1-4.3 M13.2,104.7l-4.6,0.9
			 M8.6,105.6C8.3,104,8,102.5,7.8,101 M7.8,101l-3.9,0.6"/>
		<path class="st1" d="M18.6,87.8l-2.7-0.1l0,1.1l2.7,0L18.6,87.8L18.6,87.8z M18.6,86.1L16,86l0,1.1l2.7,0.1L18.6,86.1L18.6,86.1z
			 M18.8,84.3l-2.7-0.2L16,85.3l2.7,0.1L18.8,84.3L18.8,84.3z M18.9,82.6l-2.7-0.3l-0.1,1.1l2.7,0.2L18.9,82.6L18.9,82.6z
			 M19.1,80.8l-2.7-0.3l-0.1,1.1l2.7,0.3L19.1,80.8L19.1,80.8z M19.3,79.1l-2.7-0.4l-0.1,1.1l2.7,0.3L19.3,79.1L19.3,79.1z
			 M19.6,77.3l-2.7-0.5L16.7,78l2.7,0.4L19.6,77.3L19.6,77.3z M19.9,75.6l-2.6-0.5l-0.2,1.1l2.7,0.5L19.9,75.6L19.9,75.6z
			 M20.3,73.9l-2.6-0.6l-0.3,1.1l2.6,0.5L20.3,73.9L20.3,73.9z M20.7,72.2l-2.6-0.7l-0.3,1.1l2.6,0.6L20.7,72.2L20.7,72.2z
			 M21.1,70.5l-2.6-0.7l-0.3,1.1l2.6,0.7L21.1,70.5L21.1,70.5z M21.6,68.8L19,68l-0.3,1.1l2.6,0.7L21.6,68.8L21.6,68.8z M22.1,67.1
			l-2.6-0.8l-0.4,1.1l2.6,0.8L22.1,67.1L22.1,67.1z M22.7,65.4l-2.5-0.9l-0.4,1.1l2.6,0.9L22.7,65.4L22.7,65.4z M23.3,63.8l-2.5-1
			l-0.4,1.1l2.5,0.9L23.3,63.8L23.3,63.8z M24,62.1l-2.5-1l-0.4,1.1l2.5,1L24,62.1L24,62.1z M24.7,60.5l-2.5-1.1l-0.5,1l2.5,1.1
			L24.7,60.5L24.7,60.5z M25.4,58.9L23,57.8l-0.5,1l2.5,1.1L25.4,58.9L25.4,58.9z M26.2,57.3l-2.4-1.2l-0.5,1l2.4,1.2L26.2,57.3
			L26.2,57.3z M27,55.8l-2.4-1.3l-0.5,1l2.4,1.2L27,55.8L27,55.8z M27.9,54.2l-2.3-1.3l-0.6,1l2.4,1.3L27.9,54.2L27.9,54.2z
			 M2.7,87.5L0,87.5l0,1.4l2.7,0L2.7,87.5L2.7,87.5z M2.8,85.4l-2.7-0.1l0,1.4l2.7,0.1L2.8,85.4L2.8,85.4z M2.9,83.2L0.2,83
			l-0.1,1.4l2.7,0.1L2.9,83.2L2.9,83.2z M3.1,81.1l-2.7-0.3l-0.1,1.4L3,82.4L3.1,81.1L3.1,81.1z M3.3,78.9l-2.7-0.3L0.5,80l2.7,0.3
			L3.3,78.9L3.3,78.9z M3.6,76.8l-2.7-0.4l-0.2,1.4l2.7,0.3L3.6,76.8L3.6,76.8z M3.9,74.7l-2.7-0.5L1,75.6L3.7,76L3.9,74.7L3.9,74.7
			z M4.3,72.5L1.7,72l-0.2,1.4l2.7,0.5L4.3,72.5L4.3,72.5z M4.8,70.4l-2.6-0.6l-0.3,1.3l2.6,0.5L4.8,70.4L4.8,70.4z M5.3,68.3
			l-2.6-0.7L2.3,69L5,69.6L5.3,68.3L5.3,68.3z M5.8,66.2l-2.6-0.7l-0.4,1.3l2.6,0.7L5.8,66.2L5.8,66.2z M6.4,64.2l-2.6-0.8l-0.4,1.3
			L6,65.4L6.4,64.2L6.4,64.2z M7.1,62.1l-2.6-0.8l-0.4,1.3l2.6,0.8L7.1,62.1L7.1,62.1z M7.8,60.1l-2.5-0.9l-0.4,1.3l2.6,0.9
			L7.8,60.1L7.8,60.1z M8.5,58l-2.5-1l-0.5,1.3L8,59.3L8.5,58L8.5,58z M9.3,56l-2.5-1l-0.5,1.3l2.5,1L9.3,56L9.3,56z M10.2,54.1
			L7.7,53l-0.6,1.3l2.5,1.1L10.2,54.1L10.2,54.1z M11.1,52.1l-2.4-1.2l-0.6,1.3l2.5,1.1L11.1,52.1L11.1,52.1z M12,50.2l-2.4-1.2
			L9,50.2l2.4,1.2L12,50.2L12,50.2z M13,48.2L10.7,47L10,48.2l2.4,1.2L13,48.2L13,48.2z M14.1,46.4L11.8,45l-0.7,1.2l2.4,1.3
			L14.1,46.4L14.1,46.4z"/>
		<path class="st2" d="M15.6,88.6l-4,0 M11.6,88.5c0.1-1.5,0-2.9,0.2-4.4 M11.7,84.2L7,83.8 M7,83.8c0.1-1.6,0.2-3.1,0.4-4.6
			 M7.5,79.2l-3.9-0.5 M16.3,79.3l-4-0.5 M12.3,78.7c0.1-1.5,0.5-2.9,0.7-4.3 M13,74.4l-4.6-0.9 M8.4,73.5c0.3-1.5,0.7-3,1-4.6
			 M9.4,68.9l-3.8-1 M21.4,60.5L17.7,59 M17.7,59c0.6-1.3,1.2-2.7,1.8-4 M19.5,55l-4.2-2.1 M15.3,52.9c0.7-1.4,1.4-2.8,2.2-4.1
			 M17.5,48.8L14,46.8 M18.3,69.8l-3.8-1.1 M14.4,68.7c0.4-1.4,0.8-2.8,1.3-4.2 M15.7,64.5L11.2,63 M11.2,63c0.5-1.5,1-2.9,1.6-4.4
			 M12.9,58.6l-3.7-1.5"/>
		<path class="st1" d="M28.8,52.7l-2.3-1.4l-0.6,1l2.3,1.4L28.8,52.7L28.8,52.7z M29.7,51.2l-2.3-1.5l-0.6,1l2.3,1.4L29.7,51.2
			L29.7,51.2z M30.7,49.7l-2.2-1.5l-0.6,1l2.3,1.5L30.7,49.7L30.7,49.7z M31.7,48.3l-2.2-1.6l-0.7,0.9l2.2,1.5L31.7,48.3L31.7,48.3z
			 M32.7,46.9l-2.2-1.6l-0.7,0.9l2.2,1.6L32.7,46.9L32.7,46.9z M33.8,45.5l-2.1-1.7L31,44.7l2.1,1.6L33.8,45.5L33.8,45.5z
			 M34.9,44.1l-2.1-1.7 M32.8,42.4c-0.3,0.3-0.5,0.6-0.7,0.9 M32.1,43.2l2.1,1.7 M34.2,44.9c0.2-0.3,0.4-0.6,0.7-0.9 M36.1,42.8
			L34,41l-0.7,0.9l2.1,1.7L36.1,42.8L36.1,42.8z M37.2,41.4l-2-1.8 M35.2,39.6c-0.3,0.3-0.5,0.6-0.8,0.8 M34.5,40.5l2,1.8
			 M36.5,42.2c0.2-0.3,0.5-0.6,0.7-0.8 M38.5,40.2l-1.9-1.9l-0.8,0.8l2,1.8L38.5,40.2L38.5,40.2z M39.7,38.9L37.8,37L37,37.8
			l1.9,1.9L39.7,38.9L39.7,38.9z M41,37.7l-1.8-2l-0.8,0.8l1.9,1.9L41,37.7L41,37.7z M42.3,36.5l-1.8-2 M40.5,34.5
			c-0.3,0.2-0.6,0.5-0.8,0.8 M39.6,35.2l1.8,2 M41.4,37.2c0.3-0.3,0.5-0.5,0.8-0.7 M43.6,35.3l-1.7-2.1L41,34l1.8,2L43.6,35.3
			L43.6,35.3z M45,34.2l-1.7-2.1 M43.3,32.1c-0.3,0.2-0.6,0.5-0.9,0.7 M42.4,32.8l1.7,2.1 M44.1,34.9c0.3-0.2,0.6-0.5,0.9-0.7
			 M46.3,33.1L44.7,31l-0.9,0.7l1.7,2.1L46.3,33.1L46.3,33.1z M47.8,32.1l-1.6-2.2l-0.9,0.7l1.6,2.2L47.8,32.1L47.8,32.1z M49.2,31
			l-1.5-2.2l-0.9,0.7l1.6,2.2L49.2,31L49.2,31z M50.7,30.1l-1.5-2.3l-1,0.6l1.5,2.2L50.7,30.1L50.7,30.1z M52.1,29.1l-1.4-2.3
			l-1,0.6l1.5,2.3L52.1,29.1L52.1,29.1z M53.6,28.2l-1.4-2.3l-1,0.6l1.4,2.3L53.6,28.2L53.6,28.2z M15.2,44.5l-2.3-1.4l-0.7,1.2
			l2.3,1.4L15.2,44.5L15.2,44.5z M16.3,42.6l-2.3-1.5l-0.7,1.2l2.3,1.4L16.3,42.6L16.3,42.6z M17.5,40.8l-2.2-1.5l-0.7,1.2l2.3,1.5
			L17.5,40.8L17.5,40.8z M18.8,39.1l-2.2-1.6l-0.8,1.1l2.2,1.5L18.8,39.1L18.8,39.1z M20,37.3l-2.2-1.6l-0.8,1.1l2.2,1.6L20,37.3
			L20,37.3z M21.4,35.6l-2.1-1.7L18.4,35l2.1,1.6L21.4,35.6L21.4,35.6z M22.7,33.9l-2.1-1.7 M20.6,32.2c-0.3,0.3-0.6,0.7-0.9,1.1
			 M19.8,33.3l2.1,1.7 M21.9,35c0.3-0.3,0.5-0.7,0.8-1 M24.1,32.3l-2-1.8l-0.9,1l2.1,1.7L24.1,32.3L24.1,32.3z M25.5,30.7l-2-1.8
			 M23.6,28.9c-0.3,0.3-0.6,0.7-0.9,1 M22.6,29.9l2,1.8 M24.7,31.7c0.3-0.3,0.6-0.7,0.9-1 M27,29.1l-1.9-1.9l-1,1l2,1.8L27,29.1
			L27,29.1z M28.5,27.6l-1.9-1.9l-1,1l1.9,1.9L28.5,27.6L28.5,27.6z M30.1,26.1l-1.8-2l-1,1l1.9,1.9L30.1,26.1L30.1,26.1z
			 M31.7,24.6l-1.8-2 M29.9,22.6c-0.3,0.3-0.7,0.6-1,0.9 M28.9,23.5l1.8,2 M30.7,25.5c0.3-0.3,0.7-0.6,1-0.9 M33.3,23.2l-1.7-2.1
			l-1,0.9l1.8,2L33.3,23.2L33.3,23.2z M35,21.9l-1.7-2.1 M33.3,19.8c-0.4,0.3-0.7,0.6-1.1,0.9 M32.2,20.6l1.7,2.1 M33.9,22.7
			c0.3-0.3,0.7-0.6,1-0.8 M36.7,20.5L35,18.4L34,19.2l1.7,2.1L36.7,20.5L36.7,20.5z M38.4,19.2L36.8,17l-1.1,0.8l1.6,2.2L38.4,19.2
			L38.4,19.2z M40.2,18l-1.5-2.2l-1.1,0.8l1.6,2.2L40.2,18L40.2,18z M42,16.8l-1.5-2.3l-1.2,0.7l1.5,2.2L42,16.8L42,16.8z
			 M43.8,15.6l-1.4-2.3l-1.2,0.7l1.5,2.3L43.8,15.6L43.8,15.6z M45.6,14.5l-1.4-2.3l-1.2,0.7l1.4,2.3L45.6,14.5L45.6,14.5z"/>
		<path class="st2" d="M25.8,51.8l-3.4-2 M22.4,49.8c0.7-1.3,1.6-2.5,2.3-3.7 M24.7,46.1l-3.9-2.6 M20.8,43.4
			c0.9-1.3,1.8-2.6,2.7-3.8 M23.5,39.6l-3.2-2.4 M31.1,44.1l-3.2-2.4 M27.9,41.6c0.9-1.2,1.8-2.3,2.8-3.4 M30.7,38.2l-3.6-3.1
			 M27.1,35.1c1-1.2,2.1-2.3,3.2-3.4 M30.3,31.7l-2.8-2.8 M44.9,30.4l-2.4-3.2 M42.5,27.2c1.2-0.9,2.4-1.7,3.6-2.5 M46.1,24.7
			l-2.6-3.9 M43.4,20.8c1.3-0.8,2.6-1.7,3.9-2.5 M47.4,18.3l-2-3.4 M37.6,36.9l-2.8-2.8 M34.7,34.1c1.1-1,2.1-2.1,3.2-3 M38,31.1
			l-3.1-3.5 M34.8,27.5c1.2-1,2.3-2,3.6-3 M38.4,24.5L36,21.4"/>
		<path class="st1" d="M55.2,27.3L53.9,25l-1,0.6l1.3,2.3L55.2,27.3L55.2,27.3z M56.8,26.5l-1.2-2.4l-1,0.5l1.3,2.4L56.8,26.5
			L56.8,26.5z M58.3,25.7l-1.2-2.4l-1,0.5l1.2,2.4L58.3,25.7L58.3,25.7z M59.9,25l-1.1-2.5l-1,0.5l1.2,2.4L59.9,25L59.9,25z
			 M61.5,24.2l-1.1-2.5l-1,0.5l1.1,2.5L61.5,24.2L61.5,24.2z M63.2,23.6l-1-2.5l-1.1,0.4l1,2.5L63.2,23.6L63.2,23.6z M64.8,22.9
			l-0.9-2.5l-1.1,0.4l1,2.5L64.8,22.9L64.8,22.9z M66.5,22.4l-0.9-2.6l-1.1,0.4l0.9,2.5L66.5,22.4L66.5,22.4z M68.1,21.8l-0.8-2.6
			l-1.1,0.4l0.8,2.6L68.1,21.8L68.1,21.8z M69.8,21.3l-0.7-2.6L68,19l0.8,2.6L69.8,21.3L69.8,21.3z M71.5,20.8l-0.7-2.6l-1.1,0.3
			l0.7,2.6L71.5,20.8L71.5,20.8z M73.2,20.4l-0.6-2.6L71.5,18l0.7,2.6L73.2,20.4L73.2,20.4z M75,20l-0.5-2.6l-1.1,0.3l0.6,2.6L75,20
			L75,20z M76.7,19.7l-0.5-2.7l-1.1,0.2l0.5,2.6L76.7,19.7L76.7,19.7z M78.4,19.4L78,16.7l-1.1,0.2l0.5,2.7L78.4,19.4L78.4,19.4z
			 M80.2,19.2l-0.3-2.7l-1.1,0.1l0.4,2.7L80.2,19.2L80.2,19.2z M81.9,19l-0.3-2.7l-1.1,0.1l0.3,2.7L81.9,19L81.9,19z M83.7,18.8
			l-0.2-2.7l-1.1,0.1l0.3,2.7L83.7,18.8L83.7,18.8z M85.4,18.7L85.3,16l-1.1,0.1l0.2,2.7L85.4,18.7L85.4,18.7z M87.2,18.6l-0.1-2.7
			L86,16l0.1,2.7L87.2,18.6L87.2,18.6z M89,18.6l0-2.7l-1.1,0l0.1,2.7L89,18.6L89,18.6z M47.5,13.4l-1.3-2.4L45,11.7l1.3,2.3
			L47.5,13.4L47.5,13.4z M49.4,12.4L48.2,10L47,10.6l1.3,2.4L49.4,12.4L49.4,12.4z M51.4,11.4L50.2,9L49,9.6l1.2,2.4L51.4,11.4
			L51.4,11.4z M53.3,10.5l-1.1-2.5l-1.3,0.6l1.2,2.4L53.3,10.5L53.3,10.5z M55.3,9.6l-1.1-2.5L53,7.7l1.1,2.5L55.3,9.6L55.3,9.6z
			 M57.3,8.8l-1-2.5L55,6.8l1,2.5L57.3,8.8L57.3,8.8z M59.3,8l-0.9-2.5L57.1,6l1,2.5L59.3,8L59.3,8z M61.3,7.3l-0.9-2.6l-1.3,0.4
			l0.9,2.5L61.3,7.3L61.3,7.3z M63.4,6.6l-0.8-2.6l-1.3,0.4l0.8,2.6L63.4,6.6L63.4,6.6z M65.5,6l-0.7-2.6l-1.3,0.4l0.8,2.6L65.5,6
			L65.5,6z M67.5,5.4l-0.7-2.6l-1.3,0.4l0.7,2.6L67.5,5.4L67.5,5.4z M69.6,5L69,2.3l-1.3,0.3l0.7,2.6L69.6,5L69.6,5z M71.7,4.5
			l-0.5-2.6l-1.3,0.3l0.6,2.6L71.7,4.5L71.7,4.5z M73.9,4.1l-0.5-2.7L72,1.7l0.5,2.6L73.9,4.1L73.9,4.1z M76,3.7L75.6,1l-1.4,0.2
			l0.5,2.7L76,3.7L76,3.7z M78.1,3.4l-0.3-2.7l-1.4,0.2l0.4,2.7L78.1,3.4L78.1,3.4z M80.3,3.2L80,0.5l-1.4,0.2l0.3,2.7L80.3,3.2
			L80.3,3.2z M82.4,3l-0.2-2.7l-1.4,0.1l0.3,2.7L82.4,3L82.4,3z M84.6,2.8l-0.1-2.7l-1.4,0.1l0.2,2.7L84.6,2.8L84.6,2.8z M86.7,2.8
			l-0.1-2.7l-1.4,0l0.1,2.7L86.7,2.8L86.7,2.8z M88.9,2.7l0-2.7l-1.4,0l0.1,2.7L88.9,2.7L88.9,2.7z"/>
		<path class="st2" d="M53.1,25.1l-2-3.5 M51.1,21.6c1.3-0.8,2.6-1.4,3.9-2.1 M55,19.5l-2.1-4.2 M52.9,15.3c1.4-0.7,2.8-1.3,4.2-2
			 M57.1,13.4l-1.5-3.6 M61.5,21L60,17.3 M60,17.3c1.4-0.5,2.7-1.1,4.1-1.5 M64.1,15.8l-1.5-4.5 M62.6,11.3c1.5-0.5,3-1,4.5-1.4
			 M67,9.9L66,6.1 M80.3,16.1l-0.5-4 M79.8,12.2c1.4-0.2,2.9-0.3,4.4-0.4 M84.1,11.8L83.8,7 M83.8,7c1.5-0.2,3.1-0.1,4.6-0.2
			 M88.5,6.9l0-4 M70.7,18l-1-3.9 M69.7,14.2c1.4-0.3,2.9-0.7,4.3-1 M74,13.2L73,8.6 M73,8.6c1.5-0.3,3.1-0.6,4.6-0.8 M77.6,7.8
			l-0.6-3.9"/>
		<path class="st1" d="M90.8,18.6l0.1-2.7l-1.1,0l0,2.7L90.8,18.6L90.8,18.6z M92.5,18.6l0.1-2.7l-1.1,0l-0.1,2.7L92.5,18.6
			L92.5,18.6z M94.3,18.8l0.2-2.7L93.3,16l-0.1,2.7L94.3,18.8L94.3,18.8z M96,18.9l0.3-2.7l-1.1-0.1l-0.2,2.7L96,18.9L96,18.9z
			 M97.8,19.1l0.3-2.7L97,16.3L96.7,19L97.8,19.1L97.8,19.1z M99.5,19.3l0.4-2.7l-1.1-0.1l-0.3,2.7L99.5,19.3L99.5,19.3z
			 M101.3,19.6l0.5-2.7l-1.1-0.2l-0.4,2.7L101.3,19.6L101.3,19.6z M103,19.9l0.5-2.6l-1.1-0.2l-0.5,2.7L103,19.9L103,19.9z
			 M104.7,20.3l0.6-2.6l-1.1-0.3l-0.5,2.6L104.7,20.3L104.7,20.3z M106.4,20.7l0.7-2.6l-1.1-0.3l-0.6,2.6L106.4,20.7L106.4,20.7z
			 M108.2,21.1l0.7-2.6l-1.1-0.3l-0.7,2.6L108.2,21.1L108.2,21.1z M109.8,21.6l0.8-2.6l-1.1-0.3l-0.7,2.6L109.8,21.6L109.8,21.6z
			 M111.5,22.1l0.8-2.6l-1.1-0.4l-0.8,2.6L111.5,22.1L111.5,22.1z M113.2,22.7l0.9-2.5l-1.1-0.4l-0.9,2.6L113.2,22.7L113.2,22.7z
			 M114.8,23.3l1-2.5l-1.1-0.4l-0.9,2.5L114.8,23.3L114.8,23.3z M116.5,24l1-2.5l-1.1-0.4l-1,2.5L116.5,24L116.5,24z M118.1,24.7
			l1.1-2.5l-1-0.5l-1.1,2.5L118.1,24.7L118.1,24.7z M119.7,25.4l1.2-2.4l-1-0.5l-1.1,2.5L119.7,25.4L119.7,25.4z M121.3,26.2
			l1.2-2.4l-1-0.5l-1.2,2.4L121.3,26.2L121.3,26.2z M122.8,27l1.3-2.4l-1-0.5l-1.2,2.4L122.8,27L122.8,27z M124.4,27.9l1.3-2.3
			l-1-0.6l-1.3,2.4L124.4,27.9L124.4,27.9z M91.1,2.7L91.1,0l-1.4,0l0,2.7L91.1,2.7L91.1,2.7z M93.2,2.8l0.1-2.7l-1.4,0l-0.1,2.7
			L93.2,2.8L93.2,2.8z M95.4,2.9l0.2-2.7l-1.4-0.1L94,2.8L95.4,2.9L95.4,2.9z M97.5,3.1l0.3-2.7l-1.4-0.1L96.2,3L97.5,3.1L97.5,3.1z
			 M99.7,3.3l0.3-2.7l-1.4-0.2l-0.3,2.7L99.7,3.3L99.7,3.3z M101.8,3.6l0.4-2.7l-1.4-0.2l-0.3,2.7L101.8,3.6L101.8,3.6z M103.9,3.9
			l0.5-2.7L103,1l-0.4,2.7L103.9,3.9L103.9,3.9z M106.1,4.3l0.5-2.6l-1.4-0.2l-0.5,2.7L106.1,4.3L106.1,4.3z M108.2,4.8l0.6-2.6
			l-1.3-0.3l-0.5,2.6L108.2,4.8L108.2,4.8z M110.3,5.3l0.7-2.6l-1.3-0.3L109,5L110.3,5.3L110.3,5.3z M112.4,5.8l0.7-2.6l-1.3-0.4
			l-0.7,2.6L112.4,5.8L112.4,5.8z M114.4,6.4l0.8-2.6l-1.3-0.4L113.2,6L114.4,6.4L114.4,6.4z M116.5,7.1l0.8-2.6L116,4.1l-0.8,2.6
			L116.5,7.1L116.5,7.1z M118.5,7.8l0.9-2.5l-1.3-0.4l-0.9,2.6L118.5,7.8L118.5,7.8z M120.6,8.5l1-2.5l-1.3-0.5L119.3,8L120.6,8.5
			L120.6,8.5z M122.6,9.3l1-2.5l-1.3-0.5l-1,2.5L122.6,9.3L122.6,9.3z M124.6,10.2l1.1-2.5l-1.3-0.6l-1.1,2.5L124.6,10.2L124.6,10.2
			z M126.5,11.1l1.2-2.4l-1.3-0.6l-1.1,2.5L126.5,11.1L126.5,11.1z M128.4,12l1.2-2.4L128.4,9l-1.2,2.4L128.4,12L128.4,12z
			 M130.4,13l1.3-2.4l-1.2-0.6l-1.2,2.4L130.4,13L130.4,13z M132.2,14.1l1.3-2.3l-1.2-0.7l-1.3,2.4L132.2,14.1L132.2,14.1z"/>
		<path class="st2" d="M90,15.6l0-4 M90.1,11.6c1.5,0.1,2.9,0,4.4,0.2 M94.5,11.7L94.8,7 M94.8,7c1.6,0.1,3.1,0.2,4.6,0.4 M99.4,7.5
			l0.5-3.9 M99.3,16.3l0.5-4 M99.9,12.3c1.5,0.1,2.9,0.5,4.4,0.7 M104.2,13l0.9-4.6 M105.1,8.4c1.5,0.3,3,0.7,4.6,1 M109.7,9.4
			l1-3.8 M118.1,21.4l1.6-3.7 M119.6,17.7c1.3,0.6,2.7,1.2,4,1.8 M123.6,19.5l2.1-4.2 M125.7,15.3c1.4,0.7,2.8,1.4,4.1,2.2
			 M129.8,17.5l1.9-3.4 M108.8,18.3l1.1-3.8 M109.9,14.4c1.4,0.4,2.8,0.8,4.2,1.3 M114.1,15.7l1.5-4.5 M115.6,11.2
			c1.5,0.5,2.9,1,4.4,1.6 M120,12.9l1.5-3.7"/>
		<path class="st1" d="M125.9,28.8l1.4-2.3l-1-0.6l-1.4,2.3L125.9,28.8L125.9,28.8z M127.4,29.7l1.5-2.3l-1-0.6l-1.4,2.3L127.4,29.7
			L127.4,29.7z M128.9,30.7l1.5-2.2l-1-0.6l-1.5,2.3L128.9,30.7L128.9,30.7z M130.3,31.7l1.6-2.2l-0.9-0.7l-1.5,2.2L130.3,31.7
			L130.3,31.7z M131.8,32.7l1.6-2.2l-0.9-0.7l-1.6,2.2L131.8,32.7L131.8,32.7z M133.1,33.8l1.7-2.1l-0.9-0.7l-1.6,2.1L133.1,33.8
			L133.1,33.8z M134.5,34.9l1.7-2.1 M136.2,32.8c-0.3-0.3-0.6-0.5-0.9-0.7 M135.4,32.1l-1.7,2.1 M133.7,34.2
			c0.3,0.2,0.6,0.4,0.9,0.7 M135.8,36.1l1.8-2l-0.9-0.7l-1.7,2.1L135.8,36.1L135.8,36.1z M137.2,37.2l1.8-2 M139,35.2
			c-0.3-0.3-0.6-0.5-0.8-0.8 M138.2,34.5l-1.8,2 M136.4,36.5c0.3,0.2,0.6,0.5,0.8,0.7 M138.4,38.5l1.9-1.9l-0.8-0.8l-1.8,2
			L138.4,38.5L138.4,38.5z M139.7,39.7l1.9-1.9l-0.8-0.8l-1.9,1.9L139.7,39.7L139.7,39.7z M140.9,41l2-1.8l-0.8-0.8l-1.9,1.9
			L140.9,41L140.9,41z M142.1,42.3l2-1.8 M144.1,40.5c-0.2-0.3-0.5-0.6-0.8-0.8 M143.4,39.6l-2,1.8 M141.4,41.4
			c0.3,0.3,0.5,0.5,0.7,0.8 M143.3,43.6l2.1-1.7l-0.7-0.9l-2,1.8L143.3,43.6L143.3,43.6z M144.4,45l2.1-1.7 M146.5,43.3
			c-0.2-0.3-0.5-0.6-0.7-0.9 M145.8,42.4l-2.1,1.7 M143.7,44.1c0.2,0.3,0.5,0.6,0.7,0.9 M145.5,46.3l2.1-1.6l-0.7-0.9l-2.1,1.7
			L145.5,46.3L145.5,46.3z M146.5,47.8l2.2-1.6l-0.7-0.9l-2.2,1.6L146.5,47.8L146.5,47.8z M147.6,49.2l2.2-1.5l-0.7-0.9l-2.2,1.6
			L147.6,49.2L147.6,49.2z M148.5,50.7l2.3-1.5l-0.6-1l-2.2,1.5L148.5,50.7L148.5,50.7z M149.5,52.1l2.3-1.4l-0.6-1l-2.3,1.5
			L149.5,52.1L149.5,52.1z M150.4,53.6l2.3-1.4l-0.6-1l-2.3,1.4L150.4,53.6L150.4,53.6z M134.1,15.2l1.4-2.3l-1.2-0.7l-1.4,2.3
			L134.1,15.2L134.1,15.2z M136,16.3l1.5-2.3l-1.2-0.7l-1.4,2.3L136,16.3L136,16.3z M137.8,17.5l1.5-2.2l-1.2-0.7l-1.5,2.3
			L137.8,17.5L137.8,17.5z M139.5,18.8l1.6-2.2l-1.1-0.8l-1.5,2.2L139.5,18.8L139.5,18.8z M141.3,20l1.6-2.2l-1.1-0.8l-1.6,2.2
			L141.3,20L141.3,20z M143,21.4l1.7-2.1l-1.1-0.9l-1.6,2.1L143,21.4L143,21.4z M144.7,22.7l1.7-2.1 M146.4,20.6
			c-0.3-0.3-0.7-0.6-1.1-0.9 M145.3,19.8l-1.7,2.1 M143.6,21.9c0.3,0.3,0.7,0.5,1,0.8 M146.3,24.1l1.8-2l-1-0.9l-1.7,2.1L146.3,24.1
			L146.3,24.1z M147.9,25.5l1.8-2 M149.7,23.6c-0.3-0.3-0.7-0.6-1-0.9 M148.7,22.6l-1.8,2 M146.9,24.7c0.3,0.3,0.7,0.6,1,0.9
			 M149.5,27l1.9-1.9l-1-1l-1.8,2L149.5,27L149.5,27z M151,28.5l1.9-1.9l-1-1l-1.9,1.9L151,28.5L151,28.5z M152.5,30.1l2-1.8l-1-1
			l-1.9,1.9L152.5,30.1L152.5,30.1z M154,31.7l2-1.8 M156,29.9c-0.3-0.3-0.6-0.7-0.9-1 M155.1,28.9l-2,1.8 M153.1,30.7
			c0.3,0.3,0.6,0.7,0.9,1 M155.4,33.3l2.1-1.7l-0.9-1l-2,1.8L155.4,33.3L155.4,33.3z M156.8,35l2.1-1.7 M158.9,33.3
			c-0.3-0.4-0.6-0.7-0.9-1.1 M158,32.2l-2.1,1.7 M155.9,33.9c0.3,0.3,0.6,0.7,0.8,1 M158.1,36.7l2.1-1.6l-0.9-1.1l-2.1,1.7
			L158.1,36.7L158.1,36.7z M159.4,38.4l2.2-1.6l-0.8-1.1l-2.2,1.6L159.4,38.4L159.4,38.4z M160.6,40.2l2.2-1.5l-0.8-1.1l-2.2,1.6
			L160.6,40.2L160.6,40.2z M161.8,42l2.3-1.5l-0.7-1.2l-2.2,1.5L161.8,42L161.8,42z M163,43.8l2.3-1.4l-0.7-1.2l-2.3,1.5L163,43.8
			L163,43.8z M164.1,45.6l2.3-1.4l-0.7-1.2l-2.3,1.4L164.1,45.6L164.1,45.6z"/>
		<path class="st2" d="M126.8,25.8l2-3.4 M128.8,22.4c1.3,0.7,2.5,1.6,3.7,2.3 M132.5,24.7l2.6-3.9 M135.2,20.8
			c1.3,0.9,2.6,1.8,3.8,2.7 M139,23.5l2.4-3.2 M134.5,31.1l2.4-3.2 M137,27.9c1.2,0.9,2.3,1.8,3.4,2.8 M140.4,30.7l3.1-3.6
			 M143.5,27.1c1.2,1,2.3,2.1,3.4,3.2 M146.9,30.3l2.8-2.8 M148.2,44.9l3.2-2.4 M151.4,42.5c0.9,1.2,1.7,2.4,2.5,3.6 M153.9,46.1
			l3.9-2.6 M157.8,43.4c0.8,1.3,1.7,2.6,2.5,3.9 M160.3,47.4l3.4-2 M141.7,37.6l2.8-2.8 M144.5,34.7c1,1.1,2.1,2.1,3,3.2 M147.5,38
			l3.5-3.1 M151.1,34.9c1,1.2,2,2.3,3,3.6 M154.1,38.4l3.1-2.4"/>
		<path class="st1" d="M151.3,55.2l2.4-1.3l-0.6-1l-2.3,1.3L151.3,55.2L151.3,55.2z M152.1,56.8l2.4-1.2l-0.5-1l-2.4,1.3L152.1,56.8
			L152.1,56.8z M152.9,58.3l2.4-1.2l-0.5-1l-2.4,1.2L152.9,58.3L152.9,58.3z M153.6,59.9l2.5-1.1l-0.5-1l-2.4,1.2L153.6,59.9
			L153.6,59.9z M154.4,61.5l2.5-1.1l-0.5-1l-2.5,1.1L154.4,61.5L154.4,61.5z M155,63.2l2.5-1l-0.4-1.1l-2.5,1L155,63.2L155,63.2z
			 M155.7,64.8l2.5-0.9l-0.4-1.1l-2.5,1L155.7,64.8L155.7,64.8z M156.2,66.5l2.6-0.9l-0.4-1.1l-2.5,0.9L156.2,66.5L156.2,66.5z
			 M156.8,68.1l2.6-0.8l-0.4-1.1l-2.6,0.8L156.8,68.1L156.8,68.1z M157.3,69.8l2.6-0.7l-0.3-1.1l-2.6,0.8L157.3,69.8L157.3,69.8z
			 M157.8,71.5l2.6-0.7l-0.3-1.1l-2.6,0.7L157.8,71.5L157.8,71.5z M158.2,73.2l2.6-0.6l-0.3-1.1l-2.6,0.7L158.2,73.2L158.2,73.2z
			 M158.6,75l2.6-0.5l-0.3-1.1l-2.6,0.6L158.6,75L158.6,75z M158.9,76.7l2.7-0.5l-0.2-1.1l-2.6,0.5L158.9,76.7L158.9,76.7z
			 M159.2,78.4l2.7-0.4l-0.2-1.1l-2.7,0.5L159.2,78.4L159.2,78.4z M159.4,80.2l2.7-0.3l-0.1-1.1l-2.7,0.4L159.4,80.2L159.4,80.2z
			 M159.7,81.9l2.7-0.3l-0.1-1.1l-2.7,0.3L159.7,81.9L159.7,81.9z M159.8,83.7l2.7-0.2l-0.1-1.1l-2.7,0.3L159.8,83.7L159.8,83.7z
			 M159.9,85.4l2.7-0.1l-0.1-1.1l-2.7,0.2L159.9,85.4L159.9,85.4z M160,87.2l2.7-0.1l0-1.1l-2.7,0.1L160,87.2L160,87.2z M160,89
			l2.7,0l0-1.1l-2.7,0.1L160,89L160,89z M165.2,47.5l2.4-1.3l-0.7-1.2l-2.3,1.3L165.2,47.5L165.2,47.5z M166.2,49.4l2.4-1.2L168,47
			l-2.4,1.3L166.2,49.4L166.2,49.4z M167.2,51.4l2.4-1.2L169,49l-2.4,1.2L167.2,51.4L167.2,51.4z M168.1,53.3l2.5-1.1l-0.6-1.3
			l-2.4,1.2L168.1,53.3L168.1,53.3z M169,55.3l2.5-1.1l-0.6-1.3l-2.5,1.1L169,55.3L169,55.3z M169.8,57.3l2.5-1l-0.5-1.3l-2.5,1
			L169.8,57.3L169.8,57.3z M170.6,59.3l2.5-0.9l-0.5-1.3l-2.5,1L170.6,59.3L170.6,59.3z M171.3,61.3l2.6-0.9l-0.4-1.3l-2.5,0.9
			L171.3,61.3L171.3,61.3z M172,63.4l2.6-0.8l-0.4-1.3l-2.6,0.8L172,63.4L172,63.4z M172.6,65.5l2.6-0.7l-0.4-1.3l-2.6,0.8
			L172.6,65.5L172.6,65.5z M173.2,67.5l2.6-0.7l-0.4-1.3l-2.6,0.7L173.2,67.5L173.2,67.5z M173.6,69.6l2.6-0.6l-0.3-1.3l-2.6,0.7
			L173.6,69.6L173.6,69.6z M174.1,71.7l2.6-0.5l-0.3-1.3l-2.6,0.6L174.1,71.7L174.1,71.7z M174.5,73.9l2.7-0.5l-0.2-1.4l-2.6,0.5
			L174.5,73.9L174.5,73.9z M174.9,76l2.7-0.4l-0.2-1.4l-2.7,0.5L174.9,76L174.9,76z M175.2,78.1l2.7-0.3l-0.2-1.4l-2.7,0.4
			L175.2,78.1L175.2,78.1z M175.4,80.3l2.7-0.3l-0.2-1.4l-2.7,0.3L175.4,80.3L175.4,80.3z M175.6,82.4l2.7-0.2l-0.1-1.4l-2.7,0.3
			L175.6,82.4L175.6,82.4z M175.8,84.6l2.7-0.1l-0.1-1.4l-2.7,0.2L175.8,84.6L175.8,84.6z M175.9,86.7l2.7-0.1l0-1.4l-2.7,0.1
			L175.9,86.7L175.9,86.7z M175.9,88.9l2.7,0l0-1.4l-2.7,0.1L175.9,88.9L175.9,88.9z"/>
		<path class="st2" d="M153.5,53.1l3.5-2 M157,51.1c0.8,1.3,1.4,2.6,2.1,3.9 M159.1,55l4.2-2.1 M163.3,52.9c0.7,1.4,1.3,2.8,2,4.2
			 M165.3,57.1l3.6-1.5 M157.6,61.5l3.7-1.5 M161.3,60c0.5,1.4,1.1,2.7,1.5,4.1 M162.8,64.1l4.5-1.5 M167.3,62.6
			c0.5,1.5,1,3,1.4,4.5 M168.7,67l3.8-1.1 M162.5,80.3l4-0.5 M166.4,79.8c0.2,1.4,0.3,2.9,0.4,4.4 M166.9,84.1l4.7-0.3 M171.6,83.8
			c0.2,1.5,0.1,3.1,0.2,4.6 M171.7,88.5l4,0 M160.6,70.7l3.9-1 M164.4,69.7c0.3,1.4,0.7,2.9,1,4.3 M165.4,74L170,73 M170,73
			c0.3,1.5,0.6,3.1,0.8,4.6 M170.8,77.6l3.9-0.6"/>
	</g>
	<g>
		<path class="st3" d="M89.3,146.6c-15.6,0-28.3,6.8-28.3,15.1c0,8.4,12.7,15.1,28.3,15.1c15.6,0,28.3-6.8,28.3-15.1
			C117.7,153.4,105,146.6,89.3,146.6L89.3,146.6z M89.3,175.1L89.3,175.1c-13.8,0-25-6-25-13.4c0-7.4,11.2-13.4,25-13.4
			c13.8,0,25,6,25,13.4C114.3,169.2,103.2,175.1,89.3,175.1L89.3,175.1z M89.7,175.1L89.7,175.1c-13.8,0-25-6-25-13.4
			c0-7.4,11.2-13.4,25-13.4c13.8,0,25,6,25,13.4C114.7,169.2,103.5,175.1,89.7,175.1L89.7,175.1z"/>
		<path class="st3" d="M82.3,176.2c0-1.4-7.2-0.5-2.9-2.4c3.7-1.6,4.5,0.6,9.4,0.7c5.2,0.1,10.4-3.1,7.3,0.2c-1.8,1.9,0,1.1-0.1,2.6
			c-0.1,1.4,4.6,2.5,1.6,2.2c-1.4-0.2,1.4,0.1-2,0c-2.2-0.1-1.8,0.3-6.7,0.3c-5.4,0-6.2-0.7-8.1-0.3c-2.8,0.5-0.2-0.3-1.7-0.2
			C73.4,179.8,82.3,177.7,82.3,176.2L82.3,176.2z"/>
		<path class="st3" d="M81.1,144.9c0-1.4-10.1-1.1-5.8-3c3.7-1.6,9.4,1.7,14.3,1.8c5.2,0.1,10.7-3.8,7.5-0.6
			c-1.8,1.9-2.3,1.6-1.1,3.1c0.9,1,5.4,2.8,2.3,2.5c-1.4-0.2,2.6,1.7-0.8,1.6c-2.2-0.1-3.1-1.2-7.9-1.2c-5.4,0-7.3,0.9-9.1,1.2
			c-2.8,0.5-1.7-1.8-0.7-2.8C81.6,145.7,81.1,146.4,81.1,144.9L81.1,144.9z"/>
		<path class="st3" d="M95.4,149.2c-0.4-0.3-1.1-1.8-0.9-3.3c0.3-1.5,1-3,2.3-3.6c1.3-0.6,2.5-0.9,6.1-0.6c3.5,0.3,4.3,2,6.1,3.2
			c2.8,2,4.4,4.9,5.9,6.1c1.5,1.2,3.3,2.2,5.5,2.8s3.2-0.1,3.8-0.6c0.5-0.5,0.4-1.2,0.4-1.2c0.2-0.7,0-0.9-0.7-0.9
			c-0.7,0,0.7,2-0.9,2.1c-1.6,0.2-2-1.3-1.7-2.9c0.2-0.9,2.3-1.7,3.5-1c1.2,0.7,1.5,2.2,1.3,3.1c-0.2,0.9-1.5,2.1-2.5,2.6
			c-1.1,0.5-2.9,0.2-4.5-0.2c-1.6-0.3-4.5-2.6-5-3.2c-0.5-0.7-2.1,0.5-2.3-0.5c-0.2-1-2.3-3.7-2.8-4.4c-0.5-0.7-0.4,1.4-0.6,1.7
			c-0.2,0.3-1.2,0.9-1.1,0.3c0.2-0.7-3.2-5.4-4-5.6c-0.9-0.2,0.2,1.5,0.9,2.2c0.7,0.7-1.1,0.3-1.1,0.3s0.8,1.5,0.1,1.7
			c-0.7,0.2-0.9-1.5-1.6-1.7c-0.8-0.2-2.5-1.3-3.5-1.3c-1.1,0-2.3,1.4-2.3,2.9c0,1.5,2.7,1.8,2.2,1.5c-0.5-0.3-1.3-2.3,0.6-2.5
			c0.9-0.1,2,1.3,1.5,2.1c-0.5,0.9-1.1,2.2-3.4,1.6L95.4,149.2L95.4,149.2z"/>
		<path class="st3" d="M95.4,174.1c-0.3,0.2-0.7,1.4-0.4,2.5c0.2,1.1,0.8,2.2,1.9,2.6c1.1,0.4,2.1,0.7,5.1,0.4
			c2.9-0.2,3.6-1.4,5.2-2.4c2.4-1.4,3.7-3.5,4.9-4.4c1.3-0.9,2.8-1.6,4.6-2c1.8-0.4,2.7,0.1,3.2,0.4c0.4,0.4,0.4,0.9,0.4,0.9
			c0.1,0.5,0,0.7-0.6,0.7c-0.6,0,0.6-1.4-0.7-1.5c-1.3-0.1-1.7,0.9-1.4,2.1c0.2,0.7,1.9,1.2,2.9,0.7c1-0.5,1.3-1.6,1.1-2.2
			c-0.1-0.6-1.3-1.5-2.1-1.9c-0.9-0.4-2.4-0.1-3.8,0.1c-1.3,0.2-3.8,1.9-4.2,2.3c-0.4,0.5-1.8-0.4-1.9,0.4c-0.1,0.7-1.9,2.7-2.4,3.2
			c-0.4,0.5-0.4-1-0.5-1.2c-0.1-0.2-1-0.7-0.9-0.2c0.1,0.5-2.6,3.9-3.4,4c-0.7,0.1,0.1-1.1,0.7-1.6c0.6-0.5-1-0.2-1-0.2
			s0.7-1.1,0.1-1.2c-0.6-0.1-0.7,1.1-1.3,1.2c-0.6,0.1-2.1,0.9-2.9,0.9c-0.9,0-1.9-1-1.9-2.1c0-1.1,2.3-1.3,1.8-1.1
			c-0.4,0.2-1.1,1.7,0.5,1.8c0.7,0.1,1.7-0.9,1.3-1.5c-0.4-0.6-1.6-1.7-3.1-1.2L95.4,174.1L95.4,174.1z"/>
		<path class="st3" d="M109.3,148.8c0,0-0.4,1.3,0.1,1.7c0.4,0.4,1.1,0.3,1-0.1c-0.1-0.4-0.1-1-0.4-1.2
			C109.7,149.1,109.3,148.8,109.3,148.8L109.3,148.8z"/>
		<path class="st3" d="M104.9,147c0,0,0,0.8,0.7,1.4c0.7,0.6,0.6-0.5,0.6-0.5L104.9,147L104.9,147z"/>
		<path class="st3" d="M113.6,152.8c0.3,0.1,4.6,3.1,4.6,7.6c1.8-0.3,1.3-0.9,1.2-1.3c-0.1-0.4-0.9-0.8-0.9-0.8s0.7-1.4,1.9-1.2
			c1.2,0.2,2.4,0.8,4.1,0.7c1.8-0.1,4.5-0.1,4.6-1.1c0.1-0.9,2.8-3.1-1.1-3.8c-2.2-0.3-1.6,1.7-4.1,2.6c-2.6,1-4.8,0.3-6.1-0.5
			C116.6,154.3,113.6,152.8,113.6,152.8L113.6,152.8z"/>
		<path class="st3" d="M82.2,149.6c0.3-0.3,0.8-1.9,0.5-3.4c-0.3-1.5-1-3-2.2-3.6c-1.3-0.6-2.5-0.9-6-0.6c-3.5,0.3-4.2,2-6,3.2
			c-2.8,2-4.3,4.9-5.8,6.1c-1.5,1.2-3.3,2.2-5.4,2.8c-2.2,0.6-3.2-0.1-3.7-0.6c-0.5-0.5-0.4-1.2-0.4-1.2c-0.2-0.7,0-0.9,0.7-0.9
			c0.7,0-0.7,2,0.9,2.1c1.6,0.2,2-1.3,1.6-2.9c-0.2-0.9-2.2-1.7-3.5-1c-1.2,0.7-1.5,2.2-1.3,3.1c0.2,0.9,1.5,2.1,2.5,2.6
			c1,0.5,2.9,0.2,4.4-0.2c1.6-0.3,4.4-2.6,4.9-3.2c0.5-0.7,2.1,0.5,2.2-0.5c0.2-1,2.2-3.7,2.8-4.4c0.5-0.7,0.4,1.4,0.6,1.7
			c0.2,0.3,1.2,0.9,1,0.3c-0.2-0.7,3.1-5.4,4-5.6c0.9-0.2-0.2,1.5-0.9,2.2c-0.7,0.7,1.1,0.3,1.1,0.3s-0.8,1.5-0.1,1.7
			c0.7,0.2,0.9-1.5,1.6-1.7c0.8-0.2,2.4-1.3,3.5-1.3c1,0,2.2,1.4,2.2,2.9c0,1.5-2.7,1.8-2.2,1.5c0.5-0.3,1.3-2.3-0.6-2.5
			c-0.9-0.1-1.6,1.1-1.5,2.1c0.1,0.8,1,1.9,3.4,1.6L82.2,149.6L82.2,149.6z"/>
		<path class="st3" d="M81.8,174.4c0.3,0.2,0.7,1.4,0.4,2.5c-0.2,1.1-0.8,2.2-1.9,2.6c-1.1,0.4-2.1,0.7-5,0.4
			c-2.9-0.2-3.6-1.4-5.1-2.4c-2.3-1.4-3.6-3.5-4.9-4.4c-1.2-0.9-2.8-1.6-4.6-2c-1.8-0.4-2.7,0.1-3.1,0.4c-0.4,0.4-0.4,0.9-0.4,0.9
			c-0.1,0.5,0,0.7,0.6,0.7c0.6,0-0.6-1.4,0.7-1.5c1.3-0.1,1.7,0.9,1.4,2.1c-0.2,0.7-1.9,1.2-2.9,0.7c-1-0.5-1.2-1.6-1.1-2.2
			c0.1-0.6,1.2-1.5,2.1-1.9c0.9-0.4,2.4-0.1,3.7,0.1c1.3,0.2,3.7,1.9,4.1,2.3c0.4,0.5,1.7-0.4,1.9,0.4c0.1,0.7,1.9,2.7,2.3,3.2
			c0.4,0.5,0.4-1,0.5-1.2c0.1-0.2,1-0.7,0.9-0.2c-0.1,0.5,2.6,3.9,3.3,4c0.7,0.1-0.1-1.1-0.7-1.6c-0.6-0.5,0.9-0.2,0.9-0.2
			s-0.7-1.1-0.1-1.2c0.6-0.1,0.7,1.1,1.3,1.2c0.6,0.1,2,0.9,2.9,0.9c0.9,0,1.9-1,1.9-2.1c0-1.1-2.2-1.3-1.8-1.1
			c0.4,0.2,1.1,1.7-0.5,1.8c-0.7,0.1-1.7-0.9-1.2-1.5c0.4-0.6,1.6-1.7,3-1.2L81.8,174.4L81.8,174.4z"/>
		<path class="st3" d="M65,152.7c-0.3,0.1-4.5,3.7-4.6,8.2c-1.8-0.3-2.4-0.9-2.3-1.4c0.1-0.4,0.9-0.8,0.9-0.8s-0.7-1.4-1.9-1.2
			c-1.2,0.2-2.3,0.8-4.1,0.7c-1.7-0.1-4.4-0.1-4.5-1.1c-0.1-0.9-2.7-3.1,1.1-3.8c2.2-0.3,1.6,1.7,4.1,2.6c2.6,1,4.8,0.3,6-0.5
			C60.9,154.6,65,152.7,65,152.7L65,152.7z"/>
		<path class="st3" d="M118.8,161.3c-0.5,0.9-0.4,3.7,2.7,4.4c3.2,0.7,4.5-1.6,5.1-2.4c0.6-0.8,0.2-3.3-1.4-3.9
			c-1.6-0.6-2.6-0.2-2.6-0.2s1.1,1.5,1.8,1.5c0.7,0.1,1.4,0.3,1.1,1.2c-0.4,0.9-0.4,1.7-1.8,2.2c-1.4,0.5-2.7,0.4-3.6-0.4
			C119.2,162.8,118.8,161.3,118.8,161.3L118.8,161.3z"/>
		<path class="st3" d="M120.8,160.9c0,0-1.5,0.3-0.9,1.2c0.6,0.9,1.6,0.2,1.5-0.2C121.4,161.6,120.8,160.9,120.8,160.9L120.8,160.9z
			"/>
		<path class="st3" d="M121.6,159.3c0,0-0.3,1.5,0.4,1.7c0.6,0.3,0.5,0.6,0.3,1.1c-0.3,0.5-1.5,0.9-0.9,1.2c0.6,0.3,1.3,0.3,2,0.1
			c0.7-0.3,1.4-1.5,1.1-1.8c-0.3-0.3-1.8-1.2-2-1.6C122.2,159.5,121.6,159.3,121.6,159.3L121.6,159.3z"/>
		<path class="st3" d="M116.4,167.3c-0.6,0.8,1.5-2.5,1.5-3c0-0.5,2.1,2.3,2.6,2.5c0.5,0.2-0.4,0.6-1.2,0.8
			C118.6,167.7,116.4,167.3,116.4,167.3L116.4,167.3z"/>
		<path class="st3" d="M59.5,161.3c0.5,0.9,0.4,3.7-2.7,4.4c-3.2,0.7-4.5-1.6-5.1-2.4c-0.6-0.8-0.2-3.3,1.4-3.9
			c1.6-0.6,2.6-0.2,2.6-0.2s-1.1,1.5-1.9,1.5c-0.7,0.1-1.4,0.3-1.1,1.2c0.4,0.9,0.4,1.7,1.8,2.2c1.4,0.5,2.7,0.4,3.6-0.4
			C59.2,162.8,59.5,161.3,59.5,161.3L59.5,161.3z"/>
		<path class="st3" d="M57.5,160.9c0,0,1.5,0.3,0.9,1.2c-0.6,0.9-1.6,0.2-1.5-0.2C57,161.6,57.5,160.9,57.5,160.9L57.5,160.9z"/>
		<path class="st3" d="M56.7,159.3c0,0,0.3,1.5-0.4,1.7c-0.6,0.3-0.5,0.6-0.3,1.1c0.3,0.5,1.5,0.9,0.9,1.2c-0.6,0.3-1.3,0.3-2,0.1
			c-0.7-0.3-1.4-1.5-1.1-1.8c0.3-0.3,1.8-1.2,2-1.6C56.1,159.5,56.7,159.3,56.7,159.3L56.7,159.3z"/>
		<path class="st3" d="M61.9,167.3c0.6,0.8-1.5-2.5-1.5-3c0-0.5-2.1,2.3-2.6,2.5c-0.5,0.2,0.4,0.6,1.2,0.8
			C59.8,167.7,61.9,167.3,61.9,167.3L61.9,167.3z"/>
	</g>
	<g>
		<path class="st0" d="M74.8,162.7c-0.2,1-0.6,1.8-1.3,2.3c-0.6,0.5-1.3,0.8-2.1,0.8c-0.9,0-1.7-0.4-2.4-1.1c-0.7-0.7-1-1.7-1-2.9
			c0-1.2,0.4-2.2,1.1-2.9c0.8-0.7,1.7-1.1,2.7-1.1c0.8,0,1.4,0.2,1.9,0.6c0.5,0.4,0.8,0.8,0.8,1.2c0,0.2-0.1,0.4-0.2,0.5
			c-0.1,0.1-0.3,0.2-0.6,0.2c-0.3,0-0.6-0.1-0.8-0.3c-0.1-0.1-0.2-0.3-0.2-0.7c0-0.3-0.2-0.6-0.4-0.7c-0.2-0.2-0.5-0.2-0.9-0.2
			c-0.6,0-1.1,0.2-1.4,0.6c-0.5,0.5-0.7,1.3-0.7,2.2c0,0.9,0.2,1.7,0.7,2.4c0.5,0.7,1.1,1,1.9,1c0.6,0,1.1-0.2,1.5-0.6
			c0.3-0.3,0.6-0.7,0.9-1.4L74.8,162.7L74.8,162.7z"/>
		<path class="st0" d="M80.5,164.5c-0.8,0.6-1.3,1-1.6,1c-0.3,0.1-0.7,0.2-1,0.2c-0.6,0-1-0.2-1.4-0.5c-0.4-0.4-0.5-0.8-0.5-1.4
			c0-0.4,0.1-0.7,0.3-1c0.2-0.4,0.7-0.7,1.3-1.1c0.6-0.3,1.6-0.7,3-1.2v-0.3c0-0.8-0.1-1.3-0.4-1.6c-0.3-0.3-0.6-0.4-1.1-0.4
			c-0.4,0-0.7,0.1-0.9,0.3c-0.2,0.2-0.3,0.4-0.3,0.6l0,0.5c0,0.3-0.1,0.5-0.2,0.6c-0.1,0.1-0.3,0.2-0.5,0.2c-0.2,0-0.4-0.1-0.5-0.2
			c-0.1-0.1-0.2-0.3-0.2-0.6c0-0.5,0.3-0.9,0.8-1.3c0.5-0.4,1.2-0.6,2.2-0.6c0.7,0,1.3,0.1,1.8,0.3c0.3,0.2,0.6,0.4,0.8,0.8
			c0.1,0.2,0.2,0.7,0.2,1.5v2.6c0,0.7,0,1.2,0,1.3c0,0.2,0.1,0.3,0.1,0.3c0.1,0.1,0.1,0.1,0.2,0.1c0.1,0,0.2,0,0.2-0.1
			c0.1-0.1,0.4-0.3,0.7-0.6v0.5c-0.7,0.8-1.3,1.2-1.9,1.2c-0.3,0-0.5-0.1-0.7-0.3C80.6,165.3,80.5,165,80.5,164.5L80.5,164.5z
			 M80.5,164L80.5,164v-2.9c-0.9,0.3-1.5,0.6-1.7,0.7c-0.5,0.2-0.8,0.5-1,0.8c-0.2,0.3-0.3,0.6-0.3,0.9c0,0.4,0.1,0.7,0.4,1
			c0.3,0.3,0.5,0.4,0.9,0.4C79.2,164.8,79.8,164.5,80.5,164L80.5,164z"/>
		<path class="st0" d="M83.5,158h3.8v0.3H87c-0.2,0-0.4,0.1-0.5,0.2c-0.1,0.1-0.2,0.2-0.2,0.4c0,0.2,0.1,0.4,0.2,0.7l1.9,4.2
			l1.9-4.4c0.1-0.3,0.2-0.5,0.2-0.7c0-0.1,0-0.1-0.1-0.2c-0.1-0.1-0.1-0.1-0.2-0.2c-0.1,0-0.3,0-0.6,0V158h2.6v0.3
			c-0.3,0-0.5,0.1-0.6,0.2c-0.2,0.2-0.4,0.4-0.6,0.8l-2.9,6.5h-0.4l-2.9-6.4c-0.1-0.3-0.3-0.5-0.4-0.6c-0.1-0.1-0.3-0.2-0.4-0.3
			c-0.1,0-0.3-0.1-0.6-0.1V158L83.5,158z"/>
		<path class="st0" d="M95.7,157.8v6.1c0,0.5,0,0.8,0.1,1c0.1,0.2,0.2,0.3,0.3,0.4c0.1,0.1,0.4,0.1,0.8,0.1v0.3H93v-0.3
			c0.4,0,0.7,0,0.8-0.1c0.1-0.1,0.2-0.2,0.3-0.4c0.1-0.2,0.1-0.5,0.1-1V161c0-0.8,0-1.4-0.1-1.6c0-0.2-0.1-0.3-0.2-0.4
			c-0.1-0.1-0.2-0.1-0.4-0.1c-0.2,0-0.4,0-0.6,0.1l-0.1-0.3l2.4-0.9H95.7L95.7,157.8z M95,153.8L95,153.8c0.2,0,0.5,0.1,0.6,0.2
			c0.2,0.2,0.3,0.4,0.3,0.6c0,0.2-0.1,0.4-0.3,0.6c-0.2,0.2-0.4,0.2-0.6,0.2c-0.2,0-0.5-0.1-0.6-0.2c-0.2-0.2-0.3-0.4-0.3-0.6
			c0-0.2,0.1-0.4,0.3-0.6C94.5,153.9,94.7,153.8,95,153.8L95,153.8z"/>
		<path class="st0" d="M102.5,164.5c-0.8,0.6-1.3,1-1.6,1c-0.3,0.1-0.7,0.2-1,0.2c-0.6,0-1-0.2-1.4-0.5c-0.4-0.4-0.5-0.8-0.5-1.4
			c0-0.4,0.1-0.7,0.3-1c0.2-0.4,0.7-0.7,1.3-1.1c0.6-0.3,1.6-0.7,3-1.2v-0.3c0-0.8-0.1-1.3-0.4-1.6c-0.3-0.3-0.6-0.4-1.1-0.4
			c-0.4,0-0.7,0.1-0.9,0.3c-0.2,0.2-0.3,0.4-0.3,0.6l0,0.5c0,0.3-0.1,0.5-0.2,0.6c-0.1,0.1-0.3,0.2-0.5,0.2c-0.2,0-0.4-0.1-0.5-0.2
			c-0.1-0.1-0.2-0.3-0.2-0.6c0-0.5,0.3-0.9,0.8-1.3c0.5-0.4,1.2-0.6,2.2-0.6c0.7,0,1.3,0.1,1.8,0.3c0.3,0.2,0.6,0.4,0.8,0.8
			c0.1,0.2,0.2,0.7,0.2,1.5v2.6c0,0.7,0,1.2,0,1.3c0,0.2,0.1,0.3,0.1,0.3c0.1,0.1,0.1,0.1,0.2,0.1c0.1,0,0.2,0,0.2-0.1
			c0.1-0.1,0.4-0.3,0.7-0.6v0.5c-0.7,0.8-1.3,1.2-1.9,1.2c-0.3,0-0.5-0.1-0.7-0.3C102.5,165.3,102.5,165,102.5,164.5L102.5,164.5z
			 M102.5,164L102.5,164v-2.9c-0.9,0.3-1.5,0.6-1.7,0.7c-0.5,0.2-0.8,0.5-1,0.8c-0.2,0.3-0.3,0.6-0.3,0.9c0,0.4,0.1,0.7,0.4,1
			c0.3,0.3,0.5,0.4,0.9,0.4C101.1,164.8,101.7,164.5,102.5,164L102.5,164z"/>
		<path class="st0" d="M108.2,157.8v1.7c0.7-1.1,1.4-1.7,2.1-1.7c0.3,0,0.6,0.1,0.8,0.3c0.2,0.2,0.3,0.4,0.3,0.6
			c0,0.2-0.1,0.4-0.2,0.5c-0.2,0.1-0.3,0.2-0.5,0.2c-0.2,0-0.4-0.1-0.7-0.3c-0.3-0.2-0.4-0.3-0.6-0.3c-0.1,0-0.2,0.1-0.3,0.2
			c-0.3,0.2-0.5,0.6-0.8,1.1v3.6c0,0.4,0.1,0.7,0.2,1c0.1,0.1,0.2,0.3,0.4,0.4c0.2,0.1,0.5,0.1,0.8,0.1v0.3h-4.1v-0.3
			c0.4,0,0.7-0.1,0.9-0.2c0.1-0.1,0.2-0.2,0.3-0.4c0-0.1,0-0.4,0-0.8V161c0-0.9,0-1.4-0.1-1.6c0-0.2-0.1-0.3-0.2-0.4
			c-0.1-0.1-0.2-0.1-0.4-0.1c-0.2,0-0.4,0-0.6,0.1l-0.1-0.3l2.4-0.9H108.2L108.2,157.8z"/>
	</g>
</g>
</svg>
