<?xml version="1.0" encoding="utf-8"?>
<!-- Generator: Adobe Illustrator 21.1.0, SVG Export Plug-In . SVG Version: 6.00 Build 0)  -->
<!DOCTYPE svg PUBLIC "-//W3C//DTD SVG 1.1//EN" "http://www.w3.org/Graphics/SVG/1.1/DTD/svg11.dtd">
<svg version="1.1" id="Layer_1" xmlns="http://www.w3.org/2000/svg" xmlns:xlink="http://www.w3.org/1999/xlink" x="0px" y="0px"
	 viewBox="0 0 1000 170" style="enable-background:new 0 0 1000 170;" xml:space="preserve">
<style type="text/css">
	.st0{filter:url(#Adobe_OpacityMaskFilter);}
	.st1{fill:#FFFFFF;}
	.st2{mask:url(#SVGID_1_);fill:#FFFFFF;}
</style>
<g id="Group">
	<defs>
		<filter id="Adobe_OpacityMaskFilter" filterUnits="userSpaceOnUse" x="0" y="0" width="1000" height="170">
			
				<feColorMatrix  type="matrix" values="-1 0 0 0 1  0 -1 0 0 1  0 0 -1 0 1  0 0 0 1 0" color-interpolation-filters="sRGB" result="source"/>
			<feFlood  style="flood-color:white;flood-opacity:1" result="back"/>
			<feBlend  in="source" in2="back" mode="normal"/>
		</filter>
	</defs>
	<mask maskUnits="userSpaceOnUse" x="0" y="0" width="1000" height="170" id="SVGID_1_">
		<g class="st0">
			<g>
				<g>
					<path class="st1" d="M121,130H57c-6.1,0-11-4.9-11-11V52c0-6.1,4.9-11,11-11h64v11H58l-0.2,67l63.2,0.2V130z"/>
					<path class="st1" d="M411,130h-58c-6.1,0-11-4.9-11-11V85c0-6.1,4.9-11,11-11h58c6.1,0,11,4.9,11,11v34
						C421.9,125,417,130,411,130z M353,84.9l-0.2,34.1l58,0.2c0.1,0,0.2-0.1,0.2-0.2V85L353,84.9z"/>
					<path class="st1" d="M341.3,55.2c0-6.2,5-11.2,11.2-11.2H417v11h-64.5L341.3,55.2z"/>
					<path class="st1" d="M612,130h-63c-6.1,0-11-4.9-11-11V85c0-6.1,4.9-11,11-11h63v11h-63l-0.2,34l63.2,0.2V130z"/>
					<path class="st1" d="M536.3,55.2c0-6.2,5-11.2,11.2-11.2H612v11h-64.5L536.3,55.2z"/>
					<path class="st1" d="M801,130h-63c-6.1,0-11-4.9-11-11V85c0-6.1,4.9-11,11-11h63v11h-63l-0.2,34l63.2,0.2V130z"/>
					<path class="st1" d="M725.3,55.2c0-6.2,5-11.2,11.2-11.2H801v11h-64.5L725.3,55.2z"/>
					<path class="st1" d="M221,130h-11V97l-58-0.2l-0.2,33.2H141V97c0-6.1,4.9-11,11-11h58c6.1,0,11,4.9,11,11V130z"/>
					<path class="st1" d="M317,130.1l-6.7-31.8c-0.2-0.8-0.3-1.1-0.4-1.2c0,0-0.3-0.1-1.1-0.1h-55.6c-0.8,0-1.1,0.1-1.2,0.1
						c0,0-0.2,0.3-0.3,1L245,130h-10.3l6.8-33.8c0.7-3.8,3.3-10.2,12.3-10.2h55.7c8.9,0,11.5,6.2,12.3,10l7.1,34H317V130.1z"/>
					<path class="st1" d="M304,79.1l-6-22.9c-0.2-0.8-0.3-1.1-0.4-1.1c0,0-0.3-0.1-1.1-0.1h-29.2c-0.8,0-1.1,0.1-1.2,0.1
						c0,0-0.2,0.3-0.3,1l-0.1,0.4L259.8,79h-11.2l6.2-25.3c0.8-3.7,3.4-9.7,12-9.7h29.4c8.6,0,11.2,5.9,12,9.7l6.2,25.3L304,79.1
						L304,79.1z"/>
					<rect x="210" y="44" class="st1" width="11" height="35"/>
					<rect x="141" y="44" class="st1" width="11" height="35"/>
					<path class="st1" d="M712,130h-11V97l-58-0.2l-0.2,33.2H632V97c0-6.1,4.9-11,11-11h58c6.1,0,11,4.9,11,11V130z"/>
					<rect x="701" y="44" class="st1" width="11" height="35"/>
					<rect x="632" y="44" class="st1" width="11" height="35"/>
					<path class="st1" d="M890,130h-58c-6.1,0-11-4.9-11-11V44h11v75l58,0.2l0.2-75.2H901v75.1C901,125,896,130,890,130z"/>
					<rect x="909" y="99" class="st1" width="11" height="31"/>
					<rect x="512" y="44" class="st1" width="11" height="35"/>
					<rect x="474" y="44" class="st1" width="11" height="35"/>
					<path class="st1" d="M512.1,86H448c-6.1,0-11,4.9-11,11v33h11l0.2-33l26.8,0.1V130h10V97l27,0.1V130h11V97
						C523.1,90.9,518.2,86,512.1,86z"/>
					<rect x="437" y="44" class="st1" width="11" height="35"/>
				</g>
			</g>
		</g>
	</mask>
	<polygon class="st2" points="949,170 0,170 0,0 949,0 1000,85 	"/>
</g>
</svg>
